<svg id="svg" version="1.1" xmlns="http://www.w3.org/2000/svg" width="400" height="309.09090909090907"
     viewBox="0, 0, 400,309.09090909090907">
    <g id="svgg">
        <path id="path0"
              d="M0.000 154.500 L 0.000 309.000 200.000 309.000 L 400.000 309.000 400.000 154.500 L 400.000 0.000 200.000 0.000 L 0.000 0.000 0.000 154.500 M80.167 74.750 L 80.167 114.667 120.083 114.667 L 160.000 114.667 160.000 74.750 L 160.000 34.833 200.000 34.833 L 240.000 34.833 240.000 74.750 L 240.000 114.667 279.917 114.667 L 319.833 114.667 319.833 74.750 L 319.833 34.833 359.750 34.833 L 399.667 34.833 399.667 74.750 L 399.667 114.667 359.750 114.667 L 319.833 114.667 319.833 154.500 L 319.833 194.333 359.750 194.333 L 399.667 194.333 399.667 234.250 L 399.667 274.167 359.750 274.167 L 319.833 274.167 319.833 234.333 L 319.833 194.500 279.917 194.500 L 240.000 194.500 240.000 234.333 L 240.000 274.167 200.000 274.167 L 160.000 274.167 160.000 234.333 L 160.000 194.500 120.083 194.500 L 80.167 194.500 80.167 234.333 L 80.167 274.167 40.250 274.167 L 0.333 274.167 0.333 234.250 L 0.333 194.333 40.250 194.333 L 80.167 194.333 80.167 154.500 L 80.167 114.667 40.250 114.667 L 0.333 114.667 0.333 74.750 L 0.333 34.833 40.250 34.833 L 80.167 34.833 80.167 74.750 M152.167 74.750 L 152.167 106.667 120.167 106.667 L 88.167 106.667 88.167 74.750 L 88.167 42.833 120.167 42.833 L 152.167 42.833 152.167 74.750 M311.833 74.750 L 311.833 106.667 279.917 106.667 L 248.000 106.667 248.000 74.750 L 248.000 42.833 279.917 42.833 L 311.833 42.833 311.833 74.750 M98.833 58.667 L 98.833 64.000 104.167 64.000 L 109.500 64.000 109.500 69.333 L 109.500 74.667 114.833 74.667 L 120.167 74.667 120.167 85.333 L 120.167 96.000 125.500 96.000 L 130.833 96.000 130.833 90.667 L 130.833 85.333 136.167 85.333 L 141.500 85.333 141.500 69.333 L 141.500 53.333 130.833 53.333 L 120.167 53.333 120.167 58.667 L 120.167 64.000 114.833 64.000 L 109.500 64.000 109.500 58.667 L 109.500 53.333 104.167 53.333 L 98.833 53.333 98.833 58.667 M130.833 69.333 L 130.833 74.667 125.500 74.667 L 120.167 74.667 120.167 69.333 L 120.167 64.000 125.500 64.000 L 130.833 64.000 130.833 69.333 M258.667 80.000 L 258.667 96.000 263.917 96.000 L 269.167 96.000 269.167 85.333 L 269.167 74.667 279.833 74.667 L 290.500 74.667 290.500 80.000 L 290.500 85.333 285.167 85.333 L 279.833 85.333 279.833 90.667 L 279.833 96.000 285.167 96.000 L 290.500 96.000 290.500 90.667 L 290.500 85.333 295.833 85.333 L 301.167 85.333 301.167 74.667 L 301.167 64.000 279.917 64.000 L 258.667 64.000 258.667 80.000 M160.000 154.500 L 160.000 194.333 200.000 194.333 L 240.000 194.333 240.000 154.500 L 240.000 114.667 200.000 114.667 L 160.000 114.667 160.000 154.500 M72.292 154.542 L 72.334 186.500 40.334 186.500 L 8.333 186.500 8.333 154.500 L 8.333 122.499 40.292 122.541 L 72.250 122.583 72.292 154.542 M232.000 154.500 L 232.000 186.500 200.000 186.500 L 168.000 186.500 168.000 154.611 C 168.000 137.072,168.050 122.672,168.111 122.611 C 168.172 122.550,182.572 122.500,200.111 122.500 L 232.000 122.500 232.000 154.500 M391.667 154.500 L 391.667 186.500 359.667 186.500 L 327.667 186.500 327.667 154.611 C 327.667 137.072,327.717 122.672,327.778 122.611 C 327.839 122.550,342.239 122.500,359.778 122.500 L 391.667 122.500 391.667 154.500 M40.333 149.167 L 40.333 165.167 29.667 165.167 L 19.000 165.167 19.000 170.500 L 19.000 175.833 29.667 175.833 L 40.333 175.833 40.333 170.500 L 40.333 165.167 45.667 165.167 L 51.000 165.167 51.000 170.500 L 51.000 175.833 56.333 175.833 L 61.667 175.833 61.667 170.500 L 61.667 165.167 56.333 165.167 L 51.000 165.167 51.000 159.833 L 51.000 154.500 56.333 154.500 L 61.667 154.500 61.667 143.833 L 61.667 133.167 51.000 133.167 L 40.333 133.167 40.333 149.167 M178.667 143.833 L 178.667 154.500 184.000 154.500 L 189.333 154.500 189.333 165.167 L 189.333 175.833 200.000 175.833 L 210.667 175.833 210.667 170.500 L 210.667 165.167 205.333 165.167 L 200.000 165.167 200.000 159.833 L 200.000 154.500 194.667 154.500 L 189.333 154.500 189.333 143.833 L 189.333 133.167 184.000 133.167 L 178.667 133.167 178.667 143.833 M210.667 143.833 L 210.667 154.500 216.000 154.500 L 221.333 154.500 221.333 143.833 L 221.333 133.167 216.000 133.167 L 210.667 133.167 210.667 143.833 M349.000 143.833 L 349.000 154.500 343.667 154.500 L 338.333 154.500 338.333 165.167 L 338.333 175.833 354.333 175.833 L 370.333 175.833 370.333 170.500 L 370.333 165.167 375.667 165.167 L 381.000 165.167 381.000 159.833 L 381.000 154.500 375.667 154.500 L 370.333 154.500 370.333 159.833 L 370.333 165.167 359.667 165.167 L 349.000 165.167 349.000 159.833 L 349.000 154.500 354.333 154.500 L 359.667 154.500 359.667 143.833 L 359.667 133.167 354.333 133.167 L 349.000 133.167 349.000 143.833 M370.333 138.500 L 370.333 143.833 375.667 143.833 L 381.000 143.833 381.000 138.500 L 381.000 133.167 375.667 133.167 L 370.333 133.167 370.333 138.500 M152.167 234.333 L 152.167 266.333 120.167 266.333 L 88.167 266.333 88.167 234.333 L 88.167 202.333 120.167 202.333 L 152.167 202.333 152.167 234.333 M311.833 234.333 L 311.833 266.333 279.917 266.333 L 248.000 266.333 248.000 234.333 L 248.000 202.333 279.917 202.333 L 311.833 202.333 311.833 234.333 M109.500 218.333 L 109.500 223.667 104.167 223.667 L 98.833 223.667 98.833 239.667 L 98.833 255.667 109.500 255.667 L 120.167 255.667 120.167 245.000 L 120.167 234.333 114.833 234.333 L 109.500 234.333 109.500 229.000 L 109.500 223.667 120.167 223.667 L 130.833 223.667 130.833 229.000 L 130.833 234.333 136.167 234.333 L 141.500 234.333 141.500 223.667 L 141.500 213.000 125.500 213.000 L 109.500 213.000 109.500 218.333 M258.667 223.667 L 258.667 234.333 269.250 234.333 L 279.833 234.333 279.833 239.667 L 279.833 245.000 269.250 245.000 L 258.667 245.000 258.667 250.333 L 258.667 255.667 274.583 255.667 L 290.500 255.667 290.500 239.667 L 290.500 223.667 295.833 223.667 L 301.167 223.667 301.167 218.333 L 301.167 213.000 295.833 213.000 L 290.500 213.000 290.500 218.333 L 290.500 223.667 279.833 223.667 L 269.167 223.667 269.167 218.333 L 269.167 213.000 263.917 213.000 L 258.667 213.000 258.667 223.667 M130.833 250.333 L 130.833 255.667 136.167 255.667 L 141.500 255.667 141.500 250.333 L 141.500 245.000 136.167 245.000 L 130.833 245.000 130.833 250.333 "
              stroke="none" fill="#fcfcfc" fill-rule="evenodd"></path>
        <path id="path1"
              d="M0.333 74.750 L 0.333 114.667 40.250 114.667 L 80.167 114.667 80.167 154.500 L 80.167 194.333 40.250 194.333 L 0.333 194.333 0.333 234.250 L 0.333 274.167 40.250 274.167 L 80.167 274.167 80.167 234.333 L 80.167 194.500 120.083 194.500 L 160.000 194.500 160.000 234.333 L 160.000 274.167 200.000 274.167 L 240.000 274.167 240.000 234.333 L 240.000 194.500 279.917 194.500 L 319.833 194.500 319.833 234.333 L 319.833 274.167 359.750 274.167 L 399.667 274.167 399.667 234.250 L 399.667 194.333 359.750 194.333 L 319.833 194.333 319.833 154.500 L 319.833 114.667 359.750 114.667 L 399.667 114.667 399.667 74.750 L 399.667 34.833 359.750 34.833 L 319.833 34.833 319.833 74.750 L 319.833 114.667 279.917 114.667 L 240.000 114.667 240.000 74.750 L 240.000 34.833 200.000 34.833 L 160.000 34.833 160.000 74.750 L 160.000 114.667 120.083 114.667 L 80.167 114.667 80.167 74.750 L 80.167 34.833 40.250 34.833 L 0.333 34.833 0.333 74.750 M88.167 74.750 L 88.167 106.667 120.167 106.667 L 152.167 106.667 152.167 74.750 L 152.167 42.833 120.167 42.833 L 88.167 42.833 88.167 74.750 M248.000 74.750 L 248.000 106.667 279.917 106.667 L 311.833 106.667 311.833 74.750 L 311.833 42.833 279.917 42.833 L 248.000 42.833 248.000 74.750 M109.500 58.667 L 109.500 64.000 114.833 64.000 L 120.167 64.000 120.167 58.667 L 120.167 53.333 130.833 53.333 L 141.500 53.333 141.500 69.333 L 141.500 85.333 136.167 85.333 L 130.833 85.333 130.833 90.667 L 130.833 96.000 125.500 96.000 L 120.167 96.000 120.167 85.333 L 120.167 74.667 114.833 74.667 L 109.500 74.667 109.500 69.333 L 109.500 64.000 104.167 64.000 L 98.833 64.000 98.833 58.667 L 98.833 53.333 104.167 53.333 L 109.500 53.333 109.500 58.667 M120.167 69.333 L 120.167 74.667 125.500 74.667 L 130.833 74.667 130.833 69.333 L 130.833 64.000 125.500 64.000 L 120.167 64.000 120.167 69.333 M301.167 74.667 L 301.167 85.333 295.833 85.333 L 290.500 85.333 290.500 90.667 L 290.500 96.000 285.167 96.000 L 279.833 96.000 279.833 90.667 L 279.833 85.333 285.167 85.333 L 290.500 85.333 290.500 80.000 L 290.500 74.667 279.833 74.667 L 269.167 74.667 269.167 85.333 L 269.167 96.000 263.917 96.000 L 258.667 96.000 258.667 80.000 L 258.667 64.000 279.917 64.000 L 301.167 64.000 301.167 74.667 M240.000 154.500 L 240.000 194.333 200.000 194.333 L 160.000 194.333 160.000 154.500 L 160.000 114.667 200.000 114.667 L 240.000 114.667 240.000 154.500 M8.333 154.500 L 8.333 186.500 40.334 186.500 L 72.334 186.500 72.292 154.542 L 72.250 122.583 40.292 122.541 L 8.333 122.499 8.333 154.500 M168.111 122.611 C 168.050 122.672,168.000 137.072,168.000 154.611 L 168.000 186.500 200.000 186.500 L 232.000 186.500 232.000 154.500 L 232.000 122.500 200.111 122.500 C 182.572 122.500,168.172 122.550,168.111 122.611 M327.778 122.611 C 327.717 122.672,327.667 137.072,327.667 154.611 L 327.667 186.500 359.667 186.500 L 391.667 186.500 391.667 154.500 L 391.667 122.500 359.778 122.500 C 342.239 122.500,327.839 122.550,327.778 122.611 M61.667 143.833 L 61.667 154.500 56.333 154.500 L 51.000 154.500 51.000 159.833 L 51.000 165.167 56.333 165.167 L 61.667 165.167 61.667 170.500 L 61.667 175.833 56.333 175.833 L 51.000 175.833 51.000 170.500 L 51.000 165.167 45.667 165.167 L 40.333 165.167 40.333 170.500 L 40.333 175.833 29.667 175.833 L 19.000 175.833 19.000 170.500 L 19.000 165.167 29.667 165.167 L 40.333 165.167 40.333 149.167 L 40.333 133.167 51.000 133.167 L 61.667 133.167 61.667 143.833 M189.333 143.833 L 189.333 154.500 194.667 154.500 L 200.000 154.500 200.000 159.833 L 200.000 165.167 205.333 165.167 L 210.667 165.167 210.667 170.500 L 210.667 175.833 200.000 175.833 L 189.333 175.833 189.333 165.167 L 189.333 154.500 184.000 154.500 L 178.667 154.500 178.667 143.833 L 178.667 133.167 184.000 133.167 L 189.333 133.167 189.333 143.833 M221.333 143.833 L 221.333 154.500 216.000 154.500 L 210.667 154.500 210.667 143.833 L 210.667 133.167 216.000 133.167 L 221.333 133.167 221.333 143.833 M359.667 143.833 L 359.667 154.500 354.333 154.500 L 349.000 154.500 349.000 159.833 L 349.000 165.167 359.667 165.167 L 370.333 165.167 370.333 159.833 L 370.333 154.500 375.667 154.500 L 381.000 154.500 381.000 159.833 L 381.000 165.167 375.667 165.167 L 370.333 165.167 370.333 170.500 L 370.333 175.833 354.333 175.833 L 338.333 175.833 338.333 165.167 L 338.333 154.500 343.667 154.500 L 349.000 154.500 349.000 143.833 L 349.000 133.167 354.333 133.167 L 359.667 133.167 359.667 143.833 M381.000 138.500 L 381.000 143.833 375.667 143.833 L 370.333 143.833 370.333 138.500 L 370.333 133.167 375.667 133.167 L 381.000 133.167 381.000 138.500 M88.167 234.333 L 88.167 266.333 120.167 266.333 L 152.167 266.333 152.167 234.333 L 152.167 202.333 120.167 202.333 L 88.167 202.333 88.167 234.333 M248.000 234.333 L 248.000 266.333 279.917 266.333 L 311.833 266.333 311.833 234.333 L 311.833 202.333 279.917 202.333 L 248.000 202.333 248.000 234.333 M141.500 223.667 L 141.500 234.333 136.167 234.333 L 130.833 234.333 130.833 229.000 L 130.833 223.667 120.167 223.667 L 109.500 223.667 109.500 229.000 L 109.500 234.333 114.833 234.333 L 120.167 234.333 120.167 245.000 L 120.167 255.667 109.500 255.667 L 98.833 255.667 98.833 239.667 L 98.833 223.667 104.167 223.667 L 109.500 223.667 109.500 218.333 L 109.500 213.000 125.500 213.000 L 141.500 213.000 141.500 223.667 M269.167 218.333 L 269.167 223.667 279.833 223.667 L 290.500 223.667 290.500 218.333 L 290.500 213.000 295.833 213.000 L 301.167 213.000 301.167 218.333 L 301.167 223.667 295.833 223.667 L 290.500 223.667 290.500 239.667 L 290.500 255.667 274.583 255.667 L 258.667 255.667 258.667 250.333 L 258.667 245.000 269.250 245.000 L 279.833 245.000 279.833 239.667 L 279.833 234.333 269.250 234.333 L 258.667 234.333 258.667 223.667 L 258.667 213.000 263.917 213.000 L 269.167 213.000 269.167 218.333 M141.500 250.333 L 141.500 255.667 136.167 255.667 L 130.833 255.667 130.833 250.333 L 130.833 245.000 136.167 245.000 L 141.500 245.000 141.500 250.333 "
              stroke="none" fill="#040404" fill-rule="evenodd"></path>
    </g>
</svg>