<?xml version="1.0" encoding="utf-8"?>
<!-- Generator: Adobe Illustrator 24.3.0, SVG Export Plug-In . SVG Version: 6.00 Build 0)  -->
<svg version="1.1"
     id="svg8" inkscape:version="1.0.2 (e86c8708, 2021-01-15)" sodipodi:docname="fmc-logo-border-2.svg"
     xmlns:inkscape="http://www.inkscape.org/namespaces/inkscape"
     xmlns:sodipodi="http://sodipodi.sourceforge.net/DTD/sodipodi-0.dtd"
     xmlns="http://www.w3.org/2000/svg" xmlns:xlink="http://www.w3.org/1999/xlink" x="0px" y="0px"
     viewBox="0 0 461.4 584.5"
     style="enable-background:new 0 0 461.4 584.5;" xml:space="preserve">
<style type="text/css">
	.st0{display:none;}
	.st1{display:none;fill:#A4D6D9;}
	.st2{fill:#A4D6D9;}
	.st3{opacity:0.15;fill:#365D5F;enable-background:new    ;}
	.st4{fill:#D95157;}
</style>
<sodipodi:namedview  bordercolor="#666666" borderopacity="1.0" id="base" inkscape:current-layer="layer1" inkscape:cx="372.3481" inkscape:cy="440.11451" inkscape:document-rotation="0" inkscape:document-units="mm" inkscape:pageopacity="0.0" inkscape:pageshadow="2" inkscape:window-height="921" inkscape:window-maximized="0" inkscape:window-width="1348" inkscape:window-x="144" inkscape:window-y="25" inkscape:zoom="0.65138101" pagecolor="#ffffff" showgrid="false">
	</sodipodi:namedview>
<g id="layer2" transform="translate(6.5984788,6.6389071)" inkscape:groupmode="layer" inkscape:label="Layer 2" class="st0">
	<ellipse id="path962" cx="171.3" cy="282.5" rx="146.1" ry="160.4"/>
</g>
<g id="layer1" transform="translate(-32.625961,-40.2606)" inkscape:groupmode="layer" inkscape:label="Layer 1">

		<image style="display:none;overflow:visible;enable-background:new    ;" width="1668" height="2224" id="image843" xlink:href="16530232.png"  transform="matrix(0.3849 0 0 0.3691 -49.7662 -67.5522)">
	</image>

		<image style="display:none;overflow:visible;enable-background:new    ;" width="1668" height="2224" id="image865" xlink:href="16530236.png"  transform="matrix(0.4143 0 0 0.3995 -66.2662 -100.5522)">
	</image>
	<path id="path853" class="st1" d="M167.8,601.5c-3.5-0.8-5.5-1.7-9.6-4.6c-4.1-2.8-6.6-5.5-9.4-10.2c-5-8.3-7.4-17.6-7.9-30.1
		l-0.3-6.8l-1.6-3.7c-0.9-2-2.9-6.6-4.4-10.2c-1.6-3.6-3.4-8-4.1-9.8c-2-5.7-4.7-14.2-4.7-14.9c0-1.9,5.3-4.6,7.4-3.7
		c1.4,0.6,1.9,1.6,1.5,3c-0.7,2.3-0.2,8.4,0.9,11.2c0.6,1.5,2.6,4.6,3.1,4.6c0.5,0,0.4-2.7-0.1-4.8c-0.8-3.5-1.4-9.2-1.1-10.4
		c0.6-2,4.2-3.3,6.4-2.4c1.1,0.5,1.1,0.8,0.3,2.7c-1,2.1-1,10.7,0,13.1c0.7,1.7,1.6,2.5,2,1.8c0.1-0.2,0.3-2.6,0.4-5.4
		c0.3-8.9,1.4-11.2,5.6-11.2c1.9,0,3.6,1.2,4.4,3.3c0.5,1.2,0.5,1.8,0.2,3.6c-0.5,2.8-0.3,5.7,0.8,8.3c1.6,4,2.4,2.2,2.5-5.6
		c0.1-4.3,0.6-6.3,1.8-7.3c1-0.8,3.5-1,4.8-0.3c2.1,1,2.2,1.4,2.1,5.9c-0.1,2.3,0.1,4.9,0.3,6c0.5,2.1,1.8,5,2.3,5
		c0.5,0,0.7-2.5,0.8-8.4l0.1-5.3l1.3-1.1c2.2-1.7,4.1-2.6,6.7-2.8l2.4-0.2l0.8,1.4c0.6,1.1,0.9,2.3,1,5.1c0.2,4.2,1,7.1,2.2,8.1
		c1.4,1.2,1.6,0.2,1.3-7.4l-0.2-7l1.1-1c0.6-0.5,1.8-1.2,2.7-1.4c1.4-0.4,1.8-0.3,3.1,0.3c1.4,0.7,1.5,0.9,1.7,2.7
		c0.3,2.6,1.6,6.4,2.9,8.1c1.9,2.6,2,1.8,1-6.5c-0.7-5.6-0.7-5.1,0.6-6.6c1.9-2,7.1-3.7,8.8-2.9c0.5,0.3,1.1,1.5,1.8,3.6
		c2.5,7.8,3.1,9.5,3.6,9.6c0.7,0.2,1.3-1.2,1.5-3.7c0.2-1.9,0-2.8-0.8-5.2c-1.2-3.5-1.2-4.1-0.1-6c0.8-1.3,1.2-1.6,2.5-1.8
		c0.9-0.1,3.4-1,5.7-2.1c2.3-1,4.9-2,5.9-2.1c1.7-0.2,1.8-0.2,2.6,1c0.4,0.7,1.4,2.9,2.1,4.9c2.4,6.7,3,7.1,3.5,2.8
		c0.4-3.2-0.3-6.4-2.1-9.1c-1.4-2.1-1.4-2.4-0.1-3.6c2-1.8,4.5-2.6,8.5-2.6c3.5,0,4-0.1,3.1-0.9c-0.3-0.3-0.3-0.7,0.2-1.3
		c0.8-1.1,3.2-3.1,4.3-3.3c0.4-0.1,1.1-0.3,1.6-0.4c0.7-0.2,1.1,0.2,2.7,2.5c1.1,1.5,2.3,3.9,2.9,5.6c0.5,1.6,1.2,3,1.4,3.1
		c1,0.3,1.2-4.4,0.3-7.1c-0.5-1.6-1.1-2.6-3.9-6.4c-0.6-0.8-0.6-0.9,0.1-1.4c1.5-1.1,3.5-1.9,5.9-2.3c2.4-0.4,2.6-0.5,5-2.9
		c2.5-2.5,3.3-2.9,6.6-3.7c1.6-0.4,1.9-0.3,3.3,0.5c0.8,0.5,2.5,1.7,3.7,2.7c1.2,1,2.3,1.9,2.5,1.9c0.7,0,9.7-5.9,10.1-6.7
		c0.3-0.5,2-2.4,4-4.3c3.8-3.7,5.2-5.7,6.2-8.3c1.5-4.2,1.7-20.1,0.5-27.9c-1.1-6.4-2.2-18.6-2.1-21.1c0.1-1.8,0.5-3.1,1.3-4.6
		c1.9-3.5,4.1-4.5,10.3-4.5l3.8,0l4.4,2.2c5.9,3,7.9,3.3,12.2,2c4-1.2,6.7-3.1,9.8-6.8c2.9-3.5,6.8-10.1,8.3-13.8
		c2.2-5.7,5-8.7,7.9-8.7c3.3,0,4.7,1.7,6.1,7.3c0.8,3.1,0.8,4,0.9,26.5c0.1,22.1,0.1,23.4,0.9,26.9c0.4,2,1.2,5.6,1.7,7.9
		c0.5,2.3,1,4.6,1.2,5.1c0.2,0.5,0.7,2.9,1.1,5.4c1.4,7.6,0.6,15.2-2.3,22.2c-1.7,4.1-2.9,6.1-6.5,11.5c-3.9,5.8-11.3,13.2-18,18.1
		c-2.3,1.7-7.8,6.2-12.3,10c-9.4,8-12.2,10.3-18.5,15c-2.5,1.9-8,5.9-12.1,8.9c-4.1,3-11.1,8-15.6,11c-4.4,3-8.7,5.9-9.4,6.5
		c-2.8,2.1-12.3,8.5-17.3,11.7c-18.4,11.8-36.7,21.1-54.9,27.8c-7.8,2.9-11.2,3.8-19.6,5.1C177.6,601.9,171.2,602.3,167.8,601.5
		L167.8,601.5z M363.2,433.2c0-0.1-0.1-0.2-0.2-0.2c-0.1,0-0.2,0.1-0.2,0.2s0.1,0.2,0.2,0.2C363.1,433.4,363.2,433.3,363.2,433.2z
		 M159.3,477.3c-1.5-0.4-3-0.8-3.1-1c-0.5-0.6-1.2-6.1-1.5-12.7c-0.3-6.2-0.8-9-1.5-8.3c-0.4,0.4-1.8,6.1-2.3,9.9
		c-0.3,1.7-0.3,4.1-0.2,5.9l0.3,3l-1.7,0.5c-1,0.3-3.2,0.5-5.7,0.5c-3.8,0-4.2-0.1-6.4-1.1c-2.1-1.1-2.3-1.2-2.8-3
		c-0.9-3.3-1.2-7.3-1.3-13.7c0-3.5-0.2-6.4-0.4-6.4c-0.5,0-1.4,2.3-2.1,5.3c-0.5,2.4-0.8,9.1-0.5,12.8c0.1,1.2,0,1.3-1.5,1.6
		c-2.4,0.5-5.5-0.3-7.4-1.8c-1.4-1.2-1.6-1.5-2-4c-0.8-4.8-0.8-5.7-0.9-10.6c0-2.7-0.2-4.8-0.3-4.8c-0.6,0-1.9,3.6-2.4,6.3
		c-0.3,1.6-0.4,4.4-0.2,6.9l0.2,4.1l-1,0.2c-2,0.5-4.4-0.2-6.2-1.8c-2.9-2.5-3.2-3.8-3.5-11.8c-0.6-16.6,0.8-31.4,3.8-41.6
		c0.6-2.1,1.4-5.1,1.8-6.6c0.9-3.8,1.2-11.8,0.6-15c-0.4-2.4-2.5-7.7-3.1-8.1c-0.2-0.1-0.3,2.4-0.3,5.4c0,6.3-0.5,8.5-3,12.5
		c-1.9,3-2.5,2.9-10-0.7c-3.3-1.6-8-4.2-10.4-5.6c-2.4-1.5-5.7-3.5-7.2-4.4c-3.2-1.9-8.4-7-10.9-10.6c-1.8-2.5-4.3-8.5-5.4-12.6
		c-0.3-1.2-0.9-4.5-1.4-7.3c-0.8-4.9-0.8-5.9-0.5-19.2c0.4-17,0.3-21.8-0.4-29.2c-0.7-6.8-2.8-19.9-4.4-27.8
		c-2.7-13.5-3.2-17.2-2.7-23.1c0.2-2.4,0.4-9.8,0.5-16.4c0.1-13.4,0.8-20,3.1-33.2c3.8-21.2,12.4-44.9,22.7-62.2
		c13.7-23.1,34.5-44,57.8-58.1c6-3.6,16.9-9.1,22.4-11.3c6.3-2.5,22.2-7.9,28.1-9.6c17.9-5.1,36.2-8.1,57-9.5
		c7.2-0.5,26.7-0.5,33.9,0c35.5,2.4,67.6,10,97.5,23.3c30.2,13.4,56.9,33.9,73.6,56.5c9.1,12.3,14.1,22.8,20.4,42.9
		c3,9.5,5.3,21.7,6.3,33.6c0.5,5.7,0.5,22.3,0,28.5c-2.2,27.5-9.5,53.2-21.7,76.4c-14.1,26.8-31.9,47-53.6,60.8
		c-8.9,5.6-21.4,11-25.6,11c-2.2,0-2.6-0.5-2.1-2.9c0.2-1.1,0.4-4.1,0.4-6.7c0-5.6-0.6-7.7-3.1-10.5c-2.9-3.1-6.6-4.2-9.6-2.8
		c-1,0.5-4.3,3.2-8.2,6.9c-6.3,5.9-10.9,9.4-14.3,10.7c-7,2.8-22.9,5.1-41.9,6c-7.5,0.4-15.7,1-16.7,1.3c-0.3,0.1-2.4,0.3-4.6,0.6
		c-4.5,0.5-12.1,2.5-15.4,4.1c-2.6,1.2-5.4,3.2-5.4,3.7c0,0.7,1.8,0.4,4.3-0.7c2.6-1.1,7.5-2.5,7.8-2.2c0.1,0.1-0.5,1.6-1.3,3.3
		c-2.1,4.3-2.5,6.4-2.2,11.5c0.2,3.3,0.5,5,1.4,8.1c2.6,8.3,1,15.2-4.1,17.5c-1.4,0.6-1.5,0.8-2.6,3.9c-1.2,3.2-4.9,6.3-8.1,6.7
		c-1,0.1-1.1,0-1.8-1.9c-0.4-1.1-1.3-3.2-2.1-4.6c-1.4-2.6-4.2-5.7-4.7-5.2c-0.2,0.1,0.7,3,1.9,6.4c1.2,3.4,2.2,6.6,2.2,7.1
		c0,1.3-1.9,3.7-4,5c-1,0.6-3,1.4-4.5,1.8c-2.4,0.6-3.1,0.9-5.2,2.8c-2.8,2.5-4.4,3.2-6.7,3.2h-1.7l-0.9-3.2
		c-0.9-3.3-4.1-10.1-4.7-10.1c-0.6,0-0.4,1,1.2,7c1.9,7.2,1.9,7.7,0.1,9.7c-2.9,3.1-9.6,4.8-14,3.6l-1.4-0.4l-0.1-2.9
		c-0.1-3.3-1.5-9.1-3-12.2c-1.1-2.4-2.5-4.4-3-4.4c-0.5,0,0,4.2,1.1,9.6c0.5,2.5,1.1,5.7,1.2,7l0.3,2.4l-2,1.7c-4.6,4-9.7,5-16,3.4
		l-2-0.5l-0.2-2.9c-0.5-5.7-3.5-16-4.7-16c-1,0-1,4.4-0.1,10.2c0.5,3,0.9,6.2,0.9,7c0,1.4-0.1,1.5-1.9,2.4
		C169.5,478.1,163.5,478.3,159.3,477.3L159.3,477.3z M162.4,392.7c0.5-0.5,1.5-1.9,2.2-3.2c1.2-2.4,1.3-2.5,1.3-7.6
		c0-4.7-0.1-5.6-1.2-9.6c-2.7-9.9-10.3-23.8-17.7-32.3c-2.9-3.3-4-4.2-6.5-5.5c-2.2-1.1-3.4-1-5.1,0.3c-1.7,1.3-1.7,1.4-2.3,6.6
		c-0.5,4.9-1.2,8.6-2.9,16.1c-2.1,9.6-3.4,19.4-3.1,24.6c0.3,4.7,0.7,6.3,1.9,7.6c1.5,1.6,4.2,0.6,5.6-2.1c2-3.8,2.6-9.2,3-25.3
		c0.2-10.6,0.3-12,0.8-11.6c0.9,0.7,5.7,10.3,6.6,13.3c2.4,7.5,6.4,18.6,7.8,21.4c1.2,2.4,2.2,3.7,4.2,5.6
		C159.8,393.8,160.8,394.1,162.4,392.7L162.4,392.7z M244,348.4c6.5-0.8,13.2-2.6,18.1-5c2.5-1.2,9.7-7,12.1-9.6
		c4.5-5,6.4-8.4,9-16.2c2.3-6.9,2.9-10.6,2.9-18.6c0-10.1-1.3-16-5.5-24c-5.6-10.7-12.6-18.8-21.1-24.3c-5.8-3.8-15.2-8.1-21.6-9.9
		c-4.6-1.3-13-2.8-17.2-3c-9.5-0.6-19.6,2.3-26.1,7.5c-3.3,2.6-7.3,8.9-9.3,14.7c-1.3,3.7-1.5,4.5-1.6,8.7c-0.2,7.6,0.6,20,1.9,28.4
		c0.6,4.2,1.4,9.6,1.8,12c0.7,5.4,1.3,7.8,3.1,13.2c1.7,5.2,3,7.5,5.8,11c4.6,5.7,10.4,9.4,19.9,12.6c8,2.7,11.6,3.3,19.1,3.1
		C238.2,348.9,242.2,348.6,244,348.4L244,348.4z M103.6,335.9c9.2-3.4,14.1-7.6,18.2-15.3c4.9-9.4,7.9-31,6.1-43.5
		c-1.5-10.3-5.3-19.9-10.5-26.5c-2.4-3-9.3-9-12-10.3c-2.4-1.2-7.1-2.4-10.5-2.7c-2.5-0.3-8,0.7-11.6,2c-1.2,0.4-3.3,1.6-4.6,2.5
		c-3.5,2.6-5.7,5.4-7.7,9.9l-1.7,3.9l0.1,29.9c0.1,21.8,0.2,30.4,0.6,31.9c0.7,3,4.9,10.9,7,13.1c1.2,1.2,3,2.5,5.6,3.9
		c4.3,2.3,7.1,2.9,12.7,3C98.6,337.8,99,337.7,103.6,335.9L103.6,335.9z M64.4,320.2c-0.1-0.1-0.3,0-0.3,0.2c0,0.3,0.1,0.4,0.3,0.2
		C64.6,320.5,64.6,320.3,64.4,320.2L64.4,320.2z M63.8,305.8c0-0.1-0.1-0.2-0.2-0.2c-0.1,0-0.2,0.1-0.2,0.2s0.1,0.2,0.2,0.2
		C63.7,306,63.8,305.9,63.8,305.8z"/>
	<g id="path959">
		<path id="path966" sodipodi:nodetypes="csssssscssssssssscscccccsssssssscccssccccsscssssssssccssccscssscccsssscc" d="
			M241.9,40.7c-21.9,1.4-41.7,4.7-60.9,10.1c-7.6,2.2-22.2,7.2-29.9,10.2c-7.7,3-17.8,8.2-25.2,12.7c-26.1,15.7-48.9,38.5-64.3,64.5
			c-11.8,19.8-20.8,44.8-25,68.5c-2.4,13.7-3.3,22.4-3.4,36.3c-0.1,6.3-0.4,14.6-0.4,15c-0.6,7.4,0.2,14.6,3,28.4
			c1.4,7.1,3.5,20.6,4.1,26c0.7,6.6,0.7,9.9,0.3,26.8c-0.3,13.3-0.1,17.3,0.7,22.5c0.5,3.3,0.8,5.6,1.8,9.4
			c1.8,6.7,3.4,11.6,8.1,18.3c4.8,6.9,8.8,11.2,16.7,16c1.4,0.8,4.7,2.8,7.1,4.3c3.5,2.1,8,4.6,12,6.5c0.8,0.4,1.5,0.8,2.2,1.2
			c-2,11.1-3,23.1-2.6,36.7c0.1,4.3,0,7.5,1.5,12.7c1.6,5.2,6.1,10.6,8.3,12.6c4.5,4,10.3,6.6,17,6.6c3.9,2.5,8.1,3.2,12.5,3.2
			c0.1,0.1,0.3,0.3,0.4,0.4c-2.1,0.5-4,1.1-5.7,2c-2.1,1.1-4.2,2.3-6.6,4.6s-6.7,5.9-6.7,15.1c0,5.7,0.5,4.4,0.7,5.1
			c0.2,0.7,0.3,1.3,0.5,1.9c0.4,1.3,0.8,2.7,1.3,4.2c1,3.1,2.2,6.8,3.3,10c1.2,3.3,2.9,7.2,4.6,11.1c1.5,3.5,3.6,8.1,4.3,9.8
			l0.2,0.6l0.1,3.4c0.6,14.5,3.9,27.6,10.6,38.9c3.7,6.2,9.1,12.1,14.9,16.1c4.9,3.3,11.1,6.3,16.2,7.4l11.9,1.2l10.5-1.5
			c1-0.2,1.8-0.2,2.8-0.4c8.8-1.4,14.8-3,23.1-6.1c19.6-7.3,39.1-17.2,58.5-29.6c5.5-3.5,14.2-9.3,18.3-12.4
			c-1.1,0.8,4.5-3.1,8.9-6.1c4.8-3.2,11.7-8.2,16.2-11.5c4.1-3,9.6-7.1,12.1-8.9c6.5-4.8,10.2-7.7,19.6-15.8
			c4.1-3.6,10.1-8.3,11.2-9.2c8.6-6.4,16.4-14.1,22.3-22.6c3.9-5.7,6.3-10,8.3-14.9c4.3-10.3,5.4-21.7,3.4-32.7
			c-0.3-1.4-0.5-2.8-0.8-4c-0.3-1.2,0.6,0.1-1.3-4.8c1.5,3.8,0.5,1.5,0.3,0.8c-0.2-0.7-0.4-1.7-0.6-2.7c-0.5-2.5-1.2-6-1.7-8.3h0
			c-0.3-1.3-0.2-0.1-0.3-3.1c-0.1-2.7-0.1-8.9-0.1-18.3c1.9-0.8,3.7-1.7,5.9-2.6c5.7-2.5,11.7-5.5,17.2-9
			c24.8-15.8,44.8-38.7,60.2-67.9c13.4-25.5,21.4-53.7,23.8-83.6v0c0.7-8.9,0.8-22.8,0-31.6c-1.2-13.2-3.6-26.3-7.1-37.6
			c-6.6-21-13-34.7-23.2-48.5c-19.2-25.9-48.1-47.9-81.1-62.5c-32-14.2-66.5-22.4-103.9-24.9C268.8,40.1,251.3,40.1,241.9,40.7
			L241.9,40.7z"/>
		<path id="path968" class="st2" d="M167.8,601.5c-3.5-0.8-5.5-1.7-9.6-4.6c-4.1-2.8-6.6-5.5-9.4-10.2c-5-8.3-7.4-17.6-7.9-30.1
			l-0.3-6.8l-1.6-3.7c-0.9-2-2.9-6.6-4.4-10.2c-1.6-3.6-3.4-8-4.1-9.8c-2-5.7-4.7-14.2-4.7-14.9c0-1.9,5.3-4.6,7.4-3.7
			c1.4,0.6,1.9,1.6,1.5,3c-0.7,2.3-0.2,8.4,0.9,11.2c0.6,1.5,2.6,4.6,3.1,4.6c0.5,0,0.4-2.7-0.1-4.8c-0.8-3.5-1.4-9.2-1.1-10.4
			c0.6-2,4.2-3.3,6.4-2.4c1.1,0.5,1.1,0.8,0.3,2.7c-1,2.1-1,10.7,0,13.1c0.7,1.7,1.6,2.5,2,1.8c0.1-0.2,0.3-2.6,0.4-5.4
			c0.3-8.9,1.4-11.2,5.6-11.2c1.9,0,3.6,1.2,4.4,3.3c0.5,1.2,0.5,1.8,0.2,3.6c-0.5,2.8-0.3,5.7,0.8,8.3c1.6,4,2.4,2.2,2.5-5.6
			c0.1-4.3,0.6-6.3,1.8-7.3c1-0.8,3.5-1,4.8-0.3c2.1,1,2.2,1.4,2.1,5.9c-0.1,2.3,0.1,4.9,0.3,6c0.5,2.1,1.8,5,2.3,5
			c0.5,0,0.7-2.5,0.8-8.4l0.1-5.3l1.3-1.1c2.2-1.7,4.1-2.6,6.7-2.8l2.4-0.2l0.8,1.4c0.6,1.1,0.9,2.3,1,5.1c0.2,4.2,1,7.1,2.2,8.1
			c1.4,1.2,1.6,0.2,1.3-7.4l-0.2-7l1.1-1c0.6-0.5,1.8-1.2,2.7-1.4c1.4-0.4,1.8-0.3,3.1,0.3c1.4,0.7,1.5,0.9,1.7,2.7
			c0.3,2.6,1.6,6.4,2.9,8.1c1.9,2.6,2,1.8,1-6.5c-0.7-5.6-0.7-5.1,0.6-6.6c1.9-2,7.1-3.7,8.8-2.9c0.5,0.3,1.1,1.5,1.8,3.6
			c2.5,7.8,3.1,9.5,3.6,9.6c0.7,0.2,1.3-1.2,1.5-3.7c0.2-1.9,0-2.8-0.8-5.2c-1.2-3.5-1.2-4.1-0.1-6c0.8-1.3,1.2-1.6,2.5-1.8
			c0.9-0.1,3.4-1,5.7-2.1c2.3-1,4.9-2,5.9-2.1c1.7-0.2,1.8-0.2,2.6,1c0.4,0.7,1.4,2.9,2.1,4.9c2.4,6.7,3,7.1,3.5,2.8
			c0.4-3.2-0.3-6.4-2.1-9.1c-1.4-2.1-1.4-2.4-0.1-3.6c2-1.8,4.5-2.6,8.5-2.6c3.5,0,4-0.1,3.1-0.9c-0.3-0.3-0.3-0.7,0.2-1.3
			c0.8-1.1,3.2-3.1,4.3-3.3c0.4-0.1,1.1-0.3,1.6-0.4c0.7-0.2,1.1,0.2,2.7,2.5c1.1,1.5,2.3,3.9,2.9,5.6c0.5,1.6,1.2,3,1.4,3.1
			c1,0.3,1.2-4.4,0.3-7.1c-0.5-1.6-1.1-2.6-3.9-6.4c-0.6-0.8-0.6-0.9,0.1-1.4c1.5-1.1,3.5-1.9,5.9-2.3c2.4-0.4,2.6-0.5,5-2.9
			c2.5-2.5,3.3-2.9,6.6-3.7c1.6-0.4,1.9-0.3,3.3,0.5c0.8,0.5,2.5,1.7,3.7,2.7c1.2,1,2.3,1.9,2.5,1.9c0.7,0,9.7-5.9,10.1-6.7
			c0.3-0.5,2-2.4,4-4.3c3.8-3.7,5.2-5.7,6.2-8.3c1.5-4.2,1.7-20.1,0.5-27.9c-1.1-6.4-2.2-18.6-2.1-21.1c0.1-1.8,0.5-3.1,1.3-4.6
			c1.9-3.5,4.1-4.5,10.3-4.5l3.8,0l4.4,2.2c5.9,3,7.9,3.3,12.2,2c4-1.2,6.7-3.1,9.8-6.8c2.9-3.5,6.8-10.1,8.3-13.8
			c2.2-5.7,5-8.7,7.9-8.7c3.3,0,4.7,1.7,6.1,7.3c0.8,3.1,0.8,4,0.9,26.5c0.1,22.1,0.1,23.4,0.9,26.9c0.4,2,1.2,5.6,1.7,7.9
			c0.5,2.3,1,4.6,1.2,5.1c0.2,0.5,0.7,2.9,1.1,5.4c1.4,7.6,0.6,15.2-2.3,22.2c-1.7,4.1-2.9,6.1-6.5,11.5c-3.9,5.8-11.3,13.2-18,18.1
			c-2.3,1.7-7.8,6.2-12.3,10c-9.4,8-12.2,10.3-18.5,15c-2.5,1.9-8,5.9-12.1,8.9c-4.1,3-11.1,8-15.6,11c-4.4,3-8.7,5.9-9.4,6.5
			c-2.8,2.1-12.3,8.5-17.3,11.7c-18.4,11.8-36.7,21.1-54.9,27.8c-7.8,2.9-11.2,3.8-19.6,5.1C177.6,601.9,171.2,602.3,167.8,601.5
			L167.8,601.5z M363.2,433.2c0-0.1-0.1-0.2-0.2-0.2c-0.1,0-0.2,0.1-0.2,0.2s0.1,0.2,0.2,0.2C363.1,433.4,363.2,433.3,363.2,433.2z
			 M159.3,477.3c-1.5-0.4-3-0.8-3.1-1c-0.5-0.6-1.2-6.1-1.5-12.7c-0.3-6.2-0.8-9-1.5-8.3c-0.4,0.4-1.8,6.1-2.3,9.9
			c-0.3,1.7-0.3,4.1-0.2,5.9l0.3,3l-1.7,0.5c-1,0.3-3.2,0.5-5.7,0.5c-3.8,0-4.2-0.1-6.4-1.1c-2.1-1.1-2.3-1.2-2.8-3
			c-0.9-3.3-1.2-7.3-1.3-13.7c0-3.5-0.2-6.4-0.4-6.4c-0.5,0-1.4,2.3-2.1,5.3c-0.5,2.4-0.8,9.1-0.5,12.8c0.1,1.2,0,1.3-1.5,1.6
			c-2.4,0.5-5.5-0.3-7.4-1.8c-1.4-1.2-1.6-1.5-2-4c-0.8-4.8-0.8-5.7-0.9-10.6c0-2.7-0.2-4.8-0.3-4.8c-0.6,0-1.9,3.6-2.4,6.3
			c-0.3,1.6-0.4,4.4-0.2,6.9l0.2,4.1l-1,0.2c-2,0.5-4.4-0.2-6.2-1.8c-2.9-2.5-3.2-3.8-3.5-11.8c-0.6-16.6,0.8-31.4,3.8-41.6
			c0.6-2.1,1.4-5.1,1.8-6.6c0.9-3.8,1.2-11.8,0.6-15c-0.4-2.4-2.5-7.7-3.1-8.1c-0.2-0.1-0.3,2.4-0.3,5.4c0,6.3-0.5,8.5-3,12.5
			c-1.9,3-2.5,2.9-10-0.7c-3.3-1.6-8-4.2-10.4-5.6c-2.4-1.5-5.7-3.5-7.2-4.4c-3.2-1.9-8.4-7-10.9-10.6c-1.8-2.5-4.3-8.5-5.4-12.6
			c-0.3-1.2-0.9-4.5-1.4-7.3c-0.8-4.9-0.8-5.9-0.5-19.2c0.4-17,0.3-21.8-0.4-29.2c-0.7-6.8-2.8-19.9-4.4-27.8
			c-2.7-13.5-3.2-17.2-2.7-23.1c0.2-2.4,0.4-9.8,0.5-16.4c0.1-13.4,0.8-20,3.1-33.2c3.8-21.2,12.4-44.9,22.7-62.2
			c13.7-23.1,34.5-44,57.8-58.1c6-3.6,16.9-9.1,22.4-11.3c6.3-2.5,22.2-7.9,28.1-9.6c17.9-5.1,36.2-8.1,57-9.5
			c7.2-0.5,26.7-0.5,33.9,0c35.5,2.4,67.6,10,97.5,23.3c30.2,13.4,56.9,33.9,73.6,56.5c9.1,12.3,14.1,22.8,20.4,42.9
			c3,9.5,5.3,21.7,6.3,33.6c0.5,5.7,0.5,22.3,0,28.5c-2.2,27.5-9.5,53.2-21.7,76.4c-14.1,26.8-31.9,47-53.6,60.8
			c-8.9,5.6-21.4,11-25.6,11c-2.2,0-2.6-0.5-2.1-2.9c0.2-1.1,0.4-4.1,0.4-6.7c0-5.6-0.6-7.7-3.1-10.5c-2.9-3.1-6.6-4.2-9.6-2.8
			c-1,0.5-4.3,3.2-8.2,6.9c-6.3,5.9-10.9,9.4-14.3,10.7c-7,2.8-22.9,5.1-41.9,6c-7.5,0.4-15.7,1-16.7,1.3c-0.3,0.1-2.4,0.3-4.6,0.6
			c-4.5,0.5-12.1,2.5-15.4,4.1c-2.6,1.2-5.4,3.2-5.4,3.7c0,0.7,1.8,0.4,4.3-0.7c2.6-1.1,7.5-2.5,7.8-2.2c0.1,0.1-0.5,1.6-1.3,3.3
			c-2.1,4.3-2.5,6.4-2.2,11.5c0.2,3.3,0.5,5,1.4,8.1c2.6,8.3,1,15.2-4.1,17.5c-1.4,0.6-1.5,0.8-2.6,3.9c-1.2,3.2-4.9,6.3-8.1,6.7
			c-1,0.1-1.1,0-1.8-1.9c-0.4-1.1-1.3-3.2-2.1-4.6c-1.4-2.6-4.2-5.7-4.7-5.2c-0.2,0.1,0.7,3,1.9,6.4c1.2,3.4,2.2,6.6,2.2,7.1
			c0,1.3-1.9,3.7-4,5c-1,0.6-3,1.4-4.5,1.8c-2.4,0.6-3.1,0.9-5.2,2.8c-2.8,2.5-4.4,3.2-6.7,3.2h-1.7l-0.9-3.2
			c-0.9-3.3-4.1-10.1-4.7-10.1c-0.6,0-0.4,1,1.2,7c1.9,7.2,1.9,7.7,0.1,9.7c-2.9,3.1-9.6,4.8-14,3.6l-1.4-0.4l-0.1-2.9
			c-0.1-3.3-1.5-9.1-3-12.2c-1.1-2.4-2.5-4.4-3-4.4c-0.5,0,0,4.2,1.1,9.6c0.5,2.5,1.1,5.7,1.2,7l0.3,2.4l-2,1.7c-4.6,4-9.7,5-16,3.4
			l-2-0.5l-0.2-2.9c-0.5-5.7-3.5-16-4.7-16c-1,0-1,4.4-0.1,10.2c0.5,3,0.9,6.2,0.9,7c0,1.4-0.1,1.5-1.9,2.4
			C169.5,478.1,163.5,478.3,159.3,477.3L159.3,477.3z M162.4,392.7c0.5-0.5,1.5-1.9,2.2-3.2c1.2-2.4,1.3-2.5,1.3-7.6
			c0-4.7-0.1-5.6-1.2-9.6c-2.7-9.9-10.3-23.8-17.7-32.3c-2.9-3.3-4-4.2-6.5-5.5c-2.2-1.1-3.4-1-5.1,0.3c-1.7,1.3-1.7,1.4-2.3,6.6
			c-0.5,4.9-1.2,8.6-2.9,16.1c-2.1,9.6-3.4,19.4-3.1,24.6c0.3,4.7,0.7,6.3,1.9,7.6c1.5,1.6,4.2,0.6,5.6-2.1c2-3.8,2.6-9.2,3-25.3
			c0.2-10.6,0.3-12,0.8-11.6c0.9,0.7,5.7,10.3,6.6,13.3c2.4,7.5,6.4,18.6,7.8,21.4c1.2,2.4,2.2,3.7,4.2,5.6
			C159.8,393.8,160.8,394.1,162.4,392.7L162.4,392.7z M244,348.4c6.5-0.8,13.2-2.6,18.1-5c2.5-1.2,9.7-7,12.1-9.6
			c4.5-5,6.4-8.4,9-16.2c2.3-6.9,2.9-10.6,2.9-18.6c0-10.1-1.3-16-5.5-24c-5.6-10.7-12.6-18.8-21.1-24.3c-5.8-3.8-15.2-8.1-21.6-9.9
			c-4.6-1.3-13-2.8-17.2-3c-9.5-0.6-19.6,2.3-26.1,7.5c-3.3,2.6-7.3,8.9-9.3,14.7c-1.3,3.7-1.5,4.5-1.6,8.7
			c-0.2,7.6,0.6,20,1.9,28.4c0.6,4.2,1.4,9.6,1.8,12c0.7,5.4,1.3,7.8,3.1,13.2c1.7,5.2,3,7.5,5.8,11c4.6,5.7,10.4,9.4,19.9,12.6
			c8,2.7,11.6,3.3,19.1,3.1C238.2,348.9,242.2,348.6,244,348.4L244,348.4z M103.6,335.9c9.2-3.4,14.1-7.6,18.2-15.3
			c4.9-9.4,7.9-31,6.1-43.5c-1.5-10.3-5.3-19.9-10.5-26.5c-2.4-3-9.3-9-12-10.3c-2.4-1.2-7.1-2.4-10.5-2.7c-2.5-0.3-8,0.7-11.6,2
			c-1.2,0.4-3.3,1.6-4.6,2.5c-3.5,2.6-5.7,5.4-7.7,9.9l-1.7,3.9l0.1,29.9c0.1,21.8,0.2,30.4,0.6,31.9c0.7,3,4.9,10.9,7,13.1
			c1.2,1.2,3,2.5,5.6,3.9c4.3,2.3,7.1,2.9,12.7,3C98.6,337.8,99,337.7,103.6,335.9L103.6,335.9z M64.4,320.2c-0.1-0.1-0.3,0-0.3,0.2
			c0,0.3,0.1,0.4,0.3,0.2C64.6,320.5,64.6,320.3,64.4,320.2L64.4,320.2z M63.8,305.8c0-0.1-0.1-0.2-0.2-0.2c-0.1,0-0.2,0.1-0.2,0.2
			s0.1,0.2,0.2,0.2C63.7,306,63.8,305.9,63.8,305.8z"/>
		<path id="path988" class="st3" d="M167.8,601.5c-3.5-0.8-5.5-1.7-9.6-4.6c-4.1-2.8-6.6-5.5-9.4-10.2c-5-8.3-7.4-17.6-7.9-30.1
			l-0.3-6.8l-1.6-3.7c-0.9-2-2.9-6.6-4.4-10.2c-1.6-3.6-3.4-8-4.1-9.8c-2-5.7-4.7-14.2-4.7-14.9c0-1.9,5.3-4.6,7.4-3.7
			c1.4,0.6,1.9,1.6,1.5,3c-0.7,2.3-0.2,8.4,0.9,11.2c0.6,1.5,2.6,4.6,3.1,4.6c0.5,0,0.4-2.7-0.1-4.8c-0.8-3.5-1.4-9.2-1.1-10.4
			c0.6-2,4.2-3.3,6.4-2.4c1.1,0.5,1.1,0.8,0.3,2.7c-1,2.1-1,10.7,0,13.1c0.7,1.7,1.6,2.5,2,1.8c0.1-0.2,0.3-2.6,0.4-5.4
			c0.3-8.9,1.4-11.2,5.6-11.2c1.9,0,3.6,1.2,4.4,3.3c0.5,1.2,0.5,1.8,0.2,3.6c-0.5,2.8-0.3,5.7,0.8,8.3c1.6,4,2.4,2.2,2.5-5.6
			c0.1-4.3,0.6-6.3,1.8-7.3c1-0.8,3.5-1,4.8-0.3c2.1,1,2.2,1.4,2.1,5.9c-0.1,2.3,0.1,4.9,0.3,6c0.5,2.1,1.8,5,2.3,5
			c0.5,0,0.7-2.5,0.8-8.4l0.1-5.3l1.3-1.1c2.2-1.7,4.1-2.6,6.7-2.8l2.4-0.2l0.8,1.4c0.6,1.1,0.9,2.3,1,5.1c0.2,4.2,1,7.1,2.2,8.1
			c1.4,1.2,1.6,0.2,1.3-7.4l-0.2-7l1.1-1c0.6-0.5,1.8-1.2,2.7-1.4c1.4-0.4,1.8-0.3,3.1,0.3c1.4,0.7,1.5,0.9,1.7,2.7
			c0.3,2.6,1.6,6.4,2.9,8.1c1.9,2.6,2,1.8,1-6.5c-0.7-5.6-0.7-5.1,0.6-6.6c1.9-2,7.1-3.7,8.8-2.9c0.5,0.3,1.1,1.5,1.8,3.6
			c2.5,7.8,3.1,9.5,3.6,9.6c0.7,0.2,1.3-1.2,1.5-3.7c0.2-1.9,0-2.8-0.8-5.2c-1.2-3.5-1.2-4.1-0.1-6c0.8-1.3,1.2-1.6,2.5-1.8
			c0.9-0.1,3.4-1,5.7-2.1c2.3-1,4.9-2,5.9-2.1c1.7-0.2,1.8-0.2,2.6,1c0.4,0.7,1.4,2.9,2.1,4.9c2.4,6.7,3,7.1,3.5,2.8
			c0.4-3.2-0.3-6.4-2.1-9.1c-1.4-2.1-1.4-2.4-0.1-3.6c2-1.8,4.5-2.6,8.5-2.6c3.5,0,4-0.1,3.1-0.9c-0.3-0.3-0.3-0.7,0.2-1.3
			c0.8-1.1,3.2-3.1,4.3-3.3c0.4-0.1,1.1-0.3,1.6-0.4c0.7-0.2,1.1,0.2,2.7,2.5c1.1,1.5,2.3,3.9,2.9,5.6c0.5,1.6,1.2,3,1.4,3.1
			c1,0.3,1.2-4.4,0.3-7.1c-0.5-1.6-1.1-2.6-3.9-6.4c-0.6-0.8-0.6-0.9,0.1-1.4c1.5-1.1,3.5-1.9,5.9-2.3c2.4-0.4,2.6-0.5,5-2.9
			c2.5-2.5,3.3-2.9,6.6-3.7c1.6-0.4,1.9-0.3,3.3,0.5c0.8,0.5,2.5,1.7,3.7,2.7c1.2,1,2.3,1.9,2.5,1.9c0.7,0,9.7-5.9,10.1-6.7
			c0.3-0.5,2-2.4,4-4.3c3.8-3.7,5.2-5.7,6.2-8.3c1.5-4.2,1.7-20.1,0.5-27.9c-1.1-6.4-2.2-18.6-2.1-21.1c0.1-1.8,0.5-3.1,1.3-4.6
			c1.9-3.5,4.1-4.5,10.3-4.5l3.8,0l4.4,2.2c5.9,3,7.9,3.3,12.2,2c4-1.2,6.7-3.1,9.8-6.8c2.9-3.5,6.8-10.1,8.3-13.8
			c2.2-5.7,5-8.7,7.9-8.7c3.3,0,4.7,1.7,6.1,7.3c0.8,3.1,0.8,4,0.9,26.5c0.1,22.1,0.1,23.4,0.9,26.9c0.4,2,1.2,5.6,1.7,7.9
			c0.5,2.3,1,4.6,1.2,5.1c0.2,0.5,0.7,2.9,1.1,5.4c1.4,7.6,0.6,15.2-2.3,22.2c-1.7,4.1-2.9,6.1-6.5,11.5c-3.9,5.8-11.3,13.2-18,18.1
			c-2.3,1.7-7.8,6.2-12.3,10c-9.4,8-12.2,10.3-18.5,15c-2.5,1.9-8,5.9-12.1,8.9c-4.1,3-11.1,8-15.6,11c-4.4,3-8.7,5.9-9.4,6.5
			c-2.8,2.1-12.3,8.5-17.3,11.7c-18.4,11.8-36.7,21.1-54.9,27.8c-7.8,2.9-11.2,3.8-19.6,5.1C177.6,601.9,171.2,602.3,167.8,601.5
			L167.8,601.5z M363.2,433.2c0-0.1-0.1-0.2-0.2-0.2c-0.1,0-0.2,0.1-0.2,0.2s0.1,0.2,0.2,0.2C363.1,433.4,363.2,433.3,363.2,433.2z
			 M159.3,477.3c-1.5-0.4-3-0.8-3.1-1c-0.5-0.6-1.2-6.1-1.5-12.7c-0.3-6.2-0.8-9-1.5-8.3c-0.4,0.4-1.8,6.1-2.3,9.9
			c-0.3,1.7-0.3,4.1-0.2,5.9l0.3,3l-1.7,0.5c-1,0.3-3.2,0.5-5.7,0.5c-3.8,0-4.2-0.1-6.4-1.1c-2.1-1.1-2.3-1.2-2.8-3
			c-0.9-3.3-1.2-7.3-1.3-13.7c0-3.5-0.2-6.4-0.4-6.4c-0.5,0-1.4,2.3-2.1,5.3c-0.5,2.4-0.8,9.1-0.5,12.8c0.1,1.2,0,1.3-1.5,1.6
			c-2.4,0.5-5.5-0.3-7.4-1.8c-1.4-1.2-1.6-1.5-2-4c-0.8-4.8-0.8-5.7-0.9-10.6c0-2.7-0.2-4.8-0.3-4.8c-0.6,0-1.9,3.6-2.4,6.3
			c-0.3,1.6-0.4,4.4-0.2,6.9l0.2,4.1l-1,0.2c-2,0.5-4.4-0.2-6.2-1.8c-2.9-2.5-3.2-3.8-3.5-11.8c-0.6-16.6,0.8-31.4,3.8-41.6
			c0.6-2.1,1.4-5.1,1.8-6.6c0.9-3.8,1.2-11.8,0.6-15c-0.4-2.4-2.5-7.7-3.1-8.1c-0.2-0.1-0.3,2.4-0.3,5.4c0,6.3-0.5,8.5-3,12.5
			c-1.9,3-2.5,2.9-10-0.7c-3.3-1.6-8-4.2-10.4-5.6c-2.4-1.5-5.7-3.5-7.2-4.4c-3.2-1.9-8.4-7-10.9-10.6c-1.8-2.5-4.3-8.5-5.4-12.6
			c-0.3-1.2-0.9-4.5-1.4-7.3c-0.8-4.9-0.8-5.9-0.5-19.2c0.4-17,0.3-21.8-0.4-29.2c-0.7-6.8-2.8-19.9-4.4-27.8
			c-2.7-13.5-3.2-17.2-2.7-23.1c0.2-2.4,0.4-9.8,0.5-16.4c0.1-13.4,0.8-20,3.1-33.2c3.8-21.2,12.4-44.9,22.7-62.2
			c13.7-23.1,34.5-44,57.8-58.1c6-3.6,16.9-9.1,22.4-11.3c6.3-2.5,22.2-7.9,28.1-9.6c17.9-5.1,36.2-8.1,57-9.5
			c7.2-0.5,26.7-0.5,33.9,0c35.5,2.4,67.6,10,97.5,23.3c30.2,13.4,56.9,33.9,73.6,56.5c9.1,12.3,14.1,22.8,20.4,42.9
			c3,9.5,5.3,21.7,6.3,33.6c0.5,5.7,0.5,22.3,0,28.5c-2.2,27.5-9.5,53.2-21.7,76.4c-14.1,26.8-31.9,47-53.6,60.8
			c-8.9,5.6-21.4,11-25.6,11c-2.2,0-2.6-0.5-2.1-2.9c0.2-1.1,0.4-4.1,0.4-6.7c0-5.6-0.6-7.7-3.1-10.5c-2.9-3.1-6.6-4.2-9.6-2.8
			c-1,0.5-4.3,3.2-8.2,6.9c-6.3,5.9-10.9,9.4-14.3,10.7c-7,2.8-22.9,5.1-41.9,6c-7.5,0.4-15.7,1-16.7,1.3c-0.3,0.1-2.4,0.3-4.6,0.6
			c-4.5,0.5-12.1,2.5-15.4,4.1c-2.6,1.2-5.4,3.2-5.4,3.7c0,0.7,1.8,0.4,4.3-0.7c2.6-1.1,7.5-2.5,7.8-2.2c0.1,0.1-0.5,1.6-1.3,3.3
			c-2.1,4.3-2.5,6.4-2.2,11.5c0.2,3.3,0.5,5,1.4,8.1c2.6,8.3,1,15.2-4.1,17.5c-1.4,0.6-1.5,0.8-2.6,3.9c-1.2,3.2-4.9,6.3-8.1,6.7
			c-1,0.1-1.1,0-1.8-1.9c-0.4-1.1-1.3-3.2-2.1-4.6c-1.4-2.6-4.2-5.7-4.7-5.2c-0.2,0.1,0.7,3,1.9,6.4c1.2,3.4,2.2,6.6,2.2,7.1
			c0,1.3-1.9,3.7-4,5c-1,0.6-3,1.4-4.5,1.8c-2.4,0.6-3.1,0.9-5.2,2.8c-2.8,2.5-4.4,3.2-6.7,3.2h-1.7l-0.9-3.2
			c-0.9-3.3-4.1-10.1-4.7-10.1c-0.6,0-0.4,1,1.2,7c1.9,7.2,1.9,7.7,0.1,9.7c-2.9,3.1-9.6,4.8-14,3.6l-1.4-0.4l-0.1-2.9
			c-0.1-3.3-1.5-9.1-3-12.2c-1.1-2.4-2.5-4.4-3-4.4c-0.5,0,0,4.2,1.1,9.6c0.5,2.5,1.1,5.7,1.2,7l0.3,2.4l-2,1.7c-4.6,4-9.7,5-16,3.4
			l-2-0.5l-0.2-2.9c-0.5-5.7-3.5-16-4.7-16c-1,0-1,4.4-0.1,10.2c0.5,3,0.9,6.2,0.9,7c0,1.4-0.1,1.5-1.9,2.4
			C169.5,478.1,163.5,478.3,159.3,477.3L159.3,477.3z M162.4,392.7c0.5-0.5,1.5-1.9,2.2-3.2c1.2-2.4,1.3-2.5,1.3-7.6
			c0-4.7-0.1-5.6-1.2-9.6c-2.7-9.9-10.3-23.8-17.7-32.3c-2.9-3.3-4-4.2-6.5-5.5c-2.2-1.1-3.4-1-5.1,0.3c-1.7,1.3-1.7,1.4-2.3,6.6
			c-0.5,4.9-1.2,8.6-2.9,16.1c-2.1,9.6-3.4,19.4-3.1,24.6c0.3,4.7,0.7,6.3,1.9,7.6c1.5,1.6,4.2,0.6,5.6-2.1c2-3.8,2.6-9.2,3-25.3
			c0.2-10.6,0.3-12,0.8-11.6c0.9,0.7,5.7,10.3,6.6,13.3c2.4,7.5,6.4,18.6,7.8,21.4c1.2,2.4,2.2,3.7,4.2,5.6
			C159.8,393.8,160.8,394.1,162.4,392.7L162.4,392.7z M244,348.4c6.5-0.8,13.2-2.6,18.1-5c2.5-1.2,9.7-7,12.1-9.6
			c4.5-5,6.4-8.4,9-16.2c2.3-6.9,2.9-10.6,2.9-18.6c0-10.1-1.3-16-5.5-24c-5.6-10.7-12.6-18.8-21.1-24.3c-5.8-3.8-15.2-8.1-21.6-9.9
			c-4.6-1.3-13-2.8-17.2-3c-9.5-0.6-19.6,2.3-26.1,7.5c-3.3,2.6-7.3,8.9-9.3,14.7c-1.3,3.7-1.5,4.5-1.6,8.7
			c-0.2,7.6,0.6,20,1.9,28.4c0.6,4.2,1.4,9.6,1.8,12c0.7,5.4,1.3,7.8,3.1,13.2c1.7,5.2,3,7.5,5.8,11c4.6,5.7,10.4,9.4,19.9,12.6
			c8,2.7,11.6,3.3,19.1,3.1C238.2,348.9,242.2,348.6,244,348.4L244,348.4z M103.6,335.9c9.2-3.4,14.1-7.6,18.2-15.3
			c4.9-9.4,7.9-31,6.1-43.5c-1.5-10.3-5.3-19.9-10.5-26.5c-2.4-3-9.3-9-12-10.3c-2.4-1.2-7.1-2.4-10.5-2.7c-2.5-0.3-8,0.7-11.6,2
			c-1.2,0.4-3.3,1.6-4.6,2.5c-3.5,2.6-5.7,5.4-7.7,9.9l-1.7,3.9l0.1,29.9c0.1,21.8,0.2,30.4,0.6,31.9c0.7,3,4.9,10.9,7,13.1
			c1.2,1.2,3,2.5,5.6,3.9c4.3,2.3,7.1,2.9,12.7,3C98.6,337.8,99,337.7,103.6,335.9L103.6,335.9z M64.4,320.2c-0.1-0.1-0.3,0-0.3,0.2
			c0,0.3,0.1,0.4,0.3,0.2C64.6,320.5,64.6,320.3,64.4,320.2L64.4,320.2z M63.8,305.8c0-0.1-0.1-0.2-0.2-0.2c-0.1,0-0.2,0.1-0.2,0.2
			s0.1,0.2,0.2,0.2C63.7,306,63.8,305.9,63.8,305.8z"/>
	</g>
	<path id="path869" class="st4" d="M237,432.3c-0.2-0.5-1.3-6.3-2.5-12.9c-1.2-6.6-3-17-4.2-23.2c-2.5-13.7-12.2-67.3-15-82.9
		c-0.7-3.8-1.4-7.1-1.6-7.3c-0.2-0.2-2.4-0.8-4.8-1.5c-15.3-3.9-40.4-10.8-42.2-11.6c-0.9-0.4-1.2-0.9-1.2-1.6
		c0-0.5-0.1-1.2-0.3-1.4c-0.5-0.7,0.2-1.3,3.2-2.6c3.8-1.7,22.1-8.7,33.5-13c5-1.8,9.3-3.5,9.6-3.8c0.3-0.3,0.7-3.6,1-9.7
		c0.3-5.1,0.9-15.4,1.3-22.9c0.4-7.5,1.3-21.9,1.9-32c0.6-10.1,1.5-25.7,2.1-34.8s1.1-19.1,1.3-22.4c0.2-3.3,0.4-6.3,0.7-6.7
		c0.4-0.8,2.1-0.9,2.7-0.2c0.2,0.3,1.3,5.4,2.4,11.5c1.1,6,3.2,17.5,4.6,25.6c1.5,8,3.6,19.8,4.8,26.2c1.2,6.4,2.2,12.4,2.4,13.4
		c0.2,1,1,4.3,1.9,7.4c3.5,13.1,8.3,31.7,10,39.3c0.3,1.4,0.7,2.7,0.9,2.9c0.2,0.2,2.6,0.7,5.3,1.3s9.1,1.8,14.1,2.9
		c50.2,10.2,46.6,9.4,47.5,10.4c0.4,0.5,0.4,0.7-0.1,1c-0.5,0.3-0.5,0.4-0.1,0.6c0.9,0.3,0.6,1.3-0.6,1.9
		c-2.3,1.1-26.6,8.2-51.5,14.8c-6.3,1.7-11.4,3.1-11.5,3.2c-0.2,0.2-0.8,6.3-1.5,14.2c-0.7,8.4-0.9,10.4-1.4,15.2
		c-0.6,5.9-0.8,7.7-1.2,12c-0.8,7.8-3.8,34.1-4.6,40.7c-0.2,1.6-0.6,4.4-0.8,6.2c-0.2,1.8-0.5,4.4-0.6,5.9
		c-0.3,7.3-1.6,28.5-1.8,31.3l-0.3,3.2l-1.3,0.1C237.7,433.2,237.3,433,237,432.3L237,432.3z M291.3,422.1c0-0.1-1.4-7.6-3.1-16.7
		s-3.6-19.1-4.2-22.4c-0.6-3.3-1.1-6-1.2-6c0,0-3-0.8-6.5-1.7c-9.7-2.5-11.3-3-11.4-3.7c-0.1-0.8,0.1-0.9,9.5-4.4
		c4.1-1.5,7.5-2.8,7.5-2.9c0.1-0.1,0.9-11.9,2.1-33.4c0.6-10.6,0.8-12.5,1.4-12.4c0.4,0.1,0.7,0.8,0.9,1.7c0.2,0.9,1.3,7.1,2.6,13.8
		c1.9,10.1,6.3,28.8,7,29.4c0.1,0.1,5.5,1.2,12.1,2.5c6.9,1.4,12.1,2.6,12.3,2.9c0.2,0.3,0.1,0.7-0.3,1c-0.3,0.3-5.4,1.7-11.3,3.3
		c-5.9,1.6-10.9,3-11.3,3.2c-0.4,0.2-0.7,1.3-0.9,3.3c-0.9,9-1.3,13.2-2,19.1c-1,8.1-1.5,13.7-1.9,19.3c-0.2,3.3-0.4,4.3-0.8,4.3
		C291.5,422.3,291.3,422.2,291.3,422.1L291.3,422.1z M291.9,257.8c-0.1-0.2-0.7-2.1-1.2-4.3c-0.6-2.2-2.3-8.9-3.9-14.9
		c-1.6-6-3.2-12.4-3.6-14.2l-0.7-3.2l-7.5-1.7c-9.7-2.2-10.5-2.4-10.8-3.1c-0.2-0.6,0.1-0.7,8.4-2.8c2.4-0.6,5.5-1.4,6.8-1.8
		l2.5-0.7l0.7-7.1c0.4-3.9,1-9.7,1.4-12.7c0.4-3.1,0.9-7.8,1.2-10.5c0.5-4.6,1-6.3,1.7-5.3c0.1,0.2,0.6,2.5,1.1,5
		c0.4,2.5,1,5.3,1.2,6.1c0.2,0.9,0.7,3.3,1.1,5.3c0.9,5,4.9,18,5.7,18.4c0.7,0.4,10.4,1.5,16.3,1.8c6.8,0.4,8,0.8,6,1.8
		c-1.1,0.6-14.9,4.9-18.4,5.8c-1.6,0.4-3,0.8-3.2,1c-0.2,0.1-1,6.2-1.8,13.4c-1.4,11.7-1.7,16.5-1.8,22.5
		C292.9,258,292.5,258.6,291.9,257.8L291.9,257.8z"/>
</g>
</svg>
