<?xml version="1.0" encoding="UTF-8" standalone="no"?>
<!-- Created with Inkscape (http://www.inkscape.org/) -->

<svg
        xmlns:inkscape="http://www.inkscape.org/namespaces/inkscape"
        xmlns:sodipodi="http://sodipodi.sourceforge.net/DTD/sodipodi-0.dtd"
        xmlns:xlink="http://www.w3.org/1999/xlink"
        width="180mm"
        height="180mm"
        viewBox="0 0 180 180"
        version="1.1"
        id="svg1"
        xml:space="preserve"
        inkscape:version="1.4 (86a8ad7, 2024-10-11)"
        sodipodi:docname="skelly-sweat.svg"
        xmlns="http://www.w3.org/2000/svg"
><sodipodi:namedview
     id="namedview1"
     pagecolor="#505050"
     bordercolor="#eeeeee"
     borderopacity="1"
     inkscape:showpageshadow="0"
     inkscape:pageopacity="0"
     inkscape:pagecheckerboard="0"
     inkscape:deskcolor="#505050"
     inkscape:document-units="mm"
     inkscape:zoom="0.35945918"
     inkscape:cx="873.53451"
     inkscape:cy="172.48134"
     inkscape:window-width="1920"
     inkscape:window-height="1032"
     inkscape:window-x="1920"
     inkscape:window-y="0"
     inkscape:window-maximized="1"
     inkscape:current-layer="g1" />
    <defs
            id="defs1"><linearGradient
       id="linearGradient2"
       inkscape:collect="always"><stop
         style="stop-color:#bde9ec;stop-opacity:1;"
         offset="0"
         id="stop2" /><stop
            style="stop-color:#bbebef;stop-opacity:0;"
            offset="1"
            id="stop3"/></linearGradient>
        <linearGradient
                id="swatch1"
                inkscape:swatch="solid"><stop
         style="stop-color:#000000;stop-opacity:1;"
         offset="0"
         id="stop1" /></linearGradient>
        <linearGradient
                inkscape:collect="always"
                xlink:href="#linearGradient2"
                id="linearGradient3"
                x1="278.38922"
                y1="128.78748"
                x2="328.90845"
                y2="187.22009"
                gradientUnits="userSpaceOnUse"
                gradientTransform="matrix(0.99932235,0,0,1.0554488,-106.39275,-133.68233)"/></defs>
    <g
            inkscape:label="Layer 1"
            inkscape:groupmode="layer"
            id="layer1"><g
       id="g1"
       transform="matrix(0.26458333,0,0,0.26458333,48.328645,40.510209)"><g
         id="layer2"
         transform="translate(6.5984788,6.6389071)"
         inkscape:label="Layer 2"
         class="st0">
	<ellipse
            id="path962"
            cx="171.3"
            cy="282.5"
            rx="146.10001"
            ry="160.39999"/>
</g><g
            id="layer1-9"
            transform="translate(-110.52076,-154.32084)"
            inkscape:label="Layer 1">

		<image
                style="display:none;overflow:visible;enable-background:new"
                width="1668"
                height="2224"
                id="image843"
                xlink:href="16530232.png"
                transform="matrix(0.3849,0,0,0.3691,-49.7662,-67.5522)">
	</image>

        <image
                style="display:none;overflow:visible;enable-background:new"
                width="1668"
                height="2224"
                id="image865"
                xlink:href="16530236.png"
                transform="matrix(0.4143,0,0,0.3995,-66.2662,-100.5522)">
	</image>
        <path
                id="path853"
                class="st1"
                d="m 167.8,601.5 c -3.5,-0.8 -5.5,-1.7 -9.6,-4.6 -4.1,-2.8 -6.6,-5.5 -9.4,-10.2 -5,-8.3 -7.4,-17.6 -7.9,-30.1 l -0.3,-6.8 -1.6,-3.7 c -0.9,-2 -2.9,-6.6 -4.4,-10.2 -1.6,-3.6 -3.4,-8 -4.1,-9.8 -2,-5.7 -4.7,-14.2 -4.7,-14.9 0,-1.9 5.3,-4.6 7.4,-3.7 1.4,0.6 1.9,1.6 1.5,3 -0.7,2.3 -0.2,8.4 0.9,11.2 0.6,1.5 2.6,4.6 3.1,4.6 0.5,0 0.4,-2.7 -0.1,-4.8 -0.8,-3.5 -1.4,-9.2 -1.1,-10.4 0.6,-2 4.2,-3.3 6.4,-2.4 1.1,0.5 1.1,0.8 0.3,2.7 -1,2.1 -1,10.7 0,13.1 0.7,1.7 1.6,2.5 2,1.8 0.1,-0.2 0.3,-2.6 0.4,-5.4 0.3,-8.9 1.4,-11.2 5.6,-11.2 1.9,0 3.6,1.2 4.4,3.3 0.5,1.2 0.5,1.8 0.2,3.6 -0.5,2.8 -0.3,5.7 0.8,8.3 1.6,4 2.4,2.2 2.5,-5.6 0.1,-4.3 0.6,-6.3 1.8,-7.3 1,-0.8 3.5,-1 4.8,-0.3 2.1,1 2.2,1.4 2.1,5.9 -0.1,2.3 0.1,4.9 0.3,6 0.5,2.1 1.8,5 2.3,5 0.5,0 0.7,-2.5 0.8,-8.4 l 0.1,-5.3 1.3,-1.1 c 2.2,-1.7 4.1,-2.6 6.7,-2.8 l 2.4,-0.2 0.8,1.4 c 0.6,1.1 0.9,2.3 1,5.1 0.2,4.2 1,7.1 2.2,8.1 1.4,1.2 1.6,0.2 1.3,-7.4 l -0.2,-7 1.1,-1 c 0.6,-0.5 1.8,-1.2 2.7,-1.4 1.4,-0.4 1.8,-0.3 3.1,0.3 1.4,0.7 1.5,0.9 1.7,2.7 0.3,2.6 1.6,6.4 2.9,8.1 1.9,2.6 2,1.8 1,-6.5 -0.7,-5.6 -0.7,-5.1 0.6,-6.6 1.9,-2 7.1,-3.7 8.8,-2.9 0.5,0.3 1.1,1.5 1.8,3.6 2.5,7.8 3.1,9.5 3.6,9.6 0.7,0.2 1.3,-1.2 1.5,-3.7 0.2,-1.9 0,-2.8 -0.8,-5.2 -1.2,-3.5 -1.2,-4.1 -0.1,-6 0.8,-1.3 1.2,-1.6 2.5,-1.8 0.9,-0.1 3.4,-1 5.7,-2.1 2.3,-1 4.9,-2 5.9,-2.1 1.7,-0.2 1.8,-0.2 2.6,1 0.4,0.7 1.4,2.9 2.1,4.9 2.4,6.7 3,7.1 3.5,2.8 0.4,-3.2 -0.3,-6.4 -2.1,-9.1 -1.4,-2.1 -1.4,-2.4 -0.1,-3.6 2,-1.8 4.5,-2.6 8.5,-2.6 3.5,0 4,-0.1 3.1,-0.9 -0.3,-0.3 -0.3,-0.7 0.2,-1.3 0.8,-1.1 3.2,-3.1 4.3,-3.3 0.4,-0.1 1.1,-0.3 1.6,-0.4 0.7,-0.2 1.1,0.2 2.7,2.5 1.1,1.5 2.3,3.9 2.9,5.6 0.5,1.6 1.2,3 1.4,3.1 1,0.3 1.2,-4.4 0.3,-7.1 -0.5,-1.6 -1.1,-2.6 -3.9,-6.4 -0.6,-0.8 -0.6,-0.9 0.1,-1.4 1.5,-1.1 3.5,-1.9 5.9,-2.3 2.4,-0.4 2.6,-0.5 5,-2.9 2.5,-2.5 3.3,-2.9 6.6,-3.7 1.6,-0.4 1.9,-0.3 3.3,0.5 0.8,0.5 2.5,1.7 3.7,2.7 1.2,1 2.3,1.9 2.5,1.9 0.7,0 9.7,-5.9 10.1,-6.7 0.3,-0.5 2,-2.4 4,-4.3 3.8,-3.7 5.2,-5.7 6.2,-8.3 1.5,-4.2 1.7,-20.1 0.5,-27.9 -1.1,-6.4 -2.2,-18.6 -2.1,-21.1 0.1,-1.8 0.5,-3.1 1.3,-4.6 1.9,-3.5 4.1,-4.5 10.3,-4.5 h 3.8 l 4.4,2.2 c 5.9,3 7.9,3.3 12.2,2 4,-1.2 6.7,-3.1 9.8,-6.8 2.9,-3.5 6.8,-10.1 8.3,-13.8 2.2,-5.7 5,-8.7 7.9,-8.7 3.3,0 4.7,1.7 6.1,7.3 0.8,3.1 0.8,4 0.9,26.5 0.1,22.1 0.1,23.4 0.9,26.9 0.4,2 1.2,5.6 1.7,7.9 0.5,2.3 1,4.6 1.2,5.1 0.2,0.5 0.7,2.9 1.1,5.4 1.4,7.6 0.6,15.2 -2.3,22.2 -1.7,4.1 -2.9,6.1 -6.5,11.5 -3.9,5.8 -11.3,13.2 -18,18.1 -2.3,1.7 -7.8,6.2 -12.3,10 -9.4,8 -12.2,10.3 -18.5,15 -2.5,1.9 -8,5.9 -12.1,8.9 -4.1,3 -11.1,8 -15.6,11 -4.4,3 -8.7,5.9 -9.4,6.5 -2.8,2.1 -12.3,8.5 -17.3,11.7 -18.4,11.8 -36.7,21.1 -54.9,27.8 -7.8,2.9 -11.2,3.8 -19.6,5.1 -8.5,1.5 -14.9,1.9 -18.3,1.1 z M 363.2,433.2 c 0,-0.1 -0.1,-0.2 -0.2,-0.2 -0.1,0 -0.2,0.1 -0.2,0.2 0,0.1 0.1,0.2 0.2,0.2 0.1,0 0.2,-0.1 0.2,-0.2 z m -203.9,44.1 c -1.5,-0.4 -3,-0.8 -3.1,-1 -0.5,-0.6 -1.2,-6.1 -1.5,-12.7 -0.3,-6.2 -0.8,-9 -1.5,-8.3 -0.4,0.4 -1.8,6.1 -2.3,9.9 -0.3,1.7 -0.3,4.1 -0.2,5.9 l 0.3,3 -1.7,0.5 c -1,0.3 -3.2,0.5 -5.7,0.5 -3.8,0 -4.2,-0.1 -6.4,-1.1 -2.1,-1.1 -2.3,-1.2 -2.8,-3 -0.9,-3.3 -1.2,-7.3 -1.3,-13.7 0,-3.5 -0.2,-6.4 -0.4,-6.4 -0.5,0 -1.4,2.3 -2.1,5.3 -0.5,2.4 -0.8,9.1 -0.5,12.8 0.1,1.2 0,1.3 -1.5,1.6 -2.4,0.5 -5.5,-0.3 -7.4,-1.8 -1.4,-1.2 -1.6,-1.5 -2,-4 -0.8,-4.8 -0.8,-5.7 -0.9,-10.6 0,-2.7 -0.2,-4.8 -0.3,-4.8 -0.6,0 -1.9,3.6 -2.4,6.3 -0.3,1.6 -0.4,4.4 -0.2,6.9 l 0.2,4.1 -1,0.2 c -2,0.5 -4.4,-0.2 -6.2,-1.8 -2.9,-2.5 -3.2,-3.8 -3.5,-11.8 -0.6,-16.6 0.8,-31.4 3.8,-41.6 0.6,-2.1 1.4,-5.1 1.8,-6.6 0.9,-3.8 1.2,-11.8 0.6,-15 -0.4,-2.4 -2.5,-7.7 -3.1,-8.1 -0.2,-0.1 -0.3,2.4 -0.3,5.4 0,6.3 -0.5,8.5 -3,12.5 -1.9,3 -2.5,2.9 -10,-0.7 -3.3,-1.6 -8,-4.2 -10.4,-5.6 -2.4,-1.5 -5.7,-3.5 -7.2,-4.4 -3.2,-1.9 -8.4,-7 -10.9,-10.6 -1.8,-2.5 -4.3,-8.5 -5.4,-12.6 -0.3,-1.2 -0.9,-4.5 -1.4,-7.3 -0.8,-4.9 -0.8,-5.9 -0.5,-19.2 0.4,-17 0.3,-21.8 -0.4,-29.2 -0.7,-6.8 -2.8,-19.9 -4.4,-27.8 -2.7,-13.5 -3.2,-17.2 -2.7,-23.1 0.2,-2.4 0.4,-9.8 0.5,-16.4 0.1,-13.4 0.8,-20 3.1,-33.2 3.8,-21.2 12.4,-44.9 22.7,-62.2 13.7,-23.1 34.5,-44 57.8,-58.1 6,-3.6 16.9,-9.1 22.4,-11.3 6.3,-2.5 22.2,-7.9 28.1,-9.6 17.9,-5.1 36.2,-8.1 57,-9.5 7.2,-0.5 26.7,-0.5 33.9,0 35.5,2.4 67.6,10 97.5,23.3 30.2,13.4 56.9,33.9 73.6,56.5 9.1,12.3 14.1,22.8 20.4,42.9 3,9.5 5.3,21.7 6.3,33.6 0.5,5.7 0.5,22.3 0,28.5 -2.2,27.5 -9.5,53.2 -21.7,76.4 -14.1,26.8 -31.9,47 -53.6,60.8 -8.9,5.6 -21.4,11 -25.6,11 -2.2,0 -2.6,-0.5 -2.1,-2.9 0.2,-1.1 0.4,-4.1 0.4,-6.7 0,-5.6 -0.6,-7.7 -3.1,-10.5 -2.9,-3.1 -6.6,-4.2 -9.6,-2.8 -1,0.5 -4.3,3.2 -8.2,6.9 -6.3,5.9 -10.9,9.4 -14.3,10.7 -7,2.8 -22.9,5.1 -41.9,6 -7.5,0.4 -15.7,1 -16.7,1.3 -0.3,0.1 -2.4,0.3 -4.6,0.6 -4.5,0.5 -12.1,2.5 -15.4,4.1 -2.6,1.2 -5.4,3.2 -5.4,3.7 0,0.7 1.8,0.4 4.3,-0.7 2.6,-1.1 7.5,-2.5 7.8,-2.2 0.1,0.1 -0.5,1.6 -1.3,3.3 -2.1,4.3 -2.5,6.4 -2.2,11.5 0.2,3.3 0.5,5 1.4,8.1 2.6,8.3 1,15.2 -4.1,17.5 -1.4,0.6 -1.5,0.8 -2.6,3.9 -1.2,3.2 -4.9,6.3 -8.1,6.7 -1,0.1 -1.1,0 -1.8,-1.9 -0.4,-1.1 -1.3,-3.2 -2.1,-4.6 -1.4,-2.6 -4.2,-5.7 -4.7,-5.2 -0.2,0.1 0.7,3 1.9,6.4 1.2,3.4 2.2,6.6 2.2,7.1 0,1.3 -1.9,3.7 -4,5 -1,0.6 -3,1.4 -4.5,1.8 -2.4,0.6 -3.1,0.9 -5.2,2.8 -2.8,2.5 -4.4,3.2 -6.7,3.2 h -1.7 l -0.9,-3.2 c -0.9,-3.3 -4.1,-10.1 -4.7,-10.1 -0.6,0 -0.4,1 1.2,7 1.9,7.2 1.9,7.7 0.1,9.7 -2.9,3.1 -9.6,4.8 -14,3.6 l -1.4,-0.4 -0.1,-2.9 c -0.1,-3.3 -1.5,-9.1 -3,-12.2 -1.1,-2.4 -2.5,-4.4 -3,-4.4 -0.5,0 0,4.2 1.1,9.6 0.5,2.5 1.1,5.7 1.2,7 l 0.3,2.4 -2,1.7 c -4.6,4 -9.7,5 -16,3.4 l -2,-0.5 -0.2,-2.9 c -0.5,-5.7 -3.5,-16 -4.7,-16 -1,0 -1,4.4 -0.1,10.2 0.5,3 0.9,6.2 0.9,7 0,1.4 -0.1,1.5 -1.9,2.4 -2.8,1.5 -8.8,1.7 -13,0.7 z m 3.1,-84.6 c 0.5,-0.5 1.5,-1.9 2.2,-3.2 1.2,-2.4 1.3,-2.5 1.3,-7.6 0,-4.7 -0.1,-5.6 -1.2,-9.6 -2.7,-9.9 -10.3,-23.8 -17.7,-32.3 -2.9,-3.3 -4,-4.2 -6.5,-5.5 -2.2,-1.1 -3.4,-1 -5.1,0.3 -1.7,1.3 -1.7,1.4 -2.3,6.6 -0.5,4.9 -1.2,8.6 -2.9,16.1 -2.1,9.6 -3.4,19.4 -3.1,24.6 0.3,4.7 0.7,6.3 1.9,7.6 1.5,1.6 4.2,0.6 5.6,-2.1 2,-3.8 2.6,-9.2 3,-25.3 0.2,-10.6 0.3,-12 0.8,-11.6 0.9,0.7 5.7,10.3 6.6,13.3 2.4,7.5 6.4,18.6 7.8,21.4 1.2,2.4 2.2,3.7 4.2,5.6 2.8,2.8 3.8,3.1 5.4,1.7 z M 244,348.4 c 6.5,-0.8 13.2,-2.6 18.1,-5 2.5,-1.2 9.7,-7 12.1,-9.6 4.5,-5 6.4,-8.4 9,-16.2 2.3,-6.9 2.9,-10.6 2.9,-18.6 0,-10.1 -1.3,-16 -5.5,-24 -5.6,-10.7 -12.6,-18.8 -21.1,-24.3 -5.8,-3.8 -15.2,-8.1 -21.6,-9.9 -4.6,-1.3 -13,-2.8 -17.2,-3 -9.5,-0.6 -19.6,2.3 -26.1,7.5 -3.3,2.6 -7.3,8.9 -9.3,14.7 -1.3,3.7 -1.5,4.5 -1.6,8.7 -0.2,7.6 0.6,20 1.9,28.4 0.6,4.2 1.4,9.6 1.8,12 0.7,5.4 1.3,7.8 3.1,13.2 1.7,5.2 3,7.5 5.8,11 4.6,5.7 10.4,9.4 19.9,12.6 8,2.7 11.6,3.3 19.1,3.1 2.9,-0.1 6.9,-0.4 8.7,-0.6 z M 103.6,335.9 c 9.2,-3.4 14.1,-7.6 18.2,-15.3 4.9,-9.4 7.9,-31 6.1,-43.5 -1.5,-10.3 -5.3,-19.9 -10.5,-26.5 -2.4,-3 -9.3,-9 -12,-10.3 -2.4,-1.2 -7.1,-2.4 -10.5,-2.7 -2.5,-0.3 -8,0.7 -11.6,2 -1.2,0.4 -3.3,1.6 -4.6,2.5 -3.5,2.6 -5.7,5.4 -7.7,9.9 l -1.7,3.9 0.1,29.9 c 0.1,21.8 0.2,30.4 0.6,31.9 0.7,3 4.9,10.9 7,13.1 1.2,1.2 3,2.5 5.6,3.9 4.3,2.3 7.1,2.9 12.7,3 3.3,0.1 3.7,0 8.3,-1.8 z M 64.4,320.2 c -0.1,-0.1 -0.3,0 -0.3,0.2 0,0.3 0.1,0.4 0.3,0.2 0.2,-0.1 0.2,-0.3 0,-0.4 z m -0.6,-14.4 c 0,-0.1 -0.1,-0.2 -0.2,-0.2 -0.1,0 -0.2,0.1 -0.2,0.2 0,0.1 0.1,0.2 0.2,0.2 0.1,0 0.2,-0.1 0.2,-0.2 z"/>
        <g
                id="path959">
		<path
                id="path966"
                sodipodi:nodetypes="csssssscssssssssscscccccsssssssscccssccccsscssssssssccssccscssscccssssc"
                d="M 241.9,40.7 C 220,42.1 200.2,45.4 181,50.8 173.4,53 158.8,58 151.1,61 143.4,64 133.3,69.2 125.9,73.7 99.8,89.4 77,112.2 61.6,138.2 49.8,158 40.8,183 36.6,206.7 c -2.4,13.7 -3.3,22.4 -3.4,36.3 -0.1,6.3 -0.4,14.6 -0.4,15 -0.6,7.4 0.2,14.6 3,28.4 1.4,7.1 3.5,20.6 4.1,26 0.7,6.6 0.7,9.9 0.3,26.8 -0.3,13.3 -0.1,17.3 0.7,22.5 0.5,3.3 0.8,5.6 1.8,9.4 1.8,6.7 3.4,11.6 8.1,18.3 4.8,6.9 8.8,11.2 16.7,16 1.4,0.8 4.7,2.8 7.1,4.3 3.5,2.1 8,4.6 12,6.5 0.8,0.4 1.5,0.8 2.2,1.2 -2,11.1 -3,23.1 -2.6,36.7 0.1,4.3 0,7.5 1.5,12.7 1.6,5.2 6.1,10.6 8.3,12.6 4.5,4 10.3,6.6 17,6.6 3.9,2.5 8.1,3.2 12.5,3.2 l 0.4,0.4 c -2.1,0.5 -4,1.1 -5.7,2 -2.1,1.1 -4.2,2.3 -6.6,4.6 -2.4,2.3 -6.7,5.9 -6.7,15.1 0,5.7 0.5,4.4 0.7,5.1 0.2,0.7 0.3,1.3 0.5,1.9 0.4,1.3 0.8,2.7 1.3,4.2 1,3.1 2.2,6.8 3.3,10 1.2,3.3 2.9,7.2 4.6,11.1 1.5,3.5 3.6,8.1 4.3,9.8 l 0.2,0.6 0.1,3.4 c 0.6,14.5 3.9,27.6 10.6,38.9 3.7,6.2 9.1,12.1 14.9,16.1 4.9,3.3 11.1,6.3 16.2,7.4 l 11.9,1.2 10.5,-1.5 c 1,-0.2 1.8,-0.2 2.8,-0.4 8.8,-1.4 14.8,-3 23.1,-6.1 19.6,-7.3 39.1,-17.2 58.5,-29.6 5.5,-3.5 14.2,-9.3 18.3,-12.4 -1.1,0.8 4.5,-3.1 8.9,-6.1 4.8,-3.2 11.7,-8.2 16.2,-11.5 4.1,-3 9.6,-7.1 12.1,-8.9 6.5,-4.8 10.2,-7.7 19.6,-15.8 4.1,-3.6 10.1,-8.3 11.2,-9.2 8.6,-6.4 16.4,-14.1 22.3,-22.6 3.9,-5.7 6.3,-10 8.3,-14.9 4.3,-10.3 5.4,-21.7 3.4,-32.7 -0.3,-1.4 -0.5,-2.8 -0.8,-4 -0.3,-1.2 0.6,0.1 -1.3,-4.8 1.5,3.8 0.5,1.5 0.3,0.8 -0.2,-0.7 -0.4,-1.7 -0.6,-2.7 -0.5,-2.5 -1.2,-6 -1.7,-8.3 v 0 c -0.3,-1.3 -0.2,-0.1 -0.3,-3.1 -0.1,-2.7 -0.1,-8.9 -0.1,-18.3 1.9,-0.8 3.7,-1.7 5.9,-2.6 5.7,-2.5 11.7,-5.5 17.2,-9 24.8,-15.8 44.8,-38.7 60.2,-67.9 13.4,-25.5 21.4,-53.7 23.8,-83.6 v 0 c 0.7,-8.9 0.8,-22.8 0,-31.6 -1.2,-13.2 -3.6,-26.3 -7.1,-37.6 -6.6,-21 -13,-34.7 -23.2,-48.5 C 443.8,102.2 414.9,80.2 381.9,65.6 349.9,51.4 315.4,43.2 278,40.7 c -9.2,-0.6 -26.7,-0.6 -36.1,0 z"/>
            <path
                    id="path968"
                    class="st2"
                    d="m 167.8,601.5 c -3.5,-0.8 -5.5,-1.7 -9.6,-4.6 -4.1,-2.8 -6.6,-5.5 -9.4,-10.2 -5,-8.3 -7.4,-17.6 -7.9,-30.1 l -0.3,-6.8 -1.6,-3.7 c -0.9,-2 -2.9,-6.6 -4.4,-10.2 -1.6,-3.6 -3.4,-8 -4.1,-9.8 -2,-5.7 -4.7,-14.2 -4.7,-14.9 0,-1.9 5.3,-4.6 7.4,-3.7 1.4,0.6 1.9,1.6 1.5,3 -0.7,2.3 -0.2,8.4 0.9,11.2 0.6,1.5 2.6,4.6 3.1,4.6 0.5,0 0.4,-2.7 -0.1,-4.8 -0.8,-3.5 -1.4,-9.2 -1.1,-10.4 0.6,-2 4.2,-3.3 6.4,-2.4 1.1,0.5 1.1,0.8 0.3,2.7 -1,2.1 -1,10.7 0,13.1 0.7,1.7 1.6,2.5 2,1.8 0.1,-0.2 0.3,-2.6 0.4,-5.4 0.3,-8.9 1.4,-11.2 5.6,-11.2 1.9,0 3.6,1.2 4.4,3.3 0.5,1.2 0.5,1.8 0.2,3.6 -0.5,2.8 -0.3,5.7 0.8,8.3 1.6,4 2.4,2.2 2.5,-5.6 0.1,-4.3 0.6,-6.3 1.8,-7.3 1,-0.8 3.5,-1 4.8,-0.3 2.1,1 2.2,1.4 2.1,5.9 -0.1,2.3 0.1,4.9 0.3,6 0.5,2.1 1.8,5 2.3,5 0.5,0 0.7,-2.5 0.8,-8.4 l 0.1,-5.3 1.3,-1.1 c 2.2,-1.7 4.1,-2.6 6.7,-2.8 l 2.4,-0.2 0.8,1.4 c 0.6,1.1 0.9,2.3 1,5.1 0.2,4.2 1,7.1 2.2,8.1 1.4,1.2 1.6,0.2 1.3,-7.4 l -0.2,-7 1.1,-1 c 0.6,-0.5 1.8,-1.2 2.7,-1.4 1.4,-0.4 1.8,-0.3 3.1,0.3 1.4,0.7 1.5,0.9 1.7,2.7 0.3,2.6 1.6,6.4 2.9,8.1 1.9,2.6 2,1.8 1,-6.5 -0.7,-5.6 -0.7,-5.1 0.6,-6.6 1.9,-2 7.1,-3.7 8.8,-2.9 0.5,0.3 1.1,1.5 1.8,3.6 2.5,7.8 3.1,9.5 3.6,9.6 0.7,0.2 1.3,-1.2 1.5,-3.7 0.2,-1.9 0,-2.8 -0.8,-5.2 -1.2,-3.5 -1.2,-4.1 -0.1,-6 0.8,-1.3 1.2,-1.6 2.5,-1.8 0.9,-0.1 3.4,-1 5.7,-2.1 2.3,-1 4.9,-2 5.9,-2.1 1.7,-0.2 1.8,-0.2 2.6,1 0.4,0.7 1.4,2.9 2.1,4.9 2.4,6.7 3,7.1 3.5,2.8 0.4,-3.2 -0.3,-6.4 -2.1,-9.1 -1.4,-2.1 -1.4,-2.4 -0.1,-3.6 2,-1.8 4.5,-2.6 8.5,-2.6 3.5,0 4,-0.1 3.1,-0.9 -0.3,-0.3 -0.3,-0.7 0.2,-1.3 0.8,-1.1 3.2,-3.1 4.3,-3.3 0.4,-0.1 1.1,-0.3 1.6,-0.4 0.7,-0.2 1.1,0.2 2.7,2.5 1.1,1.5 2.3,3.9 2.9,5.6 0.5,1.6 1.2,3 1.4,3.1 1,0.3 1.2,-4.4 0.3,-7.1 -0.5,-1.6 -1.1,-2.6 -3.9,-6.4 -0.6,-0.8 -0.6,-0.9 0.1,-1.4 1.5,-1.1 3.5,-1.9 5.9,-2.3 2.4,-0.4 2.6,-0.5 5,-2.9 2.5,-2.5 3.3,-2.9 6.6,-3.7 1.6,-0.4 1.9,-0.3 3.3,0.5 0.8,0.5 2.5,1.7 3.7,2.7 1.2,1 2.3,1.9 2.5,1.9 0.7,0 9.7,-5.9 10.1,-6.7 0.3,-0.5 2,-2.4 4,-4.3 3.8,-3.7 5.2,-5.7 6.2,-8.3 1.5,-4.2 1.7,-20.1 0.5,-27.9 -1.1,-6.4 -2.2,-18.6 -2.1,-21.1 0.1,-1.8 0.5,-3.1 1.3,-4.6 1.9,-3.5 4.1,-4.5 10.3,-4.5 h 3.8 l 4.4,2.2 c 5.9,3 7.9,3.3 12.2,2 4,-1.2 6.7,-3.1 9.8,-6.8 2.9,-3.5 6.8,-10.1 8.3,-13.8 2.2,-5.7 5,-8.7 7.9,-8.7 3.3,0 4.7,1.7 6.1,7.3 0.8,3.1 0.8,4 0.9,26.5 0.1,22.1 0.1,23.4 0.9,26.9 0.4,2 1.2,5.6 1.7,7.9 0.5,2.3 1,4.6 1.2,5.1 0.2,0.5 0.7,2.9 1.1,5.4 1.4,7.6 0.6,15.2 -2.3,22.2 -1.7,4.1 -2.9,6.1 -6.5,11.5 -3.9,5.8 -11.3,13.2 -18,18.1 -2.3,1.7 -7.8,6.2 -12.3,10 -9.4,8 -12.2,10.3 -18.5,15 -2.5,1.9 -8,5.9 -12.1,8.9 -4.1,3 -11.1,8 -15.6,11 -4.4,3 -8.7,5.9 -9.4,6.5 -2.8,2.1 -12.3,8.5 -17.3,11.7 -18.4,11.8 -36.7,21.1 -54.9,27.8 -7.8,2.9 -11.2,3.8 -19.6,5.1 -8.5,1.5 -14.9,1.9 -18.3,1.1 z M 363.2,433.2 c 0,-0.1 -0.1,-0.2 -0.2,-0.2 -0.1,0 -0.2,0.1 -0.2,0.2 0,0.1 0.1,0.2 0.2,0.2 0.1,0 0.2,-0.1 0.2,-0.2 z m -203.9,44.1 c -1.5,-0.4 -3,-0.8 -3.1,-1 -0.5,-0.6 -1.2,-6.1 -1.5,-12.7 -0.3,-6.2 -0.8,-9 -1.5,-8.3 -0.4,0.4 -1.8,6.1 -2.3,9.9 -0.3,1.7 -0.3,4.1 -0.2,5.9 l 0.3,3 -1.7,0.5 c -1,0.3 -3.2,0.5 -5.7,0.5 -3.8,0 -4.2,-0.1 -6.4,-1.1 -2.1,-1.1 -2.3,-1.2 -2.8,-3 -0.9,-3.3 -1.2,-7.3 -1.3,-13.7 0,-3.5 -0.2,-6.4 -0.4,-6.4 -0.5,0 -1.4,2.3 -2.1,5.3 -0.5,2.4 -0.8,9.1 -0.5,12.8 0.1,1.2 0,1.3 -1.5,1.6 -2.4,0.5 -5.5,-0.3 -7.4,-1.8 -1.4,-1.2 -1.6,-1.5 -2,-4 -0.8,-4.8 -0.8,-5.7 -0.9,-10.6 0,-2.7 -0.2,-4.8 -0.3,-4.8 -0.6,0 -1.9,3.6 -2.4,6.3 -0.3,1.6 -0.4,4.4 -0.2,6.9 l 0.2,4.1 -1,0.2 c -2,0.5 -4.4,-0.2 -6.2,-1.8 -2.9,-2.5 -3.2,-3.8 -3.5,-11.8 -0.6,-16.6 0.8,-31.4 3.8,-41.6 0.6,-2.1 1.4,-5.1 1.8,-6.6 0.9,-3.8 1.2,-11.8 0.6,-15 -0.4,-2.4 -2.5,-7.7 -3.1,-8.1 -0.2,-0.1 -0.3,2.4 -0.3,5.4 0,6.3 -0.5,8.5 -3,12.5 -1.9,3 -2.5,2.9 -10,-0.7 -3.3,-1.6 -8,-4.2 -10.4,-5.6 -2.4,-1.5 -5.7,-3.5 -7.2,-4.4 -3.2,-1.9 -8.4,-7 -10.9,-10.6 -1.8,-2.5 -4.3,-8.5 -5.4,-12.6 -0.3,-1.2 -0.9,-4.5 -1.4,-7.3 -0.8,-4.9 -0.8,-5.9 -0.5,-19.2 0.4,-17 0.3,-21.8 -0.4,-29.2 -0.7,-6.8 -2.8,-19.9 -4.4,-27.8 -2.7,-13.5 -3.2,-17.2 -2.7,-23.1 0.2,-2.4 0.4,-9.8 0.5,-16.4 0.1,-13.4 0.8,-20 3.1,-33.2 3.8,-21.2 12.4,-44.9 22.7,-62.2 13.7,-23.1 34.5,-44 57.8,-58.1 6,-3.6 16.9,-9.1 22.4,-11.3 6.3,-2.5 22.2,-7.9 28.1,-9.6 17.9,-5.1 36.2,-8.1 57,-9.5 7.2,-0.5 26.7,-0.5 33.9,0 35.5,2.4 67.6,10 97.5,23.3 30.2,13.4 56.9,33.9 73.6,56.5 9.1,12.3 14.1,22.8 20.4,42.9 3,9.5 5.3,21.7 6.3,33.6 0.5,5.7 0.5,22.3 0,28.5 -2.2,27.5 -9.5,53.2 -21.7,76.4 -14.1,26.8 -31.9,47 -53.6,60.8 -8.9,5.6 -21.4,11 -25.6,11 -2.2,0 -2.6,-0.5 -2.1,-2.9 0.2,-1.1 0.4,-4.1 0.4,-6.7 0,-5.6 -0.6,-7.7 -3.1,-10.5 -2.9,-3.1 -6.6,-4.2 -9.6,-2.8 -1,0.5 -4.3,3.2 -8.2,6.9 -6.3,5.9 -10.9,9.4 -14.3,10.7 -7,2.8 -22.9,5.1 -41.9,6 -7.5,0.4 -15.7,1 -16.7,1.3 -0.3,0.1 -2.4,0.3 -4.6,0.6 -4.5,0.5 -12.1,2.5 -15.4,4.1 -2.6,1.2 -5.4,3.2 -5.4,3.7 0,0.7 1.8,0.4 4.3,-0.7 2.6,-1.1 7.5,-2.5 7.8,-2.2 0.1,0.1 -0.5,1.6 -1.3,3.3 -2.1,4.3 -2.5,6.4 -2.2,11.5 0.2,3.3 0.5,5 1.4,8.1 2.6,8.3 1,15.2 -4.1,17.5 -1.4,0.6 -1.5,0.8 -2.6,3.9 -1.2,3.2 -4.9,6.3 -8.1,6.7 -1,0.1 -1.1,0 -1.8,-1.9 -0.4,-1.1 -1.3,-3.2 -2.1,-4.6 -1.4,-2.6 -4.2,-5.7 -4.7,-5.2 -0.2,0.1 0.7,3 1.9,6.4 1.2,3.4 2.2,6.6 2.2,7.1 0,1.3 -1.9,3.7 -4,5 -1,0.6 -3,1.4 -4.5,1.8 -2.4,0.6 -3.1,0.9 -5.2,2.8 -2.8,2.5 -4.4,3.2 -6.7,3.2 h -1.7 l -0.9,-3.2 c -0.9,-3.3 -4.1,-10.1 -4.7,-10.1 -0.6,0 -0.4,1 1.2,7 1.9,7.2 1.9,7.7 0.1,9.7 -2.9,3.1 -9.6,4.8 -14,3.6 l -1.4,-0.4 -0.1,-2.9 c -0.1,-3.3 -1.5,-9.1 -3,-12.2 -1.1,-2.4 -2.5,-4.4 -3,-4.4 -0.5,0 0,4.2 1.1,9.6 0.5,2.5 1.1,5.7 1.2,7 l 0.3,2.4 -2,1.7 c -4.6,4 -9.7,5 -16,3.4 l -2,-0.5 -0.2,-2.9 c -0.5,-5.7 -3.5,-16 -4.7,-16 -1,0 -1,4.4 -0.1,10.2 0.5,3 0.9,6.2 0.9,7 0,1.4 -0.1,1.5 -1.9,2.4 -2.8,1.5 -8.8,1.7 -13,0.7 z m 3.1,-84.6 c 0.5,-0.5 1.5,-1.9 2.2,-3.2 1.2,-2.4 1.3,-2.5 1.3,-7.6 0,-4.7 -0.1,-5.6 -1.2,-9.6 -2.7,-9.9 -10.3,-23.8 -17.7,-32.3 -2.9,-3.3 -4,-4.2 -6.5,-5.5 -2.2,-1.1 -3.4,-1 -5.1,0.3 -1.7,1.3 -1.7,1.4 -2.3,6.6 -0.5,4.9 -1.2,8.6 -2.9,16.1 -2.1,9.6 -3.4,19.4 -3.1,24.6 0.3,4.7 0.7,6.3 1.9,7.6 1.5,1.6 4.2,0.6 5.6,-2.1 2,-3.8 2.6,-9.2 3,-25.3 0.2,-10.6 0.3,-12 0.8,-11.6 0.9,0.7 5.7,10.3 6.6,13.3 2.4,7.5 6.4,18.6 7.8,21.4 1.2,2.4 2.2,3.7 4.2,5.6 2.8,2.8 3.8,3.1 5.4,1.7 z M 244,348.4 c 6.5,-0.8 13.2,-2.6 18.1,-5 2.5,-1.2 9.7,-7 12.1,-9.6 4.5,-5 6.4,-8.4 9,-16.2 2.3,-6.9 2.9,-10.6 2.9,-18.6 0,-10.1 -1.3,-16 -5.5,-24 -5.6,-10.7 -12.6,-18.8 -21.1,-24.3 -5.8,-3.8 -15.2,-8.1 -21.6,-9.9 -4.6,-1.3 -13,-2.8 -17.2,-3 -9.5,-0.6 -19.6,2.3 -26.1,7.5 -3.3,2.6 -7.3,8.9 -9.3,14.7 -1.3,3.7 -1.5,4.5 -1.6,8.7 -0.2,7.6 0.6,20 1.9,28.4 0.6,4.2 1.4,9.6 1.8,12 0.7,5.4 1.3,7.8 3.1,13.2 1.7,5.2 3,7.5 5.8,11 4.6,5.7 10.4,9.4 19.9,12.6 8,2.7 11.6,3.3 19.1,3.1 2.9,-0.1 6.9,-0.4 8.7,-0.6 z M 103.6,335.9 c 9.2,-3.4 14.1,-7.6 18.2,-15.3 4.9,-9.4 7.9,-31 6.1,-43.5 -1.5,-10.3 -5.3,-19.9 -10.5,-26.5 -2.4,-3 -9.3,-9 -12,-10.3 -2.4,-1.2 -7.1,-2.4 -10.5,-2.7 -2.5,-0.3 -8,0.7 -11.6,2 -1.2,0.4 -3.3,1.6 -4.6,2.5 -3.5,2.6 -5.7,5.4 -7.7,9.9 l -1.7,3.9 0.1,29.9 c 0.1,21.8 0.2,30.4 0.6,31.9 0.7,3 4.9,10.9 7,13.1 1.2,1.2 3,2.5 5.6,3.9 4.3,2.3 7.1,2.9 12.7,3 3.3,0.1 3.7,0 8.3,-1.8 z M 64.4,320.2 c -0.1,-0.1 -0.3,0 -0.3,0.2 0,0.3 0.1,0.4 0.3,0.2 0.2,-0.1 0.2,-0.3 0,-0.4 z m -0.6,-14.4 c 0,-0.1 -0.1,-0.2 -0.2,-0.2 -0.1,0 -0.2,0.1 -0.2,0.2 0,0.1 0.1,0.2 0.2,0.2 0.1,0 0.2,-0.1 0.2,-0.2 z"/>
            <path
                    id="path988"
                    class="st3"
                    d="m 167.8,601.5 c -3.5,-0.8 -5.5,-1.7 -9.6,-4.6 -4.1,-2.8 -6.6,-5.5 -9.4,-10.2 -5,-8.3 -7.4,-17.6 -7.9,-30.1 l -0.3,-6.8 -1.6,-3.7 c -0.9,-2 -2.9,-6.6 -4.4,-10.2 -1.6,-3.6 -3.4,-8 -4.1,-9.8 -2,-5.7 -4.7,-14.2 -4.7,-14.9 0,-1.9 5.3,-4.6 7.4,-3.7 1.4,0.6 1.9,1.6 1.5,3 -0.7,2.3 -0.2,8.4 0.9,11.2 0.6,1.5 2.6,4.6 3.1,4.6 0.5,0 0.4,-2.7 -0.1,-4.8 -0.8,-3.5 -1.4,-9.2 -1.1,-10.4 0.6,-2 4.2,-3.3 6.4,-2.4 1.1,0.5 1.1,0.8 0.3,2.7 -1,2.1 -1,10.7 0,13.1 0.7,1.7 1.6,2.5 2,1.8 0.1,-0.2 0.3,-2.6 0.4,-5.4 0.3,-8.9 1.4,-11.2 5.6,-11.2 1.9,0 3.6,1.2 4.4,3.3 0.5,1.2 0.5,1.8 0.2,3.6 -0.5,2.8 -0.3,5.7 0.8,8.3 1.6,4 2.4,2.2 2.5,-5.6 0.1,-4.3 0.6,-6.3 1.8,-7.3 1,-0.8 3.5,-1 4.8,-0.3 2.1,1 2.2,1.4 2.1,5.9 -0.1,2.3 0.1,4.9 0.3,6 0.5,2.1 1.8,5 2.3,5 0.5,0 0.7,-2.5 0.8,-8.4 l 0.1,-5.3 1.3,-1.1 c 2.2,-1.7 4.1,-2.6 6.7,-2.8 l 2.4,-0.2 0.8,1.4 c 0.6,1.1 0.9,2.3 1,5.1 0.2,4.2 1,7.1 2.2,8.1 1.4,1.2 1.6,0.2 1.3,-7.4 l -0.2,-7 1.1,-1 c 0.6,-0.5 1.8,-1.2 2.7,-1.4 1.4,-0.4 1.8,-0.3 3.1,0.3 1.4,0.7 1.5,0.9 1.7,2.7 0.3,2.6 1.6,6.4 2.9,8.1 1.9,2.6 2,1.8 1,-6.5 -0.7,-5.6 -0.7,-5.1 0.6,-6.6 1.9,-2 7.1,-3.7 8.8,-2.9 0.5,0.3 1.1,1.5 1.8,3.6 2.5,7.8 3.1,9.5 3.6,9.6 0.7,0.2 1.3,-1.2 1.5,-3.7 0.2,-1.9 0,-2.8 -0.8,-5.2 -1.2,-3.5 -1.2,-4.1 -0.1,-6 0.8,-1.3 1.2,-1.6 2.5,-1.8 0.9,-0.1 3.4,-1 5.7,-2.1 2.3,-1 4.9,-2 5.9,-2.1 1.7,-0.2 1.8,-0.2 2.6,1 0.4,0.7 1.4,2.9 2.1,4.9 2.4,6.7 3,7.1 3.5,2.8 0.4,-3.2 -0.3,-6.4 -2.1,-9.1 -1.4,-2.1 -1.4,-2.4 -0.1,-3.6 2,-1.8 4.5,-2.6 8.5,-2.6 3.5,0 4,-0.1 3.1,-0.9 -0.3,-0.3 -0.3,-0.7 0.2,-1.3 0.8,-1.1 3.2,-3.1 4.3,-3.3 0.4,-0.1 1.1,-0.3 1.6,-0.4 0.7,-0.2 1.1,0.2 2.7,2.5 1.1,1.5 2.3,3.9 2.9,5.6 0.5,1.6 1.2,3 1.4,3.1 1,0.3 1.2,-4.4 0.3,-7.1 -0.5,-1.6 -1.1,-2.6 -3.9,-6.4 -0.6,-0.8 -0.6,-0.9 0.1,-1.4 1.5,-1.1 3.5,-1.9 5.9,-2.3 2.4,-0.4 2.6,-0.5 5,-2.9 2.5,-2.5 3.3,-2.9 6.6,-3.7 1.6,-0.4 1.9,-0.3 3.3,0.5 0.8,0.5 2.5,1.7 3.7,2.7 1.2,1 2.3,1.9 2.5,1.9 0.7,0 9.7,-5.9 10.1,-6.7 0.3,-0.5 2,-2.4 4,-4.3 3.8,-3.7 5.2,-5.7 6.2,-8.3 1.5,-4.2 1.7,-20.1 0.5,-27.9 -1.1,-6.4 -2.2,-18.6 -2.1,-21.1 0.1,-1.8 0.5,-3.1 1.3,-4.6 1.9,-3.5 4.1,-4.5 10.3,-4.5 h 3.8 l 4.4,2.2 c 5.9,3 7.9,3.3 12.2,2 4,-1.2 6.7,-3.1 9.8,-6.8 2.9,-3.5 6.8,-10.1 8.3,-13.8 2.2,-5.7 5,-8.7 7.9,-8.7 3.3,0 4.7,1.7 6.1,7.3 0.8,3.1 0.8,4 0.9,26.5 0.1,22.1 0.1,23.4 0.9,26.9 0.4,2 1.2,5.6 1.7,7.9 0.5,2.3 1,4.6 1.2,5.1 0.2,0.5 0.7,2.9 1.1,5.4 1.4,7.6 0.6,15.2 -2.3,22.2 -1.7,4.1 -2.9,6.1 -6.5,11.5 -3.9,5.8 -11.3,13.2 -18,18.1 -2.3,1.7 -7.8,6.2 -12.3,10 -9.4,8 -12.2,10.3 -18.5,15 -2.5,1.9 -8,5.9 -12.1,8.9 -4.1,3 -11.1,8 -15.6,11 -4.4,3 -8.7,5.9 -9.4,6.5 -2.8,2.1 -12.3,8.5 -17.3,11.7 -18.4,11.8 -36.7,21.1 -54.9,27.8 -7.8,2.9 -11.2,3.8 -19.6,5.1 -8.5,1.5 -14.9,1.9 -18.3,1.1 z M 363.2,433.2 c 0,-0.1 -0.1,-0.2 -0.2,-0.2 -0.1,0 -0.2,0.1 -0.2,0.2 0,0.1 0.1,0.2 0.2,0.2 0.1,0 0.2,-0.1 0.2,-0.2 z m -203.9,44.1 c -1.5,-0.4 -3,-0.8 -3.1,-1 -0.5,-0.6 -1.2,-6.1 -1.5,-12.7 -0.3,-6.2 -0.8,-9 -1.5,-8.3 -0.4,0.4 -1.8,6.1 -2.3,9.9 -0.3,1.7 -0.3,4.1 -0.2,5.9 l 0.3,3 -1.7,0.5 c -1,0.3 -3.2,0.5 -5.7,0.5 -3.8,0 -4.2,-0.1 -6.4,-1.1 -2.1,-1.1 -2.3,-1.2 -2.8,-3 -0.9,-3.3 -1.2,-7.3 -1.3,-13.7 0,-3.5 -0.2,-6.4 -0.4,-6.4 -0.5,0 -1.4,2.3 -2.1,5.3 -0.5,2.4 -0.8,9.1 -0.5,12.8 0.1,1.2 0,1.3 -1.5,1.6 -2.4,0.5 -5.5,-0.3 -7.4,-1.8 -1.4,-1.2 -1.6,-1.5 -2,-4 -0.8,-4.8 -0.8,-5.7 -0.9,-10.6 0,-2.7 -0.2,-4.8 -0.3,-4.8 -0.6,0 -1.9,3.6 -2.4,6.3 -0.3,1.6 -0.4,4.4 -0.2,6.9 l 0.2,4.1 -1,0.2 c -2,0.5 -4.4,-0.2 -6.2,-1.8 -2.9,-2.5 -3.2,-3.8 -3.5,-11.8 -0.6,-16.6 0.8,-31.4 3.8,-41.6 0.6,-2.1 1.4,-5.1 1.8,-6.6 0.9,-3.8 1.2,-11.8 0.6,-15 -0.4,-2.4 -2.5,-7.7 -3.1,-8.1 -0.2,-0.1 -0.3,2.4 -0.3,5.4 0,6.3 -0.5,8.5 -3,12.5 -1.9,3 -2.5,2.9 -10,-0.7 -3.3,-1.6 -8,-4.2 -10.4,-5.6 -2.4,-1.5 -5.7,-3.5 -7.2,-4.4 -3.2,-1.9 -8.4,-7 -10.9,-10.6 -1.8,-2.5 -4.3,-8.5 -5.4,-12.6 -0.3,-1.2 -0.9,-4.5 -1.4,-7.3 -0.8,-4.9 -0.8,-5.9 -0.5,-19.2 0.4,-17 0.3,-21.8 -0.4,-29.2 -0.7,-6.8 -2.8,-19.9 -4.4,-27.8 -2.7,-13.5 -3.2,-17.2 -2.7,-23.1 0.2,-2.4 0.4,-9.8 0.5,-16.4 0.1,-13.4 0.8,-20 3.1,-33.2 3.8,-21.2 12.4,-44.9 22.7,-62.2 13.7,-23.1 34.5,-44 57.8,-58.1 6,-3.6 16.9,-9.1 22.4,-11.3 6.3,-2.5 22.2,-7.9 28.1,-9.6 17.9,-5.1 36.2,-8.1 57,-9.5 7.2,-0.5 26.7,-0.5 33.9,0 35.5,2.4 67.6,10 97.5,23.3 30.2,13.4 56.9,33.9 73.6,56.5 9.1,12.3 14.1,22.8 20.4,42.9 3,9.5 5.3,21.7 6.3,33.6 0.5,5.7 0.5,22.3 0,28.5 -2.2,27.5 -9.5,53.2 -21.7,76.4 -14.1,26.8 -31.9,47 -53.6,60.8 -8.9,5.6 -21.4,11 -25.6,11 -2.2,0 -2.6,-0.5 -2.1,-2.9 0.2,-1.1 0.4,-4.1 0.4,-6.7 0,-5.6 -0.6,-7.7 -3.1,-10.5 -2.9,-3.1 -6.6,-4.2 -9.6,-2.8 -1,0.5 -4.3,3.2 -8.2,6.9 -6.3,5.9 -10.9,9.4 -14.3,10.7 -7,2.8 -22.9,5.1 -41.9,6 -7.5,0.4 -15.7,1 -16.7,1.3 -0.3,0.1 -2.4,0.3 -4.6,0.6 -4.5,0.5 -12.1,2.5 -15.4,4.1 -2.6,1.2 -5.4,3.2 -5.4,3.7 0,0.7 1.8,0.4 4.3,-0.7 2.6,-1.1 7.5,-2.5 7.8,-2.2 0.1,0.1 -0.5,1.6 -1.3,3.3 -2.1,4.3 -2.5,6.4 -2.2,11.5 0.2,3.3 0.5,5 1.4,8.1 2.6,8.3 1,15.2 -4.1,17.5 -1.4,0.6 -1.5,0.8 -2.6,3.9 -1.2,3.2 -4.9,6.3 -8.1,6.7 -1,0.1 -1.1,0 -1.8,-1.9 -0.4,-1.1 -1.3,-3.2 -2.1,-4.6 -1.4,-2.6 -4.2,-5.7 -4.7,-5.2 -0.2,0.1 0.7,3 1.9,6.4 1.2,3.4 2.2,6.6 2.2,7.1 0,1.3 -1.9,3.7 -4,5 -1,0.6 -3,1.4 -4.5,1.8 -2.4,0.6 -3.1,0.9 -5.2,2.8 -2.8,2.5 -4.4,3.2 -6.7,3.2 h -1.7 l -0.9,-3.2 c -0.9,-3.3 -4.1,-10.1 -4.7,-10.1 -0.6,0 -0.4,1 1.2,7 1.9,7.2 1.9,7.7 0.1,9.7 -2.9,3.1 -9.6,4.8 -14,3.6 l -1.4,-0.4 -0.1,-2.9 c -0.1,-3.3 -1.5,-9.1 -3,-12.2 -1.1,-2.4 -2.5,-4.4 -3,-4.4 -0.5,0 0,4.2 1.1,9.6 0.5,2.5 1.1,5.7 1.2,7 l 0.3,2.4 -2,1.7 c -4.6,4 -9.7,5 -16,3.4 l -2,-0.5 -0.2,-2.9 c -0.5,-5.7 -3.5,-16 -4.7,-16 -1,0 -1,4.4 -0.1,10.2 0.5,3 0.9,6.2 0.9,7 0,1.4 -0.1,1.5 -1.9,2.4 -2.8,1.5 -8.8,1.7 -13,0.7 z m 3.1,-84.6 c 0.5,-0.5 1.5,-1.9 2.2,-3.2 1.2,-2.4 1.3,-2.5 1.3,-7.6 0,-4.7 -0.1,-5.6 -1.2,-9.6 -2.7,-9.9 -10.3,-23.8 -17.7,-32.3 -2.9,-3.3 -4,-4.2 -6.5,-5.5 -2.2,-1.1 -3.4,-1 -5.1,0.3 -1.7,1.3 -1.7,1.4 -2.3,6.6 -0.5,4.9 -1.2,8.6 -2.9,16.1 -2.1,9.6 -3.4,19.4 -3.1,24.6 0.3,4.7 0.7,6.3 1.9,7.6 1.5,1.6 4.2,0.6 5.6,-2.1 2,-3.8 2.6,-9.2 3,-25.3 0.2,-10.6 0.3,-12 0.8,-11.6 0.9,0.7 5.7,10.3 6.6,13.3 2.4,7.5 6.4,18.6 7.8,21.4 1.2,2.4 2.2,3.7 4.2,5.6 2.8,2.8 3.8,3.1 5.4,1.7 z M 244,348.4 c 6.5,-0.8 13.2,-2.6 18.1,-5 2.5,-1.2 9.7,-7 12.1,-9.6 4.5,-5 6.4,-8.4 9,-16.2 2.3,-6.9 2.9,-10.6 2.9,-18.6 0,-10.1 -1.3,-16 -5.5,-24 -5.6,-10.7 -12.6,-18.8 -21.1,-24.3 -5.8,-3.8 -15.2,-8.1 -21.6,-9.9 -4.6,-1.3 -13,-2.8 -17.2,-3 -9.5,-0.6 -19.6,2.3 -26.1,7.5 -3.3,2.6 -7.3,8.9 -9.3,14.7 -1.3,3.7 -1.5,4.5 -1.6,8.7 -0.2,7.6 0.6,20 1.9,28.4 0.6,4.2 1.4,9.6 1.8,12 0.7,5.4 1.3,7.8 3.1,13.2 1.7,5.2 3,7.5 5.8,11 4.6,5.7 10.4,9.4 19.9,12.6 8,2.7 11.6,3.3 19.1,3.1 2.9,-0.1 6.9,-0.4 8.7,-0.6 z M 103.6,335.9 c 9.2,-3.4 14.1,-7.6 18.2,-15.3 4.9,-9.4 7.9,-31 6.1,-43.5 -1.5,-10.3 -5.3,-19.9 -10.5,-26.5 -2.4,-3 -9.3,-9 -12,-10.3 -2.4,-1.2 -7.1,-2.4 -10.5,-2.7 -2.5,-0.3 -8,0.7 -11.6,2 -1.2,0.4 -3.3,1.6 -4.6,2.5 -3.5,2.6 -5.7,5.4 -7.7,9.9 l -1.7,3.9 0.1,29.9 c 0.1,21.8 0.2,30.4 0.6,31.9 0.7,3 4.9,10.9 7,13.1 1.2,1.2 3,2.5 5.6,3.9 4.3,2.3 7.1,2.9 12.7,3 3.3,0.1 3.7,0 8.3,-1.8 z M 64.4,320.2 c -0.1,-0.1 -0.3,0 -0.3,0.2 0,0.3 0.1,0.4 0.3,0.2 0.2,-0.1 0.2,-0.3 0,-0.4 z m -0.6,-14.4 c 0,-0.1 -0.1,-0.2 -0.2,-0.2 -0.1,0 -0.2,0.1 -0.2,0.2 0,0.1 0.1,0.2 0.2,0.2 0.1,0 0.2,-0.1 0.2,-0.2 z"
                    sodipodi:nodetypes="ccccccccssccscccccccsccccccccscccccccccccccccccccccccccccccscsccccccccccssccssccccccscccccscccssccccccsccccccssssscccsccccscccsccccccsccccccccccsccccccccccccccccccccccccccscsccccccccscscccccccccsscccsccsccccccscccccccscsccccscccsccccccccscccccsscccccccccccccccccccccccccccccccsccsssss"/>
	</g>
        <path
                id="path869"
                class="st4"
                d="m 237,432.3 c -0.2,-0.5 -1.3,-6.3 -2.5,-12.9 -1.2,-6.6 -3,-17 -4.2,-23.2 -2.5,-13.7 -12.2,-67.3 -15,-82.9 -0.7,-3.8 -1.4,-7.1 -1.6,-7.3 -0.2,-0.2 -2.4,-0.8 -4.8,-1.5 -15.3,-3.9 -40.4,-10.8 -42.2,-11.6 -0.9,-0.4 -1.2,-0.9 -1.2,-1.6 0,-0.5 -0.1,-1.2 -0.3,-1.4 -0.5,-0.7 0.2,-1.3 3.2,-2.6 3.8,-1.7 22.1,-8.7 33.5,-13 5,-1.8 9.3,-3.5 9.6,-3.8 0.3,-0.3 0.7,-3.6 1,-9.7 0.3,-5.1 0.9,-15.4 1.3,-22.9 0.4,-7.5 1.3,-21.9 1.9,-32 0.6,-10.1 1.5,-25.7 2.1,-34.8 0.6,-9.1 1.1,-19.1 1.3,-22.4 0.2,-3.3 0.4,-6.3 0.7,-6.7 0.4,-0.8 2.1,-0.9 2.7,-0.2 0.2,0.3 1.3,5.4 2.4,11.5 1.1,6 3.2,17.5 4.6,25.6 1.5,8 3.6,19.8 4.8,26.2 1.2,6.4 2.2,12.4 2.4,13.4 0.2,1 1,4.3 1.9,7.4 3.5,13.1 8.3,31.7 10,39.3 0.3,1.4 0.7,2.7 0.9,2.9 0.2,0.2 2.6,0.7 5.3,1.3 2.7,0.6 9.1,1.8 14.1,2.9 50.2,10.2 46.6,9.4 47.5,10.4 0.4,0.5 0.4,0.7 -0.1,1 -0.5,0.3 -0.5,0.4 -0.1,0.6 0.9,0.3 0.6,1.3 -0.6,1.9 -2.3,1.1 -26.6,8.2 -51.5,14.8 -6.3,1.7 -11.4,3.1 -11.5,3.2 -0.2,0.2 -0.8,6.3 -1.5,14.2 -0.7,8.4 -0.9,10.4 -1.4,15.2 -0.6,5.9 -0.8,7.7 -1.2,12 -0.8,7.8 -3.8,34.1 -4.6,40.7 -0.2,1.6 -0.6,4.4 -0.8,6.2 -0.2,1.8 -0.5,4.4 -0.6,5.9 -0.3,7.3 -1.6,28.5 -1.8,31.3 l -0.3,3.2 -1.3,0.1 c -1.4,0.2 -1.8,0 -2.1,-0.7 z m 54.3,-10.2 c 0,-0.1 -1.4,-7.6 -3.1,-16.7 -1.7,-9.1 -3.6,-19.1 -4.2,-22.4 -0.6,-3.3 -1.1,-6 -1.2,-6 0,0 -3,-0.8 -6.5,-1.7 -9.7,-2.5 -11.3,-3 -11.4,-3.7 -0.1,-0.8 0.1,-0.9 9.5,-4.4 4.1,-1.5 7.5,-2.8 7.5,-2.9 0.1,-0.1 0.9,-11.9 2.1,-33.4 0.6,-10.6 0.8,-12.5 1.4,-12.4 0.4,0.1 0.7,0.8 0.9,1.7 0.2,0.9 1.3,7.1 2.6,13.8 1.9,10.1 6.3,28.8 7,29.4 0.1,0.1 5.5,1.2 12.1,2.5 6.9,1.4 12.1,2.6 12.3,2.9 0.2,0.3 0.1,0.7 -0.3,1 -0.3,0.3 -5.4,1.7 -11.3,3.3 -5.9,1.6 -10.9,3 -11.3,3.2 -0.4,0.2 -0.7,1.3 -0.9,3.3 -0.9,9 -1.3,13.2 -2,19.1 -1,8.1 -1.5,13.7 -1.9,19.3 -0.2,3.3 -0.4,4.3 -0.8,4.3 -0.3,0 -0.5,-0.1 -0.5,-0.2 z m 0.6,-164.3 c -0.1,-0.2 -0.7,-2.1 -1.2,-4.3 -0.6,-2.2 -2.3,-8.9 -3.9,-14.9 -1.6,-6 -3.2,-12.4 -3.6,-14.2 l -0.7,-3.2 -7.5,-1.7 c -9.7,-2.2 -10.5,-2.4 -10.8,-3.1 -0.2,-0.6 0.1,-0.7 8.4,-2.8 2.4,-0.6 5.5,-1.4 6.8,-1.8 l 2.5,-0.7 0.7,-7.1 c 0.4,-3.9 1,-9.7 1.4,-12.7 0.4,-3.1 0.9,-7.8 1.2,-10.5 0.5,-4.6 1,-6.3 1.7,-5.3 0.1,0.2 0.6,2.5 1.1,5 0.4,2.5 1,5.3 1.2,6.1 0.2,0.9 0.7,3.3 1.1,5.3 0.9,5 4.9,18 5.7,18.4 0.7,0.4 10.4,1.5 16.3,1.8 6.8,0.4 8,0.8 6,1.8 -1.1,0.6 -14.9,4.9 -18.4,5.8 -1.6,0.4 -3,0.8 -3.2,1 -0.2,0.1 -1,6.2 -1.8,13.4 -1.4,11.7 -1.7,16.5 -1.8,22.5 -0.2,1.4 -0.6,2 -1.2,1.2 z"/>
</g><path
            d="M 253.66845,123.74972 C 198.63349,120.53216 154.74971,76.53724 151.6348,21.45756 c 0,-53.935854 82.92209,-167.45136 105.96793,-198.32499 23.04585,30.87363 88.99254,144.203145 88.99254,198.13901 0,53.93587 -43.11804,102.47814 -92.92682,102.47814 z"
            id="path1"
            style="fill:#6c88d6;fill-opacity:1;stroke:#000000;stroke-width:8.67033;stroke-miterlimit:3.6;stroke-dasharray:none;stroke-opacity:1"
            sodipodi:nodetypes="cccsc"/><ellipse
            style="fill:url(#linearGradient3);fill-opacity:1;stroke:none;stroke-width:2.79614;stroke-miterlimit:3.6;stroke-dasharray:none;stroke-opacity:1"
            id="path2"
            transform="matrix(0.99311389,-0.1171529,-0.21069084,0.97755275,0,0)"
            inkscape:transform-center-x="-4.1546157"
            inkscape:transform-center-y="4.0589138"
            ry="43.314041"
            rx="20.813015"
            cy="26.911554"
            cx="209.0495"/><path
            style="fill:#6c88d6;fill-opacity:1;stroke:none;stroke-width:2.64567;stroke-miterlimit:3.6;stroke-dasharray:none;stroke-opacity:1"
            d="M -72.692308,241.33619 0.09190207,150.84771"
            id="path3"/></g></g>
    <style
            type="text/css"
            id="style1">
	.st0{display:none;}
	.st1{display:none;fill:#A4D6D9;}
	.st2{fill:#A4D6D9;}
	.st3{opacity:0.15;fill:#365D5F;enable-background:new    ;}
	.st4{fill:#D95157;}
</style></svg>
