<svg width="89" height="29" viewBox="0 0 89 29" fill="none" xmlns="http://www.w3.org/2000/svg">
<path d="M10.9249 1.90492C10.0034 1.96383 9.17023 2.10269 8.36231 2.32992C8.0425 2.4225 7.42815 2.63289 7.10414 2.75913C6.78013 2.88537 6.35513 3.10418 6.04374 3.29354C4.94548 3.95418 3.98607 4.91358 3.33805 6.00764C2.84152 6.84081 2.4628 7.89279 2.28607 8.89007C2.18508 9.46655 2.14721 9.83264 2.143 10.4175C2.13879 10.6826 2.12617 11.0319 2.12617 11.0487C2.10092 11.3601 2.13458 11.6631 2.25241 12.2438C2.31132 12.5425 2.39968 13.1106 2.42493 13.3378C2.45439 13.6156 2.45439 13.7544 2.43755 14.4656C2.42493 15.0252 2.43335 15.1935 2.46701 15.4123C2.48805 15.5512 2.50067 15.648 2.54275 15.8079C2.6185 16.0898 2.68582 16.296 2.88359 16.5779C3.08557 16.8683 3.25389 17.0492 3.58632 17.2512C3.64523 17.2849 3.78409 17.369 3.88508 17.4321C4.03236 17.5205 4.22171 17.6257 4.39003 17.7057C4.42369 17.7225 4.45315 17.7393 4.4826 17.7562C4.39845 18.2232 4.35637 18.7282 4.3732 19.3005C4.37741 19.4814 4.3732 19.6161 4.43632 19.8349C4.50364 20.0537 4.693 20.2809 4.78557 20.3651C4.97493 20.5334 5.21899 20.6428 5.50092 20.6428C5.66503 20.748 5.84176 20.7774 6.02691 20.7774C6.03112 20.7817 6.03953 20.7901 6.04374 20.7943C5.95538 20.8153 5.87543 20.8406 5.80389 20.8784C5.71552 20.9247 5.62716 20.9752 5.52617 21.072C5.42518 21.1688 5.24424 21.3203 5.24424 21.7074C5.24424 21.9472 5.26528 21.8925 5.27369 21.922C5.28211 21.9515 5.28632 21.9767 5.29473 22.0019C5.31156 22.0567 5.3284 22.1156 5.34944 22.1787C5.39152 22.3091 5.44201 22.4648 5.4883 22.5995C5.53879 22.7383 5.61033 22.9024 5.68186 23.0666C5.74498 23.2138 5.83335 23.4074 5.8628 23.4789L5.87122 23.5042L5.87543 23.6472C5.90067 24.2574 6.03953 24.8086 6.32147 25.2841C6.47716 25.545 6.70439 25.7933 6.94845 25.9616C7.15463 26.1005 7.41552 26.2267 7.63013 26.273L8.13087 26.3235L8.5727 26.2604C8.61478 26.2519 8.64845 26.2519 8.69052 26.2435C9.06082 26.1846 9.3133 26.1173 9.66255 25.9868C10.4873 25.6797 11.3079 25.2631 12.1242 24.7413C12.3556 24.594 12.7217 24.35 12.8942 24.2195C12.8479 24.2532 13.0836 24.0891 13.2687 23.9628C13.4707 23.8282 13.7611 23.6178 13.9504 23.4789C14.1229 23.3527 14.3544 23.1802 14.4596 23.1044C14.7331 22.9024 14.8888 22.7804 15.2843 22.4396C15.4569 22.2881 15.7093 22.0903 15.7556 22.0524C16.1175 21.7831 16.4457 21.4591 16.694 21.1015C16.8581 20.8616 16.9591 20.6807 17.0432 20.4745C17.2242 20.0411 17.2705 19.5614 17.1863 19.0985C17.1737 19.0396 17.1653 18.9807 17.1527 18.9302C17.14 18.8797 17.1779 18.9344 17.0979 18.7282C17.1611 18.8881 17.119 18.7913 17.1106 18.7619C17.1022 18.7324 17.0937 18.6903 17.0853 18.6482C17.0643 18.543 17.0348 18.3958 17.0138 18.299C17.0012 18.2443 17.0054 18.2948 17.0012 18.1685C16.997 18.0549 16.997 17.794 16.997 17.3985C17.0769 17.3648 17.1527 17.3269 17.2452 17.2891C17.4851 17.1839 17.7376 17.0576 17.969 16.9104C19.0126 16.2455 19.8541 15.2819 20.5022 14.0532C21.066 12.9802 21.4027 11.7935 21.5036 10.5354C21.5331 10.1609 21.5373 9.57596 21.5036 9.20566C21.4531 8.65022 21.3522 8.09898 21.2049 7.62349C20.9272 6.73982 20.6579 6.16334 20.2286 5.58264C19.4207 4.49279 18.2046 3.56705 16.816 2.95269C15.4695 2.35517 14.0178 2.01012 12.444 1.90492C12.0569 1.87967 11.3205 1.87967 10.9249 1.90492Z" fill="#060606"/>
<path d="M7.8065 25.5031C7.65923 25.4694 7.57507 25.4315 7.40254 25.3095C7.23002 25.1917 7.12482 25.0781 7.007 24.8803C6.7966 24.5311 6.69561 24.1397 6.67457 23.6137L6.66195 23.3276L6.59462 23.1719C6.55675 23.0877 6.47259 22.8942 6.40947 22.7427C6.34215 22.5912 6.2664 22.406 6.23695 22.3303C6.15279 22.0905 6.03918 21.7328 6.03918 21.7033C6.03918 21.6234 6.2622 21.5098 6.35056 21.5476C6.40947 21.5729 6.43051 21.615 6.41368 21.6739C6.38423 21.7707 6.40527 22.0273 6.45155 22.1452C6.4768 22.2083 6.56096 22.3387 6.582 22.3387C6.60304 22.3387 6.59883 22.2251 6.57779 22.1367C6.54413 21.9895 6.51888 21.7496 6.5315 21.6991C6.55675 21.615 6.70824 21.5603 6.80081 21.5981C6.8471 21.6192 6.8471 21.6318 6.81343 21.7117C6.77135 21.8001 6.77135 22.162 6.81343 22.263C6.84289 22.3345 6.88076 22.3682 6.89759 22.3387C6.9018 22.3303 6.91022 22.2293 6.91442 22.1115C6.92705 21.737 6.97333 21.6402 7.15007 21.6402C7.23002 21.6402 7.30155 21.6907 7.33522 21.7791C7.35626 21.8296 7.35626 21.8548 7.34363 21.9306C7.32259 22.0484 7.33101 22.1704 7.3773 22.2798C7.44462 22.4481 7.47829 22.3724 7.48249 22.0442C7.4867 21.8632 7.50774 21.7791 7.55824 21.737C7.60031 21.7033 7.70551 21.6949 7.76022 21.7244C7.84858 21.7664 7.85279 21.7833 7.84858 21.9726C7.84437 22.0694 7.85279 22.1788 7.86121 22.2251C7.88225 22.3135 7.93695 22.4355 7.95799 22.4355C7.97903 22.4355 7.98744 22.3303 7.99165 22.082L7.99586 21.859L8.05056 21.8127C8.14314 21.7412 8.22309 21.7033 8.33249 21.6949L8.43348 21.6865L8.46715 21.7454C8.49239 21.7917 8.50502 21.8422 8.50923 21.96C8.51764 22.1367 8.5513 22.2588 8.6018 22.3009C8.66071 22.3514 8.66913 22.3093 8.6565 21.9895L8.64809 21.6949L8.69437 21.6528C8.71962 21.6318 8.77012 21.6023 8.80799 21.5939C8.8669 21.5771 8.88373 21.5813 8.93843 21.6065C8.99734 21.636 9.00155 21.6444 9.00997 21.7202C9.02259 21.8296 9.07729 21.9895 9.132 22.061C9.21195 22.1704 9.21616 22.1367 9.17408 21.7875C9.14462 21.5518 9.14462 21.5729 9.19932 21.5098C9.27927 21.4256 9.49809 21.3541 9.56962 21.3877C9.59066 21.4004 9.61591 21.4509 9.64536 21.5392C9.75056 21.8674 9.77581 21.939 9.79685 21.9432C9.8263 21.9516 9.85155 21.8927 9.85997 21.7875C9.86838 21.7075 9.85997 21.6697 9.8263 21.5687C9.77581 21.4214 9.77581 21.3962 9.8221 21.3162C9.85576 21.2615 9.87259 21.2489 9.92729 21.2405C9.96517 21.2362 10.0704 21.1984 10.1671 21.1521C10.2639 21.11 10.3733 21.0679 10.4154 21.0637C10.4869 21.0553 10.4912 21.0553 10.5248 21.1058C10.5417 21.1353 10.5837 21.2278 10.6132 21.312C10.7142 21.5939 10.7394 21.6108 10.7605 21.4298C10.7773 21.2952 10.7478 21.1605 10.6721 21.0469C10.6132 20.9585 10.6132 20.9459 10.6679 20.8954C10.752 20.8197 10.8572 20.786 11.0256 20.786C11.1728 20.786 11.1939 20.7818 11.156 20.7481C11.1434 20.7355 11.1434 20.7187 11.1644 20.6934C11.1981 20.6471 11.2991 20.563 11.3454 20.5546C11.3622 20.5504 11.3917 20.5419 11.4127 20.5377C11.4421 20.5293 11.459 20.5462 11.5263 20.6429C11.5726 20.7061 11.6231 20.807 11.6483 20.8786C11.6694 20.9459 11.6988 21.0048 11.7072 21.009C11.7493 21.0216 11.7577 20.8239 11.7199 20.7103C11.6988 20.6429 11.6736 20.6009 11.5558 20.441C11.5305 20.4073 11.5305 20.4031 11.56 20.382C11.6231 20.3358 11.7072 20.3021 11.8082 20.2853C11.9092 20.2684 11.9176 20.2642 12.0186 20.1632C12.1238 20.058 12.1575 20.0412 12.2964 20.0075C12.3637 19.9907 12.3763 19.9949 12.4352 20.0286C12.4689 20.0496 12.5404 20.1001 12.5909 20.1422C12.6414 20.1843 12.6877 20.2221 12.6961 20.2221C12.7256 20.2221 13.1043 19.9739 13.1211 19.9402C13.1337 19.9192 13.2053 19.8392 13.2894 19.7593C13.4493 19.6036 13.5082 19.5194 13.5503 19.41C13.6134 19.2333 13.6218 18.5642 13.5714 18.236C13.5251 17.9667 13.4788 17.4533 13.483 17.3481C13.4872 17.2724 13.504 17.2177 13.5377 17.1546C13.6176 17.0073 13.7102 16.9652 13.9711 16.9652H14.131L14.3162 17.0578C14.5644 17.184 14.6486 17.1966 14.8295 17.1419C14.9978 17.0914 15.1115 17.0115 15.2419 16.8558C15.3639 16.7085 15.528 16.4308 15.5912 16.2751C15.6837 16.0353 15.8016 15.909 15.9236 15.909C16.0624 15.909 16.1214 15.9806 16.1803 16.2162C16.2139 16.3466 16.2139 16.3845 16.2181 17.3313C16.2223 18.2612 16.2223 18.316 16.256 18.4632C16.2728 18.5474 16.3065 18.6989 16.3275 18.7957C16.3486 18.8924 16.3696 18.9892 16.378 19.0103C16.3865 19.0313 16.4075 19.1323 16.4243 19.2375C16.4832 19.5573 16.4496 19.8771 16.3275 20.1716C16.256 20.3442 16.2055 20.4283 16.054 20.6556C15.8899 20.8996 15.5785 21.211 15.2966 21.4172C15.1998 21.4887 14.9684 21.6781 14.779 21.838C14.3835 22.1746 14.2657 22.2714 14.0006 22.4692C13.8954 22.5491 13.6639 22.7174 13.4914 22.8437C13.3189 22.9699 13.0243 23.1803 12.835 23.3065C12.6498 23.4328 12.4689 23.5548 12.4394 23.5801C12.3216 23.6684 11.9218 23.9377 11.7115 24.0724C10.9372 24.5689 10.1671 24.9603 9.4013 25.2422C9.07309 25.3642 8.93002 25.4021 8.57655 25.4568C8.21888 25.5199 7.94957 25.5367 7.8065 25.5031ZM16.0288 18.4212C16.0288 18.4169 16.0246 18.4127 16.0204 18.4127C16.0162 18.4127 16.0119 18.4169 16.0119 18.4212C16.0119 18.4254 16.0162 18.4296 16.0204 18.4296C16.0246 18.4296 16.0288 18.4254 16.0288 18.4212ZM7.44883 20.2768C7.38571 20.26 7.32259 20.2432 7.31838 20.2348C7.29734 20.2095 7.26789 19.9781 7.25527 19.7004C7.24264 19.4395 7.2216 19.3216 7.19215 19.3511C7.17531 19.3679 7.1164 19.6078 7.09536 19.7677C7.08274 19.8392 7.08274 19.9402 7.08695 20.016L7.09957 20.1422L7.02804 20.1632C6.98596 20.1759 6.89338 20.1843 6.78819 20.1843C6.62829 20.1843 6.61145 20.1801 6.51888 20.138C6.43051 20.0917 6.4221 20.0875 6.40106 20.0117C6.36319 19.8729 6.35056 19.7046 6.34635 19.4353C6.34635 19.288 6.33794 19.166 6.32952 19.166C6.30848 19.166 6.27061 19.2627 6.24116 19.389C6.22012 19.49 6.20749 19.7719 6.22012 19.9276C6.22433 19.9781 6.22012 19.9823 6.157 19.9949C6.05601 20.016 5.92556 19.9823 5.84561 19.9192C5.7867 19.8687 5.77829 19.8561 5.76145 19.7509C5.72779 19.5489 5.72779 19.511 5.72358 19.3048C5.72358 19.1912 5.71517 19.1028 5.71096 19.1028C5.68571 19.1028 5.63101 19.2543 5.60997 19.3679C5.59734 19.4353 5.59314 19.5531 5.60155 19.6583L5.60997 19.8308L5.56789 19.8392C5.48373 19.8603 5.38274 19.8308 5.307 19.7635C5.18497 19.6583 5.17234 19.6036 5.15972 19.2669C5.13447 18.5684 5.19338 17.9457 5.31962 17.5164C5.34487 17.4281 5.37853 17.3018 5.39536 17.2387C5.43324 17.0788 5.44586 16.7422 5.42061 16.6075C5.40378 16.5065 5.31541 16.2835 5.29017 16.2667C5.28175 16.2625 5.27754 16.3677 5.27754 16.4939C5.27754 16.759 5.2565 16.8516 5.1513 17.0199C5.07135 17.1462 5.04611 17.1419 4.73051 16.9905C4.59165 16.9231 4.39388 16.8137 4.29289 16.7548C4.1919 16.6917 4.05304 16.6075 3.98992 16.5697C3.85527 16.4897 3.63645 16.2751 3.53126 16.1236C3.45551 16.0184 3.35032 15.766 3.30403 15.5934C3.2914 15.5429 3.26616 15.4041 3.24512 15.2863C3.21145 15.0801 3.21145 15.038 3.22408 14.4783C3.24091 13.763 3.2367 13.561 3.20725 13.2496C3.17779 12.9635 3.08942 12.4122 3.0221 12.0798C2.90848 11.5117 2.88744 11.3561 2.90848 11.1078C2.9169 11.0068 2.92532 10.6954 2.92952 10.4177C2.93373 9.85383 2.96319 9.5761 3.05997 9.02066C3.21987 8.12858 3.58175 7.1313 4.01517 6.40333C4.59165 5.4313 5.4669 4.55185 6.44735 3.95853C6.69982 3.80705 7.15848 3.57561 7.38992 3.48304C7.65502 3.37784 8.32408 3.15061 8.57234 3.07908C9.32556 2.86447 10.0956 2.73823 10.9709 2.67932C11.2738 2.65828 12.0944 2.65828 12.3973 2.67932C13.8912 2.78031 15.2419 3.10012 16.5001 3.65977C17.7709 4.22363 18.8944 5.08625 19.5971 6.03724C19.98 6.55482 20.1904 6.99665 20.4555 7.84244C20.5818 8.24219 20.6785 8.75556 20.7206 9.2563C20.7417 9.49615 20.7417 10.1947 20.7206 10.4556C20.628 11.6127 20.3209 12.6942 19.8075 13.6704C19.2142 14.7981 18.4652 15.6481 17.552 16.2288C17.1775 16.4645 16.6516 16.6917 16.4748 16.6917C16.3822 16.6917 16.3654 16.6707 16.3865 16.5697C16.3949 16.5234 16.4033 16.3971 16.4033 16.2877C16.4033 16.0521 16.378 15.9637 16.2728 15.8459C16.1508 15.7155 15.9951 15.6692 15.8689 15.7281C15.8268 15.7491 15.6879 15.8627 15.5238 16.0184C15.2587 16.2667 15.0652 16.414 14.9221 16.4687C14.6275 16.5865 13.9585 16.6833 13.159 16.7212C12.8434 16.738 12.4983 16.7632 12.4563 16.7759C12.4436 16.7801 12.3553 16.7885 12.2627 16.8011C12.0733 16.8221 11.7535 16.9063 11.6147 16.9736C11.5053 17.0241 11.3874 17.1083 11.3874 17.1293C11.3874 17.1588 11.4632 17.1462 11.5684 17.0999C11.6778 17.0536 11.884 16.9947 11.8966 17.0073C11.9008 17.0115 11.8756 17.0746 11.8419 17.1462C11.7535 17.3271 11.7367 17.4155 11.7493 17.6301C11.7577 17.7689 11.7704 17.8405 11.8082 17.9709C11.9176 18.3202 11.8503 18.6105 11.6357 18.7073C11.5768 18.7325 11.5726 18.741 11.5263 18.8714C11.4758 19.0061 11.3201 19.1365 11.1855 19.1533C11.1434 19.1575 11.1392 19.1533 11.1097 19.0734C11.0929 19.0271 11.055 18.9387 11.0214 18.8798C10.9624 18.7704 10.8446 18.64 10.8236 18.661C10.8152 18.6652 10.853 18.7872 10.9035 18.9303C10.954 19.0734 10.9961 19.208 10.9961 19.2291C10.9961 19.2838 10.9162 19.3848 10.8278 19.4395C10.7857 19.4647 10.7016 19.4984 10.6384 19.5152C10.5374 19.5405 10.508 19.5531 10.4196 19.633C10.3018 19.7382 10.2345 19.7677 10.1377 19.7677H10.0662L10.0283 19.633C9.99041 19.4942 9.85576 19.208 9.83051 19.208C9.80526 19.208 9.81368 19.2501 9.88101 19.5026C9.96096 19.8056 9.96096 19.8266 9.88522 19.9108C9.76319 20.0412 9.48126 20.1127 9.29611 20.0622L9.2372 20.0454L9.23299 19.9234C9.22878 19.7845 9.16987 19.5405 9.10675 19.41C9.06046 19.309 9.00155 19.2249 8.98051 19.2249C8.95947 19.2249 8.98051 19.4016 9.0268 19.6288C9.04784 19.734 9.07309 19.8687 9.0773 19.9234L9.08992 20.0244L9.00576 20.0959C8.8122 20.2642 8.59759 20.3063 8.33249 20.239L8.24833 20.2179L8.23992 20.0959C8.21888 19.8561 8.09264 19.4226 8.04215 19.4226C8.00007 19.4226 8.00007 19.6078 8.03794 19.8518C8.05898 19.9781 8.07581 20.1127 8.07581 20.1464C8.07581 20.2053 8.0716 20.2095 7.99586 20.2474C7.87804 20.3105 7.62556 20.3189 7.44883 20.2768ZM7.57928 16.7169C7.60031 16.6959 7.64239 16.637 7.67185 16.5823C7.72235 16.4813 7.72655 16.4771 7.72655 16.2625C7.72655 16.0647 7.72234 16.0268 7.67606 15.8585C7.56244 15.4419 7.24264 14.857 6.93126 14.4994C6.80923 14.3605 6.76294 14.3226 6.65774 14.2679C6.56517 14.2216 6.51467 14.2259 6.44314 14.2806C6.3716 14.3353 6.3716 14.3395 6.34635 14.5583C6.32532 14.7645 6.29586 14.9202 6.22433 15.2358C6.13596 15.6397 6.08126 16.0521 6.09388 16.2709C6.1065 16.4687 6.12333 16.536 6.17383 16.5907C6.23695 16.658 6.35056 16.616 6.40947 16.5023C6.49363 16.3424 6.51888 16.1152 6.53571 15.4377C6.54413 14.9917 6.54833 14.9328 6.56937 14.9496C6.60725 14.9791 6.80923 15.383 6.8471 15.5093C6.94809 15.8249 7.1164 16.2919 7.17531 16.4098C7.22581 16.5108 7.26789 16.5655 7.35205 16.6454C7.46987 16.7632 7.51195 16.7759 7.57928 16.7169ZM11.0129 14.8528C11.2865 14.8192 11.5684 14.7434 11.7746 14.6424C11.8798 14.5919 12.1827 14.3479 12.2837 14.2385C12.4731 14.0281 12.553 13.885 12.6624 13.5568C12.7592 13.2664 12.7845 13.1108 12.7845 12.7741C12.7845 12.3491 12.7298 12.1009 12.553 11.7642C12.3174 11.314 12.0228 10.9731 11.6652 10.7417C11.4211 10.5818 11.0256 10.4009 10.7563 10.3251C10.5627 10.2704 10.2092 10.2073 10.0325 10.1989C9.63274 10.1736 9.20774 10.2957 8.93423 10.5145C8.79536 10.6239 8.62705 10.889 8.54289 11.133C8.48819 11.2887 8.47977 11.3224 8.47556 11.4991C8.46715 11.8189 8.50081 12.3407 8.55551 12.6942C8.58076 12.8709 8.61442 13.0981 8.63126 13.1991C8.66071 13.4264 8.68596 13.5273 8.7617 13.7546C8.83324 13.9734 8.88794 14.0702 9.00576 14.2174C9.19933 14.4573 9.44338 14.613 9.84314 14.7476C10.1798 14.8613 10.3313 14.8865 10.6468 14.8781C10.7689 14.8739 10.9372 14.8613 11.0129 14.8528ZM5.10502 14.3268C5.49215 14.1838 5.69834 14.007 5.87086 13.683C6.07705 13.2875 6.20329 12.3786 6.12754 11.8526C6.06442 11.4192 5.90452 11.0152 5.68571 10.7375C5.58472 10.6113 5.29437 10.3588 5.18076 10.3041C5.07977 10.2536 4.882 10.2031 4.73893 10.1905C4.63373 10.1778 4.4023 10.2199 4.25081 10.2746C4.20032 10.2915 4.11195 10.3419 4.05725 10.3798C3.90997 10.4892 3.81739 10.607 3.73324 10.7964L3.6617 10.9605L3.66591 12.2187C3.67012 13.136 3.67433 13.4979 3.69116 13.561C3.72061 13.6872 3.89735 14.0197 3.98571 14.1122C4.03621 14.1627 4.11195 14.2174 4.22135 14.2764C4.4023 14.3731 4.52012 14.3984 4.75576 14.4026C4.89462 14.4068 4.91145 14.4026 5.10502 14.3268Z" fill="#E4E4E4"/>
<path d="M11.0303 18.6425C11.0219 18.6215 10.9756 18.3774 10.9251 18.0997C10.8746 17.822 10.7989 17.3844 10.7484 17.1235C10.6432 16.547 10.235 14.2915 10.1172 13.6351C10.0877 13.4752 10.0583 13.3364 10.0499 13.3279C10.0414 13.3195 9.94887 13.2943 9.84788 13.2648C9.20406 13.1007 8.14788 12.8104 8.07213 12.7767C8.03426 12.7599 8.02164 12.7388 8.02164 12.7094C8.02164 12.6883 8.01743 12.6589 8.00901 12.6505C7.98797 12.621 8.01743 12.5958 8.14367 12.5411C8.30357 12.4695 9.07362 12.175 9.55332 11.994C9.76372 11.9183 9.94466 11.8467 9.95728 11.8341C9.96991 11.8215 9.98674 11.6826 9.99936 11.426C10.012 11.2114 10.0372 10.7779 10.0541 10.4623C10.0709 10.1467 10.1088 9.54081 10.134 9.11581C10.1593 8.69081 10.1971 8.03437 10.2224 7.65145C10.2476 7.26853 10.2687 6.84774 10.2771 6.70888C10.2855 6.57002 10.2939 6.44378 10.3065 6.42695C10.3234 6.39328 10.3949 6.38908 10.4202 6.41853C10.4286 6.43116 10.4749 6.64576 10.5211 6.90244C10.5674 7.15492 10.6558 7.63883 10.7147 7.97967C10.7778 8.3163 10.8662 8.81284 10.9167 9.08215C10.9672 9.35145 11.0093 9.60393 11.0177 9.64601C11.0261 9.68809 11.0598 9.82695 11.0976 9.95739C11.2449 10.5086 11.4469 11.2913 11.5184 11.6111C11.531 11.67 11.5479 11.7247 11.5563 11.7331C11.5647 11.7416 11.6657 11.7626 11.7793 11.7878C11.8929 11.8131 12.1622 11.8636 12.3726 11.9099C14.485 12.3391 14.3335 12.3054 14.3714 12.3475C14.3882 12.3685 14.3882 12.3769 14.3672 12.3896C14.3461 12.4022 14.3461 12.4064 14.363 12.4148C14.4008 12.4274 14.3882 12.4695 14.3377 12.4948C14.2409 12.5411 13.2184 12.8398 12.1706 13.1175C11.9055 13.1891 11.6909 13.248 11.6867 13.2522C11.6783 13.2606 11.6531 13.5173 11.6236 13.8497C11.5942 14.2032 11.5857 14.2873 11.5647 14.4893C11.5395 14.7376 11.531 14.8133 11.5142 14.9943C11.4805 15.3225 11.3543 16.4292 11.3206 16.7069C11.3122 16.7742 11.2954 16.892 11.287 16.9678C11.2786 17.0435 11.2659 17.1529 11.2617 17.2161C11.2491 17.5232 11.1944 18.4153 11.186 18.5331L11.1734 18.6678L11.1187 18.672C11.0598 18.6804 11.0429 18.672 11.0303 18.6425ZM13.3152 18.2133C13.3152 18.2091 13.2563 17.8935 13.1848 17.5106C13.1132 17.1277 13.0333 16.7069 13.008 16.568C12.9828 16.4292 12.9617 16.3156 12.9575 16.3156C12.9575 16.3156 12.8313 16.2819 12.684 16.244C12.2758 16.1388 12.2085 16.1178 12.2043 16.0883C12.2001 16.0547 12.2085 16.0505 12.6041 15.9032C12.7766 15.8401 12.9197 15.7854 12.9197 15.7812C12.9239 15.7769 12.9575 15.2804 13.008 14.3757C13.0333 13.9297 13.0417 13.8497 13.0669 13.8539C13.0838 13.8581 13.0964 13.8876 13.1048 13.9255C13.1132 13.9633 13.1595 14.2242 13.2142 14.5062C13.2942 14.9312 13.4793 15.718 13.5088 15.7433C13.513 15.7475 13.7402 15.7938 14.0179 15.8485C14.3083 15.9074 14.5271 15.9579 14.5355 15.9705C14.5439 15.9831 14.5397 16 14.5229 16.0126C14.5103 16.0252 14.2956 16.0841 14.0474 16.1515C13.7991 16.2188 13.5887 16.2777 13.5719 16.2861C13.5551 16.2945 13.5424 16.3408 13.534 16.425C13.4961 16.8037 13.4793 16.9804 13.4499 17.2287C13.4078 17.5695 13.3867 17.8052 13.3699 18.0408C13.3615 18.1797 13.3531 18.2217 13.3362 18.2217C13.3236 18.2217 13.3152 18.2175 13.3152 18.2133ZM13.3404 11.2997C13.3362 11.2913 13.311 11.2114 13.29 11.1188C13.2647 11.0262 13.1932 10.7443 13.1258 10.4918C13.0585 10.2393 12.9912 9.97002 12.9744 9.89427L12.9449 9.75962L12.6293 9.68809C12.2211 9.59551 12.1875 9.5871 12.1749 9.55764C12.1664 9.53239 12.1791 9.52819 12.5283 9.43982C12.6293 9.41457 12.7598 9.38091 12.8145 9.36408L12.9197 9.33462L12.9491 9.03586C12.9659 8.87175 12.9912 8.62769 13.008 8.50145C13.0249 8.37101 13.0459 8.17323 13.0585 8.05962C13.0796 7.86606 13.1006 7.79452 13.1301 7.8366C13.1343 7.84502 13.1553 7.9418 13.1763 8.047C13.1932 8.15219 13.2184 8.27002 13.2268 8.30368C13.2353 8.34155 13.2563 8.44254 13.2731 8.5267C13.311 8.7371 13.4793 9.28413 13.513 9.30096C13.5424 9.31779 13.9506 9.36408 14.1989 9.3767C14.485 9.39353 14.5355 9.41036 14.4513 9.45244C14.4051 9.47769 13.8244 9.65863 13.6771 9.6965C13.6098 9.71333 13.5508 9.73017 13.5424 9.73858C13.534 9.74279 13.5003 9.99947 13.4667 10.3024C13.4078 10.7948 13.3952 10.9967 13.3909 11.2492C13.3825 11.3081 13.3657 11.3334 13.3404 11.2997Z" fill="#D7184B"/>
<path d="M26.5137 11.0994L24.6995 4.67127H25.9518L27.11 9.39506H27.1697L28.4063 4.67127H29.5457L30.7855 9.3982H30.842L32.0002 4.67127H33.2525L31.4383 11.0994H30.2896L29.0027 6.58903H28.9525L27.6625 11.0994H26.5137ZM35.2986 11.1936C34.8152 11.1936 34.3977 11.0931 34.0462 10.8922C33.6968 10.6893 33.4279 10.4026 33.2395 10.0322C33.0512 9.65976 32.9571 9.22139 32.9571 8.7171C32.9571 8.22118 33.0512 7.78594 33.2395 7.41138C33.43 7.03473 33.6957 6.74179 34.0368 6.53254C34.3779 6.3212 34.7786 6.21553 35.2389 6.21553C35.536 6.21553 35.8164 6.26365 36.0801 6.35991C36.3458 6.45407 36.5802 6.60054 36.7832 6.79933C36.9882 6.99812 37.1494 7.25131 37.2665 7.5589C37.3837 7.86441 37.4423 8.2285 37.4423 8.65118V8.99958H33.4906V8.23373H36.3532C36.3511 8.01611 36.304 7.82256 36.2119 7.65307C36.1199 7.48148 35.9912 7.34652 35.8259 7.24817C35.6626 7.14982 35.4722 7.10065 35.2546 7.10065C35.0223 7.10065 34.8183 7.15715 34.6426 7.27014C34.4668 7.38104 34.3297 7.52752 34.2314 7.70956C34.1351 7.88952 34.086 8.08726 34.0839 8.30278V8.97133C34.0839 9.25173 34.1351 9.49236 34.2377 9.69324C34.3402 9.89203 34.4835 10.0448 34.6677 10.1515C34.8518 10.2561 35.0673 10.3084 35.3142 10.3084C35.4796 10.3084 35.6292 10.2854 35.7631 10.2394C35.897 10.1913 36.0131 10.1212 36.1115 10.0291C36.2098 9.93702 36.2841 9.82298 36.3343 9.68697L37.3952 9.80624C37.3283 10.0866 37.2006 10.3315 37.0123 10.5407C36.8261 10.7479 36.5875 10.909 36.2967 11.0241C36.0058 11.1371 35.6731 11.1936 35.2986 11.1936ZM39.1862 4.67127V11.0994H38.05V4.67127H39.1862ZM42.104 11.1936C41.6227 11.1936 41.2095 11.0879 40.8642 10.8765C40.5211 10.6652 40.2564 10.3733 40.0701 10.0008C39.886 9.62628 39.7939 9.19523 39.7939 8.70768C39.7939 8.21804 39.8881 7.78594 40.0764 7.41138C40.2647 7.03473 40.5305 6.74179 40.8736 6.53254C41.2189 6.3212 41.6269 6.21553 42.0977 6.21553C42.489 6.21553 42.8353 6.28772 43.1367 6.4321C43.4401 6.57439 43.6818 6.77631 43.8617 7.03787C44.0417 7.29734 44.1442 7.60075 44.1693 7.94811H43.0833C43.0394 7.71584 42.9347 7.52228 42.7694 7.36744C42.6062 7.2105 42.3876 7.13204 42.1134 7.13204C41.8812 7.13204 41.6772 7.19481 41.5014 7.32036C41.3256 7.44382 41.1886 7.62168 41.0902 7.85394C40.994 8.08621 40.9458 8.36451 40.9458 8.68885C40.9458 9.01737 40.994 9.29985 41.0902 9.53631C41.1865 9.77066 41.3214 9.95167 41.4951 10.0793C41.6709 10.2049 41.877 10.2676 42.1134 10.2676C42.2808 10.2676 42.4304 10.2362 42.5623 10.1735C42.6962 10.1086 42.8081 10.0155 42.8981 9.89412C42.9881 9.77276 43.0498 9.62524 43.0833 9.45156H44.1693C44.1421 9.79264 44.0417 10.095 43.868 10.3587C43.6943 10.6202 43.4579 10.8253 43.1586 10.9738C42.8594 11.1203 42.5079 11.1936 42.104 11.1936ZM46.8517 11.1936C46.3809 11.1936 45.9729 11.09 45.6276 10.8828C45.2823 10.6757 45.0145 10.3859 44.8241 10.0134C44.6358 9.64093 44.5416 9.20569 44.5416 8.70768C44.5416 8.20967 44.6358 7.77338 44.8241 7.39883C45.0145 7.02427 45.2823 6.73342 45.6276 6.52626C45.9729 6.3191 46.3809 6.21553 46.8517 6.21553C47.3225 6.21553 47.7305 6.3191 48.0758 6.52626C48.4211 6.73342 48.6879 7.02427 48.8762 7.39883C49.0666 7.77338 49.1618 8.20967 49.1618 8.70768C49.1618 9.20569 49.0666 9.64093 48.8762 10.0134C48.6879 10.3859 48.4211 10.6757 48.0758 10.8828C47.7305 11.09 47.3225 11.1936 46.8517 11.1936ZM46.858 10.2833C47.1133 10.2833 47.3267 10.2132 47.4983 10.073C47.6699 9.93074 47.7975 9.74032 47.8812 9.50178C47.967 9.26324 48.0099 8.99749 48.0099 8.70454C48.0099 8.4095 47.967 8.14271 47.8812 7.90416C47.7975 7.66353 47.6699 7.47207 47.4983 7.32978C47.3267 7.18749 47.1133 7.11634 46.858 7.11634C46.5964 7.11634 46.3788 7.18749 46.2051 7.32978C46.0335 7.47207 45.9048 7.66353 45.8191 7.90416C45.7354 8.14271 45.6935 8.4095 45.6935 8.70454C45.6935 8.99749 45.7354 9.26324 45.8191 9.50178C45.9048 9.74032 46.0335 9.93074 46.2051 10.073C46.3788 10.2132 46.5964 10.2833 46.858 10.2833ZM49.7726 11.0994V6.2783H50.8586V7.09751H50.9151C51.0156 6.8213 51.1819 6.60577 51.4142 6.45093C51.6465 6.29399 51.9237 6.21553 52.246 6.21553C52.5724 6.21553 52.8475 6.29504 53.0714 6.45407C53.2974 6.61101 53.4565 6.82549 53.5485 7.09751H53.5988C53.7055 6.82967 53.8854 6.61624 54.1386 6.45721C54.3939 6.29609 54.6963 6.21553 55.0457 6.21553C55.4893 6.21553 55.8513 6.35572 56.1317 6.63612C56.4121 6.91651 56.5523 7.32559 56.5523 7.86336V11.0994H55.4129V8.03913C55.4129 7.7399 55.3334 7.52124 55.1744 7.38313C55.0154 7.24294 54.8208 7.17284 54.5906 7.17284C54.3165 7.17284 54.102 7.25863 53.9472 7.43022C53.7944 7.59971 53.718 7.82046 53.718 8.09249V11.0994H52.6038V7.99205C52.6038 7.74304 52.5284 7.54426 52.3778 7.39569C52.2292 7.24712 52.0346 7.17284 51.794 7.17284C51.6308 7.17284 51.4822 7.21469 51.3483 7.29839C51.2144 7.38 51.1076 7.49613 51.0281 7.64679C50.9486 7.79535 50.9089 7.96903 50.9089 8.16782V11.0994H49.7726ZM59.4858 11.1936C59.0024 11.1936 58.585 11.0931 58.2334 10.8922C57.884 10.6893 57.6151 10.4026 57.4268 10.0322C57.2385 9.65976 57.1443 9.22139 57.1443 8.7171C57.1443 8.22118 57.2385 7.78594 57.4268 7.41138C57.6172 7.03473 57.8829 6.74179 58.224 6.53254C58.5651 6.3212 58.9658 6.21553 59.4262 6.21553C59.7233 6.21553 60.0037 6.26365 60.2673 6.35991C60.5331 6.45407 60.7674 6.60054 60.9704 6.79933C61.1755 6.99812 61.3366 7.25131 61.4538 7.5589C61.571 7.86441 61.6296 8.2285 61.6296 8.65118V8.99958H57.6779V8.23373H60.5404C60.5383 8.01611 60.4912 7.82256 60.3992 7.65307C60.3071 7.48148 60.1784 7.34652 60.0131 7.24817C59.8499 7.14982 59.6595 7.10065 59.4419 7.10065C59.2096 7.10065 59.0056 7.15715 58.8298 7.27014C58.654 7.38104 58.517 7.52752 58.4186 7.70956C58.3224 7.88952 58.2732 8.08726 58.2711 8.30278V8.97133C58.2711 9.25173 58.3224 9.49236 58.4249 9.69324C58.5274 9.89203 58.6708 10.0448 58.8549 10.1515C59.039 10.2561 59.2546 10.3084 59.5015 10.3084C59.6668 10.3084 59.8164 10.2854 59.9503 10.2394C60.0842 10.1913 60.2004 10.1212 60.2987 10.0291C60.3971 9.93702 60.4714 9.82298 60.5216 9.68697L61.5825 9.80624C61.5155 10.0866 61.3879 10.3315 61.1995 10.5407C61.0133 10.7479 60.7748 10.909 60.4839 11.0241C60.1931 11.1371 59.8604 11.1936 59.4858 11.1936ZM66.4835 6.2783V7.15715H63.712V6.2783H66.4835ZM64.3962 5.12325H65.5325V9.6493C65.5325 9.80205 65.5555 9.91923 65.6015 10.0008C65.6497 10.0804 65.7124 10.1348 65.7898 10.1641C65.8673 10.1933 65.9531 10.208 66.0472 10.208C66.1184 10.208 66.1832 10.2028 66.2418 10.1923C66.3025 10.1818 66.3485 10.1724 66.3799 10.1641L66.5714 11.0523C66.5107 11.0732 66.4239 11.0963 66.3109 11.1214C66.2 11.1465 66.064 11.1611 65.9028 11.1653C65.6183 11.1737 65.3619 11.1308 65.1339 11.0366C64.9058 10.9404 64.7248 10.7918 64.5909 10.5909C64.459 10.39 64.3942 10.1389 64.3962 9.83762V5.12325ZM69.1314 11.1936C68.6606 11.1936 68.2525 11.09 67.9073 10.8828C67.562 10.6757 67.2942 10.3859 67.1038 10.0134C66.9154 9.64093 66.8213 9.20569 66.8213 8.70768C66.8213 8.20967 66.9154 7.77338 67.1038 7.39883C67.2942 7.02427 67.562 6.73342 67.9073 6.52626C68.2525 6.3191 68.6606 6.21553 69.1314 6.21553C69.6022 6.21553 70.0102 6.3191 70.3555 6.52626C70.7007 6.73342 70.9675 7.02427 71.1559 7.39883C71.3463 7.77338 71.4415 8.20967 71.4415 8.70768C71.4415 9.20569 71.3463 9.64093 71.1559 10.0134C70.9675 10.3859 70.7007 10.6757 70.3555 10.8828C70.0102 11.09 69.6022 11.1936 69.1314 11.1936ZM69.1377 10.2833C69.3929 10.2833 69.6064 10.2132 69.778 10.073C69.9495 9.93074 70.0772 9.74032 70.1609 9.50178C70.2467 9.26324 70.2896 8.99749 70.2896 8.70454C70.2896 8.4095 70.2467 8.14271 70.1609 7.90416C70.0772 7.66353 69.9495 7.47207 69.778 7.32978C69.6064 7.18749 69.3929 7.11634 69.1377 7.11634C68.8761 7.11634 68.6585 7.18749 68.4848 7.32978C68.3132 7.47207 68.1845 7.66353 68.0987 7.90416C68.015 8.14271 67.9732 8.4095 67.9732 8.70454C67.9732 8.99749 68.015 9.26324 68.0987 9.50178C68.1845 9.74032 68.3132 9.93074 68.4848 10.073C68.6585 10.2132 68.8761 10.2833 69.1377 10.2833Z" fill="#727272"/>
<path d="M25.2718 23.6263V15.0554H30.9466V16.5495H27.0839V18.5918H30.57V20.0858H27.0839V23.6263H25.2718ZM31.557 23.6263V17.1982H33.2854V18.3197H33.3524C33.4696 17.9208 33.6663 17.6194 33.9425 17.4158C34.2187 17.2093 34.5367 17.1061 34.8966 17.1061C34.9859 17.1061 35.0822 17.1117 35.1854 17.1228C35.2886 17.134 35.3793 17.1493 35.4574 17.1689V18.7508C35.3737 18.7257 35.258 18.7034 35.1101 18.6838C34.9622 18.6643 34.8269 18.6545 34.7041 18.6545C34.4419 18.6545 34.2075 18.7117 34.0011 18.8261C33.7974 18.9377 33.6356 19.0939 33.5156 19.2948C33.3984 19.4957 33.3398 19.7273 33.3398 19.9895V23.6263H31.557ZM38.538 23.7518C37.8768 23.7518 37.3077 23.6179 36.8306 23.3501C36.3563 23.0794 35.9908 22.6972 35.7341 22.2034C35.4774 21.7068 35.3491 21.1195 35.3491 20.4415C35.3491 19.7803 35.4774 19.2 35.7341 18.7006C35.9908 18.2012 36.3521 17.812 36.818 17.533C37.2867 17.254 37.8364 17.1145 38.4669 17.1145C38.891 17.1145 39.2858 17.1828 39.6512 17.3195C40.0195 17.4534 40.3404 17.6557 40.6138 17.9263C40.89 18.197 41.1048 18.5373 41.2583 18.9475C41.4117 19.3548 41.4884 19.8319 41.4884 20.3787V20.8684H36.0605V19.7635H39.8103C39.8103 19.5069 39.7545 19.2795 39.6429 19.0814C39.5313 18.8833 39.3764 18.7285 39.1783 18.6169C38.983 18.5025 38.7557 18.4453 38.4962 18.4453C38.2256 18.4453 37.9856 18.5081 37.7764 18.6336C37.5699 18.7564 37.4081 18.9224 37.2909 19.1316C37.1737 19.3381 37.1138 19.5682 37.111 19.8221V20.8726C37.111 21.1906 37.1696 21.4654 37.2867 21.697C37.4067 21.9286 37.5755 22.1071 37.7931 22.2327C38.0107 22.3582 38.2688 22.421 38.5673 22.421C38.7654 22.421 38.9468 22.3931 39.1114 22.3373C39.276 22.2815 39.4169 22.1978 39.5341 22.0862C39.6512 21.9746 39.7405 21.8379 39.8019 21.6761L41.4508 21.7849C41.3671 22.1811 41.1955 22.527 40.936 22.8228C40.6794 23.1157 40.3473 23.3445 39.94 23.5091C39.5355 23.6709 39.0681 23.7518 38.538 23.7518ZM45.11 23.7518C44.4487 23.7518 43.8796 23.6179 43.4025 23.3501C42.9282 23.0794 42.5627 22.6972 42.306 22.2034C42.0493 21.7068 41.921 21.1195 41.921 20.4415C41.921 19.7803 42.0493 19.2 42.306 18.7006C42.5627 18.2012 42.924 17.812 43.3899 17.533C43.8587 17.254 44.4083 17.1145 45.0388 17.1145C45.4629 17.1145 45.8577 17.1828 46.2232 17.3195C46.5914 17.4534 46.9123 17.6557 47.1857 17.9263C47.4619 18.197 47.6767 18.5373 47.8302 18.9475C47.9836 19.3548 48.0604 19.8319 48.0604 20.3787V20.8684H42.6325V19.7635H46.3822C46.3822 19.5069 46.3264 19.2795 46.2148 19.0814C46.1032 18.8833 45.9484 18.7285 45.7503 18.6169C45.555 18.5025 45.3276 18.4453 45.0681 18.4453C44.7975 18.4453 44.5575 18.5081 44.3483 18.6336C44.1418 18.7564 43.98 18.9224 43.8628 19.1316C43.7457 19.3381 43.6857 19.5682 43.6829 19.8221V20.8726C43.6829 21.1906 43.7415 21.4654 43.8587 21.697C43.9786 21.9286 44.1474 22.1071 44.365 22.2327C44.5827 22.3582 44.8407 22.421 45.1393 22.421C45.3373 22.421 45.5187 22.3931 45.6833 22.3373C45.8479 22.2815 45.9888 22.1978 46.106 22.0862C46.2232 21.9746 46.3124 21.8379 46.3738 21.6761L48.0227 21.7849C47.939 22.1811 47.7674 22.527 47.508 22.8228C47.2513 23.1157 46.9193 23.3445 46.5119 23.5091C46.1074 23.6709 45.6401 23.7518 45.11 23.7518ZM48.7859 15.0554H51.0207L53.381 20.814H53.4814L55.8418 15.0554H58.0765V23.6263H56.3188V18.0477H56.2477L54.0297 23.5844H52.8328L50.6147 18.0268H50.5436V23.6263H48.7859V15.0554ZM61.969 23.7518C61.319 23.7518 60.7568 23.6137 60.2825 23.3375C59.811 23.0585 59.4469 22.6707 59.1902 22.1741C58.9335 21.6747 58.8052 21.0958 58.8052 20.4373C58.8052 19.7733 58.9335 19.193 59.1902 18.6964C59.4469 18.197 59.811 17.8092 60.2825 17.533C60.7568 17.254 61.319 17.1145 61.969 17.1145C62.6191 17.1145 63.1799 17.254 63.6514 17.533C64.1257 17.8092 64.4912 18.197 64.7479 18.6964C65.0045 19.193 65.1329 19.7733 65.1329 20.4373C65.1329 21.0958 65.0045 21.6747 64.7479 22.1741C64.4912 22.6707 64.1257 23.0585 63.6514 23.3375C63.1799 23.6137 62.6191 23.7518 61.969 23.7518ZM61.9774 22.3708C62.2731 22.3708 62.52 22.2871 62.7181 22.1197C62.9162 21.9495 63.0655 21.7179 63.1659 21.425C63.2692 21.132 63.3208 20.7986 63.3208 20.4248C63.3208 20.0509 63.2692 19.7175 63.1659 19.4246C63.0655 19.1316 62.9162 18.9 62.7181 18.7299C62.52 18.5597 62.2731 18.4746 61.9774 18.4746C61.6789 18.4746 61.4278 18.5597 61.2241 18.7299C61.0232 18.9 60.8712 19.1316 60.7679 19.4246C60.6675 19.7175 60.6173 20.0509 60.6173 20.4248C60.6173 20.7986 60.6675 21.132 60.7679 21.425C60.8712 21.7179 61.0232 21.9495 61.2241 22.1197C61.4278 22.2871 61.6789 22.3708 61.9774 22.3708ZM73.4164 18.0561H71.5834C71.5499 17.8189 71.4816 17.6083 71.3784 17.4241C71.2751 17.2372 71.1426 17.0782 70.9808 16.9471C70.819 16.8159 70.632 16.7155 70.42 16.6457C70.2108 16.576 69.9834 16.5411 69.7379 16.5411C69.2942 16.5411 68.9078 16.6513 68.5786 16.8717C68.2494 17.0893 67.9941 17.4074 67.8128 17.8259C67.6314 18.2416 67.5407 18.7466 67.5407 19.3409C67.5407 19.9519 67.6314 20.4652 67.8128 20.8809C67.9969 21.2966 68.2536 21.6105 68.5828 21.8226C68.912 22.0346 69.2928 22.1406 69.7253 22.1406C69.968 22.1406 70.1926 22.1085 70.3991 22.0444C70.6083 21.9802 70.7939 21.8867 70.9557 21.764C71.1175 21.6384 71.2514 21.4864 71.3574 21.3078C71.4662 21.1292 71.5416 20.9256 71.5834 20.6968L73.4164 20.7052C73.369 21.0986 73.2504 21.478 73.0607 21.8435C72.8738 22.2062 72.6213 22.5312 72.3032 22.8186C71.988 23.1032 71.6113 23.3291 71.1733 23.4965C70.7381 23.6612 70.2456 23.7435 69.696 23.7435C68.9315 23.7435 68.248 23.5705 67.6454 23.2245C67.0455 22.8786 66.5712 22.3778 66.2225 21.7221C65.8765 21.0665 65.7035 20.2727 65.7035 19.3409C65.7035 18.4062 65.8793 17.6111 66.2308 16.9554C66.5824 16.2998 67.0595 15.8004 67.6621 15.4572C68.2647 15.1112 68.9427 14.9383 69.696 14.9383C70.1926 14.9383 70.653 15.008 71.077 15.1475C71.5039 15.287 71.882 15.4907 72.2112 15.7585C72.5404 16.0236 72.8082 16.3486 73.0147 16.7336C73.2239 17.1186 73.3579 17.5595 73.4164 18.0561ZM76.044 23.7476C75.6339 23.7476 75.2684 23.6765 74.9476 23.5342C74.6267 23.3891 74.3728 23.1757 74.1859 22.8939C74.0018 22.6093 73.9097 22.255 73.9097 21.8309C73.9097 21.4738 73.9753 21.1739 74.1064 20.9312C74.2375 20.6884 74.4161 20.4931 74.6421 20.3453C74.868 20.1974 75.1247 20.0858 75.4121 20.0105C75.7023 19.9351 76.0064 19.8821 76.3244 19.8514C76.6983 19.8124 76.9996 19.7761 77.2284 19.7426C77.4572 19.7064 77.6232 19.6533 77.7264 19.5836C77.8296 19.5138 77.8812 19.4106 77.8812 19.2739V19.2488C77.8812 18.9837 77.7975 18.7787 77.6301 18.6336C77.4655 18.4885 77.2312 18.416 76.9271 18.416C76.6062 18.416 76.3509 18.4871 76.1612 18.6294C75.9715 18.7689 75.8459 18.9447 75.7846 19.1567L74.1357 19.0228C74.2194 18.6322 74.384 18.2946 74.6295 18.01C74.875 17.7227 75.1917 17.5023 75.5795 17.3488C75.9701 17.1926 76.4221 17.1145 76.9354 17.1145C77.2925 17.1145 77.6343 17.1563 77.9607 17.24C78.29 17.3237 78.5815 17.4534 78.8354 17.6292C79.0921 17.805 79.2944 18.031 79.4422 18.3072C79.5901 18.5806 79.664 18.9084 79.664 19.2906V23.6263H77.9733V22.7349H77.9231C77.8199 22.9358 77.6818 23.1129 77.5088 23.2664C77.3358 23.417 77.1279 23.5356 76.8852 23.6221C76.6425 23.7058 76.3621 23.7476 76.044 23.7476ZM76.5546 22.5173C76.8169 22.5173 77.0484 22.4656 77.2493 22.3624C77.4502 22.2564 77.6078 22.1141 77.7222 21.9356C77.8366 21.757 77.8938 21.5547 77.8938 21.3287V20.6466C77.838 20.6828 77.7613 20.7163 77.6636 20.747C77.5688 20.7749 77.4613 20.8014 77.3414 20.8265C77.2214 20.8489 77.1014 20.8698 76.9815 20.8893C76.8615 20.906 76.7527 20.9214 76.655 20.9353C76.4458 20.966 76.263 21.0149 76.1068 21.0818C75.9506 21.1488 75.8292 21.2394 75.7427 21.3538C75.6562 21.4654 75.613 21.6049 75.613 21.7723C75.613 22.0151 75.7009 22.2006 75.8766 22.3289C76.0552 22.4545 76.2812 22.5173 76.5546 22.5173ZM80.5758 26.0368V17.1982H82.3335V18.2779H82.413C82.4911 18.1049 82.6041 17.9291 82.752 17.7506C82.9026 17.5692 83.0979 17.4186 83.3379 17.2986C83.5806 17.1758 83.8819 17.1145 84.2418 17.1145C84.7105 17.1145 85.143 17.2372 85.5392 17.4827C85.9353 17.7255 86.252 18.0923 86.4892 18.5834C86.7263 19.0716 86.8449 19.684 86.8449 20.4206C86.8449 21.1376 86.7291 21.743 86.4975 22.2369C86.2687 22.7279 85.9563 23.1004 85.5601 23.3543C85.1667 23.6054 84.7259 23.7309 84.2376 23.7309C83.8917 23.7309 83.5973 23.6737 83.3546 23.5593C83.1147 23.4449 82.918 23.3012 82.7645 23.1283C82.6111 22.9525 82.4939 22.7753 82.413 22.5968H82.3586V26.0368H80.5758ZM82.3209 20.4122C82.3209 20.7944 82.3739 21.1278 82.4799 21.4124C82.586 21.697 82.7394 21.9188 82.9403 22.0778C83.1412 22.2341 83.3853 22.3122 83.6727 22.3122C83.9628 22.3122 84.2083 22.2327 84.4092 22.0737C84.6101 21.9118 84.7622 21.6886 84.8654 21.4041C84.9714 21.1167 85.0244 20.7861 85.0244 20.4122C85.0244 20.0411 84.9728 19.7147 84.8696 19.4329C84.7663 19.1511 84.6143 18.9307 84.4134 18.7717C84.2125 18.6127 83.9656 18.5332 83.6727 18.5332C83.3825 18.5332 83.137 18.6099 82.9361 18.7633C82.738 18.9168 82.586 19.1344 82.4799 19.4162C82.3739 19.698 82.3209 20.03 82.3209 20.4122Z" fill="#E4E4E4"/>
</svg>
