<svg width="16" height="16" viewBox="0 0 16 16" fill="none" xmlns="http://www.w3.org/2000/svg">
<path fill-rule="evenodd" clip-rule="evenodd" d="M5.50008 8.39492C5.50008 7.73188 5.76347 7.096 6.23231 6.62715C6.70116 6.15831 7.33704 5.89492 8.00008 5.89492C8.66312 5.89492 9.29901 6.15831 9.76785 6.62715C10.2367 7.096 10.5001 7.73188 10.5001 8.39492C10.5001 9.05796 10.2367 9.69385 9.76785 10.1627C9.29901 10.6315 8.66312 10.8949 8.00008 10.8949C7.33704 10.8949 6.70116 10.6315 6.23231 10.1627C5.76347 9.69385 5.50008 9.05796 5.50008 8.39492ZM8.00008 6.89492C7.60226 6.89492 7.22073 7.05296 6.93942 7.33426C6.65812 7.61557 6.50008 7.9971 6.50008 8.39492C6.50008 8.79275 6.65812 9.17428 6.93942 9.45558C7.22073 9.73689 7.60226 9.89492 8.00008 9.89492C8.39791 9.89492 8.77944 9.73689 9.06074 9.45558C9.34205 9.17428 9.50008 8.79275 9.50008 8.39492C9.50008 7.9971 9.34205 7.61557 9.06074 7.33426C8.77944 7.05296 8.39791 6.89492 8.00008 6.89492Z" fill="#9B9B9B"/>
<path fill-rule="evenodd" clip-rule="evenodd" d="M7.07741 3.56159C6.91173 3.56141 6.74763 3.59392 6.59452 3.65724C6.44141 3.72057 6.30229 3.81347 6.18513 3.93063C6.06797 4.04779 5.97506 4.18691 5.91174 4.34002C5.84841 4.49313 5.81591 4.65723 5.81608 4.82292C5.81597 5.03704 5.73536 5.2433 5.59025 5.40075C5.44515 5.55821 5.24615 5.65536 5.03275 5.67292L3.54608 5.79292C3.40391 5.80437 3.26945 5.86227 3.16343 5.95768C3.05742 6.0531 2.98573 6.18074 2.95941 6.32092C2.66023 7.90084 2.63812 9.52076 2.89408 11.1083L2.95875 11.5109C3.02008 11.8909 3.33275 12.1809 3.71675 12.2123L5.01208 12.3176C7.00081 12.479 8.99935 12.479 10.9881 12.3176L12.2827 12.2123C12.4695 12.1972 12.6457 12.1198 12.7833 11.9927C12.9208 11.8655 13.0117 11.6959 13.0414 11.5109L13.1061 11.1083C13.3618 9.52072 13.3395 7.9008 13.0401 6.32092C13.0136 6.18086 12.9419 6.05337 12.8359 5.95809C12.7299 5.8628 12.5955 5.805 12.4534 5.79359L10.9674 5.67292C10.754 5.65536 10.555 5.55821 10.4099 5.40075C10.2648 5.2433 10.1842 5.03704 10.1841 4.82292C10.1843 4.65723 10.1518 4.49313 10.0884 4.34002C10.0251 4.18691 9.9322 4.04779 9.81504 3.93063C9.69788 3.81347 9.55876 3.72057 9.40565 3.65724C9.25254 3.59392 9.08844 3.56141 8.92275 3.56159H7.07741ZM4.82008 4.68692C4.85489 4.11181 5.10786 3.57165 5.52735 3.17669C5.94684 2.78172 6.50125 2.56172 7.07741 2.56159H8.92275C10.1261 2.56159 11.1094 3.50159 11.1801 4.68692L12.5347 4.79692C12.8951 4.82601 13.236 4.97272 13.5048 5.21448C13.7737 5.45623 13.9557 5.77963 14.0227 6.13492C14.3434 7.82825 14.3674 9.56492 14.0934 11.2669L14.0287 11.6703C13.9634 12.076 13.7639 12.4481 13.4621 12.727C13.1603 13.006 12.7737 13.1757 12.3641 13.2089L11.0694 13.3143C9.02654 13.4798 6.97362 13.4798 4.93075 13.3143L3.63608 13.2089C3.22647 13.1757 2.83984 13.006 2.53805 12.727C2.23626 12.4481 2.03675 12.076 1.97141 11.6703L1.90675 11.2669C1.6326 9.56509 1.65651 7.82856 1.97741 6.13492C2.0446 5.77968 2.2266 5.45634 2.49543 5.2146C2.76427 4.97287 3.10506 4.82612 3.46541 4.79692L4.82008 4.68692Z" fill="#9B9B9B"/>
</svg>
