<svg width="16" height="16" viewBox="0 0 16 16" fill="none" xmlns="http://www.w3.org/2000/svg">
<path d="M5.86701 12.4903C5.67151 12.6802 5.35999 12.6785 5.16653 12.4866L5.00702 12.3283C4.8083 12.1312 4.81012 11.8093 5.01106 11.6144L6.24667 10.4161H2.28723C2.01109 10.4161 1.78723 10.1922 1.78723 9.91611V9.70806C1.78723 9.43191 2.01109 9.20806 2.28723 9.20806H6.24667L5.01106 8.00973C4.81012 7.81485 4.8083 7.49298 5.00702 7.29584L5.16613 7.13798C5.35975 6.9459 5.67158 6.94442 5.86702 7.13465L8.25282 9.45682C8.45466 9.65328 8.45447 9.9776 8.25241 10.1738L5.86701 12.4903ZM10.834 8.86202C10.6404 9.0541 10.3286 9.05559 10.1331 8.86536L7.74732 6.54318C7.54549 6.34673 7.54567 6.02241 7.74773 5.82619L10.1331 3.50969C10.3286 3.31985 10.6402 3.32151 10.8336 3.51343L10.9931 3.67168C11.1918 3.86883 11.19 4.19069 10.9891 4.38557L9.75347 5.5839H13.7129C13.9891 5.5839 14.2129 5.80776 14.2129 6.0839V6.29195C14.2129 6.56809 13.9891 6.79195 13.7129 6.79195H9.75347L10.9891 7.99028C11.19 8.18516 11.1918 8.50702 10.9931 8.70417L10.834 8.86202Z" fill="#9B9B9B"/>
</svg>
