<svg width="16" height="16" viewBox="0 0 16 16" fill="none" xmlns="http://www.w3.org/2000/svg">
<path d="M7.26234 5.85101C7.03182 5.62075 6.65831 5.62069 6.42782 5.85101L4.69566 7.58317C4.46586 7.8137 4.46557 8.18734 4.69566 8.41769L6.42782 10.1499C6.65817 10.3799 7.03182 10.3796 7.26234 10.1499C7.49289 9.9193 7.49289 9.54502 7.26234 9.31447L6.30205 8.35355C6.1069 8.15827 6.10695 7.84178 6.30217 7.64656L7.26234 6.68639C7.49289 6.45584 7.49289 6.08156 7.26234 5.85101Z" fill="#9B9B9B"/>
<path fill-rule="evenodd" clip-rule="evenodd" d="M3.95887 2.2146C2.99547 2.21489 2.2146 2.99627 2.2146 3.95973V12.0411C2.21488 13.0044 2.99565 13.7851 3.95887 13.7854H12.0403C13.0037 13.7854 13.7851 13.0045 13.7854 12.0411V3.95973C13.7854 2.9961 13.0039 2.2146 12.0403 2.2146H3.95887ZM12.0403 3.39589C12.3518 3.39589 12.6041 3.64819 12.6041 3.95973V12.0411C12.6038 12.3524 12.3516 12.605 12.0403 12.605H10.8219C10.5458 12.605 10.3219 12.3811 10.3219 12.105V3.89589C10.3219 3.61975 10.5458 3.39589 10.8219 3.39589H12.0403ZM9.14065 12.105C9.14065 12.3811 8.91679 12.605 8.64065 12.605H3.95887C3.64774 12.6047 3.39531 12.3523 3.39503 12.0411V3.95973C3.39503 3.68718 3.58861 3.45974 3.84558 3.40714L3.95887 3.39589H8.64065C8.91679 3.39589 9.14065 3.61975 9.14065 3.89589V12.105Z" fill="#9B9B9B"/>
</svg>
