<svg width="16" height="16" viewBox="0 0 16 16" fill="none" xmlns="http://www.w3.org/2000/svg">
<path fill-rule="evenodd" clip-rule="evenodd" d="M9.06055 2.82715C9.21101 2.82719 9.32384 2.88341 9.42285 2.98242L12.5264 6.08594C12.6219 6.18519 12.6552 6.28891 12.6553 6.41699V6.9668L10.0693 6.96582C9.65777 6.96582 9.2627 6.80176 8.97168 6.51074C8.68086 6.21981 8.51765 5.82542 8.51758 5.41406V3.8623H6.96582C6.82863 3.8623 6.69662 3.91667 6.59961 4.01367C6.50277 4.11058 6.44833 4.24191 6.44824 4.37891V9.55176C6.44824 9.68895 6.5026 9.82096 6.59961 9.91797C6.69661 10.0149 6.82868 10.0693 6.96582 10.0693H7.30273V11.1035H6.96582C6.5543 11.1035 6.15917 10.9404 5.86816 10.6494C5.57715 10.3584 5.41406 9.96332 5.41406 9.55176V5.93066H4.89648C4.7593 5.93066 4.62728 5.986 4.53027 6.08301C4.43354 6.17996 4.37893 6.31128 4.37891 6.44824V11.6211C4.37894 11.7581 4.43354 11.8894 4.53027 11.9863C4.62728 12.0833 4.7593 12.1387 4.89648 12.1387H7.30273V13.1729H4.89648C4.48497 13.1729 4.08984 13.0097 3.79883 12.7188C3.50784 12.4278 3.34476 12.0326 3.34473 11.6211V6.44824C3.34475 6.03671 3.50783 5.64159 3.79883 5.35059C4.08984 5.05962 4.48496 4.89648 4.89648 4.89648H5.41406V4.37891C5.41416 3.96753 5.57731 3.57315 5.86816 3.28223C6.15918 2.99121 6.55426 2.82715 6.96582 2.82715H9.06055ZM9.55176 5.41406C9.55183 5.55105 9.60632 5.68238 9.70312 5.7793C9.80013 5.8763 9.93215 5.93066 10.0693 5.93066H10.8916L9.55176 4.5918V5.41406Z" fill="#9B9B9B"/>
<path d="M11.9585 9.92082H12.9659L8.95545 13.9249C8.89569 13.9842 8.84825 14.0547 8.81588 14.1324C8.78351 14.2101 8.76685 14.2935 8.76685 14.3776C8.76685 14.4618 8.78351 14.5451 8.81588 14.6228C8.84825 14.7005 8.89569 14.7711 8.95545 14.8303C9.01472 14.8901 9.08524 14.9375 9.16294 14.9699C9.24063 15.0023 9.32397 15.0189 9.40814 15.0189C9.49231 15.0189 9.57565 15.0023 9.65335 14.9699C9.73104 14.9375 9.80156 14.8901 9.86084 14.8303L13.8713 10.8262V11.8336C13.8713 12.0027 13.9385 12.1649 14.0581 12.2845C14.1777 12.404 14.3398 12.4712 14.5089 12.4712C14.678 12.4712 14.8402 12.404 14.9598 12.2845C15.0794 12.1649 15.1465 12.0027 15.1465 11.8336V9.28322C15.1465 9.11412 15.0794 8.95194 14.9598 8.83237C14.8402 8.7128 14.678 8.64562 14.5089 8.64562H11.9585C11.7894 8.64562 11.6273 8.7128 11.5077 8.83237C11.3881 8.95194 11.3209 9.11412 11.3209 9.28322C11.3209 9.45232 11.3881 9.6145 11.5077 9.73407C11.6273 9.85364 11.7894 9.92082 11.9585 9.92082Z" fill="#9B9B9B"/>
</svg>
