<svg width="16" height="16" viewBox="0 0 16 16" fill="none" xmlns="http://www.w3.org/2000/svg">
<path d="M9.68488 3.33073C9.56449 3.54447 9.4564 3.76559 9.35811 3.99162C8.42451 3.85158 7.47371 3.85158 6.53763 3.99162C6.44182 3.76559 6.33125 3.54447 6.21086 3.33073C5.33378 3.4806 4.47878 3.74348 3.66802 4.11447C2.06123 6.49517 1.62636 8.81445 1.84257 11.1018C2.78355 11.7971 3.83753 12.3278 4.96034 12.6668C5.21339 12.3278 5.43695 11.9666 5.62859 11.5907C5.26499 11.4556 4.91364 11.2861 4.57705 11.0895C4.66551 11.0256 4.7515 10.9593 4.83502 10.8954C6.80789 11.8241 9.09278 11.8241 11.0681 10.8954C11.1516 10.9642 11.2376 11.0305 11.3261 11.0895C10.9895 11.2885 10.6382 11.4556 10.2721 11.5932C10.4637 11.9691 10.6873 12.3302 10.9403 12.6693C12.0631 12.3302 13.1171 11.802 14.0581 11.1067C14.3136 8.45329 13.6208 6.15367 12.2277 4.11692C11.4194 3.74594 10.5644 3.48305 9.68733 3.33564L9.68488 3.33073ZM5.90376 9.69401C5.29691 9.69401 4.79325 9.14368 4.79325 8.46311C4.79325 7.78257 5.27726 7.22976 5.90131 7.22976C6.52536 7.22976 7.02164 7.78502 7.0118 8.46311C7.00197 9.14121 6.52289 9.69401 5.90376 9.69401ZM9.9969 9.69401C9.3876 9.69401 8.88885 9.14368 8.88885 8.46311C8.88885 7.78257 9.37285 7.22976 9.9969 7.22976C10.621 7.22976 11.1148 7.78502 11.1049 8.46311C11.0951 9.14121 10.616 9.69401 9.9969 9.69401Z" fill="#9B9B9B"/>
</svg>
