<svg width="16" height="16" viewBox="0 0 16 16" fill="none" xmlns="http://www.w3.org/2000/svg">
<path d="M8.00198 6.51892H9.09098L4.75564 10.8474C4.69103 10.9114 4.63976 10.9877 4.60477 11.0717C4.56977 11.1557 4.55176 11.2457 4.55176 11.3367C4.55176 11.4277 4.56977 11.5178 4.60477 11.6018C4.63976 11.6858 4.69103 11.762 4.75564 11.8261C4.81971 11.8907 4.89594 11.942 4.97993 11.977C5.06392 12.012 5.15401 12.03 5.245 12.03C5.33599 12.03 5.42608 12.012 5.51007 11.977C5.59406 11.942 5.67029 11.8907 5.73436 11.8261L10.0697 7.49764V8.58665C10.0697 8.76945 10.1423 8.94476 10.2716 9.07402C10.4008 9.20328 10.5762 9.27589 10.759 9.27589C10.9418 9.27589 11.1171 9.20328 11.2463 9.07402C11.3756 8.94476 11.4482 8.76945 11.4482 8.58665V5.82967C11.4482 5.64687 11.3756 5.47156 11.2463 5.3423C11.1171 5.21304 10.9418 5.14043 10.759 5.14043H8.00198C7.81918 5.14043 7.64386 5.21304 7.51461 5.3423C7.38535 5.47156 7.31273 5.64687 7.31273 5.82967C7.31273 6.01247 7.38535 6.18778 7.51461 6.31704C7.64386 6.4463 7.81918 6.51892 8.00198 6.51892Z" fill="#9B9B9B"/>
</svg>
