<svg width="16" height="16" viewBox="0 0 16 16" fill="none" xmlns="http://www.w3.org/2000/svg">
<path fill-rule="evenodd" clip-rule="evenodd" d="M3.16993 8.95534V7.18841L3.16993 7.15126C3.16991 6.19163 3.1699 5.43061 3.24024 4.82774C3.31265 4.20718 3.46439 3.69502 3.81055 3.26524C3.94 3.1044 4.08612 2.95745 4.24675 2.82774C4.6763 2.48144 5.18891 2.32984 5.80925 2.25742C6.4119 2.18709 6.17244 2.1871 7.13144 2.18711L7.16862 2.18711C7.46661 2.18711 7.71429 2.18282 7.94076 2.22357L8.16081 2.28086L8.16341 2.28216C8.21901 2.3019 8.27297 2.32569 8.32618 2.35117C8.60257 2.48313 8.81729 2.70426 9.09831 2.98529L11.9824 5.8707H11.9811C12.307 6.19606 12.5667 6.44326 12.7025 6.77175C12.838 7.09974 12.8301 7.45831 12.8301 7.91888L12.8301 11.613C12.8301 12.828 11.8451 13.813 10.6301 13.813H7.18199C5.75308 13.7887 4.72782 13.6823 4.01759 12.972C3.56113 12.5156 3.35841 11.9365 3.26238 11.222C3.16988 10.5338 3.16989 10.1066 3.16992 9.01758L3.16993 8.95534ZM11.9095 7.91888L11.955 11.4557C11.9658 12.291 11.292 12.9744 10.4566 12.9659C9.03095 12.9515 8.5879 12.9192 7.18199 12.8935C5.7166 12.8666 5.08124 12.7336 4.66863 12.321C4.41166 12.064 4.25747 11.712 4.17514 11.0996C4.09103 10.474 4.0892 10.1167 4.0892 8.95534V7.18841C4.0892 6.18911 4.09074 5.47943 4.1543 4.93451C4.21673 4.3995 4.33352 4.08191 4.5267 3.84206C4.61501 3.73232 4.71529 3.63238 4.82487 3.54388L4.91862 3.47487C5.14695 3.32228 5.44828 3.22609 5.91602 3.17149C6.4607 3.10793 6.16991 3.10638 7.16862 3.10638C7.40127 3.10638 7.54762 3.10793 7.64909 3.11419V3.25612L7.64909 3.31148C7.64906 4.13404 7.64903 4.79898 7.7194 5.32253C7.79318 5.87083 7.95124 6.33299 8.31836 6.70013L8.46029 6.82774C8.80221 7.10525 9.21605 7.23455 9.69597 7.29909C10.2193 7.36947 10.8833 7.36944 11.7052 7.3694L11.7611 7.3694H11.9004C11.9084 7.48616 11.9095 7.6543 11.9095 7.91888ZM8.63086 5.19883C8.58173 4.83292 8.57327 4.37217 8.57097 3.75873L11.2572 6.44623C10.6444 6.44391 10.1839 6.43679 9.81836 6.38763C9.37246 6.32764 9.13684 6.2178 8.9694 6.05039V6.04909C8.8016 5.88126 8.69089 5.6454 8.63086 5.19883Z" fill="#9B9B9B"/>
</svg>
