<svg width="16" height="16" viewBox="0 0 16 16" fill="none" xmlns="http://www.w3.org/2000/svg">
<path d="M8.39395 0.993192C8.59639 0.860795 8.85851 0.863155 9.0584 0.999344C9.25827 1.13569 9.35733 1.3795 9.30801 1.61634L9.21397 2.06282L10.0955 2.40296L10.1061 2.40735L10.4058 2.53831C11.8841 3.22604 13.0843 4.42062 13.7526 5.92913C14.2586 7.07151 14.4157 8.33948 14.2018 9.57044C13.9877 10.8012 13.4128 11.9407 12.5512 12.8452C11.6894 13.7499 10.5781 14.3789 9.35899 14.6523C8.14001 14.9255 6.86725 14.8315 5.70186 14.3816C4.53644 13.9316 3.53023 13.1461 2.81113 12.1245C2.09208 11.1029 1.69186 9.89038 1.66152 8.64143C1.63125 7.39241 1.97189 6.16183 2.64063 5.10647C2.90855 4.68366 3.22447 4.29636 3.58018 3.95159C3.81754 3.72158 4.19741 3.72744 4.42744 3.96477C4.65732 4.20211 4.65147 4.58116 4.41426 4.81116C4.1258 5.09069 3.8695 5.40522 3.65225 5.74807C3.11039 6.60337 2.83406 7.60023 2.85859 8.61243C2.88319 9.62459 3.20756 10.6066 3.79024 11.4346C4.37308 12.2627 5.18872 12.8997 6.1334 13.2645C7.07787 13.6291 8.10919 13.7056 9.09707 13.4842C10.0852 13.2626 10.9861 12.7531 11.6846 12.0199C12.383 11.2868 12.8479 10.3624 13.0214 9.36477C13.1948 8.36714 13.0685 7.34013 12.6584 6.41429C12.0745 5.09617 10.9914 4.06271 9.6543 3.51565L8.96611 3.24934L8.84834 3.81536C8.79871 4.05213 8.61059 4.23626 8.37285 4.28118C8.13507 4.326 7.89363 4.22263 7.76113 4.02014L6.8919 2.69124C6.71108 2.41469 6.78857 2.04427 7.06504 1.86331L8.39395 0.993192Z" fill="#9B9B9B"/>
<path d="M8.84212 6.0103V11.0677H7.77285V7.02524H7.74322L6.58506 7.75125V6.80299L7.83706 6.0103H8.84212Z" fill="#9B9B9B"/>
</svg>
