<svg width="16" height="16" viewBox="0 0 16 16" fill="none" xmlns="http://www.w3.org/2000/svg">
<path d="M1.33496 8.7002V7.78711C1.33496 7.11303 1.33438 6.56192 1.37695 6.10938C1.42083 5.64324 1.51351 5.23087 1.72852 4.83887H1.72949C1.94431 4.44596 2.23958 4.14915 2.60645 3.86816C2.96179 3.59604 3.42148 3.31136 3.97949 2.96484L5.17969 2.21973C5.76941 1.85354 6.25398 1.5518 6.67578 1.34668C7.11132 1.13491 7.53099 1 8 1C8.46891 1 8.88794 1.13502 9.32324 1.34668C9.74481 1.5517 10.2296 1.85369 10.8193 2.21973H10.8203L12.0205 2.96484C12.3324 3.15855 12.428 3.56887 12.2344 3.88086C12.0407 4.19254 11.6312 4.28813 11.3193 4.09473L10.1191 3.35059C9.50583 2.96994 9.08806 2.7112 8.74219 2.54297C8.40994 2.38139 8.19575 2.33008 8 2.33008C7.80422 2.33008 7.5901 2.3814 7.25781 2.54297C6.9119 2.71116 6.49388 2.96993 5.88086 3.35059L4.68164 4.09473C4.10148 4.455 3.70664 4.70051 3.41504 4.92383C3.13563 5.13782 2.99136 5.30193 2.89551 5.47754V5.47852C2.79857 5.65524 2.73531 5.87101 2.70117 6.2334C2.66578 6.60942 2.66504 7.08825 2.66504 7.78711V8.7002C2.66504 9.88839 2.66698 10.7148 2.74805 11.3379C2.82694 11.9441 2.97026 12.2568 3.18164 12.4756C3.3897 12.6909 3.68248 12.835 4.25781 12.915C4.85489 12.9981 5.64918 13 6.79981 13H9.2002C10.3506 13 11.1442 12.998 11.7412 12.915C12.3165 12.835 12.6099 12.6911 12.8184 12.4756C13.0298 12.2569 13.1741 11.9442 13.2529 11.3379C13.3339 10.7147 13.335 9.88821 13.335 8.7002V7.78711C13.3351 7.41999 13.6328 7.12207 14 7.12207C14.3672 7.12207 14.6649 7.41999 14.665 7.78711V8.7002C14.665 9.85193 14.6661 10.7809 14.5713 11.5098C14.4743 12.2554 14.2661 12.8919 13.7744 13.4004C13.2798 13.9117 12.6561 14.1307 11.9248 14.2324C11.2149 14.3312 10.312 14.3301 9.2002 14.3301H6.79981C5.6881 14.3301 4.78512 14.3311 4.0752 14.2324C3.34377 14.1307 2.71908 13.9121 2.22461 13.4004C1.73339 12.892 1.52576 12.2555 1.42871 11.5098C1.33386 10.7809 1.33496 9.85232 1.33496 8.7002ZM7.33496 10.9648V9.16504C7.33496 8.79777 7.63273 8.5 8 8.5C8.36727 8.5 8.66504 8.79777 8.66504 9.16504V10.9648C8.66504 11.3321 8.36727 11.6299 8 11.6299C7.63273 11.6299 7.33496 11.3321 7.33496 10.9648Z" fill="#9B9B9B"/>
</svg>
