<svg width="17" height="17" viewBox="0 0 17 17" fill="none" xmlns="http://www.w3.org/2000/svg">
<path d="M6.13599 3.07472C6.461 3.1046 6.76915 3.23728 7.01587 3.45461L8.20532 4.5005C8.3048 4.58818 8.43308 4.637 8.56567 4.63722H12.4036C12.8135 4.63722 13.2074 4.79957 13.4973 5.08937C13.7872 5.37929 13.9504 5.77312 13.9504 6.18312V7.96828C13.9504 8.24442 13.7266 8.46828 13.4504 8.46828C13.1743 8.46828 12.9504 8.24442 12.9504 7.96828V6.18312C12.9504 6.03834 12.8927 5.89878 12.7903 5.7964C12.6879 5.69414 12.5483 5.63722 12.4036 5.63722H8.56567C8.23656 5.63703 7.91723 5.53132 7.65356 5.33839L7.54419 5.2505L6.35571 4.20461C6.28095 4.13872 6.18984 4.09444 6.09302 4.07668L5.99438 4.06789H5.08228C4.93759 4.06797 4.79885 4.12573 4.69653 4.22804C4.59423 4.3304 4.5364 4.46907 4.53638 4.61378V10.3228C4.53641 10.4675 4.59426 10.6062 4.69653 10.7085C4.79885 10.8108 4.9376 10.8686 5.08228 10.8687H6.24341C6.51955 10.8687 6.74341 11.0925 6.74341 11.3687C6.74341 11.6448 6.51955 11.8687 6.24341 11.8687H5.08228C4.67238 11.8686 4.27935 11.7054 3.9895 11.4155C3.69969 11.1257 3.53641 10.7327 3.53638 10.3228V4.61378C3.5364 4.20385 3.69967 3.8109 3.9895 3.52101C4.27935 3.23116 4.67237 3.06797 5.08228 3.06789H5.99536L6.13599 3.07472Z" fill="#9B9B9B"/>
<path d="M10.2483 9.21271C10.4305 9.03564 10.7223 9.03965 10.8993 9.22182C11.0761 9.40391 11.072 9.69452 10.8902 9.87156C10.7763 9.98229 10.5927 10.127 10.4124 10.2687C10.2216 10.4186 10.012 10.582 9.8147 10.7492C9.75164 10.8026 9.69294 10.8568 9.63631 10.908H13.6129C13.8669 10.908 14.0738 11.1149 14.0738 11.369C14.0735 11.6228 13.8668 11.8286 13.6129 11.8286H9.63631C9.69294 11.8798 9.75164 11.934 9.8147 11.9874C10.0119 12.1546 10.2216 12.3181 10.4124 12.4679C10.5927 12.6096 10.7763 12.7543 10.8902 12.8651C11.0721 13.042 11.076 13.3326 10.8993 13.5148C10.7223 13.697 10.4305 13.7023 10.2483 13.5252C10.1775 13.4564 10.0411 13.3462 9.84465 13.1919C9.65836 13.0455 9.43277 12.8699 9.21965 12.6893C9.0087 12.5105 8.79247 12.3132 8.6259 12.1177C8.54237 12.0196 8.46208 11.9108 8.40063 11.796C8.3561 11.7128 8.31176 11.6091 8.29256 11.4914L8.28345 11.369L8.29256 11.2466C8.31169 11.1284 8.35595 11.0241 8.40063 10.9406C8.46207 10.8258 8.5424 10.717 8.6259 10.619C8.79249 10.4234 9.00872 10.2261 9.21965 10.0473C9.43277 9.86674 9.65836 9.69107 9.84465 9.54474C10.0405 9.39085 10.1774 9.28149 10.2483 9.21271Z" fill="#9B9B9B"/>
</svg>
