<svg width="16" height="16" viewBox="0 0 16 16" fill="none" xmlns="http://www.w3.org/2000/svg">
<path d="M7.95832 13.0677C8.32632 13.0679 8.62498 13.3663 8.62498 13.7344V13.8229C8.62494 14.1909 8.32629 14.4894 7.95832 14.4896H7.86847C7.50056 14.4893 7.20185 14.1909 7.20181 13.8229V13.7344C7.20181 13.3664 7.50053 13.068 7.86847 13.0677H7.95832ZM7.24738 11.0417V9.28906C7.24762 8.92131 7.54502 8.62278 7.91274 8.62239C8.44554 8.62233 8.96891 8.47505 9.42316 8.19661C9.87707 7.91828 10.2452 7.51997 10.487 7.04557C10.7288 6.57081 10.8348 6.03765 10.793 5.50651C10.751 4.97546 10.5632 4.46606 10.25 4.03515C9.9368 3.60433 9.51032 3.26887 9.01821 3.0651C8.52609 2.86138 7.98698 2.79685 7.46092 2.8802C6.93472 2.96367 6.44149 3.19165 6.03644 3.53776C5.63139 3.88389 5.32985 4.33568 5.16535 4.84244C5.05154 5.1923 4.6755 5.38428 4.3255 5.27083C3.9753 5.15715 3.78344 4.77988 3.89712 4.42968C4.13759 3.68926 4.57871 3.02918 5.17056 2.52343C5.76238 2.01788 6.48254 1.6858 7.25129 1.5638C8.02037 1.4418 8.80914 1.53549 9.52863 1.83333C10.2477 2.13115 10.8705 2.62176 11.3281 3.2513C11.7859 3.88119 12.0611 4.62605 12.1224 5.40234C12.1835 6.1783 12.0289 6.95611 11.6758 7.64974C11.3224 8.34353 10.7836 8.92638 10.1198 9.33333C9.64722 9.62299 9.12376 9.81403 8.58071 9.90104V11.0417C8.58071 11.4097 8.28196 11.708 7.91405 11.7083C7.54586 11.7083 7.24738 11.4099 7.24738 11.0417Z" fill="#9B9B9B"/>
</svg>
