<svg width="16" height="16" viewBox="0 0 16 16" fill="none" xmlns="http://www.w3.org/2000/svg">
<path d="M1.29614 9.5837V7.61983C1.29614 6.148 2.48934 4.95479 3.96118 4.95479H5.03833C5.4056 4.95479 5.70337 5.25256 5.70337 5.61983C5.70329 5.98703 5.40555 6.28487 5.03833 6.28487H3.96118C3.22388 6.28487 2.62622 6.88253 2.62622 7.61983V9.5837C2.62622 10.321 3.22388 10.9187 3.96118 10.9187H12.0393C12.7764 10.9184 13.3743 10.3208 13.3743 9.5837V7.61983C13.3743 6.88269 12.7764 6.28512 12.0393 6.28487H9.13403L9.87622 7.02706C10.1358 7.2867 10.1357 7.70778 9.87622 7.96749C9.61653 8.22718 9.19549 8.22717 8.93579 7.96749L7.05786 6.08956C6.93327 5.9649 6.86259 5.79608 6.86255 5.61983C6.86255 5.44346 6.93315 5.27384 7.05786 5.14913L8.93579 3.2712C9.19547 3.01191 9.61663 3.01176 9.87622 3.2712C10.1359 3.5309 10.1359 3.95291 9.87622 4.21261L9.13403 4.95479H12.0393C13.5109 4.95505 14.7034 6.14815 14.7034 7.61983V9.5837C14.7034 11.0554 13.5109 12.2485 12.0393 12.2487H3.96118C2.48934 12.2487 1.29614 11.0555 1.29614 9.5837Z" fill="#9B9B9B"/>
</svg>
