<svg width="16" height="16" viewBox="0 0 16 16" fill="none" xmlns="http://www.w3.org/2000/svg">
<path d="M8.67383 7.02617C8.67383 7.19186 8.80814 7.32617 8.97383 7.32617H11.5193C11.685 7.32617 11.8193 7.46049 11.8193 7.62617V8.35625C11.8193 8.52194 11.685 8.65625 11.5193 8.65625H8.97285C8.80717 8.65625 8.67285 8.79056 8.67285 8.95625V11.5193C8.67285 11.685 8.53854 11.8193 8.37285 11.8193H7.64277C7.47709 11.8193 7.34277 11.685 7.34277 11.5193V8.95625C7.34277 8.79056 7.20846 8.65625 7.04277 8.65625H4.48066C4.31498 8.65625 4.18066 8.52194 4.18066 8.35625V7.62617C4.18066 7.46049 4.31498 7.32617 4.48066 7.32617H7.04375C7.20944 7.32617 7.34375 7.19186 7.34375 7.02617V4.48164C7.34375 4.31596 7.47806 4.18164 7.64375 4.18164H8.37383C8.53951 4.18164 8.67383 4.31596 8.67383 4.48164V7.02617Z" fill="#9B9B9B"/>
</svg>
