<svg width="16" height="16" viewBox="0 0 16 16" fill="none" xmlns="http://www.w3.org/2000/svg">
<path d="M4.60213 11.9906L4.59532 12.0027C4.37415 12.3948 3.83 12.4854 3.51461 12.1565C3.2433 11.8762 2.99844 11.5631 2.78607 11.2207C2.5477 10.8397 2.76563 10.3265 3.19964 10.2055C3.48873 10.13 3.79344 10.2383 3.95122 10.4943C4.10636 10.7408 4.28719 10.9701 4.48765 11.1786C4.59371 11.2823 4.66246 11.4182 4.68317 11.5651C4.70387 11.712 4.67538 11.8616 4.60213 11.9906ZM1.94039 8.22294C1.94502 7.82001 1.99265 7.42543 2.08328 7.0392C2.18567 6.60394 2.69826 6.40007 3.08433 6.61785L3.10243 6.62805C3.36182 6.77437 3.50181 7.07598 3.43128 7.37018C3.36756 7.65231 3.33478 7.93598 3.32953 8.22724C3.32803 8.37383 3.27863 8.51592 3.18885 8.63182C3.09906 8.74772 2.97383 8.83107 2.83226 8.86915L2.80396 8.87704C2.37937 8.99538 1.93344 8.67227 1.94039 8.22294Z" fill="#9B9B9B"/>
<path d="M13.2341 5.44288C13.5736 6.12127 13.7791 6.85871 13.8395 7.61488C13.9336 8.78726 13.6697 9.97821 13.0866 10.9996L14.245 11.7039C14.3462 11.7655 14.3359 11.9156 14.2271 11.9627L10.8896 13.408C10.8056 13.4446 10.71 13.3906 10.6979 13.2999L10.505 9.75879C10.4985 9.64081 10.6277 9.56426 10.7283 9.62624C11.0463 9.82219 11.6078 10.1655 11.9436 10.3549C12.6987 9.02921 12.7323 7.3732 12.0596 6.02934C11.6512 5.21051 11.0065 4.53303 10.209 4.08449C9.67431 3.78239 9.0845 3.59057 8.47441 3.52039C7.88659 3.45338 7.28726 3.5013 6.71756 3.66087C6.06449 3.84361 5.46242 4.16731 4.95233 4.60615C4.67803 4.84212 4.26698 4.87462 3.99402 4.6371C3.72045 4.39905 3.68957 3.9811 3.95671 3.73586C4.36145 3.36431 4.81686 3.05033 5.31024 2.80376C5.98759 2.4656 6.72852 2.25909 7.48313 2.19814C8.65575 2.10271 9.83 2.3617 10.8537 2.94154C11.8742 3.51598 12.7129 4.39416 13.2341 5.44288Z" fill="#9B9B9B"/>
</svg>
