<svg width="16" height="16" viewBox="0 0 16 16" fill="none" xmlns="http://www.w3.org/2000/svg">
<path fill-rule="evenodd" clip-rule="evenodd" d="M9.14686 2.91504C8.49852 2.47652 7.74786 2.21703 6.97108 2.16016L6.6371 2.14746C6.33372 2.14727 6.03002 2.1784 5.7328 2.23926C5.15314 2.3575 4.62285 2.5978 4.12733 2.91504C3.64955 3.23735 3.23766 3.64912 2.91542 4.12695C2.5877 4.61268 2.35786 5.1595 2.23964 5.7334C2.19844 5.93637 2.17237 6.14217 2.15956 6.34863H1.71425C1.40675 6.34916 1.22321 6.67853 1.36464 6.93555L2.59706 8.5752C2.75615 8.78588 3.07262 8.78572 3.23182 8.5752L4.43202 6.98535C4.61708 6.7397 4.46438 6.39474 4.17421 6.35254L3.69374 6.34863C3.70352 6.24461 3.71899 6.14156 3.73964 6.04102C3.81752 5.66309 3.96919 5.3033 4.18495 4.9834C4.39742 4.66826 4.66963 4.39609 4.98475 4.18359C5.47246 3.85393 6.04941 3.67809 6.63807 3.67871L6.933 3.69336C7.22715 3.72268 7.51612 3.79591 7.78944 3.91113C8.13995 4.05943 8.46108 4.27645 8.72987 4.5459C9.13786 4.95477 9.41778 5.47361 9.53554 6.03906C9.61541 6.43305 9.61542 6.84039 9.53554 7.23438C9.45741 7.61165 9.30578 7.97069 9.09022 8.29004C8.87789 8.60475 8.60712 8.87658 8.29237 9.08887C7.8039 9.41829 7.22725 9.59464 6.63807 9.59473H6.33729V11.125H6.63807C7.5324 11.125 8.40737 10.8575 9.14882 10.3574C9.292 10.2556 9.43161 10.152 9.56483 10.0371L9.67323 10.1494V10.6826L12.5443 13.5537C12.8213 13.8306 13.2742 13.8306 13.5512 13.5537C13.8275 13.2769 13.8275 12.8247 13.5512 12.5479L10.6869 9.66992H10.1527L10.0414 9.56152C10.1547 9.42986 10.2609 9.29178 10.3588 9.14746C10.8602 8.40652 11.1268 7.53138 11.1254 6.63672C11.1257 6.33304 11.0955 6.02895 11.0346 5.73145C10.9162 5.15764 10.6866 4.61257 10.3588 4.12695C10.1979 3.88887 10.0152 3.66593 9.8119 3.46289C9.60864 3.25923 9.38528 3.07613 9.14686 2.91504Z" fill="#9B9B9B"/>
</svg>
