<svg width="16" height="16" viewBox="0 0 16 16" fill="none" xmlns="http://www.w3.org/2000/svg">
<path d="M10.441 9.44102H9.92743L9.74541 9.2655C10.4046 8.50106 10.7668 7.52507 10.766 6.51569C10.766 5.67997 10.5182 4.86302 10.0539 4.16814C9.5896 3.47326 8.92967 2.93167 8.15757 2.61185C7.38546 2.29204 6.53586 2.20836 5.7162 2.3714C4.89653 2.53444 4.14362 2.93688 3.55268 3.52782C2.96174 4.11877 2.5593 4.87168 2.39626 5.69134C2.23322 6.511 2.31689 7.36061 2.63671 8.13271C2.95653 8.90482 3.49812 9.56475 4.19299 10.029C4.88787 10.4933 5.70482 10.7412 6.54055 10.7412C7.58717 10.7412 8.54927 10.3576 9.29036 9.72055L9.46588 9.90257V10.4161L12.7162 13.66L13.6849 12.6914L10.441 9.44102ZM6.54055 9.44102C4.92186 9.44102 3.61521 8.13437 3.61521 6.51569C3.61521 4.89701 4.92186 3.59036 6.54055 3.59036C8.15923 3.59036 9.46588 4.89701 9.46588 6.51569C9.46588 8.13437 8.15923 9.44102 6.54055 9.44102Z" fill="#9B9B9B"/>
</svg>
