<svg width="16" height="16" viewBox="0 0 16 16" fill="none" xmlns="http://www.w3.org/2000/svg">
<path fill-rule="evenodd" clip-rule="evenodd" d="M5.39258 3.60645C5.7176 3.63632 6.02575 3.76901 6.27246 3.98633L7.46191 5.03223C7.5614 5.1199 7.68967 5.16872 7.82227 5.16895H11.6602C12.0701 5.16895 12.464 5.33129 12.7539 5.62109C13.0438 5.91101 13.207 6.30484 13.207 6.71484V11.4004C13.207 11.9527 12.7593 12.4004 12.207 12.4004H4.33887C3.92898 12.4003 3.53594 12.2371 3.24609 11.9473C2.95628 11.6574 2.793 11.2644 2.79297 10.8545V5.14551C2.79299 4.73558 2.95626 4.34263 3.24609 4.05273C3.53595 3.76288 3.92896 3.59969 4.33887 3.59961H5.25195L5.39258 3.60645ZM12.207 6.71484V10.9004C12.207 11.1765 11.9832 11.4004 11.707 11.4004H4.33887C4.19419 11.4003 4.05544 11.3425 3.95312 11.2402C3.85085 11.1379 3.793 10.9992 3.79297 10.8545V5.14551C3.79299 5.00079 3.85083 4.86212 3.95312 4.75977C4.05544 4.65745 4.19418 4.59969 4.33887 4.59961H5.25098L5.34961 4.6084C5.44643 4.62616 5.53754 4.67044 5.6123 4.73633L6.80078 5.78223L6.91016 5.87012C7.17382 6.06304 7.49315 6.16875 7.82227 6.16895H11.6602C11.8049 6.16895 11.9445 6.22586 12.0469 6.32812C12.1493 6.4305 12.207 6.57006 12.207 6.71484Z" fill="#9B9B9B"/>
</svg>
