<svg width="20" height="20" viewBox="0 0 20 20" fill="none" xmlns="http://www.w3.org/2000/svg">
<path d="M4.07136 13.6805V12.7302L6.59237 10.2588C6.83348 10.0154 7.0344 9.79907 7.19514 9.60997C7.35588 9.42086 7.47644 9.23767 7.55681 9.06038C7.63718 8.8831 7.67736 8.69399 7.67736 8.49307C7.67736 8.26377 7.62536 8.06758 7.52135 7.90447C7.41734 7.73901 7.27433 7.61136 7.09232 7.52154C6.9103 7.43171 6.70347 7.3868 6.47181 7.3868C6.23307 7.3868 6.02387 7.43644 5.84422 7.53572C5.66457 7.63264 5.52511 7.77092 5.42583 7.95057C5.32891 8.13022 5.28045 8.34414 5.28045 8.59235H4.02881C4.02881 8.1314 4.134 7.73073 4.34438 7.39034C4.55476 7.04995 4.84433 6.78639 5.21308 6.59965C5.5842 6.41291 6.00969 6.31953 6.48954 6.31953C6.97649 6.31953 7.40434 6.41054 7.7731 6.59256C8.14185 6.77457 8.42787 7.02395 8.63116 7.3407C8.83682 7.65746 8.93964 8.01912 8.93964 8.4257C8.93964 8.69754 8.88764 8.96465 8.78363 9.22703C8.67962 9.48941 8.49643 9.78016 8.23404 10.0993C7.97402 10.4184 7.60881 10.8049 7.13841 11.2587L5.88677 12.5316V12.5813H9.04956V13.6805H4.07136Z" fill="#9B9B9B"/>
<path d="M12.4467 13.6805H9.98596V6.41881H12.4963C13.2173 6.41881 13.8366 6.56419 14.3543 6.85494C14.8743 7.14332 15.2738 7.55817 15.5528 8.09949C15.8317 8.6408 15.9711 9.28849 15.9711 10.0425C15.9711 10.799 15.8305 11.449 15.5492 11.9927C15.2703 12.5364 14.8672 12.9536 14.3401 13.2443C13.8153 13.5351 13.1842 13.6805 12.4467 13.6805ZM11.3014 12.5423H12.3829C12.8887 12.5423 13.3107 12.4501 13.6487 12.2657C13.9867 12.079 14.2408 11.8012 14.411 11.4325C14.5812 11.0614 14.6663 10.598 14.6663 10.0425C14.6663 9.48705 14.5812 9.02611 14.411 8.65971C14.2408 8.29096 13.9891 8.01557 13.6558 7.83356C13.3249 7.64918 12.9136 7.55699 12.4219 7.55699H11.3014V12.5423Z" fill="#9B9B9B"/>
</svg>
