<svg width="20" height="20" viewBox="0 0 20 20" fill="none" xmlns="http://www.w3.org/2000/svg">
<path d="M6.53345 13.7301C6.02286 13.7301 5.56901 13.6426 5.17189 13.4677C4.77713 13.2928 4.46511 13.0493 4.23582 12.7373C4.00653 12.4253 3.88479 12.0648 3.87061 11.6559H5.2038C5.21562 11.8521 5.28062 12.0234 5.39881 12.17C5.517 12.3142 5.6742 12.4265 5.8704 12.5068C6.06659 12.5872 6.28643 12.6274 6.5299 12.6274C6.78992 12.6274 7.02039 12.5825 7.22132 12.4926C7.42224 12.4005 7.57944 12.2728 7.6929 12.1097C7.80636 11.9466 7.86191 11.7587 7.85955 11.5459C7.86191 11.3261 7.80518 11.1323 7.68935 10.9644C7.57353 10.7966 7.4057 10.6654 7.18586 10.5709C6.96839 10.4763 6.70601 10.429 6.39871 10.429H5.75693V9.41496H6.39871C6.65164 9.41496 6.87265 9.37123 7.06176 9.28377C7.25323 9.1963 7.40333 9.07339 7.51207 8.91501C7.6208 8.75427 7.67399 8.56871 7.67163 8.35833C7.67399 8.15268 7.62789 7.97421 7.53334 7.82293C7.44115 7.66928 7.30996 7.54991 7.13977 7.46481C6.97194 7.37971 6.77456 7.33716 6.54763 7.33716C6.32543 7.33716 6.11978 7.37735 5.93067 7.45772C5.74157 7.53809 5.5891 7.65273 5.47327 7.80165C5.35745 7.94821 5.29599 8.12313 5.2889 8.32642H4.02307C4.03253 7.91984 4.14954 7.56291 4.3741 7.25561C4.60103 6.94595 4.90359 6.70484 5.2818 6.53228C5.66002 6.35736 6.08432 6.2699 6.55472 6.2699C7.0393 6.2699 7.46006 6.3609 7.817 6.54292C8.1763 6.72257 8.45405 6.96486 8.65025 7.26979C8.84644 7.57473 8.94454 7.91157 8.94454 8.28032C8.94691 8.68927 8.82635 9.03202 8.58288 9.30859C8.34177 9.58515 8.02502 9.76598 7.63262 9.85108V9.90781C8.14321 9.97873 8.53442 10.1678 8.80626 10.4751C9.08046 10.7801 9.21638 11.1595 9.21402 11.6133C9.21402 12.0199 9.09819 12.3839 8.86654 12.7054C8.63724 13.0245 8.32049 13.2751 7.91628 13.4571C7.51443 13.6391 7.05349 13.7301 6.53345 13.7301Z" fill="#9B9B9B"/>
<path d="M12.6049 13.6308H10.1442V6.36918H12.6546C13.3756 6.36918 13.9949 6.51455 14.5126 6.8053C15.0326 7.09369 15.4321 7.50854 15.711 8.04985C15.9899 8.59117 16.1294 9.23885 16.1294 9.99291C16.1294 10.7493 15.9888 11.3994 15.7075 11.9431C15.4285 12.4867 15.0255 12.904 14.4984 13.1947C13.9736 13.4855 13.3425 13.6308 12.6049 13.6308ZM11.4597 12.4926H12.5411C13.047 12.4926 13.4689 12.4005 13.807 12.2161C14.145 12.0293 14.3991 11.7516 14.5693 11.3828C14.7395 11.0117 14.8246 10.5484 14.8246 9.99291C14.8246 9.43741 14.7395 8.97647 14.5693 8.61008C14.3991 8.24132 14.1473 7.96594 13.814 7.78392C13.4831 7.59955 13.0718 7.50736 12.5801 7.50736H11.4597V12.4926Z" fill="#9B9B9B"/>
</svg>
