<svg width="20" height="20" viewBox="0 0 20 20" fill="none" xmlns="http://www.w3.org/2000/svg">
<path d="M6.74072 4.50806C7.14699 4.5454 7.53218 4.71126 7.84058 4.98291L9.32739 6.29028C9.45175 6.39988 9.61209 6.4609 9.77783 6.46118H14.5752C15.0876 6.46118 15.58 6.66411 15.9424 7.02637C16.3048 7.38876 16.5088 7.88105 16.5088 8.39355V9.04443C16.5088 9.1825 16.3969 9.29443 16.2588 9.29443H15.5088C15.3707 9.29443 15.2588 9.1825 15.2588 9.04443V8.39355C15.2588 8.21257 15.1866 8.03813 15.0586 7.91016C14.9306 7.78233 14.7561 7.71118 14.5752 7.71118H9.77783C9.36644 7.71094 8.96728 7.5788 8.6377 7.33765L8.50098 7.22778L7.01538 5.92041C6.92192 5.83805 6.80803 5.7827 6.68701 5.7605L6.56372 5.74951H5.42358C5.24272 5.74961 5.0693 5.82181 4.94141 5.94971C4.81353 6.07765 4.74124 6.25099 4.74121 6.43188V13.5681C4.74125 13.749 4.81356 13.9224 4.94141 14.0503C5.0693 14.1782 5.24274 14.2504 5.42358 14.2505H10.2297C10.3678 14.2505 10.4797 14.3624 10.4797 14.5005V15.2505C10.4797 15.3886 10.3678 15.5005 10.2297 15.5005H5.42358C4.91122 15.5004 4.41993 15.2964 4.05762 14.9341C3.69536 14.5717 3.49125 14.0805 3.49121 13.5681V6.43188C3.49124 5.91947 3.69532 5.42828 4.05762 5.06592C4.41993 4.7036 4.9112 4.49961 5.42358 4.49951H6.56494L6.74072 4.50806Z" fill="#9B9B9B"/>
<path fill-rule="evenodd" clip-rule="evenodd" d="M14.6239 10.1252C14.8723 10.1256 15.0739 10.3278 15.0739 10.5762V12.5035L15.0782 12.5078H17.0065C17.255 12.5081 17.4564 12.7093 17.4565 12.9578V13.5112C17.4564 13.7597 17.255 13.9609 17.0065 13.9612H15.0771C15.075 13.9613 15.0728 13.9634 15.0728 13.9655V15.9069C15.0728 16.1555 14.8713 16.3577 14.6228 16.3579H14.0694C13.8209 16.3577 13.6194 16.1555 13.6194 15.9069V13.9655L13.6151 13.9612H11.6748C11.4261 13.9612 11.2227 13.7599 11.2227 13.5112V12.9578C11.2228 12.7091 11.4261 12.5078 11.6748 12.5078H13.6162C13.6182 12.5075 13.6205 12.5055 13.6205 12.5035V10.5762C13.6205 10.3275 13.8218 10.1253 14.0705 10.1252H14.6239Z" fill="#9B9B9B"/>
</svg>
