<svg width="20" height="20" viewBox="0 0 20 20" fill="none" xmlns="http://www.w3.org/2000/svg">
<path d="M10 15.0029C10.4591 15.0029 10.8311 15.3749 10.8311 15.834V17.5C10.8311 17.9591 10.4591 18.3311 10 18.3311C9.54091 18.3311 9.16895 17.9591 9.16895 17.5V15.834C9.16895 15.3749 9.54091 15.0029 10 15.0029Z" fill="#9B9B9B"/>
<path d="M5.28711 13.5381C5.61173 13.2135 6.13827 13.2135 6.46289 13.5381C6.7869 13.8626 6.78699 14.3884 6.46289 14.7129L5.28418 15.8916C4.95969 16.2157 4.43391 16.2156 4.10938 15.8916C3.78476 15.567 3.78476 15.0404 4.10938 14.7158L5.28711 13.5381Z" fill="#9B9B9B"/>
<path d="M13.5381 13.5381C13.8627 13.2135 14.3883 13.2135 14.7129 13.5381L15.8916 14.7158C16.2158 15.0405 16.2161 15.5671 15.8916 15.8916C15.5671 16.2161 15.0405 16.2158 14.7158 15.8916L13.5381 14.7129C13.2135 14.3883 13.2135 13.8627 13.5381 13.5381Z" fill="#9B9B9B"/>
<path d="M10.708 10.2861H9.30859L9.9873 8.26074H10.0273L10.708 10.2861Z" fill="#9B9B9B"/>
<path fill-rule="evenodd" clip-rule="evenodd" d="M10 5.99316C12.2128 5.99341 14.0076 7.78723 14.0078 10C14.0076 12.2128 12.2128 14.0076 10 14.0078C7.78723 14.0076 5.99341 12.2128 5.99316 10C5.9934 7.78723 7.78723 5.9934 10 5.99316ZM7.6748 12.2578H8.64746L9.06348 11.0176H10.9531L11.3701 12.2578H12.3418L10.5693 7.22949H9.44531L7.6748 12.2578Z" fill="#9B9B9B"/>
<path d="M4.16602 9.16895C4.6251 9.16895 4.99805 9.54091 4.99805 10C4.99805 10.4591 4.6251 10.8311 4.16602 10.8311H2.5C2.04091 10.8311 1.66895 10.4591 1.66895 10C1.66895 9.54091 2.04091 9.16895 2.5 9.16895H4.16602Z" fill="#9B9B9B"/>
<path d="M17.5 9.16895C17.9591 9.16895 18.3311 9.54091 18.3311 10C18.3311 10.4591 17.9591 10.8311 17.5 10.8311H15.834C15.3749 10.8311 15.0029 10.4591 15.0029 10C15.0029 9.54091 15.3749 9.16895 15.834 9.16895H17.5Z" fill="#9B9B9B"/>
<path d="M4.10938 4.10938C4.43399 3.78476 4.95956 3.78476 5.28418 4.10938L6.46289 5.28711C6.78715 5.61176 6.78739 6.13839 6.46289 6.46289C6.13839 6.78739 5.61176 6.78715 5.28711 6.46289L4.10938 5.28418C3.78476 4.95956 3.78476 4.43399 4.10938 4.10938Z" fill="#9B9B9B"/>
<path d="M14.7158 4.10938C15.0404 3.78476 15.567 3.78476 15.8916 4.10938C16.2156 4.43391 16.2157 4.95969 15.8916 5.28418L14.7129 6.46289C14.3884 6.78699 13.8626 6.7869 13.5381 6.46289C13.2135 6.13827 13.2135 5.61173 13.5381 5.28711L14.7158 4.10938Z" fill="#9B9B9B"/>
<path d="M10 1.66895C10.4591 1.66895 10.8311 2.04091 10.8311 2.5V4.16602C10.8311 4.6251 10.4591 4.99805 10 4.99805C9.54091 4.99805 9.16895 4.6251 9.16895 4.16602V2.5C9.16895 2.04091 9.54091 1.66895 10 1.66895Z" fill="#9B9B9B"/>
</svg>
