<svg width="20" height="20" viewBox="0 0 20 20" fill="none" xmlns="http://www.w3.org/2000/svg">
<path d="M9.17157 13.6904C8.42143 13.0652 8 12.2174 8 11.3333C8 10.4493 8.42143 9.60143 9.17157 8.97631C9.92172 8.35119 10.9391 8 12 8C13.0609 8 14.0783 8.35119 14.8284 8.97631C15.5786 9.60143 16 10.4493 16 11.3333C16 12.2174 15.5786 13.0652 14.8284 13.6904C14.0783 14.3155 13.0609 14.6667 12 14.6667C10.9391 14.6667 9.92172 14.3155 9.17157 13.6904Z" stroke="#9B9B9B" stroke-width="1.33333" stroke-linecap="round" stroke-linejoin="round"/>
<path d="M4 12.6667L10 8.33334M6 8H12M10.6667 5.33334L14.4333 8.66667" stroke="#9B9B9B" stroke-width="1.33333" stroke-linecap="round" stroke-linejoin="round"/>
<path d="M10.8925 12.4409C10.5987 12.1471 10.4337 11.7487 10.4337 11.3333C10.4337 10.9179 10.5987 10.5195 10.8925 10.2258C11.1862 9.93203 11.5846 9.76701 12 9.76701C12.4155 9.76701 12.8139 9.93203 13.1076 10.2258C13.4013 10.5195 13.5664 10.9179 13.5664 11.3333C13.5664 11.7487 13.4013 12.1471 13.1076 12.4409C12.8139 12.7346 12.4155 12.8997 12 12.8997C11.5846 12.8997 11.1862 12.7346 10.8925 12.4409Z" fill="#9B9B9B"/>
</svg>
