<svg width="20" height="20" viewBox="0 0 20 20" fill="none" xmlns="http://www.w3.org/2000/svg">
<path d="M8.09888 5.54682C8.09888 5.00029 7.65583 4.55724 7.10929 4.55724H5.54679C5.00026 4.55724 4.55721 5.00029 4.55721 5.54682V7.10932C4.55721 7.65586 5.00026 8.09891 5.54679 8.09891H7.10929C7.65583 8.09891 8.09888 7.65586 8.09888 7.10932V5.54682ZM9.24471 7.10932C9.24471 8.28868 8.28865 9.24474 7.10929 9.24474H5.54679C4.36744 9.24474 3.41138 8.28868 3.41138 7.10932V5.54682C3.41138 4.36747 4.36744 3.41141 5.54679 3.41141H7.10929C8.28865 3.41141 9.24471 4.36747 9.24471 5.54682V7.10932Z" fill="#16DD12"/>
<path d="M14.9739 5.54676C14.9739 5.00023 14.5308 4.55718 13.9843 4.55718H12.4218C11.8753 4.55718 11.4322 5.00023 11.4322 5.54676V7.10926C11.4322 7.65579 11.8753 8.09885 12.4218 8.09885H13.9843C14.5308 8.09885 14.9739 7.65579 14.9739 7.10926V5.54676ZM16.1197 7.10926C16.1197 8.28862 15.1637 9.24468 13.9843 9.24468H12.4218C11.2424 9.24468 10.2864 8.28862 10.2864 7.10926V5.54676C10.2864 4.3674 11.2424 3.41135 12.4218 3.41135H13.9843C15.1637 3.41135 16.1197 4.3674 16.1197 5.54676V7.10926Z" fill="#16DD12"/>
<path d="M8.09888 12.4219C8.09888 11.8753 7.65583 11.4323 7.10929 11.4323H5.54679C5.00026 11.4323 4.55721 11.8753 4.55721 12.4219V13.9844C4.55721 14.5309 5.00026 14.974 5.54679 14.974H7.10929C7.65583 14.974 8.09888 14.5309 8.09888 13.9844V12.4219ZM9.24471 13.9844C9.24471 15.1637 8.28865 16.1198 7.10929 16.1198H5.54679C4.36744 16.1198 3.41138 15.1637 3.41138 13.9844V12.4219C3.41138 11.2425 4.36744 10.2865 5.54679 10.2865H7.10929C8.28865 10.2865 9.24471 11.2425 9.24471 12.4219V13.9844Z" fill="#16DD12"/>
<path d="M7.26562 6.32802C7.26562 5.81025 6.84589 5.39052 6.32812 5.39052C5.81036 5.39052 5.39062 5.81025 5.39062 6.32802C5.39062 6.84579 5.81036 7.26552 6.32812 7.26552C6.84589 7.26552 7.26562 6.84579 7.26562 6.32802Z" fill="#16DD12"/>
<path d="M14.1406 6.32802C14.1406 5.81025 13.7209 5.39052 13.2031 5.39052C12.6854 5.39052 12.2656 5.81025 12.2656 6.32802C12.2656 6.84579 12.6854 7.26552 13.2031 7.26552C13.7209 7.26552 14.1406 6.84579 14.1406 6.32802Z" fill="#16DD12"/>
<path d="M7.26562 13.2031C7.26562 12.6854 6.84589 12.2656 6.32812 12.2656C5.81036 12.2656 5.39062 12.6854 5.39062 13.2031C5.39062 13.7209 5.81036 14.1406 6.32812 14.1406C6.84589 14.1406 7.26562 13.7209 7.26562 13.2031Z" fill="#16DD12"/>
<path d="M15.0411 11.1635C15.3657 10.8393 15.8921 10.8393 16.2167 11.1635C16.5413 11.4881 16.5413 12.0156 16.2167 12.3403L13.3138 15.2419C12.9892 15.5664 12.4629 15.5665 12.1383 15.2419L10.8077 13.9113C10.4837 13.5866 10.4833 13.0602 10.8077 12.7358C11.1324 12.4111 11.6599 12.4111 11.9845 12.7358L12.7255 13.4779L15.0411 11.1635Z" fill="#16DD12"/>
</svg>
