<svg width="20" height="20" viewBox="0 0 20 20" fill="none" xmlns="http://www.w3.org/2000/svg">
<style>
    @keyframes frameCycle {
      0%, 20% { opacity: 0; }
      2%, 18% { opacity: 1; }
    }
    @keyframes frameCycle2 {
      0%, 20% { opacity: 0; }
      22%, 40% { opacity: 1; }
      42%, 100% { opacity: 0; }
    }
    @keyframes frameCycle3 {
      0%, 40% { opacity: 0; }
      42%, 60% { opacity: 1; }
      62%, 100% { opacity: 0; }
    }
    @keyframes frameCycle4 {
      0%, 60% { opacity: 0; }
      62%, 80% { opacity: 1; }
      82%, 100% { opacity: 0; }
    }
    @keyframes frameCycle5 {
      0%, 80% { opacity: 0; }
      82%, 100% { opacity: 1; }
    }
    .frame1 { animation: frameCycle 1s step-end infinite; }
    .frame2 { animation: frameCycle2 1s step-end infinite; }
    .frame3 { animation: frameCycle3 1s step-end infinite; }
    .frame4 { animation: frameCycle4 1s step-end infinite; }
    .frame5 { animation: frameCycle5 1s step-end infinite; }
  </style>

  <!-- Frame 1 -->
  <g class="frame1">
<path d="M8.27344 14.2188C8.27344 14.7653 7.83039 15.2084 7.28385 15.2084L5.72135 15.2084C5.17482 15.2084 4.73177 14.7653 4.73177 14.2188L4.73177 12.6563C4.73177 12.1097 5.17482 11.6667 5.72135 11.6667L7.28385 11.6667C7.83039 11.6667 8.27344 12.1097 8.27344 12.6563L8.27344 14.2188ZM9.41927 12.6563C9.41927 11.4769 8.46321 10.5209 7.28385 10.5209L5.72135 10.5209C4.542 10.5209 3.58594 11.4769 3.58594 12.6563L3.58594 14.2188C3.58594 15.3981 4.542 16.3542 5.72135 16.3542L7.28385 16.3542C8.46321 16.3542 9.41927 15.3981 9.41927 14.2188L9.41927 12.6563Z" fill="#E4E4E4"/>
<path d="M8.27344 7.34377C8.27344 7.8903 7.83039 8.33335 7.28385 8.33335L5.72135 8.33335C5.17482 8.33335 4.73177 7.8903 4.73177 7.34377L4.73177 5.78127C4.73177 5.23474 5.17482 4.79169 5.72135 4.79169L7.28385 4.79169C7.83039 4.79169 8.27344 5.23474 8.27344 5.78127L8.27344 7.34377ZM9.41927 5.78127C9.41927 4.60191 8.46321 3.64585 7.28385 3.64585L5.72135 3.64585C4.542 3.64585 3.58594 4.60191 3.58594 5.78127L3.58594 7.34377C3.58594 8.52313 4.542 9.47919 5.72135 9.47919L7.28385 9.47919C8.46321 9.47919 9.41927 8.52313 9.41927 7.34377L9.41927 5.78127Z" fill="#E4E4E4"/>
<path d="M7.44019 6.56253C7.44019 7.0803 7.02045 7.50003 6.50269 7.50003C5.98492 7.50003 5.56519 7.0803 5.56519 6.56253C5.56519 6.04476 5.98492 5.62503 6.50269 5.62503C7.02045 5.62503 7.44019 6.04476 7.44019 6.56253Z" fill="#E4E4E4"/>
<path d="M7.44019 13.4375C7.44019 13.9553 7.02045 14.375 6.50269 14.375C5.98492 14.375 5.56519 13.9553 5.56519 13.4375C5.56519 12.9198 5.98492 12.5 6.50269 12.5C7.02045 12.5 7.44019 12.9198 7.44019 13.4375Z" fill="#E4E4E4"/>
<path d="M14.4349 6.56253C14.4349 7.0803 14.0152 7.50003 13.4974 7.50003C12.9797 7.50003 12.5599 7.0803 12.5599 6.56253C12.5599 6.04476 12.9797 5.62503 13.4974 5.62503C14.0152 5.62503 14.4349 6.04476 14.4349 6.56253Z" fill="#E4E4E4"/>
<path d="M15.2683 7.34377C15.2683 7.8903 14.8253 8.33335 14.2787 8.33335L12.7162 8.33335C12.1697 8.33335 11.7266 7.8903 11.7266 7.34377L11.7266 5.78127C11.7266 5.23474 12.1697 4.79169 12.7162 4.79169L14.2787 4.79169C14.8253 4.79169 15.2683 5.23474 15.2683 5.78127L15.2683 7.34377ZM16.4141 5.78127C16.4141 4.60191 15.4581 3.64585 14.2787 3.64585L12.7162 3.64585C11.5369 3.64585 10.5808 4.60191 10.5808 5.78127L10.5808 7.34377C10.5808 8.52313 11.5369 9.47919 12.7162 9.47919L14.2787 9.47919C15.4581 9.47919 16.4141 8.52313 16.4141 7.34377L16.4141 5.78127Z" fill="#E4E4E4"/>
<path d="M12.2656 11.3281C12.2656 10.8104 11.8459 10.3906 11.3281 10.3906C10.8104 10.3906 10.3906 10.8104 10.3906 11.3281C10.3906 11.8459 10.8104 12.2656 11.3281 12.2656C11.8459 12.2656 12.2656 11.8459 12.2656 11.3281Z" fill="#E4E4E4"/>
<path d="M14.1406 13.2031C14.1406 12.6854 13.7209 12.2656 13.2031 12.2656C12.6854 12.2656 12.2656 12.6854 12.2656 13.2031C12.2656 13.7209 12.6854 14.1406 13.2031 14.1406C13.7209 14.1406 14.1406 13.7209 14.1406 13.2031Z" fill="#E4E4E4"/>
<path d="M16.0156 15.0781C16.0156 14.5604 15.5959 14.1406 15.0781 14.1406C14.5604 14.1406 14.1406 14.5604 14.1406 15.0781C14.1406 15.5959 14.5604 16.0156 15.0781 16.0156C15.5959 16.0156 16.0156 15.5959 16.0156 15.0781Z" fill="#E4E4E4"/>
<path d="M16.0156 11.3281C16.0156 10.8104 15.5959 10.3906 15.0781 10.3906C14.5604 10.3906 14.1406 10.8104 14.1406 11.3281C14.1406 11.8459 14.5604 12.2656 15.0781 12.2656C15.5959 12.2656 16.0156 11.8459 16.0156 11.3281Z" fill="#E4E4E4"/>
<path d="M12.2656 15.0781C12.2656 14.5604 11.8459 14.1406 11.3281 14.1406C10.8104 14.1406 10.3906 14.5604 10.3906 15.0781C10.3906 15.5959 10.8104 16.0156 11.3281 16.0156C11.8459 16.0156 12.2656 15.5959 12.2656 15.0781Z" fill="#E4E4E4"/>
  </g>

  <!-- Frame 2 -->
  <g class="frame2">
<path d="M11.7152 5.77662C11.7152 5.23009 12.1583 4.78704 12.7048 4.78704L14.2673 4.78704C14.8138 4.78704 15.2569 5.23009 15.2569 5.77662L15.2569 7.33912C15.2569 7.88565 14.8138 8.3287 14.2673 8.3287L12.7048 8.32871C12.1583 8.32871 11.7152 7.88565 11.7152 7.33912L11.7152 5.77662ZM10.5694 7.33912C10.5694 8.51848 11.5254 9.47454 12.7048 9.47454L14.2673 9.47454C15.4467 9.47454 16.4027 8.51848 16.4027 7.33912L16.4027 5.77662C16.4027 4.59726 15.4467 3.6412 14.2673 3.64121L12.7048 3.64121C11.5254 3.64121 10.5694 4.59726 10.5694 5.77662L10.5694 7.33912Z" fill="#E4E4E4"/>
<path d="M4.7439 5.77662C4.7439 5.23009 5.18695 4.78704 5.73348 4.78704L7.29598 4.78704C7.84251 4.78704 8.28556 5.23009 8.28556 5.77662L8.28556 7.33912C8.28556 7.88565 7.84251 8.3287 7.29598 8.3287L5.73348 8.32871C5.18695 8.32871 4.7439 7.88565 4.7439 7.33912L4.7439 5.77662ZM3.59806 7.33912C3.59806 8.51848 4.55412 9.47454 5.73348 9.47454L7.29598 9.47454C8.47534 9.47454 9.4314 8.51848 9.4314 7.33912L9.4314 5.77662C9.4314 4.59726 8.47534 3.6412 7.29598 3.64121L5.73348 3.64121C4.55412 3.64121 3.59806 4.59726 3.59806 5.77662L3.59806 7.33912Z" fill="#E4E4E4"/>
<path d="M11.6455 12.6409C11.6455 12.0944 12.0886 11.6513 12.6351 11.6513L14.1976 11.6513C14.7441 11.6513 15.1872 12.0944 15.1872 12.6409L15.1872 14.2034C15.1872 14.7499 14.7441 15.193 14.1976 15.193L12.6351 15.193C12.0886 15.193 11.6455 14.7499 11.6455 14.2034L11.6455 12.6409ZM10.4997 14.2034C10.4997 15.3828 11.4557 16.3388 12.6351 16.3388L14.1976 16.3388C15.3769 16.3388 16.333 15.3828 16.333 14.2034L16.333 12.6409C16.333 11.4616 15.3769 10.5055 14.1976 10.5055L12.6351 10.5055C11.4557 10.5055 10.4997 11.4616 10.4997 12.6409L10.4997 14.2034Z" fill="#E4E4E4"/>
<path d="M12.5485 6.55786C12.5485 6.04009 12.9682 5.62036 13.486 5.62036C14.0037 5.62036 14.4235 6.04009 14.4235 6.55786C14.4235 7.07563 14.0037 7.49536 13.486 7.49536C12.9682 7.49536 12.5485 7.07563 12.5485 6.55786Z" fill="#E4E4E4"/>
<path d="M5.57715 6.55786C5.57715 6.04009 5.99688 5.62036 6.51465 5.62036C7.03242 5.62036 7.45215 6.04009 7.45215 6.55786C7.45215 7.07563 7.03242 7.49536 6.51465 7.49536C5.99688 7.49536 5.57715 7.07563 5.57715 6.55786Z" fill="#E4E4E4"/>
<path d="M12.4788 13.4221C12.4788 12.9044 12.8985 12.4846 13.4163 12.4846C13.934 12.4846 14.3538 12.9044 14.3538 13.4221C14.3538 13.9399 13.934 14.3596 13.4163 14.3596C12.8985 14.3596 12.4788 13.9399 12.4788 13.4221Z" fill="#E4E4E4"/>
<path d="M7.45215 11.5471C7.45215 11.0294 7.87188 10.6096 8.38965 10.6096C8.90742 10.6096 9.32715 11.0294 9.32715 11.5471C9.32715 12.0649 8.90742 12.4846 8.38965 12.4846C7.87188 12.4846 7.45215 12.0649 7.45215 11.5471Z" fill="#E4E4E4"/>
<path d="M5.57715 13.4221C5.57715 12.9044 5.99688 12.4846 6.51465 12.4846C7.03242 12.4846 7.45215 12.9044 7.45215 13.4221C7.45215 13.9399 7.03242 14.3596 6.51465 14.3596C5.99688 14.3596 5.57715 13.9399 5.57715 13.4221Z" fill="#E4E4E4"/>
<path d="M3.70215 15.2971C3.70215 14.7794 4.12188 14.3596 4.63965 14.3596C5.15742 14.3596 5.57715 14.7794 5.57715 15.2971C5.57715 15.8149 5.15742 16.2346 4.63965 16.2346C4.12188 16.2346 3.70215 15.8149 3.70215 15.2971Z" fill="#E4E4E4"/>
<path d="M3.70215 11.5471C3.70215 11.0294 4.12188 10.6096 4.63965 10.6096C5.15742 10.6096 5.57715 11.0294 5.57715 11.5471C5.57715 12.0649 5.15742 12.4846 4.63965 12.4846C4.12188 12.4846 3.70215 12.0649 3.70215 11.5471Z" fill="#E4E4E4"/>
<path d="M7.45215 15.2971C7.45215 14.7794 7.87188 14.3596 8.38965 14.3596C8.90742 14.3596 9.32715 14.7794 9.32715 15.2971C9.32715 15.8149 8.90742 16.2346 8.38965 16.2346C7.87188 16.2346 7.45215 15.8149 7.45215 15.2971Z" fill="#E4E4E4"/>
  </g>
  <!-- Frame 3 -->
  <g class="frame3">
<path d="M11.6371 14.2188C11.6371 14.7653 12.0801 15.2084 12.6267 15.2084H14.1892C14.7357 15.2084 15.1788 14.7653 15.1788 14.2188V12.6563C15.1788 12.1097 14.7357 11.6667 14.1892 11.6667H12.6267C12.0801 11.6667 11.6371 12.1097 11.6371 12.6563V14.2188ZM10.4913 12.6563C10.4913 11.4769 11.4473 10.5209 12.6267 10.5209H14.1892C15.3685 10.5209 16.3246 11.4769 16.3246 12.6563V14.2188C16.3246 15.3981 15.3685 16.3542 14.1892 16.3542H12.6267C11.4473 16.3542 10.4913 15.3981 10.4913 14.2188V12.6563Z" fill="#E4E4E4"/>
<path d="M4.73181 14.2188C4.73181 14.7653 5.17486 15.2084 5.72139 15.2084H7.28389C7.83043 15.2084 8.27348 14.7653 8.27348 14.2188V12.6563C8.27348 12.1097 7.83043 11.6667 7.28389 11.6667H5.72139C5.17486 11.6667 4.73181 12.1097 4.73181 12.6563V14.2188ZM3.58598 12.6563C3.58598 11.4769 4.54204 10.5209 5.72139 10.5209H7.28389C8.46325 10.5209 9.41931 11.4769 9.41931 12.6563V14.2188C9.41931 15.3981 8.46325 16.3542 7.28389 16.3542H5.72139C4.54204 16.3542 3.58598 15.3981 3.58598 14.2188V12.6563Z" fill="#E4E4E4"/>
<path d="M11.7267 7.34377C11.7267 7.8903 12.1697 8.33335 12.7163 8.33335H14.2788C14.8253 8.33335 15.2684 7.8903 15.2684 7.34377V5.78127C15.2684 5.23474 14.8253 4.79169 14.2788 4.79169H12.7163C12.1697 4.79169 11.7267 5.23474 11.7267 5.78127V7.34377ZM10.5809 5.78127C10.5809 4.60191 11.5369 3.64585 12.7163 3.64585H14.2788C15.4581 3.64585 16.4142 4.60191 16.4142 5.78127V7.34377C16.4142 8.52313 15.4581 9.47919 14.2788 9.47919H12.7163C11.5369 9.47919 10.5809 8.52313 10.5809 7.34377V5.78127Z" fill="#E4E4E4"/>
<path d="M12.4703 13.4375C12.4703 13.9553 12.8901 14.375 13.4078 14.375C13.9256 14.375 14.3453 13.9553 14.3453 13.4375C14.3453 12.9198 13.9256 12.5 13.4078 12.5C12.8901 12.5 12.4703 12.9198 12.4703 13.4375Z" fill="#E4E4E4"/>
<path d="M5.56519 13.4375C5.56519 13.9553 5.98492 14.375 6.50269 14.375C7.02045 14.375 7.44019 13.9553 7.44019 13.4375C7.44019 12.9198 7.02045 12.5 6.50269 12.5C5.98492 12.5 5.56519 12.9198 5.56519 13.4375Z" fill="#E4E4E4"/>
<path d="M7.44019 8.43753C7.44019 8.9553 7.85992 9.37503 8.37769 9.37503C8.89545 9.37503 9.31519 8.9553 9.31519 8.43753C9.31519 7.91976 8.89545 7.50003 8.37769 7.50003C7.85992 7.50003 7.44019 7.91976 7.44019 8.43753Z" fill="#E4E4E4"/>
<path d="M5.56519 6.56253C5.56519 7.0803 5.98492 7.50003 6.50269 7.50003C7.02045 7.50003 7.44019 7.0803 7.44019 6.56253C7.44019 6.04476 7.02045 5.62503 6.50269 5.62503C5.98492 5.62503 5.56519 6.04476 5.56519 6.56253Z" fill="#E4E4E4"/>
<path d="M3.69019 4.68753C3.69019 5.2053 4.10992 5.62503 4.62769 5.62503C5.14545 5.62503 5.56519 5.2053 5.56519 4.68753C5.56519 4.16976 5.14545 3.75003 4.62769 3.75003C4.10992 3.75003 3.69019 4.16976 3.69019 4.68753Z" fill="#E4E4E4"/>
<path d="M3.69019 8.43753C3.69019 8.9553 4.10992 9.37503 4.62769 9.37503C5.14545 9.37503 5.56519 8.9553 5.56519 8.43753C5.56519 7.91976 5.14545 7.50003 4.62769 7.50003C4.10992 7.50003 3.69019 7.91976 3.69019 8.43753Z" fill="#E4E4E4"/>
<path d="M7.44019 4.68753C7.44019 5.2053 7.85992 5.62503 8.37769 5.62503C8.89545 5.62503 9.31519 5.2053 9.31519 4.68753C9.31519 4.16976 8.89545 3.75003 8.37769 3.75003C7.85992 3.75003 7.44019 4.16976 7.44019 4.68753Z" fill="#E4E4E4"/>
  </g>
  <!-- Frame 4 -->
  <g class="frame4">
<path d="M8.27344 14.2188C8.27344 14.7653 7.83039 15.2084 7.28385 15.2084L5.72135 15.2084C5.17482 15.2084 4.73177 14.7653 4.73177 14.2188L4.73177 12.6563C4.73177 12.1097 5.17482 11.6667 5.72135 11.6667L7.28385 11.6667C7.83039 11.6667 8.27344 12.1097 8.27344 12.6563L8.27344 14.2188ZM9.41927 12.6563C9.41927 11.4769 8.46321 10.5209 7.28385 10.5209L5.72135 10.5209C4.542 10.5209 3.58594 11.4769 3.58594 12.6563L3.58594 14.2188C3.58594 15.3981 4.542 16.3542 5.72135 16.3542L7.28385 16.3542C8.46321 16.3542 9.41927 15.3981 9.41927 14.2188L9.41927 12.6563Z" fill="#E4E4E4"/>
<path d="M15.1484 14.2188C15.1484 14.7653 14.7054 15.2084 14.1589 15.2084L12.5964 15.2084C12.0498 15.2084 11.6068 14.7653 11.6068 14.2188L11.6068 12.6563C11.6068 12.1097 12.0498 11.6667 12.5964 11.6667L14.1589 11.6667C14.7054 11.6667 15.1484 12.1097 15.1484 12.6563L15.1484 14.2188ZM16.2943 12.6563C16.2943 11.4769 15.3382 10.5209 14.1589 10.5209L12.5964 10.5209C11.417 10.5209 10.4609 11.4769 10.4609 12.6563L10.4609 14.2188C10.4609 15.3981 11.417 16.3542 12.5964 16.3542L14.1589 16.3542C15.3382 16.3542 16.2943 15.3981 16.2943 14.2188L16.2943 12.6563Z" fill="#E4E4E4"/>
<path d="M8.27344 7.34377C8.27344 7.8903 7.83039 8.33335 7.28385 8.33335L5.72135 8.33335C5.17482 8.33335 4.73177 7.8903 4.73177 7.34377L4.73177 5.78127C4.73177 5.23474 5.17482 4.79169 5.72135 4.79169L7.28385 4.79169C7.83039 4.79169 8.27344 5.23474 8.27344 5.78127L8.27344 7.34377ZM9.41927 5.78127C9.41927 4.60191 8.46321 3.64585 7.28385 3.64585L5.72135 3.64585C4.542 3.64585 3.58594 4.60191 3.58594 5.78127L3.58594 7.34377C3.58594 8.52313 4.542 9.47919 5.72135 9.47919L7.28385 9.47919C8.46321 9.47919 9.41927 8.52313 9.41927 7.34377L9.41927 5.78127Z" fill="#E4E4E4"/>
<path d="M14.3152 13.4375C14.3152 13.9553 13.8955 14.375 13.3777 14.375C12.8599 14.375 12.4402 13.9553 12.4402 13.4375C12.4402 12.9198 12.8599 12.5 13.3777 12.5C13.8955 12.5 14.3152 12.9198 14.3152 13.4375Z" fill="#E4E4E4"/>
<path d="M7.44019 6.56253C7.44019 7.0803 7.02045 7.50003 6.50269 7.50003C5.98492 7.50003 5.56519 7.0803 5.56519 6.56253C5.56519 6.04476 5.98492 5.62503 6.50269 5.62503C7.02045 5.62503 7.44019 6.04476 7.44019 6.56253Z" fill="#E4E4E4"/>
<path d="M15.2683 7.34377C15.2683 7.8903 14.8253 8.33335 14.2787 8.33335L12.7162 8.33335C12.1697 8.33335 11.7266 7.8903 11.7266 7.34377L11.7266 5.78127C11.7266 5.23474 12.1697 4.79169 12.7162 4.79169L14.2787 4.79169C14.8253 4.79169 15.2683 5.23474 15.2683 5.78127L15.2683 7.34377ZM16.4141 5.78127C16.4141 4.60191 15.4581 3.64585 14.2787 3.64585L12.7162 3.64585C11.5369 3.64585 10.5808 4.60191 10.5808 5.78127L10.5808 7.34377C10.5808 8.52313 11.5369 9.47919 12.7162 9.47919L14.2787 9.47919C15.4581 9.47919 16.4141 8.52313 16.4141 7.34377L16.4141 5.78127Z" fill="#E4E4E4"/>
  </g>
  <!-- Frame 5 -->
  <g class="frame5">
<path d="M10 10.9375C10.5178 10.9375 10.9375 10.5178 10.9375 10C10.9375 9.48223 10.5178 9.0625 10 9.0625C9.48223 9.0625 9.0625 9.48223 9.0625 10C9.0625 10.5178 9.48223 10.9375 10 10.9375Z" fill="#E4E4E4"/>
<path d="M13.4974 7.56253C14.0152 7.56253 14.4349 7.1428 14.4349 6.62503C14.4349 6.10726 14.0152 5.68753 13.4974 5.68753C12.9797 5.68753 12.5599 6.10726 12.5599 6.62503C12.5599 7.1428 12.9797 7.56253 13.4974 7.56253Z" fill="#E4E4E4"/>
<path d="M6.50269 14.3555C7.02045 14.3555 7.44019 13.9357 7.44019 13.418C7.44019 12.9002 7.02045 12.4805 6.50269 12.4805C5.98492 12.4805 5.56519 12.9002 5.56519 13.418C5.56519 13.9357 5.98492 14.3555 6.50269 14.3555Z" fill="#E4E4E4"/>
<path d="M13.2031 14.795C14.0842 14.795 14.7985 14.0808 14.7985 13.1997C14.7985 12.3186 14.0842 11.6044 13.2031 11.6044C12.322 11.6044 11.6078 12.3186 11.6078 13.1997C11.6078 14.0808 12.322 14.795 13.2031 14.795Z" fill="#E4E4E4"/>
<path d="M6.50256 8.75052C7.67644 8.75052 8.62805 7.79891 8.62805 6.62503C8.62805 5.45116 7.67644 4.49954 6.50256 4.49954C5.32869 4.49954 4.37708 5.45116 4.37708 6.62503C4.37708 7.79891 5.32869 8.75052 6.50256 8.75052Z" fill="#E4E4E4"/>
  </g>
 
</svg>
