<svg width="20" height="20" viewBox="0 0 20 20" fill="none" xmlns="http://www.w3.org/2000/svg">
<path fill-rule="evenodd" clip-rule="evenodd" d="M6.87516 10.4936C6.87516 9.66485 7.2044 8.86999 7.79045 8.28394C8.37651 7.69789 9.17136 7.36865 10.0002 7.36865C10.829 7.36865 11.6238 7.69789 12.2099 8.28394C12.7959 8.86999 13.1252 9.66485 13.1252 10.4936C13.1252 11.3224 12.7959 12.1173 12.2099 12.7034C11.6238 13.2894 10.829 13.6186 10.0002 13.6186C9.17136 13.6186 8.37651 13.2894 7.79045 12.7034C7.2044 12.1173 6.87516 11.3224 6.87516 10.4936ZM10.0002 8.61865C9.50288 8.61865 9.02597 8.81619 8.67434 9.16782C8.32271 9.51945 8.12516 9.99637 8.12516 10.4936C8.12516 10.9909 8.32271 11.4678 8.67434 11.8195C9.02597 12.1711 9.50288 12.3686 10.0002 12.3686C10.4974 12.3686 10.9744 12.1711 11.326 11.8195C11.6776 11.4678 11.8752 10.9909 11.8752 10.4936C11.8752 9.99637 11.6776 9.51945 11.326 9.16782C10.9744 8.81619 10.4974 8.61865 10.0002 8.61865Z" fill="#9B9B9B"/>
<path fill-rule="evenodd" clip-rule="evenodd" d="M8.84683 4.45198C8.63972 4.45176 8.4346 4.49239 8.24321 4.57155C8.05182 4.65071 7.87792 4.76684 7.73147 4.91329C7.58502 5.05974 7.46889 5.23363 7.38973 5.42502C7.31058 5.61641 7.26994 5.82153 7.27016 6.02865C7.27002 6.2963 7.16926 6.55412 6.98788 6.75094C6.80649 6.94775 6.55775 7.06919 6.291 7.09115L4.43266 7.24115C4.25495 7.25546 4.08687 7.32783 3.95435 7.4471C3.82183 7.56637 3.73222 7.72592 3.69933 7.90115C3.32535 9.87605 3.29771 11.9009 3.61766 13.8853L3.6985 14.3886C3.77516 14.8636 4.166 15.2261 4.646 15.2653L6.26516 15.397C8.75108 15.5988 11.2493 15.5988 13.7352 15.397L15.3535 15.2653C15.5869 15.2464 15.8072 15.1498 15.9791 14.9908C16.1511 14.8319 16.2647 14.6198 16.3018 14.3886L16.3827 13.8853C16.7023 11.9009 16.6744 9.876 16.3002 7.90115C16.2671 7.72607 16.1774 7.56671 16.0449 7.4476C15.9124 7.3285 15.7444 7.25625 15.5668 7.24198L13.7093 7.09115C13.4426 7.06919 13.1938 6.94775 13.0125 6.75094C12.8311 6.55412 12.7303 6.2963 12.7302 6.02865C12.7304 5.82153 12.6898 5.61641 12.6106 5.42502C12.5314 5.23363 12.4153 5.05974 12.2689 4.91329C12.1224 4.76684 11.9485 4.65071 11.7571 4.57155C11.5657 4.49239 11.3606 4.45176 11.1535 4.45198H8.84683ZM6.02516 5.85865C6.06868 5.13975 6.38488 4.46456 6.90925 3.97085C7.43362 3.47715 8.12662 3.20215 8.84683 3.20198H11.1535C12.6577 3.20198 13.8868 4.37698 13.9752 5.85865L15.6685 5.99615C16.119 6.03251 16.545 6.2159 16.8811 6.51809C17.2172 6.82028 17.4446 7.22454 17.5285 7.66865C17.9293 9.78531 17.9593 11.9561 17.6168 14.0836L17.536 14.5878C17.4543 15.095 17.2049 15.5601 16.8277 15.9088C16.4505 16.2575 15.9672 16.4696 15.4552 16.5111L13.8368 16.6428C11.2832 16.8497 8.71709 16.8497 6.1635 16.6428L4.54516 16.5111C4.03315 16.4696 3.54987 16.2575 3.17263 15.9088C2.79539 15.5601 2.54599 15.095 2.46433 14.5878L2.3835 14.0836C2.04081 11.9564 2.0707 9.78569 2.47183 7.66865C2.55581 7.2246 2.78331 6.82042 3.11935 6.51825C3.4554 6.21608 3.88138 6.03265 4.33183 5.99615L6.02516 5.85865Z" fill="#9B9B9B"/>
</svg>
