<svg width="20" height="20" viewBox="0 0 20 20" fill="none" xmlns="http://www.w3.org/2000/svg">
<path d="M6.97949 11.7119H5.5166C4.92307 11.7119 4.44146 12.1926 4.44141 12.7861V14.4834C4.44148 15.0769 4.92309 15.5576 5.5166 15.5576H7.0498C7.19221 16.0346 7.50861 16.4349 7.9248 16.6895C7.7006 16.7617 7.46208 16.8027 7.21387 16.8027H5.5166C4.23577 16.8027 3.19734 15.7642 3.19727 14.4834V12.7861C3.19732 11.5053 4.23576 10.4668 5.5166 10.4668H6.98535L6.97949 11.7119Z" fill="#D7184B"/>
<path d="M6.36523 12.6162C6.59404 12.6162 6.80459 12.6929 6.97461 12.8203L6.96777 14.4541C6.79893 14.5785 6.59102 14.6533 6.36523 14.6533C5.80291 14.6533 5.34669 14.1971 5.34668 13.6348C5.34668 13.0724 5.80291 12.6162 6.36523 12.6162Z" fill="#D7184B"/>
<path d="M7.21387 3C8.49469 3.00009 9.5332 4.03849 9.5332 5.31934V7.01074L9 7.00879C8.74641 7.0077 8.5039 7.05453 8.28027 7.13965C8.2849 7.09923 8.28807 7.05826 8.28809 7.0166V5.31934C8.28809 4.7258 7.80738 4.24423 7.21387 4.24414H5.5166C4.92304 4.24418 4.44141 4.72577 4.44141 5.31934V7.0166C4.44156 7.61004 4.92314 8.09078 5.5166 8.09082H7.21387L7.21484 8.08984C7.07349 8.36252 6.99262 8.67174 6.99121 9L6.99023 9.33594H5.5166C4.23582 9.3359 3.19742 8.29735 3.19727 7.0166V5.31934C3.19727 4.03846 4.23573 3.00004 5.5166 3H7.21387Z" fill="#D7184B"/>
<path d="M14.6807 3C15.9616 3 17 4.03843 17 5.31934V7.0166C17 7.38841 16.9095 7.73834 16.7539 8.0498C16.5286 7.65261 16.1721 7.34102 15.7422 7.17285C15.7497 7.12175 15.7558 7.06977 15.7559 7.0166V5.31934C15.7559 4.72575 15.2743 4.24414 14.6807 4.24414H12.9834C12.3899 4.24427 11.9092 4.72582 11.9092 5.31934V7.02051L10.6641 7.01562V5.31934C10.6641 4.03851 11.7026 3.00013 12.9834 3H14.6807Z" fill="#D7184B"/>
<path d="M6.36523 5.14941C6.92758 5.14941 7.38379 5.60562 7.38379 6.16797C7.3837 6.73024 6.92753 7.18555 6.36523 7.18555C5.80296 7.18552 5.34677 6.73022 5.34668 6.16797C5.34668 5.60564 5.80291 5.14944 6.36523 5.14941Z" fill="#D7184B"/>
<path d="M13.832 5.14941C14.3944 5.14941 14.8506 5.60562 14.8506 6.16797C14.8505 6.53284 14.6576 6.85151 14.3691 7.03125L13.2871 7.02637C13.0032 6.84571 12.8145 6.52941 12.8145 6.16797C12.8145 5.60569 13.2698 5.14953 13.832 5.14941Z" fill="#D7184B"/>
<path d="M15.3333 9.22223L9.22217 15.3333" stroke="#D7184B" stroke-width="1.47778"/>
<path d="M15.3334 15.3333L9.22226 9.22223" stroke="#D7184B" stroke-width="1.47778"/>
</svg>
