<svg width="20" height="20" viewBox="0 0 20 20" fill="none" xmlns="http://www.w3.org/2000/svg">
<path d="M8.09888 5.54687C8.09888 5.00034 7.65583 4.55729 7.10929 4.55729H5.54679C5.00026 4.55729 4.55721 5.00034 4.55721 5.54687V7.10937C4.55721 7.6559 5.00026 8.09895 5.54679 8.09895H7.10929C7.65583 8.09895 8.09888 7.6559 8.09888 7.10937V5.54687ZM9.24471 7.10937C9.24471 8.28873 8.28865 9.24479 7.10929 9.24479H5.54679C4.36744 9.24479 3.41138 8.28873 3.41138 7.10937V5.54687C3.41138 4.36751 4.36744 3.41145 5.54679 3.41145H7.10929C8.28865 3.41145 9.24471 4.36751 9.24471 5.54687V7.10937Z" fill="#0898FF"/>
<path d="M14.9739 5.54687C14.9739 5.00034 14.5308 4.55729 13.9843 4.55729H12.4218C11.8753 4.55729 11.4322 5.00034 11.4322 5.54687V7.10937C11.4322 7.6559 11.8753 8.09895 12.4218 8.09895H13.9843C14.5308 8.09895 14.9739 7.6559 14.9739 7.10937V5.54687ZM16.1197 7.10937C16.1197 8.28873 15.1637 9.24479 13.9843 9.24479H12.4218C11.2424 9.24479 10.2864 8.28873 10.2864 7.10937V5.54687C10.2864 4.36751 11.2424 3.41145 12.4218 3.41145H13.9843C15.1637 3.41145 16.1197 4.36751 16.1197 5.54687V7.10937Z" fill="#0898FF"/>
<path d="M8.09888 12.4219C8.09888 11.8753 7.65583 11.4323 7.10929 11.4323H5.54679C5.00026 11.4323 4.55721 11.8753 4.55721 12.4219V13.9844C4.55721 14.5309 5.00026 14.974 5.54679 14.974H7.10929C7.65583 14.974 8.09888 14.5309 8.09888 13.9844V12.4219ZM9.24471 13.9844C9.24471 15.1637 8.28865 16.1198 7.10929 16.1198H5.54679C4.36744 16.1198 3.41138 15.1637 3.41138 13.9844V12.4219C3.41138 11.2425 4.36744 10.2865 5.54679 10.2865H7.10929C8.28865 10.2865 9.24471 11.2425 9.24471 12.4219V13.9844Z" fill="#0898FF"/>
<path d="M7.26562 6.32812C7.26562 5.81036 6.84589 5.39062 6.32812 5.39062C5.81036 5.39062 5.39062 5.81036 5.39062 6.32812C5.39062 6.84589 5.81036 7.26562 6.32812 7.26562C6.84589 7.26562 7.26562 6.84589 7.26562 6.32812Z" fill="#0898FF"/>
<path d="M14.1406 6.32812C14.1406 5.81036 13.7209 5.39062 13.2031 5.39062C12.6854 5.39062 12.2656 5.81036 12.2656 6.32812C12.2656 6.84589 12.6854 7.26562 13.2031 7.26562C13.7209 7.26562 14.1406 6.84589 14.1406 6.32812Z" fill="#0898FF"/>
<path d="M7.26562 13.2031C7.26562 12.6854 6.84589 12.2656 6.32812 12.2656C5.81036 12.2656 5.39062 12.6854 5.39062 13.2031C5.39062 13.7209 5.81036 14.1406 6.32812 14.1406C6.84589 14.1406 7.26562 13.7209 7.26562 13.2031Z" fill="#0898FF"/>
<path d="M12.2656 11.3281C12.2656 10.8104 11.8459 10.3906 11.3281 10.3906C10.8104 10.3906 10.3906 10.8104 10.3906 11.3281C10.3906 11.8459 10.8104 12.2656 11.3281 12.2656C11.8459 12.2656 12.2656 11.8459 12.2656 11.3281Z" fill="#0898FF"/>
<path d="M14.1406 13.2031C14.1406 12.6854 13.7209 12.2656 13.2031 12.2656C12.6854 12.2656 12.2656 12.6854 12.2656 13.2031C12.2656 13.7209 12.6854 14.1406 13.2031 14.1406C13.7209 14.1406 14.1406 13.7209 14.1406 13.2031Z" fill="#0898FF"/>
<path d="M16.0156 15.0781C16.0156 14.5604 15.5959 14.1406 15.0781 14.1406C14.5604 14.1406 14.1406 14.5604 14.1406 15.0781C14.1406 15.5959 14.5604 16.0156 15.0781 16.0156C15.5959 16.0156 16.0156 15.5959 16.0156 15.0781Z" fill="#0898FF"/>
<path d="M16.0156 11.3281C16.0156 10.8104 15.5959 10.3906 15.0781 10.3906C14.5604 10.3906 14.1406 10.8104 14.1406 11.3281C14.1406 11.8459 14.5604 12.2656 15.0781 12.2656C15.5959 12.2656 16.0156 11.8459 16.0156 11.3281Z" fill="#0898FF"/>
<path d="M12.2656 15.0781C12.2656 14.5604 11.8459 14.1406 11.3281 14.1406C10.8104 14.1406 10.3906 14.5604 10.3906 15.0781C10.3906 15.5959 10.8104 16.0156 11.3281 16.0156C11.8459 16.0156 12.2656 15.5959 12.2656 15.0781Z" fill="#0898FF"/>
</svg>
