<svg width="20" height="20" viewBox="0 0 20 20" fill="none" xmlns="http://www.w3.org/2000/svg">
<path d="M7.33373 15.6129C7.08936 15.8502 6.69996 15.8481 6.45814 15.6082L6.25874 15.4104C6.01034 15.164 6.01262 14.7616 6.26379 14.5181L7.80831 13.0201H2.85901C2.51383 13.0201 2.23401 12.7403 2.23401 12.3951V12.1351C2.23401 11.7899 2.51383 11.5101 2.85901 11.5101H7.80831L6.2638 10.0122C6.01262 9.76857 6.01034 9.36623 6.25874 9.11981L6.45764 8.92249C6.69966 8.68239 7.08945 8.68053 7.33374 8.91831L10.316 11.821C10.5683 12.0666 10.5681 12.472 10.3155 12.7173L7.33373 15.6129ZM13.5425 11.0775C13.3005 11.3176 12.9107 11.3195 12.6664 11.0817L9.68413 8.17898C9.43183 7.93342 9.43206 7.52802 9.68464 7.28274L12.6664 4.38712C12.9108 4.14981 13.3002 4.15189 13.542 4.3918L13.7414 4.58961C13.9898 4.83604 13.9875 5.23837 13.7363 5.48197L12.1918 6.97988H17.1411C17.4863 6.97988 17.7661 7.2597 17.7661 7.60488V7.86494C17.7661 8.21012 17.4863 8.48994 17.1411 8.48994H12.1918L13.7363 9.98785C13.9875 10.2315 13.9898 10.6338 13.7414 10.8802L13.5425 11.0775Z" fill="#9B9B9B"/>
</svg>
