<svg width="16" height="16" viewBox="0 0 16 16" fill="none" xmlns="http://www.w3.org/2000/svg">
<path d="M12.1214 9.8317H9.3739V8.91585H12.1214V9.8317ZM13.9531 13.4951H11.2056V12.5792H13.9531V13.4951ZM13.0373 11.6634H10.2897V10.7475H13.0373V11.6634Z" fill="#9B9B9B"/>
<path d="M8.09752 9.70027C8.09384 9.28815 7.98381 8.88395 7.77808 8.52683C7.57234 8.16971 7.27788 7.87176 6.92321 7.66184L10.5385 1.39608L9.69339 0.9076L5.99216 7.31941C5.53792 7.21798 5.0655 7.23204 4.61809 7.36029C4.17069 7.48855 3.76257 7.72692 3.43105 8.0536C1.60218 9.81751 1.74384 13.9413 1.75068 14.1161C1.75573 14.2423 1.80941 14.3616 1.90048 14.449C1.99155 14.5364 2.11292 14.5852 2.23916 14.5851H9.56199C9.66451 14.5851 9.76444 14.5528 9.84761 14.4929C9.93078 14.4329 9.99298 14.3483 10.0254 14.2511C10.0578 14.1538 10.0588 14.0488 10.0283 13.951C9.99768 13.8531 9.9371 13.7673 9.85508 13.7058C8.12585 12.4084 8.09752 9.72665 8.09752 9.70027ZM5.61945 8.23336C6.01042 8.23766 6.38468 8.39253 6.66436 8.66575C6.94405 8.93897 7.10762 9.30951 7.12105 9.70027C7.12105 9.71883 7.12202 9.80188 7.12935 9.92937L4.24731 8.64759C4.43715 8.49105 4.65622 8.37381 4.89179 8.3027C5.12735 8.23158 5.3747 8.20801 5.61945 8.23336ZM7.33891 13.6081C6.94846 13.2106 6.69958 12.6956 6.63061 12.1427H5.65365C5.68863 12.6626 5.85102 13.1658 6.1265 13.6081H5.0406C4.83963 12.9742 4.71741 12.318 4.67668 11.6542H3.69972C3.73103 12.316 3.84006 12.9718 4.02456 13.6081H2.72276C2.7379 12.7113 2.86442 10.73 3.60349 9.43014L7.28322 11.0666C7.45963 11.9847 7.8366 12.8525 8.38719 13.6081H7.33891Z" fill="#9B9B9B"/>
</svg>
