<svg width="20" height="20" viewBox="0 0 20 20" fill="none" xmlns="http://www.w3.org/2000/svg">
<path d="M15.1518 12.2896H11.7174V11.1448H15.1518V12.2896ZM17.4415 16.8689H14.007V15.724H17.4415V16.8689ZM16.2966 14.5792H12.8622V13.4344H16.2966V14.5792Z" fill="#9B9B9B"/>
<path d="M10.1219 12.1253C10.1173 11.6102 9.97976 11.1049 9.72259 10.6585C9.46543 10.2121 9.09735 9.83971 8.65401 9.5773L13.1731 1.74511L12.1167 1.13451L7.49021 9.14927C6.9224 9.02248 6.33188 9.04005 5.77262 9.20037C5.21336 9.3607 4.70321 9.65865 4.28882 10.067C2.00272 12.2719 2.1798 17.4266 2.18835 17.6452C2.19466 17.8029 2.26177 17.952 2.3756 18.0612C2.48943 18.1705 2.64115 18.2315 2.79895 18.2314H11.9525C12.0806 18.2314 12.2055 18.191 12.3095 18.1161C12.4135 18.0412 12.4912 17.9354 12.5318 17.8139C12.5723 17.6923 12.5735 17.561 12.5353 17.4387C12.4971 17.3164 12.4214 17.2092 12.3188 17.1323C10.1573 15.5105 10.1219 12.1583 10.1219 12.1253ZM7.02432 10.2917C7.51303 10.2971 7.98085 10.4907 8.33045 10.8322C8.68006 11.1737 8.88452 11.6369 8.90131 12.1253C8.90131 12.1485 8.90253 12.2524 8.91169 12.4117L5.30913 10.8095C5.54644 10.6138 5.82028 10.4673 6.11473 10.3784C6.40919 10.2895 6.71837 10.26 7.02432 10.2917ZM9.17364 17.0102C8.68557 16.5132 8.37447 15.8695 8.28826 15.1784H7.06706C7.11079 15.8282 7.31378 16.4573 7.65812 17.0102H6.30075C6.04954 16.2178 5.89676 15.3975 5.84585 14.5678H4.62465C4.66379 15.395 4.80008 16.2148 5.0307 17.0102H3.40345C3.42237 15.8891 3.58052 13.4125 4.50436 11.7877L9.10403 13.8332C9.32454 14.9809 9.79574 16.0657 10.484 17.0102H9.17364Z" fill="#9B9B9B"/>
</svg>
