<svg width="20" height="20" viewBox="0 0 20 20" fill="none" xmlns="http://www.w3.org/2000/svg">
<path fill-rule="evenodd" clip-rule="evenodd" d="M13.399 5.52565C13.6959 5.2288 14.1776 5.2288 14.4744 5.52565C14.7712 5.82251 14.7712 6.30423 14.4744 6.60105L11.4328 9.64164C11.2351 9.83952 11.2351 10.1607 11.4328 10.3586L14.4744 13.3992C14.7712 13.696 14.7712 14.1777 14.4744 14.4746C14.1776 14.7714 13.6959 14.7713 13.399 14.4746L10.3584 11.4329C10.1606 11.2352 9.83937 11.2353 9.64149 11.4329L6.6009 14.4746C6.30407 14.7714 5.82236 14.7713 5.5255 14.4746C5.22864 14.1777 5.22864 13.696 5.5255 13.3992L8.56609 10.3586C8.764 10.1607 8.76397 9.83957 8.56609 9.64164L5.5255 6.60105C5.22864 6.30419 5.22864 5.8225 5.5255 5.52565C5.82235 5.2288 6.30404 5.2288 6.6009 5.52565L9.64149 8.56625C9.83941 8.76412 10.1605 8.76415 10.3584 8.56625L13.399 5.52565Z" fill="#9B9B9B"/>
</svg>
