<svg width="16" height="16" viewBox="0 0 16 16" fill="none" xmlns="http://www.w3.org/2000/svg">
<path fill-rule="evenodd" clip-rule="evenodd" d="M10.7192 4.42052C10.9567 4.18304 11.3421 4.18304 11.5796 4.42052C11.817 4.65801 11.817 5.04338 11.5796 5.28084L9.14623 7.71332C8.98813 7.87162 8.9881 8.12858 9.14623 8.28686L11.5796 10.7193C11.817 10.9568 11.817 11.3422 11.5796 11.5797C11.3421 11.8171 10.9567 11.8171 10.7192 11.5797L8.28676 9.14633C8.12848 8.9882 7.87152 8.98823 7.71322 9.14633L5.28074 11.5797C5.04328 11.8171 4.65791 11.8171 4.42042 11.5797C4.18294 11.3422 4.18294 10.9568 4.42042 10.7193L6.8529 8.28686C7.01122 8.12854 7.0112 7.87165 6.8529 7.71332L4.42042 5.28084C4.18294 5.04336 4.18294 4.65801 4.42042 4.42052C4.65791 4.18304 5.04326 4.18304 5.28074 4.42052L7.71322 6.853C7.87156 7.0113 8.12844 7.01132 8.28676 6.853L10.7192 4.42052Z" fill="#9B9B9B"/>
</svg>
