<svg width="20" height="20" viewBox="0 0 20 20" fill="none" xmlns="http://www.w3.org/2000/svg">
<path d="M9.07799 7.31377C8.78984 7.02593 8.32295 7.02586 8.03484 7.31377L5.86964 9.47897C5.58238 9.76712 5.58202 10.2342 5.86964 10.5221L8.03484 12.6873C8.32278 12.9749 8.78984 12.9746 9.07799 12.6873C9.36617 12.3991 9.36617 11.9313 9.07799 11.6431L7.87763 10.4419C7.63369 10.1978 7.63375 9.80222 7.87777 9.5582L9.07799 8.35799C9.36617 8.06981 9.36617 7.60195 9.07799 7.31377Z" fill="#9B9B9B"/>
<path fill-rule="evenodd" clip-rule="evenodd" d="M4.94865 2.76825C3.7444 2.76861 2.76831 3.74534 2.76831 4.94967V15.0514C2.76866 16.2554 3.74462 17.2314 4.94865 17.2318H15.0504C16.2547 17.2318 17.2315 16.2557 17.2318 15.0514V4.94967C17.2318 3.74512 16.2549 2.76825 15.0504 2.76825H4.94865ZM15.0504 4.24487C15.4398 4.24487 15.7552 4.56023 15.7552 4.94967V15.0514C15.7548 15.4405 15.4396 15.7562 15.0504 15.7562H13.5275C13.1823 15.7562 12.9025 15.4764 12.9025 15.1312V4.86987C12.9025 4.52469 13.1823 4.24487 13.5275 4.24487H15.0504ZM11.4259 15.1312C11.4259 15.4764 11.1461 15.7562 10.8009 15.7562H4.94865C4.55974 15.7559 4.2442 15.4403 4.24385 15.0514V4.94967C4.24385 4.60898 4.48583 4.32468 4.80704 4.25892L4.94865 4.24487H10.8009C11.1461 4.24487 11.4259 4.52469 11.4259 4.86987V15.1312Z" fill="#9B9B9B"/>
</svg>
