<svg width="20" height="20" viewBox="0 0 20 20" fill="none" xmlns="http://www.w3.org/2000/svg">
<g clip-path="url(#clip0_725_5238)">
<path fill-rule="evenodd" clip-rule="evenodd" d="M9.99997 16.4262C10.8439 16.4262 11.6795 16.26 12.4592 15.9371C13.2389 15.6141 13.9473 15.1408 14.544 14.544C15.1407 13.9473 15.6141 13.2389 15.937 12.4592C16.26 11.6795 16.4262 10.8439 16.4262 10C16.4262 9.15609 16.26 8.32045 15.937 7.54078C15.6141 6.76112 15.1407 6.05269 14.544 5.45596C13.9473 4.85923 13.2389 4.38588 12.4592 4.06293C11.6795 3.73998 10.8439 3.57376 9.99997 3.57376C8.29563 3.57376 6.66109 4.25081 5.45593 5.45596C4.25078 6.66112 3.57373 8.29566 3.57373 10C3.57373 11.7043 4.25078 13.3389 5.45593 14.544C6.66109 15.7492 8.29563 16.4262 9.99997 16.4262ZM9.83432 12.5991L13.4044 8.3149L12.3077 7.40094L9.23739 11.0846L7.64868 9.49518L6.63905 10.5048L8.78113 12.6469L9.33378 13.1996L9.83432 12.5991Z" fill="#9B9B9B"/>
</g>
<defs>
<clipPath id="clip0_725_5238">
<rect width="20" height="20" fill="white"/>
</clipPath>
</defs>
</svg>
