<svg width="16" height="16" viewBox="0 0 16 16" fill="none" xmlns="http://www.w3.org/2000/svg">
<g clip-path="url(#clip0_725_5238)">
<path fill-rule="evenodd" clip-rule="evenodd" d="M8 13.141C8.67512 13.141 9.34364 13.008 9.96737 12.7497C10.5911 12.4913 11.1578 12.1126 11.6352 11.6352C12.1126 11.1578 12.4913 10.5911 12.7497 9.96737C13.008 9.34364 13.141 8.67512 13.141 8C13.141 7.32488 13.008 6.65636 12.7497 6.03263C12.4913 5.40889 12.1126 4.84216 11.6352 4.36477C11.1578 3.88738 10.5911 3.5087 9.96737 3.25034C9.34364 2.99198 8.67512 2.85901 8 2.85901C6.63652 2.85901 5.32889 3.40065 4.36477 4.36477C3.40065 5.32889 2.85901 6.63652 2.85901 8C2.85901 9.36348 3.40065 10.6711 4.36477 11.6352C5.32889 12.5994 6.63652 13.141 8 13.141ZM7.86748 10.0792L10.7236 6.65192L9.84619 5.92075L7.38994 8.86768L6.11897 7.59615L5.31126 8.40385L7.02493 10.1175L7.46705 10.5596L7.86748 10.0792Z" fill="#9B9B9B"/>
</g>
<defs>
<clipPath id="clip0_725_5238">
<rect width="16" height="16.0003" fill="white"/>
</clipPath>
</defs>
</svg>
