<svg width="16" height="16" viewBox="0 0 16 16" fill="none" xmlns="http://www.w3.org/2000/svg">
<path fill-rule="evenodd" clip-rule="evenodd" d="M9.18186 2.22211C9.34993 2.22215 9.47595 2.28495 9.58654 2.39554L13.0531 5.86206C13.1597 5.97292 13.197 6.08877 13.197 6.23184V6.84595L10.3086 6.84486C9.84894 6.84486 9.40766 6.66161 9.0826 6.33655C8.75776 6.01159 8.57546 5.57108 8.57538 5.1116V3.37834H6.84212C6.68889 3.37834 6.54143 3.43906 6.43308 3.54741C6.32491 3.65566 6.26411 3.80235 6.26401 3.95537V9.73326C6.26401 9.8865 6.32473 10.034 6.43308 10.1423C6.54142 10.2506 6.68894 10.3114 6.84212 10.3114H11.5356C11.8441 10.3114 12.0941 10.0613 12.0941 9.7529V8.63347C12.0941 8.31449 12.3527 8.0559 12.6717 8.0559C12.9907 8.0559 13.2493 8.31449 13.2493 8.63347V10.6242C13.2493 11.0894 12.8721 11.4665 12.4069 11.4665L12.4012 12.6663C12.3982 13.2811 11.899 13.7779 11.2842 13.7779H4.53075C4.0711 13.7779 3.62975 13.5957 3.3047 13.2707C2.97967 12.9457 2.79752 12.5043 2.79749 12.0446V6.26674C2.79751 5.80707 2.97966 5.36574 3.3047 5.0407C3.62975 4.7157 4.07109 4.53348 4.53075 4.53348H5.10886V3.95537C5.10897 3.49588 5.29121 3.05536 5.61608 2.73041C5.94114 2.40536 6.38242 2.22211 6.84212 2.22211H9.18186ZM5.61608 10.9593C5.94113 11.2843 6.38247 11.4665 6.84212 11.4665H11.2345L11.2287 12.0696C11.2258 12.376 10.9766 12.6228 10.6702 12.6228H4.53075C4.37751 12.6228 4.23005 12.5609 4.1217 12.4526C4.01365 12.3443 3.95266 12.1976 3.95263 12.0446V6.26674C3.95265 6.11376 4.01365 5.96708 4.1217 5.85879C4.23005 5.75044 4.37751 5.68863 4.53075 5.68863H5.10886V9.73326C5.10886 10.193 5.29102 10.6343 5.61608 10.9593ZM9.8996 5.51956C9.79147 5.4113 9.73061 5.26461 9.73053 5.1116V4.19316L11.2271 5.68863H10.3086C10.1554 5.68863 10.008 5.62791 9.8996 5.51956Z" fill="#9B9B9B"/>
</svg>
