<svg width="20" height="20" viewBox="0 0 20 20" fill="none" xmlns="http://www.w3.org/2000/svg">
<path fill-rule="evenodd" clip-rule="evenodd" d="M11.3257 3.53394C11.5138 3.53398 11.6548 3.60426 11.7786 3.72803L15.658 7.60742C15.7774 7.73149 15.819 7.86113 15.8191 8.02124V8.7085L12.5867 8.70728C12.0722 8.70728 11.5784 8.5022 11.2146 8.13843C10.8511 7.77476 10.6471 7.28178 10.647 6.76758V4.82788H8.70728C8.53579 4.82788 8.37077 4.89583 8.24951 5.01709C8.12846 5.13823 8.06042 5.30239 8.0603 5.47363V11.9397C8.0603 12.1112 8.12825 12.2762 8.24951 12.3975C8.37076 12.5186 8.53585 12.5867 8.70728 12.5867H9.12842V13.8794H8.70728C8.19288 13.8794 7.69897 13.6755 7.33521 13.3118C6.97143 12.948 6.76758 12.4542 6.76758 11.9397V7.41333H6.12061C5.94912 7.41333 5.7841 7.4825 5.66284 7.60376C5.54193 7.72495 5.47366 7.88909 5.47363 8.0603V14.5264C5.47367 14.6976 5.54192 14.8617 5.66284 14.9829C5.7841 15.1042 5.94912 15.1733 6.12061 15.1733H9.12842V16.4661H6.12061C5.60621 16.4661 5.1123 16.2621 4.74854 15.8984C4.38479 15.5347 4.18095 15.0408 4.18091 14.5264V8.0603C4.18093 7.54588 4.38478 7.05198 4.74854 6.68823C5.1123 6.32452 5.6062 6.12061 6.12061 6.12061H6.76758V5.47363C6.76769 4.95942 6.97164 4.46644 7.33521 4.10278C7.69898 3.73901 8.19282 3.53394 8.70728 3.53394H11.3257ZM11.9397 6.76758C11.9398 6.93881 12.0079 7.10297 12.1289 7.22412C12.2502 7.34538 12.4152 7.41333 12.5867 7.41333H13.6145L11.9397 5.73975V6.76758Z" fill="#9B9B9B"/>
<path d="M14.9481 12.401H16.2074L11.1942 17.4062C11.1195 17.4803 11.0603 17.5684 11.0198 17.6655C10.9793 17.7627 10.9585 17.8668 10.9585 17.972C10.9585 18.0773 10.9793 18.1814 11.0198 18.2785C11.0603 18.3757 11.1195 18.4638 11.1942 18.5379C11.2683 18.6126 11.3565 18.6719 11.4536 18.7124C11.5507 18.7528 11.6549 18.7737 11.7601 18.7737C11.8653 18.7737 11.9695 18.7528 12.0666 18.7124C12.1637 18.6719 12.2519 18.6126 12.326 18.5379L17.3391 13.5328V14.792C17.3391 15.0034 17.4231 15.2061 17.5725 15.3556C17.722 15.505 17.9247 15.589 18.1361 15.589C18.3475 15.589 18.5502 15.505 18.6997 15.3556C18.8491 15.2061 18.9331 15.0034 18.9331 14.792V11.604C18.9331 11.3926 18.8491 11.1899 18.6997 11.0405C18.5502 10.891 18.3475 10.807 18.1361 10.807H14.9481C14.7367 10.807 14.534 10.891 14.3845 11.0405C14.2351 11.1899 14.1511 11.3926 14.1511 11.604C14.1511 11.8154 14.2351 12.0181 14.3845 12.1676C14.534 12.317 14.7367 12.401 14.9481 12.401Z" fill="#9B9B9B"/>
</svg>
