<svg width="20" height="20" viewBox="0 0 20 20" fill="none" xmlns="http://www.w3.org/2000/svg">
<path fill-rule="evenodd" clip-rule="evenodd" d="M11.4773 2.77763C11.6874 2.77769 11.8449 2.85619 11.9831 2.99443L16.3163 7.32758C16.4497 7.46616 16.4962 7.61096 16.4963 7.7898V8.55744L12.8858 8.55608C12.3111 8.55608 11.7595 8.32702 11.3532 7.92069C10.9472 7.51449 10.7193 6.96385 10.7192 6.3895V4.22293H8.55262C8.36108 4.22293 8.17676 4.29883 8.04132 4.43427C7.90611 4.56957 7.83011 4.75293 7.82998 4.94421V12.1666C7.82998 12.3581 7.90588 12.5424 8.04132 12.6779C8.17674 12.8132 8.36114 12.8892 8.55262 12.8892H14.4195C14.8051 12.8892 15.1176 12.5767 15.1176 12.1911V10.7918C15.1176 10.3931 15.4409 10.0699 15.8396 10.0699C16.2383 10.0699 16.5616 10.3931 16.5616 10.7918V13.2802C16.5616 13.8617 16.0901 14.3332 15.5086 14.3332L15.5014 15.8329C15.4978 16.6013 14.8737 17.2224 14.1053 17.2224H5.6634C5.08884 17.2224 4.53716 16.9946 4.13085 16.5884C3.72456 16.1821 3.49687 15.6304 3.49683 15.0558V7.83343C3.49685 7.25884 3.72455 6.70717 4.13085 6.30087C4.53716 5.89462 5.08883 5.66685 5.6634 5.66685H6.38605V4.94421C6.38618 4.36985 6.61398 3.81921 7.02007 3.41302C7.42639 3.00669 7.978 2.77763 8.55262 2.77763H11.4773ZM7.02007 13.6991C7.42638 14.1054 7.97806 14.3332 8.55262 14.3332H14.0431L14.0358 15.087C14.0322 15.47 13.7207 15.7784 13.3378 15.7784H5.6634C5.47186 15.7784 5.28754 15.7012 5.15209 15.5657C5.01703 15.4304 4.9408 15.247 4.94076 15.0558V7.83343C4.94078 7.6422 5.01704 7.45885 5.15209 7.32349C5.28754 7.18805 5.47186 7.11078 5.6634 7.11078H6.38605V12.1666C6.38605 12.7412 6.61374 13.2928 7.02007 13.6991ZM12.3745 6.89944C12.2393 6.76412 12.1632 6.58076 12.1631 6.3895V5.24145L14.0338 7.11078H12.8858C12.6942 7.11078 12.5099 7.03488 12.3745 6.89944Z" fill="#9B9B9B"/>
</svg>
