<svg width="20" height="20" viewBox="0 0 20 20" fill="none" xmlns="http://www.w3.org/2000/svg">
<path d="M12.1061 4.16341C11.9556 4.43059 11.8205 4.70699 11.6977 4.98953C10.5307 4.81448 9.34216 4.81448 8.17207 4.98953C8.0523 4.70699 7.9141 4.43059 7.76361 4.16341C6.66726 4.35074 5.5985 4.67935 4.58505 5.14308C2.57656 8.11896 2.03298 11.0181 2.30324 13.8772C3.47946 14.7464 4.79695 15.4097 6.20045 15.8335C6.51677 15.4097 6.79622 14.9583 7.03576 14.4884C6.58126 14.3195 6.14208 14.1076 5.72134 13.8619C5.83192 13.782 5.93941 13.6991 6.04381 13.6193C8.50989 14.7801 11.366 14.7801 13.8351 13.6193C13.9396 13.7053 14.0471 13.7882 14.1576 13.8619C13.7369 14.1106 13.2977 14.3195 12.8401 14.4914C13.0796 14.9613 13.3591 15.4128 13.6754 15.8366C15.0789 15.4128 16.3964 14.7525 17.5727 13.8834C17.892 10.5666 17.026 7.69209 15.2847 5.14615C14.2743 4.68242 13.2056 4.35381 12.1092 4.16955L12.1061 4.16341ZM7.37973 12.1175C6.62117 12.1175 5.9916 11.4296 5.9916 10.5789C5.9916 9.7282 6.59661 9.0372 7.37667 9.0372C8.15673 9.0372 8.77709 9.73127 8.76478 10.5789C8.7525 11.4265 8.15364 12.1175 7.37973 12.1175ZM12.4962 12.1175C11.7345 12.1175 11.1111 11.4296 11.1111 10.5789C11.1111 9.7282 11.7161 9.0372 12.4962 9.0372C13.2762 9.0372 13.8935 9.73127 13.8812 10.5789C13.8689 11.4265 13.2701 12.1175 12.4962 12.1175Z" fill="#9B9B9B"/>
</svg>
