<svg width="20" height="20" viewBox="0 0 20 20" fill="none" xmlns="http://www.w3.org/2000/svg">
<path d="M16.0622 8.40119C16.0618 6.98789 15.3118 5.75611 14.2133 5.14761L13.9886 5.03368C12.9042 4.53835 11.5814 4.6469 10.3558 5.61473L9.99939 5.89631L9.64294 5.61473C8.49461 4.70771 7.25988 4.55489 6.21684 4.94741L6.01176 5.03368C4.79247 5.59167 3.93703 6.89323 3.93656 8.40119C3.93662 9.31946 4.17339 10.1093 4.55017 10.7986C4.70175 11.0771 4.59899 11.4261 4.32068 11.5783C4.04202 11.7306 3.69336 11.6274 3.54106 11.3488C3.13725 10.6099 2.86261 9.76966 2.8005 8.81623L2.78748 8.40119C2.78797 6.4635 3.88688 4.74057 5.53324 3.98713C6.92469 3.3516 8.54865 3.47398 9.99939 4.45262C11.4509 3.47351 13.0752 3.35116 14.4672 3.98713L14.7699 4.14012C16.2474 4.95743 17.2125 6.58503 17.2129 8.40119L17.2032 8.74299C17.1136 10.4264 16.3703 11.7209 15.4763 12.7274C15.0242 13.2366 14.507 13.6977 14.0066 14.1076L12.6361 15.1802C12.3082 15.4384 11.9671 15.6909 11.5993 15.9207L11.5847 15.9305L11.583 15.9289C11.2412 16.1282 10.7807 16.3439 10.237 16.3944L9.99939 16.4041C9.35292 16.4038 8.80648 16.1584 8.4141 15.9289C8.21927 15.8147 8.02877 15.6845 7.85095 15.5545L7.36267 15.1802C6.96678 14.8681 6.41254 14.4546 5.9255 14.0539C5.68095 13.852 5.64588 13.4899 5.84737 13.2449C6.04909 12.9998 6.41106 12.9652 6.65629 13.1668C7.13553 13.5611 7.63881 13.9338 8.07393 14.2768C8.37174 14.5114 8.68429 14.7539 8.99516 14.936C9.30511 15.1173 9.64343 15.2548 9.99939 15.255L10.2631 15.2306C10.52 15.184 10.765 15.073 10.9955 14.9393C11.3129 14.7404 11.6176 14.5188 11.9248 14.2768C12.7614 13.617 13.8011 12.883 14.6169 11.964C15.4429 11.0342 16.0621 9.89299 16.0622 8.40119Z" fill="#D7184B"/>
</svg>
