<svg width="20" height="20" viewBox="0 0 20 20" fill="none" xmlns="http://www.w3.org/2000/svg">
<g clip-path="url(#clip0_319_4156)">
<path d="M9.11017 9.7444C9.11017 9.28536 9.48244 8.91317 9.94147 8.9131C10.4006 8.9131 10.7728 9.28531 10.7728 9.7444V14.5772L11.7664 13.7825C12.1249 13.4958 12.6479 13.5535 12.9346 13.9119C13.2213 14.2702 13.1632 14.7932 12.8052 15.0801L10.4615 16.9551C10.1579 17.198 9.72625 17.198 9.42267 16.9551L7.07892 15.0801C6.72045 14.7933 6.66158 14.2704 6.9483 13.9119C7.23509 13.5534 7.75925 13.4957 8.11774 13.7825L9.11017 14.5759V9.7444ZM9.27252 3.17824C10.3071 3.07478 11.419 3.29013 12.2681 3.86549C12.8827 4.28204 13.3512 4.88859 13.5279 5.64894C14.3298 5.583 15.0439 5.75284 15.636 6.13722C16.4503 6.66587 16.9085 7.51867 17.0801 8.38575C17.4087 10.0459 16.7365 12.2408 14.7779 12.9243C14.3446 13.0755 13.8709 12.8473 13.7195 12.4141C13.5684 11.9807 13.7966 11.5071 14.2298 11.3557C15.1473 11.0357 15.6766 9.85856 15.4493 8.70924C15.3429 8.17159 15.0826 7.75999 14.7303 7.53126C14.3949 7.31372 13.851 7.18002 12.9932 7.43727C12.724 7.51802 12.4315 7.45758 12.2169 7.27614C12.0026 7.09479 11.8941 6.81735 11.9288 6.53883C12.0027 5.94773 11.7676 5.53532 11.3355 5.24244C10.8664 4.92447 10.1616 4.76001 9.43854 4.83229C8.71767 4.90437 8.09688 5.19844 7.72955 5.65016C7.38731 6.07131 7.16753 6.7486 7.46222 7.82911C7.53512 8.09645 7.47026 8.38261 7.28888 8.59205C7.10728 8.80144 6.8327 8.90704 6.55768 8.87282C5.27044 8.71191 4.66477 9.38778 4.53131 9.98243C4.45941 10.3029 4.51362 10.6191 4.67413 10.865C4.82753 11.1 5.12119 11.3364 5.65558 11.4277C6.108 11.5052 6.41167 11.9348 6.33429 12.3872C6.25661 12.8394 5.82713 13.1433 5.37482 13.0659C4.4374 12.9055 3.71667 12.4383 3.28253 11.7732C2.85551 11.1189 2.74891 10.3376 2.91022 9.61866C3.18154 8.40976 4.18683 7.40801 5.67511 7.21876C5.60046 6.17875 5.87921 5.29057 6.44049 4.60035C7.15703 3.71953 8.23591 3.282 9.27252 3.17824Z" fill="#9B9B9B"/>
</g>
<defs>
<clipPath id="clip0_319_4156">
<rect width="20" height="20.0004" fill="white"/>
</clipPath>
</defs>
</svg>
