<svg width="16" height="16" viewBox="0 0 16 16" fill="none" xmlns="http://www.w3.org/2000/svg">
<path d="M8.73766 5.85101C8.96818 5.62075 9.34169 5.62069 9.57218 5.85101L11.3043 7.58317C11.5341 7.8137 11.5344 8.18734 11.3043 8.41769L9.57218 10.1499C9.34183 10.3799 8.96818 10.3796 8.73766 10.1499C8.50711 9.9193 8.50711 9.54502 8.73766 9.31447L9.69795 8.35355C9.8931 8.15827 9.89305 7.84178 9.69783 7.64656L8.73766 6.68639C8.50711 6.45584 8.50711 6.08156 8.73766 5.85101Z" fill="#9B9B9B"/>
<path fill-rule="evenodd" clip-rule="evenodd" d="M12.0411 2.2146C13.0045 2.21489 13.7854 2.99627 13.7854 3.95973V12.0411C13.7851 13.0044 13.0044 13.7851 12.0411 13.7854H3.95973C2.99627 13.7854 2.21488 13.0045 2.2146 12.0411V3.95973C2.2146 2.9961 2.99609 2.2146 3.95973 2.2146H12.0411ZM3.95973 3.39589C3.64819 3.39589 3.39589 3.64819 3.39589 3.95973V12.0411C3.39618 12.3524 3.64836 12.605 3.95973 12.605H5.17806C5.4542 12.605 5.67806 12.3811 5.67806 12.105V3.89589C5.67806 3.61975 5.4542 3.39589 5.17806 3.39589H3.95973ZM6.85935 12.105C6.85935 12.3811 7.08321 12.605 7.35935 12.605H12.0411C12.3523 12.6047 12.6047 12.3523 12.605 12.0411V3.95973C12.605 3.68718 12.4114 3.45974 12.1544 3.40714L12.0411 3.39589H7.35935C7.08321 3.39589 6.85935 3.61975 6.85935 3.89589V12.105Z" fill="#9B9B9B"/>
</svg>
