<svg width="20" height="20" viewBox="0 0 20 20" fill="none" xmlns="http://www.w3.org/2000/svg">
<path d="M10.922 7.31377C11.2102 7.02593 11.6771 7.02586 11.9652 7.31377L14.1304 9.47897C14.4176 9.76712 14.418 10.2342 14.1304 10.5221L11.9652 12.6873C11.6772 12.9749 11.2102 12.9746 10.922 12.6873C10.6338 12.3991 10.6338 11.9313 10.922 11.6431L12.1224 10.4419C12.3663 10.1978 12.3662 9.80222 12.1222 9.5582L10.922 8.35799C10.6338 8.06981 10.6338 7.60195 10.922 7.31377Z" fill="#9B9B9B"/>
<path fill-rule="evenodd" clip-rule="evenodd" d="M15.0514 2.76825C16.2556 2.76861 17.2317 3.74534 17.2317 4.94967V15.0514C17.2313 16.2554 16.2554 17.2314 15.0514 17.2318H4.9496C3.74528 17.2318 2.76854 16.2557 2.76819 15.0514V4.94967C2.76819 3.74512 3.74506 2.76825 4.9496 2.76825H15.0514ZM4.9496 4.24487C4.56017 4.24487 4.24481 4.56023 4.24481 4.94967V15.0514C4.24516 15.4405 4.56039 15.7562 4.9496 15.7562H6.47251C6.81769 15.7562 7.09751 15.4764 7.09751 15.1312V4.86987C7.09751 4.52469 6.81769 4.24487 6.47251 4.24487H4.9496ZM8.57413 15.1312C8.57413 15.4764 8.85395 15.7562 9.19913 15.7562H15.0514C15.4403 15.7559 15.7558 15.4403 15.7562 15.0514V4.94967C15.7562 4.60898 15.5142 4.32468 15.193 4.25892L15.0514 4.24487H9.19913C8.85395 4.24487 8.57413 4.52469 8.57413 4.86987V15.1312Z" fill="#9B9B9B"/>
</svg>
