<svg width="20" height="20" viewBox="0 0 20 20" fill="none" xmlns="http://www.w3.org/2000/svg">
<path d="M9.99996 18.0006C14.3688 18.0006 18.0001 14.3771 18.0001 10.0006C18.0001 5.63186 14.3608 2.00064 9.99192 2.00064C5.61569 2.00064 2.00012 5.63186 2.00012 10.0006C2.00012 14.3771 5.62339 18.0006 9.99996 18.0006ZM10.0003 16.6674C6.29771 16.6674 3.3404 13.7025 3.3404 10.0006C3.3404 6.30617 6.28968 3.33386 9.99192 3.33386C13.6861 3.33386 16.6585 6.30651 16.6665 10.0006C16.6742 13.7028 13.6938 16.6674 9.99962 16.6674M9.99192 11.4202C10.3681 11.4202 10.5799 11.2084 10.5876 10.8008L10.7054 6.65956C10.7134 6.25932 10.3995 5.96149 9.98389 5.96149C9.56022 5.96149 9.26239 6.25162 9.27008 6.65152L9.37215 10.8008C9.37985 11.2007 9.59971 11.4202 9.99192 11.4202ZM9.99192 13.9692C10.4387 13.9692 10.8386 13.6084 10.8386 13.1537C10.8386 12.6908 10.4467 12.3378 9.99192 12.3378C9.5291 12.3378 9.14459 12.6985 9.14459 13.1537C9.14459 13.6007 9.5368 13.9692 9.99192 13.9692Z" fill="#9B9B9B"/>
</svg>
