<svg width="20" height="20" viewBox="0 0 20 20" fill="none" xmlns="http://www.w3.org/2000/svg">
<path d="M10.0025 8.14865H11.3637L5.94454 13.5592C5.86379 13.6393 5.7997 13.7346 5.75596 13.8396C5.71222 13.9446 5.6897 14.0572 5.6897 14.1709C5.6897 14.2847 5.71222 14.3973 5.75596 14.5023C5.7997 14.6072 5.86379 14.7025 5.94454 14.7826C6.02464 14.8634 6.11993 14.9275 6.22491 14.9712C6.3299 15.015 6.44251 15.0375 6.55625 15.0375C6.66998 15.0375 6.78259 15.015 6.88758 14.9712C6.99257 14.9275 7.08786 14.8634 7.16795 14.7826L12.5871 9.37206V10.7333C12.5871 10.9618 12.6779 11.181 12.8395 11.3425C13.0011 11.5041 13.2202 11.5949 13.4487 11.5949C13.6772 11.5949 13.8963 11.5041 14.0579 11.3425C14.2195 11.181 14.3102 10.9618 14.3102 10.7333V7.28709C14.3102 7.05859 14.2195 6.83945 14.0579 6.67788C13.8963 6.51631 13.6772 6.42554 13.4487 6.42554H10.0025C9.77397 6.42554 9.55483 6.51631 9.39326 6.67788C9.23168 6.83945 9.14091 7.05859 9.14091 7.28709C9.14091 7.51559 9.23168 7.73473 9.39326 7.8963C9.55483 8.05788 9.77397 8.14865 10.0025 8.14865Z" fill="#9B9B9B"/>
</svg>
