<svg width="20" height="20" viewBox="0 0 20 20" fill="none" xmlns="http://www.w3.org/2000/svg">
<path fill-rule="evenodd" clip-rule="evenodd" d="M3.96241 11.1942V8.98552L3.96241 8.93909C3.96239 7.73955 3.96238 6.78827 4.0503 6.03468C4.14081 5.25899 4.33049 4.61879 4.76319 4.08155C4.92501 3.88051 5.10766 3.69682 5.30844 3.53468C5.84537 3.10181 6.48614 2.9123 7.26156 2.82179C8.01487 2.73387 7.71555 2.73388 8.9143 2.7339L8.96078 2.7339C9.33326 2.7339 9.64286 2.72854 9.92595 2.77947L10.201 2.85108L10.2043 2.85271C10.2738 2.87739 10.3412 2.90712 10.4077 2.93897C10.7532 3.10392 11.0216 3.38033 11.3729 3.73162L14.978 7.33839H14.9764C15.3838 7.74508 15.7083 8.05408 15.8781 8.46469C16.0474 8.87468 16.0376 9.3229 16.0376 9.89861L16.0376 14.5163C16.0376 16.0351 14.8064 17.2663 13.2876 17.2663H8.97749C7.19135 17.2359 5.90978 17.1029 5.02198 16.2151C4.45141 15.6445 4.19802 14.9206 4.07797 14.0276C3.96235 13.1673 3.96236 12.6333 3.9624 11.272L3.96241 11.1942ZM14.8869 9.89861L14.9438 14.3196C14.9572 15.3638 14.115 16.218 13.0708 16.2074C11.2887 16.1894 10.7349 16.1491 8.97749 16.1169C7.14575 16.0833 6.35155 15.917 5.83578 15.4013C5.51457 15.08 5.32184 14.6401 5.21892 13.8746C5.11379 13.0925 5.1115 12.6459 5.1115 11.1942V8.98552C5.1115 7.73639 5.11343 6.84929 5.19288 6.16814C5.27091 5.49939 5.4169 5.1024 5.65837 4.80258C5.76877 4.66541 5.89411 4.54049 6.03109 4.42986L6.14828 4.3436C6.43369 4.15285 6.81035 4.03262 7.39502 3.96436C8.07588 3.88492 7.71238 3.88298 8.96078 3.88298C9.25158 3.88298 9.43452 3.88492 9.56137 3.89275V4.07016L9.56136 4.13936C9.56132 5.16756 9.56128 5.99873 9.64926 6.65317C9.74148 7.33855 9.93906 7.91624 10.398 8.37517L10.5754 8.53468C11.0028 8.88157 11.5201 9.04319 12.12 9.12387C12.7741 9.21184 13.6041 9.21181 14.6315 9.21176L14.7013 9.21176H14.8755C14.8855 9.3577 14.8869 9.56788 14.8869 9.89861ZM10.7886 6.49854C10.7272 6.04116 10.7166 5.46522 10.7137 4.69841L14.0715 8.05779C13.3055 8.0549 12.7299 8.046 12.273 7.98455C11.7156 7.90956 11.421 7.77226 11.2118 7.563V7.56137C11.002 7.35158 10.8636 7.05676 10.7886 6.49854Z" fill="#9B9B9B"/>
</svg>
