<svg width="20" height="20" viewBox="0 0 20 20" fill="none" xmlns="http://www.w3.org/2000/svg">
<path fill-rule="evenodd" clip-rule="evenodd" d="M4 5.62528C4 5.08062 4.45533 4.62528 5 4.62528H15C15.5447 4.62528 16 5.08062 16 5.62528V7.01595C15.9999 7.36954 15.8594 7.70863 15.6093 7.95862L12 11.5679V16.5173C12 16.7673 11.8649 17.0097 11.6522 17.1412C11.4395 17.2726 11.1623 17.2851 10.9387 17.1733L8.46067 15.9346C8.18383 15.7962 8.00001 15.4988 8 15.1893V11.5679L4.39067 7.95862C4.1406 7.70863 4.00008 7.36954 4 7.01595V5.62528ZM5.33333 5.95862V7.01595L9.04 10.7226C9.22593 10.9083 9.33328 11.1672 9.33333 11.4299V14.8799L10.6667 15.5466V11.4299C10.6667 11.1646 10.772 10.9099 10.96 10.7233L14.6667 7.01528V5.95862H5.33333Z" fill="#E4E4E4"/>
</svg>
