<svg width="20" height="20" viewBox="0 0 20 20" fill="none" xmlns="http://www.w3.org/2000/svg">
<path d="M4.33301 13.2217C4.33301 13.9739 4.33519 14.4711 4.38477 14.8398C4.43177 15.1893 4.51028 15.3228 4.59375 15.4062C4.67722 15.4897 4.81074 15.5682 5.16016 15.6152C5.52886 15.6648 6.02613 15.667 6.77832 15.667H7.55566L7.55567 17H6.77832C6.06384 17 5.46067 17.0008 4.98242 16.9365C4.48484 16.8696 4.02367 16.7209 3.65137 16.3486C3.27906 15.9763 3.13042 15.5152 3.06348 15.0176C2.99916 14.5393 3 13.9362 3 13.2217L3 12.4443H4.33301V13.2217ZM17 13.2217C17 13.9362 17.0008 14.5393 16.9365 15.0176C16.8696 15.5152 16.7209 15.9763 16.3486 16.3486C15.9763 16.7209 15.5152 16.8696 15.0176 16.9365C14.5393 17.0008 13.9362 17 13.2217 17H12.4443V15.667H13.2217C13.9739 15.667 14.4711 15.6648 14.8398 15.6152C15.1893 15.5682 15.3228 15.4897 15.4062 15.4062C15.4897 15.3228 15.5682 15.1893 15.6152 14.8398C15.6648 14.4711 15.667 13.9739 15.667 13.2217V12.4443H17V13.2217ZM4.33301 6.77832V7.55566H3L3 6.77832C3 6.06383 2.99916 5.46067 3.06348 4.98242C3.13042 4.48484 3.27906 4.02367 3.65137 3.65137C4.02367 3.27906 4.48484 3.13042 4.98242 3.06348C5.46067 2.99916 6.06384 3 6.77832 3L7.55567 3L7.55566 4.33301H6.77832C6.02613 4.33301 5.52886 4.33519 5.16016 4.38477C4.81074 4.43177 4.67722 4.51028 4.59375 4.59375C4.51028 4.67722 4.43177 4.81074 4.38477 5.16016C4.33519 5.52886 4.33301 6.02613 4.33301 6.77832ZM17 6.77832V7.55567L15.667 7.55566V6.77832C15.667 6.02613 15.6648 5.52886 15.6152 5.16016C15.5682 4.81074 15.4897 4.67722 15.4062 4.59375C15.3228 4.51028 15.1893 4.43177 14.8398 4.38477C14.4711 4.33519 13.9739 4.33301 13.2217 4.33301H12.4443V3L13.2217 3C13.9362 3 14.5393 2.99916 15.0176 3.06348C15.5152 3.13042 15.9763 3.27906 16.3486 3.65137C16.7209 4.02367 16.8696 4.48484 16.9365 4.98242C17.0008 5.46067 17 6.06384 17 6.77832Z" fill="#9B9B9B"/>
<circle cx="10" cy="10.0002" r="1.85632" fill="#9B9B9B"/>
</svg>
