<svg width="20" height="20" viewBox="0 0 20 20" fill="none" xmlns="http://www.w3.org/2000/svg">
<path d="M6.22266 16.2227C6.22266 15.4705 6.22048 14.9732 6.1709 14.6045C6.12389 14.2551 6.04539 14.1216 5.96191 14.0381C5.87844 13.9546 5.74492 13.8761 5.39551 13.8291C5.02681 13.7795 4.52953 13.7773 3.77734 13.7773H3V12.4443H3.77734C4.49183 12.4443 5.09499 12.4435 5.57324 12.5078C6.07083 12.5748 6.53199 12.7234 6.9043 13.0957C7.2766 13.468 7.42525 13.9292 7.49219 14.4268C7.5565 14.905 7.55566 15.5082 7.55566 16.2227V17H6.22266V16.2227ZM12.4443 16.2227C12.4443 15.5082 12.4435 14.905 12.5078 14.4268C12.5748 13.9292 12.7234 13.468 13.0957 13.0957C13.468 12.7234 13.9292 12.5748 14.4268 12.5078C14.905 12.4435 15.5082 12.4443 16.2227 12.4443H17V13.7773H16.2227C15.4705 13.7773 14.9732 13.7795 14.6045 13.8291C14.2551 13.8761 14.1216 13.9546 14.0381 14.0381C13.9546 14.1216 13.8761 14.2551 13.8291 14.6045C13.7795 14.9732 13.7773 15.4705 13.7773 16.2227V17H12.4443V16.2227ZM6.22266 3.77734V3H7.55566V3.77734C7.55566 4.49183 7.5565 5.09499 7.49219 5.57324C7.42525 6.07083 7.2766 6.53199 6.9043 6.9043C6.53199 7.2766 6.07083 7.42525 5.57324 7.49219C5.09499 7.5565 4.49183 7.55566 3.77734 7.55566H3V6.22266H3.77734C4.52953 6.22266 5.02681 6.22048 5.39551 6.1709C5.74492 6.12389 5.87844 6.04539 5.96191 5.96191C6.04539 5.87844 6.12389 5.74492 6.1709 5.39551C6.22048 5.02681 6.22266 4.52953 6.22266 3.77734ZM12.4443 3.77734V3H13.7773V3.77734C13.7773 4.52953 13.7795 5.02681 13.8291 5.39551C13.8761 5.74492 13.9546 5.87844 14.0381 5.96191C14.1216 6.04539 14.2551 6.12389 14.6045 6.1709C14.9732 6.22048 15.4705 6.22266 16.2227 6.22266H17V7.55566H16.2227C15.5082 7.55566 14.905 7.5565 14.4268 7.49219C13.9292 7.42525 13.468 7.2766 13.0957 6.9043C12.7234 6.53199 12.5748 6.07083 12.5078 5.57324C12.4435 5.09499 12.4443 4.49183 12.4443 3.77734Z" fill="#9B9B9B"/>
</svg>
