<svg width="20" height="20" viewBox="0 0 20 20" fill="none" xmlns="http://www.w3.org/2000/svg">
<path d="M10.4924 1.24149C10.7455 1.07599 11.0731 1.07894 11.323 1.24918C11.5728 1.41961 11.6967 1.72437 11.635 2.02042L11.5175 2.57852L12.6194 3.00369L12.6326 3.00919L13.0072 3.17288C14.8552 4.03254 16.3554 5.52577 17.1908 7.41141C17.8233 8.83939 18.0197 10.4243 17.7522 11.963C17.4847 13.5015 16.766 14.9259 15.689 16.0565C14.6117 17.1873 13.2226 17.9736 11.6987 18.3153C10.175 18.6569 8.58406 18.5394 7.12732 17.977C5.67055 17.4145 4.41278 16.4326 3.51392 15.1557C2.6151 13.8786 2.11483 12.363 2.07691 10.8018C2.03906 9.24051 2.46487 7.70228 3.30078 6.38309C3.63569 5.85458 4.03059 5.37044 4.47522 4.93948C4.77192 4.65196 5.24676 4.6593 5.5343 4.95596C5.82165 5.25264 5.81434 5.72644 5.51782 6.01395C5.15725 6.36336 4.83688 6.75653 4.56531 7.18509C3.88799 8.25421 3.54257 9.50028 3.57324 10.7655C3.60399 12.0307 4.00945 13.2583 4.73779 14.2932C5.46635 15.3284 6.4859 16.1247 7.66675 16.5806C8.84733 17.0363 10.1365 17.132 11.3713 16.8553C12.6065 16.5783 13.7326 15.9414 14.6057 15.0249C15.4788 14.1085 16.0599 12.953 16.2767 11.706C16.4934 10.4589 16.3356 9.17516 15.823 8.01785C15.0931 6.3702 13.7392 5.07838 12.0679 4.39456L11.2076 4.06168L11.0604 4.7692C10.9984 5.06516 10.7632 5.29533 10.4661 5.35147C10.1688 5.40749 9.86704 5.27828 9.70142 5.02518L8.61487 3.36404C8.38885 3.01836 8.48572 2.55534 8.8313 2.32913L10.4924 1.24149Z" fill="#9B9B9B"/>
<path d="M11.0526 7.51288V13.8346H9.71607V8.78155H9.67903L8.23132 9.68906V8.50374L9.79632 7.51288H11.0526Z" fill="#9B9B9B"/>
</svg>
