<svg width="20" height="20" viewBox="0 0 20 20" fill="none" xmlns="http://www.w3.org/2000/svg">
<path d="M8.67699 1.24916C8.92687 1.07895 9.25452 1.07595 9.50756 1.24147L11.1687 2.32912C11.5142 2.55533 11.6111 3.01837 11.3851 3.36403L10.2986 5.02516C10.133 5.27825 9.83113 5.40744 9.53393 5.35146C9.23676 5.29531 9.0016 5.06515 8.93957 4.76918L8.79125 4.06166L7.93212 4.39455C6.26076 5.07836 4.90689 6.37018 4.17699 8.01784C3.66442 9.17515 3.50654 10.4589 3.72326 11.7059C3.94008 12.953 4.5212 14.1085 5.39428 15.0249C6.26728 15.9413 7.39261 16.5782 8.62756 16.8552C9.86259 17.1322 11.1525 17.0364 12.3332 16.5806C13.5141 16.1247 14.5336 15.3283 15.2622 14.2932C15.9905 13.2583 16.396 12.0307 16.4268 10.7655C16.4574 9.50028 16.112 8.25419 15.4347 7.18507C15.1631 6.75651 14.8427 6.36335 14.4822 6.01393C14.1856 5.72642 14.1783 5.25263 14.4657 4.95595C14.7532 4.65929 15.227 4.65198 15.5237 4.93947C15.9685 5.37056 16.3642 5.85435 16.6992 6.38307C17.5351 7.70226 17.9609 9.2405 17.9231 10.8018C17.8852 12.363 17.3849 13.8786 16.4861 15.1557C15.5872 16.4326 14.3295 17.4145 12.8727 17.9769C11.4159 18.5394 9.82498 18.6569 8.30126 18.3153C6.77735 17.9736 5.38828 17.1873 4.31103 16.0565C3.23398 14.9259 2.51532 13.5015 2.24779 11.963C1.98032 10.4243 2.17564 8.83937 2.8081 7.41139C3.64351 5.52556 5.14465 4.03258 6.99279 3.17287L7.36742 3.00917L7.38061 3.00368L8.48144 2.57851L8.36498 2.0204C8.30333 1.72436 8.42716 1.41959 8.67699 1.24916Z" fill="#9B9B9B"/>
<path d="M10.8192 7.51288V13.8346H9.48267V8.78155H9.44563L7.99792 9.68906V8.50374L9.56293 7.51288H10.8192Z" fill="#9B9B9B"/>
</svg>
