<svg width="16" height="16" viewBox="0 0 16 16" fill="none" xmlns="http://www.w3.org/2000/svg">
<path d="M6.94157 0.999329C7.14147 0.863157 7.40359 0.860763 7.60602 0.993177L8.93493 1.86329C9.21136 2.04426 9.28886 2.4147 9.10807 2.69122L8.23884 4.02013C8.10635 4.2226 7.86488 4.32596 7.62712 4.28116C7.38938 4.23625 7.20126 4.05212 7.15163 3.81534L7.03298 3.24933L6.34567 3.51564C5.00858 4.06269 3.92549 5.09615 3.34157 6.41427C2.93151 7.34012 2.80521 8.36712 2.97858 9.36476C3.15204 10.3624 3.61694 11.2868 4.3154 12.0199C5.0138 12.753 5.91406 13.2626 6.90202 13.4842C7.89005 13.7057 8.92195 13.6291 9.86657 13.2645C10.8112 12.8997 11.6269 12.2627 12.2097 11.4346C12.7924 10.6066 13.1168 9.62456 13.1414 8.61242C13.1659 7.60023 12.8896 6.60335 12.3477 5.74806C12.1305 5.40521 11.8742 5.09068 11.5857 4.81115C11.3485 4.58114 11.3426 4.2021 11.5725 3.96476C11.8026 3.72743 12.1816 3.72158 12.4189 3.95158C12.7748 4.29645 13.0913 4.68348 13.3593 5.10646C14.0281 6.16181 14.3687 7.3924 14.3384 8.64142C14.3081 9.89036 13.9079 11.1029 13.1888 12.1245C12.4697 13.1461 11.4635 13.9316 10.2981 14.3816C9.13272 14.8315 7.85996 14.9255 6.64098 14.6523C5.42185 14.3789 4.3106 13.7498 3.4488 12.8452C2.58716 11.9407 2.01223 10.8012 1.79821 9.57042C1.58423 8.33947 1.74049 7.0715 2.24645 5.92911C2.91479 4.42045 4.1157 3.22606 5.59421 2.53829L5.89391 2.40734L5.90446 2.40294L6.78513 2.06281L6.69196 1.61632C6.64264 1.37949 6.7417 1.13567 6.94157 0.999329Z" fill="#9B9B9B"/>
<path d="M8.65538 6.0103V11.0677H7.58611V7.02524H7.55648L6.39831 7.75125V6.80299L7.65032 6.0103H8.65538Z" fill="#9B9B9B"/>
</svg>
