<svg width="16" height="16" viewBox="0 0 16 16" fill="none" xmlns="http://www.w3.org/2000/svg">
<g clip-path="url(#clip0_543_3819)">
<path d="M12.56 2.01604C12.584 2.01977 12.6056 2.02372 12.6241 2.02783L12.6613 2.0369C12.663 2.03737 12.6652 2.03735 12.6669 2.03781L12.6706 2.03962C12.6702 2.04251 12.6604 2.07442 12.5498 2.43872L12.6706 2.03962C12.8508 2.09181 12.9987 2.22019 13.0728 2.38883C13.3686 3.06276 13.4265 3.80927 13.2465 4.51406C13.7323 5.13031 13.9997 5.88919 13.9999 6.67375L13.9934 6.96763C13.9352 8.4089 13.4436 9.40561 12.6492 10.058C12.1081 10.5022 11.4678 10.748 10.8359 10.8933C10.9451 11.197 10.9899 11.5184 10.9706 11.8394L10.9716 13.3823C10.9714 13.7233 10.6882 14 10.339 14C9.98988 13.9998 9.70656 13.7231 9.70635 13.3823V11.8394C9.70637 11.8233 9.70785 11.8064 9.70914 11.7904C9.72261 11.6218 9.6991 11.4516 9.6404 11.2925C9.58159 11.1332 9.48796 10.9877 9.36729 10.8661C9.19969 10.697 9.14465 10.4491 9.2261 10.2276C9.30778 10.0059 9.51211 9.84822 9.75187 9.82212C10.5804 9.73193 11.3118 9.54267 11.8355 9.11281C12.3284 8.70801 12.7347 8.00741 12.7347 6.67375C12.7344 6.08202 12.5014 5.51226 12.0835 5.08368C11.9167 4.9125 11.8642 4.66377 11.9488 4.4424C12.091 4.07007 12.1199 3.66885 12.0398 3.285C11.7718 3.35476 11.3288 3.52398 10.692 3.9408C10.54 4.04024 10.3511 4.06988 10.1745 4.02334C9.02104 3.71859 7.80459 3.71859 6.6511 4.02334C6.47448 4.06999 6.28568 4.04023 6.13368 3.9408C5.49633 3.52364 5.05284 3.35468 4.78487 3.285C4.70482 3.66882 4.73461 4.0701 4.87684 4.4424C4.96133 4.66367 4.90875 4.91254 4.74214 5.08368C4.32117 5.51544 4.08787 6.09033 4.09096 6.68644V6.69007C4.09098 8.01095 4.496 8.70699 4.99016 9.11281C5.51605 9.54438 6.24966 9.73849 7.08119 9.83935C7.31889 9.86818 7.51956 10.0262 7.59954 10.2466C7.67928 10.4674 7.62498 10.7142 7.45834 10.8825C7.33914 11.0027 7.24677 11.1461 7.18802 11.3033C7.12931 11.4607 7.10544 11.6288 7.11742 11.7959C7.11845 11.8102 7.11835 11.8251 7.11835 11.8394V13.3823C7.11814 13.7233 6.83497 14 6.48575 14C6.13663 13.9999 5.85335 13.7232 5.85314 13.3823V13.0793C5.2088 13.1663 4.58443 13.108 4.0055 12.8716C3.18108 12.535 2.53067 11.877 2.06682 10.9714C1.91065 10.6664 2.03702 10.295 2.34921 10.1423C2.66156 9.98982 3.0419 10.1132 3.19825 10.4181C3.56004 11.1246 4.01043 11.5352 4.49319 11.7324C4.8747 11.8882 5.32658 11.9289 5.85314 11.8285C5.83768 11.5138 5.88378 11.1987 5.99155 10.9015C5.35908 10.7514 4.71728 10.5028 4.17549 10.058C3.38226 9.40657 2.88967 8.41549 2.83133 6.98214L2.82575 6.69007C2.82226 5.90045 3.08857 5.13539 3.57726 4.51496C3.39713 3.8101 3.45614 3.06287 3.7519 2.38883C3.82602 2.22019 3.97393 2.09181 4.15413 2.03962L4.33341 2.63192C4.16795 2.08721 4.15462 2.04324 4.15413 2.03962L4.15598 2.03871L4.15877 2.03781C4.16043 2.03736 4.16262 2.03737 4.16434 2.0369L4.2015 2.02783C4.21987 2.02376 4.24096 2.01973 4.26467 2.01604C4.31274 2.00855 4.37168 2.00249 4.44117 2.00062C4.58058 1.99687 4.76104 2.00951 4.98366 2.05776C5.38218 2.14419 5.91404 2.34418 6.59722 2.76254C7.79089 2.4913 9.03285 2.49152 10.2266 2.76254C10.9104 2.34363 11.4432 2.1442 11.842 2.05776C12.0646 2.00952 12.2451 1.99687 12.3845 2.00062C12.4537 2.00249 12.5121 2.00859 12.56 2.01604Z" fill="#9B9B9B"/>
</g>
<defs>
<clipPath id="clip0_543_3819">
<rect width="16" height="16" fill="white"/>
</clipPath>
</defs>
</svg>
