<svg width="20" height="20" viewBox="0 0 20 20" fill="none" xmlns="http://www.w3.org/2000/svg">
<g clip-path="url(#clip0_543_3819)">
<path d="M15.3202 3.01871C15.3481 3.02306 15.3734 3.02767 15.395 3.03247L15.4383 3.04305C15.4404 3.0436 15.4429 3.04358 15.4448 3.04411L15.4491 3.04622C15.4487 3.04959 15.4372 3.08682 15.3083 3.51184L15.4491 3.04622C15.6594 3.10711 15.8319 3.25689 15.9184 3.45364C16.2635 4.23989 16.3311 5.11081 16.1211 5.93307C16.6879 6.65202 16.9997 7.53738 17 8.4527L16.9924 8.79557C16.9245 10.477 16.351 11.6399 15.4242 12.4009C14.7929 12.9192 14.0459 13.206 13.3087 13.3756C13.436 13.7298 13.4883 14.1048 13.4659 14.4793L13.467 16.2793C13.4667 16.6771 13.1364 17 12.7289 17C12.3217 16.9998 11.9911 16.677 11.9909 16.2793V14.4793C11.9909 14.4606 11.9926 14.4408 11.9941 14.4222C12.0099 14.2254 11.9824 14.0269 11.9139 13.8412C11.8453 13.6554 11.7361 13.4856 11.5953 13.3438C11.3998 13.1465 11.3356 12.8573 11.4306 12.5988C11.5259 12.3403 11.7643 12.1563 12.044 12.1258C13.0106 12.0206 13.8639 11.7998 14.4749 11.2983C15.0499 10.826 15.5239 10.0086 15.5239 8.4527C15.5236 7.76235 15.2517 7.09764 14.7642 6.59763C14.5696 6.39792 14.5084 6.10773 14.6071 5.84947C14.773 5.41508 14.8067 4.947 14.7133 4.49917C14.4006 4.58056 13.8837 4.77798 13.1408 5.26427C12.9635 5.38028 12.7431 5.41486 12.5371 5.36056C11.1914 5.00502 9.77216 5.00502 8.42642 5.36056C8.22037 5.41498 8.0001 5.38027 7.82277 5.26427C7.07919 4.77758 6.56178 4.58045 6.24916 4.49917C6.15577 4.94696 6.19052 5.41512 6.35645 5.84947C6.45503 6.10761 6.39369 6.39796 6.19931 6.59763C5.70817 7.10134 5.43599 7.77205 5.43959 8.46752V8.47175C5.43962 10.0128 5.91215 10.8248 6.48867 11.2983C7.10221 11.8018 7.95808 12.0282 8.9282 12.1459C9.20552 12.1795 9.43963 12.3639 9.53293 12.6211C9.62597 12.8786 9.56262 13.1666 9.3682 13.3629C9.22914 13.5032 9.12138 13.6705 9.05283 13.8539C8.98434 14.0375 8.95649 14.2336 8.97047 14.4285C8.97167 14.4452 8.97155 14.4626 8.97155 14.4793V16.2793C8.97131 16.6771 8.64094 17 8.23351 17C7.82621 16.9998 7.49572 16.677 7.49548 16.2793V15.9259C6.74374 16.0273 6.01531 15.9594 5.33989 15.6836C4.37807 15.2908 3.61926 14.5232 3.07809 13.4666C2.89591 13.1108 3.04333 12.6775 3.40756 12.4994C3.77196 12.3215 4.21569 12.4654 4.39811 12.8211C4.82019 13.6453 5.34565 14.1244 5.90886 14.3544C6.35396 14.5362 6.88115 14.5837 7.49548 14.4666C7.47744 14.0994 7.53122 13.7319 7.65696 13.3851C6.91907 13.21 6.17031 12.9199 5.53822 12.4009C4.61278 11.641 4.03809 10.4847 3.97002 8.8125L3.96352 8.47175C3.95944 7.55053 4.27014 6.65796 4.84028 5.93412C4.63012 5.11178 4.69897 4.24001 5.04402 3.45364C5.1305 3.25689 5.30306 3.10711 5.51329 3.04622L5.72245 3.73724C5.52941 3.10175 5.51386 3.05045 5.51329 3.04622L5.51546 3.04516L5.51871 3.04411C5.52065 3.04359 5.5232 3.0436 5.52521 3.04305L5.56856 3.03247C5.58999 3.02772 5.61459 3.02302 5.64226 3.01871C5.69834 3.00998 5.7671 3.0029 5.84817 3.00072C6.01082 2.99635 6.22136 3.01109 6.48108 3.06739C6.94602 3.16822 7.56652 3.40155 8.36356 3.88963C9.75618 3.57319 11.2051 3.57344 12.5978 3.88963C13.3956 3.4009 14.0172 3.16823 14.4824 3.06739C14.7421 3.0111 14.9527 2.99635 15.1154 3.00072C15.1961 3.00291 15.2643 3.01002 15.3202 3.01871Z" fill="#9B9B9B"/>
</g>
<defs>
<clipPath id="clip0_543_3819">
<rect width="20" height="20" fill="white"/>
</clipPath>
</defs>
</svg>
