<svg width="20" height="20" viewBox="0 0 20 20" fill="none" xmlns="http://www.w3.org/2000/svg">
<path d="M3 5.91667C3 5.14312 3.30729 4.40125 3.85427 3.85427C4.40125 3.30729 5.14312 3 5.91667 3H14.0833C14.8569 3 15.5987 3.30729 16.1457 3.85427C16.6927 4.40125 17 5.14312 17 5.91667V14.0833C17 14.8569 16.6927 15.5987 16.1457 16.1457C15.5987 16.6927 14.8569 17 14.0833 17H5.91667C5.14312 17 4.40125 16.6927 3.85427 16.1457C3.30729 15.5987 3 14.8569 3 14.0833V5.91667ZM4.16667 13.5V14.0833C4.16667 14.5475 4.35104 14.9926 4.67923 15.3208C5.00742 15.649 5.45254 15.8333 5.91667 15.8333H6.08L6.857 13.5H4.16667ZM7.24667 12.3333L8.02367 10H6.81267L5.25633 12.3333H7.24667ZM8.08667 13.5L7.30967 15.8333H12.6903L11.9133 13.5H8.08667ZM11.5237 12.3333L10.7467 10H9.25333L8.47633 12.3333H11.5237ZM13.143 13.5L13.92 15.8333H14.0833C14.5475 15.8333 14.9926 15.649 15.3208 15.3208C15.649 14.9926 15.8333 14.5475 15.8333 14.0833V13.5H13.143ZM14.7437 12.3333L13.1873 10H11.9763L12.7533 12.3333H14.7437ZM15.8333 5.91667C15.8333 5.45254 15.649 5.00742 15.3208 4.67923C14.9926 4.35104 14.5475 4.16667 14.0833 4.16667H5.91667C5.45254 4.16667 5.00742 4.35104 4.67923 4.67923C4.35104 5.00742 4.16667 5.45254 4.16667 5.91667V8.83333H15.8333V5.91667ZM4.16667 11.8655L5.41033 10H4.16667V11.8655ZM15.8333 11.8655V10H14.5897L15.8333 11.8655Z" fill="#9B9B9B"/>
</svg>
