<svg width="20" height="20" viewBox="0 0 20 20" fill="none" xmlns="http://www.w3.org/2000/svg">
<path d="M2.50183 10.7459V9.71863C2.50183 8.96029 2.50118 8.34029 2.54907 7.83118C2.59843 7.30678 2.70269 6.84286 2.94458 6.40186H2.94568C3.18735 5.95984 3.51953 5.62592 3.93225 5.30981C4.33201 5.00367 4.84916 4.68341 5.47693 4.29358L6.82715 3.45532C7.49058 3.04336 8.03573 2.7039 8.51025 2.47314C9.00024 2.2349 9.47236 2.08313 10 2.08313C10.5275 2.08313 10.9989 2.23503 11.4886 2.47314C11.9629 2.70379 12.5083 3.04353 13.1718 3.45532H13.1729L14.5231 4.29358C14.8739 4.51149 14.9815 4.9731 14.7637 5.3241C14.5457 5.67474 14.0852 5.78228 13.7343 5.5647L12.384 4.72754C11.6941 4.29932 11.2241 4.00823 10.835 3.81897C10.4612 3.63719 10.2202 3.57947 10 3.57947C9.77975 3.57947 9.53886 3.63721 9.16504 3.81897C8.77589 4.00819 8.30561 4.29931 7.61597 4.72754L6.26685 5.5647C5.61416 5.97 5.16997 6.24621 4.84192 6.49744C4.52758 6.73818 4.36529 6.9228 4.25745 7.12036V7.12146C4.1484 7.32027 4.07722 7.56302 4.03882 7.9707C3.99901 8.39373 3.99817 8.93241 3.99817 9.71863V10.7459C3.99817 12.0826 4.00036 13.0123 4.09155 13.7133C4.18031 14.3953 4.34154 14.747 4.57935 14.9932C4.81341 15.2354 5.14279 15.3975 5.79004 15.4875C6.46175 15.581 7.35533 15.5831 8.64978 15.5831H11.3502C12.6445 15.5831 13.5373 15.5809 14.2089 15.4875C14.8561 15.3975 15.1861 15.2356 15.4207 14.9932C15.6586 14.7471 15.8209 14.3953 15.9095 13.7133C16.0007 13.0122 16.0018 12.0824 16.0018 10.7459V9.71863C16.002 9.30562 16.3369 8.97046 16.75 8.97046C17.1631 8.97046 17.498 9.30562 17.4982 9.71863V10.7459C17.4982 12.0416 17.4993 13.0866 17.3927 13.9066C17.2836 14.7455 17.0493 15.4616 16.4962 16.0336C15.9398 16.6088 15.2381 16.8552 14.4154 16.9696C13.6168 17.0807 12.601 17.0795 11.3502 17.0795H8.64978C7.39912 17.0795 6.38326 17.0807 5.5846 16.9696C4.76174 16.8552 4.05897 16.6093 3.50269 16.0336C2.95007 15.4616 2.71649 14.7456 2.6073 13.9066C2.50059 13.0867 2.50183 12.042 2.50183 10.7459ZM9.25183 13.2936V11.2688C9.25183 10.8556 9.58682 10.5206 10 10.5206C10.4132 10.5206 10.7482 10.8556 10.7482 11.2688V13.2936C10.7482 13.7068 10.4132 14.0417 10 14.0417C9.58682 14.0417 9.25183 13.7068 9.25183 13.2936Z" fill="#9B9B9B"/>
</svg>
