<svg width="16" height="16" viewBox="0 0 16 16" fill="none" xmlns="http://www.w3.org/2000/svg">
<path d="M9.82461 7.14367C10.1412 7.33902 10.1412 7.79937 9.82461 7.99472L7.13983 9.6512C6.80671 9.85673 6.37728 9.6171 6.37728 9.22568L6.37728 5.91271C6.37728 5.52129 6.80671 5.28166 7.13983 5.48719L9.82461 7.14367Z" fill="#D9D9D9"/>
<path d="M11.8159 2.18816C13.1964 2.18843 14.3159 3.30765 14.3159 4.68816V8.38968C14.3159 8.66582 14.0921 8.88968 13.8159 8.88968C13.5398 8.88968 13.3159 8.66582 13.3159 8.38968V4.68816C13.3159 3.85993 12.6441 3.18843 11.8159 3.18816H4.18506C3.35666 3.18816 2.6851 3.85977 2.68506 4.68816V10.6003L2.69287 10.7536C2.76986 11.5098 3.40853 12.1003 4.18506 12.1003H7.1384C7.41454 12.1003 7.6384 12.3241 7.6384 12.6003C7.6384 12.8764 7.41454 13.1003 7.1384 13.1003H4.18506C2.89053 13.1003 1.82562 12.116 1.69775 10.8552L1.68408 10.6003V4.68816C1.68412 3.30749 2.80437 2.18816 4.18506 2.18816H11.8159Z" fill="#D9D9D9"/>
<path d="M11.8125 10.4289C11.9947 10.2518 12.2865 10.2558 12.4635 10.438C12.6403 10.6201 12.6362 10.9107 12.4544 11.0877C12.3405 11.1985 12.1569 11.3432 11.9766 11.4849C11.7858 11.6348 11.5762 11.7982 11.3789 11.9653C11.3159 12.0188 11.2571 12.073 11.2005 12.1242H15.1771C15.4311 12.1242 15.638 12.3311 15.638 12.5851C15.6378 12.839 15.431 13.0448 15.1771 13.0448H11.2005C11.2571 13.096 11.3158 13.1502 11.3789 13.2036C11.5762 13.3708 11.7858 13.5342 11.9766 13.6841C12.1569 13.8258 12.3405 13.9705 12.4544 14.0812C12.6363 14.2582 12.6402 14.5488 12.4635 14.731C12.2865 14.9131 11.9947 14.9184 11.8125 14.7414C11.7417 14.6726 11.6053 14.5624 11.4089 14.4081C11.2226 14.2617 10.997 14.0861 10.7839 13.9055C10.5729 13.7267 10.3567 13.5294 10.1901 13.3338C10.1066 13.2358 10.0263 13.127 9.96484 13.0122C9.92031 12.929 9.87597 12.8252 9.85677 12.7075L9.84766 12.5851L9.85677 12.4627C9.8759 12.3446 9.92016 12.2402 9.96484 12.1568C10.0263 12.042 10.1066 11.9332 10.1901 11.8351C10.3567 11.6396 10.5729 11.4423 10.7839 11.2635C10.997 11.0829 11.2226 10.9072 11.4089 10.7609C11.6048 10.607 11.7416 10.4977 11.8125 10.4289Z" fill="#E4E4E4"/>
</svg>
