<svg width="20" height="20" viewBox="0 0 20 20" fill="none" xmlns="http://www.w3.org/2000/svg">
<path d="M12.5853 9.46811C12.9811 9.71229 12.9811 10.2877 12.5853 10.5319L9.22932 12.6025C8.81292 12.8594 8.27614 12.5599 8.27614 12.0706L8.27614 7.92941C8.27614 7.44013 8.81292 7.14059 9.22932 7.3975L12.5853 9.46811Z" fill="#9B9B9B"/>
<path d="M14.8288 4.05123C16.5544 4.05156 17.9538 5.45058 17.9538 7.17623L17.9538 10.4871C17.9538 10.8323 17.674 11.1121 17.3288 11.1121C16.9837 11.1121 16.7038 10.8323 16.7038 10.4871L16.7038 7.17623C16.7038 6.14094 15.864 5.30156 14.8288 5.30123L5.1792 5.30121C4.1437 5.30121 3.30425 6.14071 3.3042 7.17621L3.30423 12.8196L3.314 13.0112C3.41023 13.9565 4.20858 14.6946 5.17923 14.6946L8.92298 14.6946C9.26816 14.6946 9.54798 14.9744 9.54798 15.3196C9.54798 15.6648 9.26816 15.9446 8.92298 15.9446L5.17923 15.9446C3.56107 15.9446 2.22994 14.7142 2.0701 13.1382L2.05301 12.8196L2.05298 7.17621C2.05303 5.45036 3.45334 4.05121 5.1792 4.05121L14.8288 4.05123Z" fill="#9B9B9B"/>
<path d="M14.0712 11.4961C14.2561 11.3164 14.5522 11.3205 14.732 11.5054C14.9114 11.6902 14.9072 11.9851 14.7227 12.1648C14.6071 12.2772 14.4207 12.4241 14.2377 12.5679C14.0441 12.72 13.8313 12.8858 13.6311 13.0555C13.5671 13.1097 13.5076 13.1648 13.4501 13.2167H17.486C17.7439 13.2167 17.9538 13.4267 17.9538 13.6845C17.9536 13.9422 17.7437 14.151 17.486 14.151H13.4501C13.5076 14.203 13.5671 14.258 13.6311 14.3123C13.8313 14.4819 14.0441 14.6478 14.2377 14.7999C14.4208 14.9437 14.6071 15.0906 14.7227 15.203C14.9073 15.3826 14.9113 15.6775 14.732 15.8624C14.5523 16.0473 14.2561 16.0527 14.0712 15.873C13.9994 15.8032 13.8609 15.6913 13.6615 15.5347C13.4725 15.3862 13.2435 15.2079 13.0272 15.0246C12.8131 14.8431 12.5937 14.6429 12.4246 14.4444C12.3398 14.3449 12.2583 14.2345 12.196 14.118C12.1508 14.0335 12.1058 13.9282 12.0863 13.8088L12.077 13.6845L12.0863 13.5603C12.1057 13.4404 12.1506 13.3345 12.196 13.2498C12.2583 13.1333 12.3398 13.0228 12.4246 12.9233C12.5937 12.7249 12.8131 12.5246 13.0272 12.3432C13.2435 12.1599 13.4725 11.9816 13.6615 11.8331C13.8604 11.6769 13.9993 11.5659 14.0712 11.4961Z" fill="#9B9B9B"/>
</svg>
