<svg width="20" height="20" viewBox="0 0 20 20" fill="none" xmlns="http://www.w3.org/2000/svg">
<path d="M4 12.1647L4 8.25163C4 7.03017 3.99884 6.06408 4.08789 5.30078C4.1784 4.52509 4.36809 3.88489 4.80078 3.34766C4.9626 3.14661 5.14525 2.96292 5.34603 2.80078C5.88297 2.36791 6.52373 2.17841 7.29915 2.08789C8.06218 1.99884 7.70249 1.99999 8.92317 1.99999C9.29566 1.99999 9.60525 1.99464 9.88834 2.04557L10.1634 2.11718L10.1667 2.11881C10.2361 2.14348 10.3036 2.17322 10.3701 2.20507C10.7156 2.37002 10.984 2.64643 11.3353 2.99772L14.9404 6.60449H14.9388C15.3462 7.01118 15.6707 7.32018 15.8405 7.73079C16.0098 8.14077 16 8.589 16 9.16471L16 11.5351C15.9999 11.8523 15.7427 12.1093 15.4255 12.1096C15.108 12.1096 14.8494 11.8525 14.8493 11.5351L14.8493 9.16471C14.8493 8.83398 14.8479 8.6238 14.8379 8.47786H14.6637C13.6041 8.47786 12.7513 8.47993 12.0824 8.38997C11.4825 8.30929 10.9652 8.14767 10.5378 7.80078L10.3603 7.64127C9.90145 7.18234 9.70387 6.60465 9.61165 5.91926C9.52171 5.25021 9.52376 4.39643 9.52376 3.33626V3.15885C9.39692 3.15101 9.21397 3.14908 8.92317 3.14908C7.67477 3.14908 8.11347 3.15102 7.43262 3.23047C6.84794 3.29872 6.47129 3.41896 6.18587 3.6097L6.06869 3.69596C5.93171 3.80659 5.80636 3.93152 5.69596 4.06868C5.4545 4.3685 5.3085 4.76549 5.23047 5.43424C5.15102 6.1154 5.14909 7.0025 5.14909 8.25163L5.14909 12.1647C5.14909 13.6164 5.15139 13.8983 5.25652 14.6804C5.35944 15.4459 5.55217 15.8858 5.87338 16.2071C6.40147 16.7352 7.22144 16.8968 9.14812 16.9248C9.46565 16.9295 9.71914 17.19 9.71453 17.5075C9.70988 17.825 9.44935 18.0785 9.13184 18.0739C7.28464 18.0471 5.9666 17.9279 5.05958 17.0209C4.489 16.4503 4.23561 15.7264 4.11557 14.8334C3.99777 13.9569 4 13.5838 4 12.1647ZM10.6761 3.96451C10.679 4.73132 10.6896 5.30726 10.751 5.76464C10.826 6.32285 10.9644 6.61768 11.1741 6.82747V6.8291C11.3834 7.03836 11.678 7.17566 12.2353 7.25064C12.6923 7.3121 13.2679 7.321 14.0338 7.32389L10.6761 3.96451Z" fill="#9B9B9B"/>
<path d="M11.4561 12.1628C11.6838 11.9414 12.0485 11.9464 12.2699 12.1741C12.4908 12.4018 12.4857 12.765 12.2585 12.9863C12.1161 13.1247 11.8865 13.3057 11.6611 13.4827C11.4226 13.6701 11.1606 13.8744 10.9141 14.0833C10.8352 14.1501 10.7619 14.2179 10.6911 14.2819H15.4238C15.7414 14.2819 16 14.5405 16 14.8581C15.9997 15.1754 15.7412 15.4326 15.4238 15.4326H10.6911C10.7619 15.4966 10.8352 15.5644 10.9141 15.6312C11.1606 15.8401 11.4227 16.0444 11.6611 16.2318C11.8866 16.4089 12.116 16.5897 12.2585 16.7282C12.4859 16.9494 12.4907 17.3127 12.2699 17.5404C12.0485 17.7681 11.6838 17.7747 11.4561 17.5534C11.3676 17.4674 11.197 17.3296 10.9515 17.1367C10.7186 16.9538 10.4367 16.7342 10.1702 16.5085C9.90657 16.285 9.63628 16.0384 9.42806 15.7939C9.32366 15.6714 9.22329 15.5354 9.14648 15.3919C9.09081 15.2879 9.0354 15.1582 9.01139 15.0111L9 14.8581L9.01139 14.7051C9.03531 14.5574 9.09063 14.4269 9.14648 14.3226C9.22328 14.1791 9.32369 14.0431 9.42806 13.9206C9.63631 13.6761 9.90659 13.4295 10.1702 13.2061C10.4367 12.9803 10.7186 12.7607 10.9515 12.5778C11.1964 12.3854 11.3675 12.2487 11.4561 12.1628Z" fill="#9B9B9B"/>
</svg>
