<svg width="20" height="20" viewBox="0 0 20 20" fill="none" xmlns="http://www.w3.org/2000/svg">
<path d="M6.24951 4.00854C6.65578 4.04589 7.04097 4.21175 7.34937 4.4834L8.83618 5.79077C8.96053 5.90037 9.12088 5.96139 9.28662 5.96167H14.084C14.5964 5.96167 15.0888 6.1646 15.4512 6.52686C15.8136 6.88925 16.0176 7.38154 16.0176 7.89404V10.1255C16.0176 10.4707 15.7378 10.7505 15.3926 10.7505C15.0474 10.7505 14.7676 10.4707 14.7676 10.1255V7.89404C14.7676 7.71306 14.6954 7.53862 14.5674 7.41064C14.4394 7.28281 14.2649 7.21167 14.084 7.21167H9.28662C8.87523 7.21142 8.47607 7.07929 8.14648 6.83813L8.00977 6.72827L6.52417 5.4209C6.43071 5.33854 6.31682 5.28319 6.1958 5.26099L6.07251 5.25H4.93237C4.75151 5.2501 4.57809 5.3223 4.4502 5.4502C4.32232 5.57814 4.25003 5.75148 4.25 5.93237V13.0686C4.25004 13.2495 4.32235 13.4228 4.4502 13.5508C4.57809 13.6787 4.75153 13.7509 4.93237 13.751H6.38379C6.72897 13.751 7.00879 14.0308 7.00879 14.376C7.00879 14.7212 6.72897 15.001 6.38379 15.001H4.93237C4.42001 15.0009 3.92872 14.7969 3.56641 14.4346C3.20414 14.0722 3.00004 13.581 3 13.0686V5.93237C3.00003 5.41996 3.20411 4.92877 3.56641 4.56641C3.92872 4.20409 4.41999 4.0001 4.93237 4H6.07373L6.24951 4.00854Z" fill="#9B9B9B"/>
<path d="M11.8041 11.681C12.0318 11.4597 12.3965 11.4647 12.6179 11.6924C12.8389 11.92 12.8337 12.2833 12.6065 12.5046C12.4641 12.643 12.2346 12.824 12.0092 13.001C11.7707 13.1884 11.5087 13.3927 11.2621 13.6016C11.1833 13.6684 11.1099 13.7362 11.0391 13.8002H16.0098C16.3274 13.8002 16.586 14.0588 16.586 14.3763C16.5856 14.6936 16.3272 14.9509 16.0098 14.9509H11.0391C11.1099 15.0149 11.1833 15.0827 11.2621 15.1495C11.5086 15.3584 11.7707 15.5627 12.0092 15.75C12.2346 15.9271 12.4641 16.108 12.6065 16.2465C12.8339 16.4677 12.8387 16.831 12.6179 17.0586C12.3965 17.2864 12.0318 17.293 11.8041 17.0717C11.7156 16.9857 11.545 16.8479 11.2995 16.655C11.0667 16.4721 10.7847 16.2525 10.5183 16.0267C10.2546 15.8033 9.98431 15.5567 9.77608 15.3122C9.67168 15.1896 9.57131 15.0537 9.49451 14.9102C9.43883 14.8062 9.38342 14.6765 9.35942 14.5293L9.34802 14.3763L9.35942 14.2234C9.38333 14.0757 9.43865 13.9452 9.49451 13.8409C9.5713 13.6974 9.67171 13.5614 9.77608 13.4388C9.98433 13.1944 10.2546 12.9478 10.5183 12.7243C10.7847 12.4986 11.0667 12.279 11.2995 12.0961C11.5444 11.9037 11.7155 11.767 11.8041 11.681Z" fill="#9B9B9B"/>
</svg>
