<svg width="20" height="20" viewBox="0 0 20 20" fill="none" xmlns="http://www.w3.org/2000/svg">
<path d="M9.9496 16.2479C10.3945 16.2481 10.7556 16.616 10.7556 17.0698V17.1789C10.7556 17.6327 10.3945 18.0006 9.9496 18.0009H9.84098C9.39616 18.0005 9.03501 17.6326 9.03495 17.1789V17.0698C9.03495 16.6161 9.39612 16.2482 9.84098 16.2479H9.9496ZM9.09005 13.75V11.5893C9.09034 11.1359 9.44991 10.7678 9.8945 10.7673C10.5387 10.7673 11.1715 10.5857 11.7207 10.2424C12.2694 9.89927 12.7145 9.4082 13.0068 8.82332C13.2992 8.238 13.4274 7.58069 13.3768 6.92585C13.3261 6.27114 13.099 5.64311 12.7203 5.11186C12.3417 4.58071 11.826 4.16713 11.2311 3.9159C10.6361 3.66474 9.98425 3.58519 9.34823 3.68795C8.71204 3.79086 8.1157 4.07192 7.62598 4.49863C7.13626 4.92536 6.77169 5.48237 6.5728 6.10715C6.4352 6.53848 5.98055 6.77517 5.55739 6.63529C5.13399 6.49514 4.90202 6.03002 5.03946 5.59826C5.33019 4.68541 5.86353 3.87162 6.57909 3.2481C7.29463 2.62481 8.16533 2.21539 9.09477 2.06499C10.0246 1.91458 10.9783 2.03008 11.8482 2.39728C12.7176 2.76446 13.4705 3.36932 14.0238 4.14546C14.5773 4.92204 14.9101 5.84036 14.9841 6.79743C15.058 7.75409 14.8711 8.71303 14.4441 9.56818C14.0169 10.4235 13.3654 11.1421 12.5629 11.6438C11.9916 12.001 11.3587 12.2365 10.7021 12.3438V13.75C10.7021 14.2037 10.3409 14.5715 9.89608 14.5719C9.45092 14.5719 9.09005 14.2039 9.09005 13.75Z" fill="#9B9B9B"/>
</svg>
