<svg width="20" height="20" viewBox="0 0 20 20" fill="none" xmlns="http://www.w3.org/2000/svg">
<g clip-path="url(#clip0_105_2791)">
<path d="M9.26827 17.1935C9.26827 17.5453 9.7426 17.6572 9.89981 17.3425L14.2565 8.62011C14.3672 8.39848 14.206 8.13782 13.9583 8.13782H11.2155C11.0314 8.13782 10.8822 7.98858 10.8822 7.80449V2.76957C10.8822 2.41982 10.4122 2.30613 10.2524 2.61722L5.75202 11.3749C5.63803 11.5968 5.7991 11.8606 6.0485 11.8606H8.93494C9.11904 11.8606 9.26827 12.0099 9.26827 12.1939V17.1935Z" fill="#D7184B"/>
<path fill-rule="evenodd" clip-rule="evenodd" d="M13.9583 8.13782C14.206 8.13782 14.3672 8.39848 14.2565 8.62011L9.89981 17.3425C9.7426 17.6572 9.26827 17.5453 9.26827 17.1935V12.1939C9.26827 12.0099 9.11904 11.8606 8.93494 11.8606H6.0485C5.7991 11.8606 5.63803 11.5968 5.75202 11.3749L10.2524 2.61722C10.4122 2.30613 10.8822 2.41982 10.8822 2.76957V7.80449C10.8822 7.98858 11.0314 8.13782 11.2155 8.13782H13.9583Z" fill="#D7184B"/>
<g filter="url(#filter0_d_105_2791)">
<path d="M9.26827 17.1935C9.26827 17.5453 9.7426 17.6572 9.89981 17.3425L14.2565 8.62011C14.3672 8.39848 14.206 8.13782 13.9583 8.13782H11.2155C11.0314 8.13782 10.8822 7.98858 10.8822 7.80449V2.76957C10.8822 2.41982 10.4122 2.30613 10.2524 2.61722L5.75202 11.3749C5.63803 11.5968 5.7991 11.8606 6.0485 11.8606H8.93494C9.11904 11.8606 9.26827 12.0099 9.26827 12.1939V17.1935Z" fill="#16DD12"/>
<path fill-rule="evenodd" clip-rule="evenodd" d="M13.9583 8.13782C14.206 8.13782 14.3672 8.39848 14.2565 8.62011L9.89981 17.3425C9.7426 17.6572 9.26827 17.5453 9.26827 17.1935V12.1939C9.26827 12.0099 9.11904 11.8606 8.93494 11.8606H6.0485C5.7991 11.8606 5.63803 11.5968 5.75202 11.3749L10.2524 2.61722C10.4122 2.30613 10.8822 2.41982 10.8822 2.76957V7.80449C10.8822 7.98858 11.0314 8.13782 11.2155 8.13782H13.9583Z" fill="#16DD12"/>
</g>
</g>
<defs>
<filter id="filter0_d_105_2791" x="-1.28528" y="-4.56427" width="22.5774" height="29.0916" filterUnits="userSpaceOnUse" color-interpolation-filters="sRGB">
<feFlood flood-opacity="0" result="BackgroundImageFix"/>
<feColorMatrix in="SourceAlpha" type="matrix" values="0 0 0 0 0 0 0 0 0 0 0 0 0 0 0 0 0 0 127 0" result="hardAlpha"/>
<feOffset/>
<feGaussianBlur stdDeviation="3.5"/>
<feComposite in2="hardAlpha" operator="out"/>
<feColorMatrix type="matrix" values="0 0 0 0 0.0862745 0 0 0 0 0.866667 0 0 0 0 0.0705882 0 0 0 0.66 0"/>
<feBlend mode="normal" in2="BackgroundImageFix" result="effect1_dropShadow_105_2791"/>
<feBlend mode="normal" in="SourceGraphic" in2="effect1_dropShadow_105_2791" result="shape"/>
</filter>
<clipPath id="clip0_105_2791">
<rect width="20" height="20" fill="white"/>
</clipPath>
</defs>
</svg>
