<svg width="20" height="20" viewBox="0 0 20 20" fill="none" xmlns="http://www.w3.org/2000/svg">
<path d="M15.2637 9.99926C15.2637 7.46727 13.2109 5.41461 10.679 5.41457C8.14697 5.41457 6.09429 7.46725 6.09429 9.99926C6.09433 12.5312 8.14699 14.5839 10.679 14.5839C13.2109 14.5839 15.2636 12.5312 15.2637 9.99926ZM16.7207 9.99926C16.7207 13.3359 14.0156 16.041 10.679 16.041C7.34227 16.041 4.63725 13.336 4.63721 9.99926C4.63721 6.66252 7.34224 3.95749 10.679 3.95749C14.0157 3.95753 16.7207 6.66255 16.7207 9.99926Z" fill="#060606"/>
<path d="M9.49242 14.428C9.88107 14.5321 10.1117 14.9316 10.0076 15.3203C9.90325 15.7087 9.5038 15.9395 9.1153 15.8354C5.89238 14.9719 3.97976 11.6587 4.84312 8.43582C5.28054 6.80333 6.34784 5.50535 7.71116 4.73631C8.06156 4.53888 8.50569 4.6636 8.70332 5.01394C8.90075 5.36434 8.7774 5.80884 8.42706 6.00647C7.39074 6.59109 6.58254 7.57395 6.25055 8.81294C5.59547 11.2586 7.04681 13.7727 9.49242 14.428Z" fill="#9B9B9B"/>
</svg>
