<svg width="20" height="20" viewBox="0 0 20 20" fill="none" xmlns="http://www.w3.org/2000/svg">
<path d="M10.6787 8.90259C11.6165 9.38746 12.3576 10.2732 13.0432 11.051C13.072 11.0836 13.0991 11.1191 13.1299 11.1499C13.4291 11.498 13.3901 12.0238 13.042 12.323C12.6856 12.6293 12.1521 12.5597 11.8518 12.2144C11.7583 12.1068 11.3069 11.5957 10.8313 11.134V14.5496C10.8313 15.0086 10.4591 15.3809 10 15.3809C9.54092 15.3808 9.1687 15.0086 9.1687 14.5496V11.134C8.66226 11.6257 8.18324 12.174 8.13477 12.2302C7.8373 12.5744 7.30521 12.6214 6.95801 12.323C6.60997 12.0238 6.57095 11.4992 6.87012 11.1511C6.88822 11.1149 6.93033 11.0811 6.95679 11.051C7.11895 10.867 7.49057 10.4519 7.9187 10.0293C8.34016 9.61328 8.78971 9.17742 9.32129 8.90259C9.47464 8.82333 9.71859 8.71827 10 8.71826C10.2411 8.74005 10.4608 8.78995 10.6787 8.90259Z" fill="#9B9B9B"/>
<path fill-rule="evenodd" clip-rule="evenodd" d="M11.1841 1.6687C12.6477 1.6687 13.8338 1.66707 14.7656 1.79932C15.7262 1.93569 16.5387 2.22882 17.179 2.90527C17.8126 3.5749 18.0815 4.41241 18.208 5.40405C18.332 6.37639 18.3313 7.61738 18.3313 9.16626V12.5C18.3313 12.5029 18.3301 12.5057 18.3301 12.5085C18.3277 13.4352 18.3147 14.2128 18.2349 14.8547C18.1347 15.6598 17.9198 16.3591 17.4121 16.947C16.7139 17.755 15.7492 18.1232 14.7009 18.241C13.8857 18.3325 12.8569 18.3313 11.5784 18.3313H8.42163C7.14311 18.3313 6.11426 18.3325 5.29907 18.241C4.25084 18.1232 3.28606 17.755 2.58789 16.947C2.08053 16.3589 1.86533 15.6598 1.76514 14.8547C1.68527 14.2128 1.67106 13.4352 1.6687 12.5085V9.16626C1.6687 7.6175 1.66687 6.37647 1.79077 5.40405C1.91716 4.41216 2.18754 3.5748 2.82227 2.90527C3.46278 2.22976 4.27384 1.93582 5.23438 1.79932C6.16617 1.66694 7.35213 1.6687 8.81592 1.6687H11.1841ZM8.42163 7.0813C7.10437 7.0813 6.18532 7.08194 5.48462 7.16065C4.88548 7.22797 4.5281 7.34545 4.27002 7.51221C3.71851 7.9034 3.49741 8.43244 3.41431 9.10034C3.33258 9.7573 3.3313 10.621 3.3313 11.875C3.3313 13.1294 3.33258 13.9929 3.41431 14.6497C3.49333 15.2846 3.63696 15.6178 3.84644 15.8606C4.27183 16.3526 4.85217 16.5183 5.48462 16.5894C6.18542 16.6681 7.10437 16.6687 8.42163 16.6687H11.5784C12.8956 16.6687 13.8146 16.6681 14.5154 16.5894C15.1462 16.5185 15.73 16.3505 16.1536 15.8606C16.3628 15.6183 16.5067 15.2848 16.5857 14.6497C16.6674 13.9928 16.6687 13.1292 16.6687 11.875C16.6687 10.6208 16.6674 9.75717 16.5857 9.10034C16.5026 8.43251 16.2815 7.90338 15.73 7.51221C15.4723 7.34559 15.115 7.228 14.5154 7.16065C13.8145 7.08194 12.8952 7.0813 11.5784 7.0813H8.42163ZM8.81592 3.3313C7.30273 3.3313 6.25537 3.33287 5.46753 3.44483C4.70867 3.55272 4.31302 3.74881 4.02832 4.04907C3.51973 4.58575 3.44624 5.39368 3.39234 6.09985C3.94497 5.74994 4.57916 5.58992 5.29907 5.50903C6.11416 5.41749 7.14311 5.4187 8.42163 5.4187H11.5784C12.8565 5.4187 13.8857 5.41749 14.7009 5.50903C15.4205 5.58987 16.054 5.75122 16.6064 6.10108C16.5524 5.39336 16.4802 4.58634 15.9705 4.04785C15.6863 3.74789 15.2913 3.55257 14.5325 3.44483C13.7445 3.33296 12.6974 3.3313 11.1841 3.3313H8.81592Z" fill="#9B9B9B"/>
</svg>
