<svg width="16" height="16" viewBox="0 0 16 16" fill="none" xmlns="http://www.w3.org/2000/svg">
<path d="M8.54297 7.12207C9.29324 7.50997 9.88611 8.21857 10.4346 8.84082C10.4576 8.86692 10.4793 8.89532 10.5039 8.91992C10.7432 9.19843 10.712 9.61901 10.4336 9.8584C10.1485 10.1034 9.72169 10.0478 9.48145 9.77149C9.40662 9.68543 9.04553 9.2766 8.66504 8.90723V11.6396C8.66504 12.0069 8.36727 12.3047 8 12.3047C7.63274 12.3047 7.33496 12.0069 7.33496 11.6396V8.90723C6.92981 9.30054 6.54659 9.73923 6.50781 9.78418C6.26984 10.0595 5.84417 10.0971 5.56641 9.8584C5.28798 9.61901 5.25676 9.1994 5.4961 8.9209C5.51058 8.89193 5.54426 8.86484 5.56543 8.84082C5.69516 8.69363 5.99246 8.36154 6.33496 8.02344C6.67213 7.69062 7.03177 7.34194 7.45703 7.12207C7.57971 7.05867 7.77487 6.97461 8 6.97461C8.19287 6.99204 8.3686 7.03196 8.54297 7.12207Z" fill="#9B9B9B"/>
<path fill-rule="evenodd" clip-rule="evenodd" d="M8.94727 1.33496C10.1181 1.33496 11.067 1.33366 11.8125 1.43945C12.581 1.54856 13.2309 1.78306 13.7432 2.32422C14.2501 2.85992 14.4652 3.52993 14.5664 4.32324C14.6656 5.10111 14.665 6.0939 14.665 7.33301V10C14.665 10.0023 14.6641 10.0046 14.6641 10.0068C14.6622 10.7481 14.6518 11.3702 14.5879 11.8838C14.5078 12.5278 14.3358 13.0873 13.9297 13.5576C13.3712 14.204 12.5993 14.4986 11.7607 14.5928C11.1086 14.666 10.2855 14.665 9.2627 14.665H6.73731C5.71448 14.665 4.89141 14.666 4.23926 14.5928C3.40067 14.4986 2.62885 14.204 2.07031 13.5576C1.66442 13.0871 1.49226 12.5278 1.41211 11.8838C1.34822 11.3702 1.33685 10.7482 1.33496 10.0068V7.33301C1.33496 6.094 1.3335 5.10117 1.43262 4.32324C1.53373 3.52973 1.75003 2.85984 2.25781 2.32422C2.77022 1.78381 3.41907 1.54865 4.1875 1.43945C4.93293 1.33355 5.88171 1.33496 7.05274 1.33496H8.94727ZM6.73731 5.66504C5.68349 5.66504 4.94826 5.66556 4.3877 5.72852C3.90838 5.78237 3.62248 5.87636 3.41602 6.00977C2.97481 6.32272 2.79793 6.74595 2.73145 7.28027C2.66606 7.80584 2.66504 8.49683 2.66504 9.5C2.66504 10.5035 2.66607 11.1943 2.73145 11.7197C2.79466 12.2277 2.90957 12.4942 3.07715 12.6885C3.41747 13.0821 3.88174 13.2147 4.3877 13.2715C4.94834 13.3344 5.6835 13.335 6.73731 13.335H9.2627C10.3165 13.335 11.0517 13.3344 11.6123 13.2715C12.117 13.2148 12.584 13.0804 12.9229 12.6885C13.0902 12.4946 13.2053 12.2278 13.2686 11.7197C13.3339 11.1943 13.335 10.5033 13.335 9.5C13.335 8.49666 13.3339 7.80573 13.2686 7.28027C13.2021 6.74601 13.0252 6.32271 12.584 6.00977C12.3778 5.87647 12.092 5.7824 11.6123 5.72852C11.0516 5.66555 10.3162 5.66504 9.2627 5.66504H6.73731ZM7.05274 2.66504C5.84219 2.66504 5.0043 2.66629 4.37402 2.75586C3.76694 2.84217 3.45042 2.99905 3.22266 3.23926C2.81578 3.6686 2.757 4.31494 2.71387 4.87988C3.15598 4.59995 3.66333 4.47194 4.23926 4.40723C4.89133 4.33399 5.71449 4.33496 6.73731 4.33496H9.2627C10.2852 4.33496 11.1085 4.33399 11.7607 4.40723C12.3364 4.4719 12.8432 4.60098 13.2852 4.88086C13.2419 4.31469 13.1841 3.66907 12.7764 3.23828C12.5491 2.99831 12.2331 2.84205 11.626 2.75586C10.9956 2.66637 10.1579 2.66504 8.94727 2.66504H7.05274Z" fill="#9B9B9B"/>
</svg>
