<svg width="20" height="20" viewBox="0 0 20 20" fill="none" xmlns="http://www.w3.org/2000/svg">
<path d="M1.62012 11.9796V9.52479C1.62012 7.68499 3.11162 6.19349 4.95142 6.19349H6.29785C6.75694 6.19349 7.12915 6.5657 7.12915 7.02479C7.12905 7.48379 6.75687 7.85609 6.29785 7.85609H4.95142C4.02979 7.85609 3.28271 8.60316 3.28271 9.52479V11.9796C3.28271 12.9012 4.02979 13.6483 4.95142 13.6483H15.0491C15.9704 13.648 16.7178 12.9011 16.7178 11.9796V9.52479C16.7178 8.60336 15.9704 7.8564 15.0491 7.85609H11.4175L12.3452 8.78382C12.6697 9.10837 12.6696 9.63473 12.3452 9.95936C12.0206 10.284 11.4943 10.284 11.1697 9.95936L8.82227 7.61195C8.66653 7.45612 8.57818 7.2451 8.57812 7.02479C8.57812 6.80433 8.66638 6.5923 8.82227 6.43641L11.1697 4.089C11.4943 3.76488 12.0207 3.7647 12.3452 4.089C12.6698 4.41362 12.6698 4.94113 12.3452 5.26576L11.4175 6.19349H15.0491C16.8886 6.1938 18.3792 7.68518 18.3792 9.52479V11.9796C18.3792 13.8192 16.8886 15.3106 15.0491 15.3109H4.95142C3.11162 15.3109 1.62012 13.8194 1.62012 11.9796Z" fill="#0898FF"/>
</svg>
