<svg width="20" height="20" viewBox="0 0 20 20" fill="none" xmlns="http://www.w3.org/2000/svg">
<path d="M8.34053 11.269C7.88499 10.8135 7.65722 10.2603 7.65722 9.60954V4.92395C7.65722 4.27318 7.88499 3.72002 8.34053 3.26448C8.79608 2.80893 9.34924 2.58116 10 2.58116C10.6508 2.58116 11.2039 2.80893 11.6595 3.26448C12.115 3.72002 12.3428 4.27318 12.3428 4.92395V9.60954C12.3428 10.2603 12.115 10.8135 11.6595 11.269C11.2039 11.7246 10.6508 11.9523 10 11.9523C9.34924 11.9523 8.79608 11.7246 8.34053 11.269ZM9.21908 16.6379V15.0175C8.02165 14.8483 6.99681 14.3407 6.14456 13.4947C5.2923 12.6487 4.7748 11.6204 4.59207 10.41C4.56604 10.1887 4.62461 10 4.76778 9.84382C4.91095 9.68763 5.09316 9.60954 5.31443 9.60954C5.53569 9.60954 5.72129 9.68451 5.87123 9.83444C6.02117 9.98438 6.12191 10.1697 6.17345 10.3905C6.35567 11.3016 6.80809 12.0499 7.53071 12.6356C8.25333 13.2213 9.07643 13.5142 10 13.5142C10.9371 13.5142 11.7636 13.2182 12.4795 12.6263C13.1953 12.0343 13.6444 11.2891 13.8266 10.3905C13.8786 10.1692 13.9796 9.98386 14.1296 9.83444C14.2795 9.68503 14.4649 9.61006 14.6856 9.60954C14.9063 9.60902 15.0886 9.68711 15.2322 9.84382C15.3759 10.0005 15.4345 10.1892 15.408 10.41C15.2257 11.5944 14.7116 12.6161 13.8656 13.4751C13.0196 14.3342 11.9914 14.8483 10.7809 15.0175V16.6379C10.7809 16.8592 10.706 17.0448 10.556 17.1947C10.4061 17.3447 10.2208 17.4194 10 17.4188C9.77927 17.4183 9.59393 17.3434 9.44399 17.1939C9.29405 17.0445 9.21908 16.8592 9.21908 16.6379ZM10.5568 10.1663C10.7062 10.0164 10.7809 9.8308 10.7809 9.60954V4.92395C10.7809 4.70269 10.706 4.51735 10.556 4.36793C10.4061 4.21851 10.2208 4.14354 10 4.14302C9.77927 4.1425 9.59393 4.21747 9.44399 4.36793C9.29405 4.51839 9.21908 4.70373 9.21908 4.92395V9.60954C9.21908 9.8308 9.29405 10.0164 9.44399 10.1663C9.59393 10.3163 9.77927 10.391 10 10.3905C10.2208 10.3899 10.4064 10.315 10.5568 10.1656" fill="#9B9B9B"/>
</svg>
