<svg width="16" height="16" viewBox="0 0 16 16" fill="none" xmlns="http://www.w3.org/2000/svg">
<path d="M6.6724 9.01521C6.30797 8.65077 6.12575 8.20825 6.12575 7.68763V3.93916C6.12575 3.41854 6.30797 2.97601 6.6724 2.61158C7.03684 2.24714 7.47936 2.06493 7.99998 2.06493C8.5206 2.06493 8.96313 2.24714 9.32757 2.61158C9.692 2.97601 9.87422 3.41854 9.87422 3.93916V7.68763C9.87422 8.20825 9.692 8.65077 9.32757 9.01521C8.96313 9.37964 8.5206 9.56186 7.99998 9.56186C7.47936 9.56186 7.03684 9.37964 6.6724 9.01521ZM7.37524 13.3103V12.014C6.4173 11.8786 5.59743 11.4725 4.91562 10.7957C4.23382 10.1189 3.81982 9.29634 3.67363 8.32799C3.6528 8.15098 3.69966 8 3.8142 7.87505C3.92873 7.7501 4.07451 7.68763 4.25152 7.68763C4.42853 7.68763 4.57701 7.7476 4.69696 7.86755C4.81691 7.9875 4.8975 8.13578 4.93874 8.31237C5.08451 9.04124 5.44645 9.63995 6.02454 10.1085C6.60264 10.5771 7.26112 10.8113 7.99998 10.8113C8.74968 10.8113 9.41087 10.5746 9.98355 10.101C10.5562 9.62746 10.9155 9.03124 11.0612 8.31237C11.1029 8.13536 11.1837 7.98709 11.3036 7.86755C11.4236 7.74802 11.5719 7.68804 11.7485 7.68763C11.925 7.68721 12.0708 7.74968 12.1858 7.87505C12.3007 8.00041 12.3476 8.15139 12.3263 8.32799C12.1806 9.27552 11.7693 10.0929 11.0925 10.7801C10.4157 11.4673 9.59308 11.8786 8.62473 12.014V13.3103C8.62473 13.4873 8.56475 13.6358 8.4448 13.7558C8.32485 13.8757 8.17658 13.9355 7.99998 13.9351C7.82339 13.9347 7.67512 13.8747 7.55517 13.7551C7.43522 13.6356 7.37524 13.4873 7.37524 13.3103ZM8.44543 8.13307C8.56496 8.01312 8.62473 7.86464 8.62473 7.68763V3.93916C8.62473 3.76215 8.56475 3.61388 8.4448 3.49434C8.32485 3.37481 8.17658 3.31483 7.99998 3.31441C7.82339 3.314 7.67512 3.37397 7.55517 3.49434C7.43522 3.61471 7.37524 3.76298 7.37524 3.93916V7.68763C7.37524 7.86464 7.43522 8.01312 7.55517 8.13307C7.67512 8.25302 7.82339 8.31279 7.99998 8.31237C8.17658 8.31195 8.32506 8.25198 8.44543 8.13244" fill="#16DD12"/>
</svg>
