<svg width="20" height="20" viewBox="0 0 20 20" fill="none" xmlns="http://www.w3.org/2000/svg">
<path d="M12.8823 15.0371C12.33 15.0371 11.8823 14.5894 11.8823 14.0371V5.96291C11.8823 5.41062 12.33 4.96291 12.8823 4.96291H14.1761C14.7284 4.96291 15.1761 5.41062 15.1761 5.96291V14.0371C15.1761 14.5894 14.7284 15.0371 14.1761 15.0371H12.8823ZM5.8241 15.0371C5.27181 15.0371 4.8241 14.5894 4.8241 14.0371V5.96291C4.8241 5.41062 5.27181 4.96291 5.8241 4.96291H7.11791C7.6702 4.96291 8.11791 5.41062 8.11791 5.96291V14.0371C8.11791 14.5894 7.6702 15.0371 7.11791 15.0371H5.8241Z" fill="#E4E4E4"/>
</svg>
