<svg width="16" height="16" viewBox="0 0 16 16" fill="none" xmlns="http://www.w3.org/2000/svg">
<path d="M10.3058 12.0297C9.86397 12.0297 9.50579 11.6715 9.50579 11.2297V4.77032C9.50579 4.32849 9.86396 3.97032 10.3058 3.97032H11.3408C11.7827 3.97032 12.1408 4.32849 12.1408 4.77032V11.2297C12.1408 11.6715 11.7827 12.0297 11.3408 12.0297H10.3058ZM4.65925 12.0297C4.21743 12.0297 3.85925 11.6715 3.85925 11.2297V4.77032C3.85925 4.32849 4.21743 3.97032 4.65925 3.97032H5.6943C6.13613 3.97032 6.4943 4.32849 6.4943 4.77032V11.2297C6.4943 11.6715 6.13613 12.0297 5.6943 12.0297H4.65925Z" fill="#E4E4E4"/>
</svg>
