<svg width="20" height="20" viewBox="0 0 20 20" fill="none" xmlns="http://www.w3.org/2000/svg">
<path d="M10.8423 8.78271C10.8423 8.98982 11.0102 9.15771 11.2173 9.15771H14.3992C14.6063 9.15771 14.7742 9.32561 14.7742 9.53271V10.4453C14.7742 10.6524 14.6063 10.8203 14.3992 10.8203H11.2161C11.009 10.8203 10.8411 10.9882 10.8411 11.1953V14.3992C10.8411 14.6063 10.6732 14.7742 10.4661 14.7742H9.55347C9.34636 14.7742 9.17847 14.6063 9.17847 14.3992V11.1953C9.17847 10.9882 9.01057 10.8203 8.80347 10.8203H5.60083C5.39372 10.8203 5.22583 10.6524 5.22583 10.4453V9.53271C5.22583 9.32561 5.39372 9.15771 5.60083 9.15771H8.80469C9.01179 9.15771 9.17969 8.98982 9.17969 8.78271V5.60205C9.17969 5.39494 9.34758 5.22705 9.55469 5.22705H10.4673C10.6744 5.22705 10.8423 5.39494 10.8423 5.60205V8.78271Z" fill="#9B9B9B"/>
</svg>
