<svg width="20" height="20" viewBox="0 0 20 20" fill="none" xmlns="http://www.w3.org/2000/svg">
<path fill-rule="evenodd" clip-rule="evenodd" d="M10.2045 2.67376C10.7548 2.67376 11.2826 2.89238 11.6717 3.28152C12.0609 3.67067 12.2795 4.19846 12.2795 4.74879C12.2795 5.29912 12.0609 5.82691 11.6717 6.21605C11.2826 6.60519 10.7548 6.82381 10.2045 6.82381C9.65412 6.82381 9.12633 6.60519 8.73719 6.21605C8.34805 5.82691 8.12943 5.29912 8.12943 4.74879C8.12943 4.19846 8.34805 3.67067 8.73719 3.28152C9.12633 2.89238 9.65412 2.67376 10.2045 2.67376ZM6.99325 8.58142L7.52206 8.84646L5.73827 12.6114C5.67249 12.7436 5.47386 12.8758 5.3423 12.8094L3.55404 12.347C3.02586 12.2148 2.49705 12.545 2.36548 13.0738C2.23328 13.602 2.56347 14.1308 3.09164 14.263L4.8799 14.7254C5.07789 14.7912 5.27588 14.7912 5.47386 14.7912C6.46507 14.7912 7.32344 14.1972 7.65363 13.2718L7.78583 12.8758L9.37164 13.9328C9.40584 13.9349 9.43809 13.9494 9.46231 13.9737C9.48654 13.9979 9.50109 14.0302 9.5032 14.0644L10.428 16.7314C10.626 17.1274 10.9568 17.326 11.3528 17.326C11.485 17.326 11.6172 17.326 11.7487 17.2602C12.2776 16.9958 12.4762 16.4677 12.2776 15.9388L11.3528 13.2718C11.1548 12.8758 10.8904 12.5456 10.4944 12.2812L8.57841 11.0262L9.30521 9.70483L10.23 10.1672C11.089 10.5632 12.146 10.4316 12.8722 9.70483L14.0901 8.47476C14.4861 8.07879 14.4861 7.48355 14.0901 7.08758C13.6941 6.69161 13.0995 6.69161 12.7029 7.08758L11.485 8.31765C11.3528 8.44985 11.2212 8.44985 11.089 8.38407L9.30521 7.45928L7.85225 6.73248C7.25765 6.46807 6.66306 6.40229 6.06846 6.60028C5.4745 6.79826 5.01147 7.26065 4.7477 7.78947L3.82291 9.54388C3.62493 10.0063 3.82291 10.6009 4.28531 10.8653C4.779 11.1118 5.31548 10.9534 5.60607 10.4687L6.53085 8.71426C6.66306 8.58205 6.86104 8.51563 6.99325 8.58142ZM12.648 13.9328L12.3606 13.7412L12.107 13.0112C12.096 12.9788 12.0826 12.9469 12.0668 12.9154C11.8164 12.414 11.4658 11.9702 10.937 11.6176L10.9319 11.6138L9.82956 10.8921L9.84233 10.8666L9.87299 10.8819L9.88576 10.8883L9.89534 10.8927C10.5424 11.1917 11.2713 11.2641 11.9646 11.0984L13.7708 12.2818C14.1674 12.5462 14.4318 12.8758 14.6298 13.2724L15.5546 15.9395C15.7525 16.4683 15.5546 16.9965 15.0264 17.2609C14.8942 17.3267 14.762 17.3267 14.6298 17.3267C14.2338 17.3267 13.903 17.1287 13.705 16.7327L12.7802 14.065C12.7802 13.9992 12.7144 13.9328 12.648 13.9328ZM15.9799 7.08758L15.1816 7.89357C15.1554 8.30679 14.9798 8.71298 14.656 9.03742L13.5281 10.1768C14.3832 10.5613 15.4287 10.4259 16.1491 9.70483L17.3671 8.47476C17.7631 8.07879 17.7631 7.48355 17.3671 7.08758C16.9705 6.69161 16.3759 6.69161 15.9799 7.08758ZM12.4455 2.95031C12.8557 3.4599 13.0788 4.09464 13.0778 4.74879C13.0778 5.24758 12.9507 5.717 12.7265 6.12639C13.3537 5.86453 14.0869 5.9846 14.617 6.48595C15.0741 6.19253 15.3979 5.73157 15.519 5.20204C15.64 4.67251 15.5485 4.11664 15.2643 3.65379C14.98 3.19093 14.5256 2.85799 13.9985 2.72646C13.4715 2.59493 12.914 2.6753 12.4455 2.95031Z" fill="#9B9B9B"/>
</svg>
