<svg width="20" height="20" viewBox="0 0 20 20" fill="none" xmlns="http://www.w3.org/2000/svg">
<g clip-path="url(#clip0_1013_5789)">
<path d="M9.99995 15.5831C10.5123 15.5831 10.9274 15.9982 10.9274 16.5105V18.3698C10.9274 18.8821 10.5123 19.2972 9.99995 19.2972C9.48763 19.2972 9.07252 18.8821 9.07252 18.3698V16.5105C9.07252 15.9982 9.48763 15.5831 9.99995 15.5831Z" fill="#9B9B9B"/>
<path d="M4.74052 13.9484C5.10279 13.5861 5.69038 13.5861 6.05265 13.9484C6.41424 14.3106 6.41433 14.8973 6.05265 15.2594L4.73725 16.5748C4.37513 16.9365 3.78837 16.9364 3.4262 16.5748C3.06394 16.2126 3.06395 15.625 3.4262 15.2627L4.74052 13.9484Z" fill="#9B9B9B"/>
<path d="M13.9483 13.9484C14.3106 13.5861 14.8971 13.5861 15.2594 13.9484L16.5748 15.2627C16.9366 15.625 16.9369 16.2127 16.5748 16.5748C16.2127 16.937 15.625 16.9367 15.2627 16.5748L13.9483 15.2594C13.5861 14.8972 13.5861 14.3107 13.9483 13.9484Z" fill="#9B9B9B"/>
<path d="M10.7901 10.3193H9.22837L9.98579 8.05904H10.0305L10.7901 10.3193Z" fill="#9B9B9B"/>
<path fill-rule="evenodd" clip-rule="evenodd" d="M9.99995 5.5285C12.4693 5.52877 14.4723 7.53062 14.4725 10C14.4723 12.4694 12.4693 14.4723 9.99995 14.4726C7.53057 14.4723 5.52872 12.4694 5.52845 10C5.52871 7.53061 7.53057 5.52876 9.99995 5.5285ZM7.40511 12.5196H8.49056L8.95482 11.1356H11.0636L11.529 12.5196H12.6133L10.6353 6.9082H9.38094L7.40511 12.5196Z" fill="#9B9B9B"/>
<path d="M3.48941 9.07257C4.00174 9.07257 4.41793 9.48767 4.41793 10C4.41793 10.5123 4.00174 10.9274 3.48941 10.9274H1.63019C1.11786 10.9274 0.702759 10.5123 0.702759 10C0.702759 9.48767 1.11786 9.07257 1.63019 9.07257H3.48941Z" fill="#9B9B9B"/>
<path d="M18.3697 9.07257C18.882 9.07257 19.2971 9.48767 19.2971 10C19.2971 10.5123 18.882 10.9274 18.3697 10.9274H16.5105C15.9982 10.9274 15.5831 10.5123 15.5831 10C15.5831 9.48767 15.9982 9.07257 16.5105 9.07257H18.3697Z" fill="#9B9B9B"/>
<path d="M3.4262 3.42625C3.78847 3.06398 4.37498 3.06399 4.73725 3.42625L6.05265 4.74056C6.41451 5.10286 6.41478 5.69056 6.05265 6.0527C5.69052 6.41483 5.10282 6.41456 4.74052 6.0527L3.4262 4.73729C3.06395 4.37502 3.06394 3.78851 3.4262 3.42625Z" fill="#9B9B9B"/>
<path d="M15.2627 3.42625C15.6249 3.06399 16.2125 3.06398 16.5748 3.42625C16.9364 3.78842 16.9365 4.37517 16.5748 4.73729L15.2594 6.0527C14.8973 6.41438 14.3105 6.41429 13.9483 6.0527C13.5861 5.69043 13.5861 5.10283 13.9483 4.74056L15.2627 3.42625Z" fill="#9B9B9B"/>
<path d="M9.99995 0.702805C10.5123 0.702805 10.9274 1.11791 10.9274 1.63024V3.48946C10.9274 4.00178 10.5123 4.41798 9.99995 4.41798C9.48763 4.41798 9.07252 4.00178 9.07252 3.48946V1.63024C9.07252 1.11791 9.48763 0.702805 9.99995 0.702805Z" fill="#9B9B9B"/>
</g>
<defs>
<clipPath id="clip0_1013_5789">
<rect width="20" height="20" fill="white"/>
</clipPath>
</defs>
</svg>
