<svg width="20" height="20" viewBox="0 0 20 20" fill="none" xmlns="http://www.w3.org/2000/svg">
<path d="M9.99992 14.4028C11.1676 14.4028 12.2875 13.9389 13.1132 13.1132C13.9388 12.2876 14.4027 11.1677 14.4027 10C14.4027 8.8323 13.9388 7.71244 13.1132 6.88676C12.2875 6.06107 11.1676 5.59721 9.99992 5.59721C8.83223 5.59721 7.71236 6.06107 6.88668 6.88676C6.061 7.71244 5.59713 8.8323 5.59713 10C5.59713 11.1677 6.061 12.2876 6.88668 13.1132C7.71236 13.9389 8.83223 14.4028 9.99992 14.4028ZM9.99992 2.29512C7.95646 2.29512 5.99669 3.10688 4.55175 4.55183C3.10681 5.99677 2.29504 7.95654 2.29504 10C2.29504 12.0435 3.10681 14.0032 4.55175 15.4482C5.99669 16.8931 7.95646 17.7049 9.99992 17.7049C12.0434 17.7049 14.0031 16.8931 15.4481 15.4482C16.893 14.0032 17.7048 12.0435 17.7048 10C17.7048 7.95654 16.893 5.99677 15.4481 4.55183C14.0031 3.10688 12.0434 2.29512 9.99992 2.29512ZM3.39574 10C3.39574 9.13272 3.56656 8.27394 3.89845 7.47269C4.23034 6.67143 4.7168 5.94339 5.33006 5.33014C5.94331 4.71688 6.67135 4.23042 7.47261 3.89853C8.27387 3.56664 9.13265 3.39582 9.99992 3.39582C10.8672 3.39582 11.726 3.56664 12.5272 3.89853C13.3285 4.23042 14.0565 4.71688 14.6698 5.33014C15.283 5.94339 15.7695 6.67143 16.1014 7.47269C16.4333 8.27394 16.6041 9.13272 16.6041 10C16.6041 11.7515 15.9083 13.4313 14.6698 14.6699C13.4313 15.9084 11.7515 16.6042 9.99992 16.6042C8.24838 16.6042 6.56858 15.9084 5.33006 14.6699C4.09154 13.4313 3.39574 11.7515 3.39574 10Z" fill="#E4E4E4"/>
</svg>
