<svg width="20" height="20" viewBox="0 0 20 20" fill="none" xmlns="http://www.w3.org/2000/svg">
<path d="M16.4638 8.73644C16.2877 7.87177 15.9421 7.05057 15.4468 6.32025C14.9616 5.60075 14.3423 4.98147 13.6228 4.49628C12.8916 4.00274 12.0707 3.65721 11.2066 3.47921C10.7526 3.38698 10.2903 3.34171 9.827 3.3441V2.15799C9.827 2.02782 9.6782 1.9537 9.5743 2.03211L7.01014 3.96732C6.92654 4.03042 6.92654 4.15598 7.01014 4.21908L9.5743 6.15429C9.6782 6.23271 9.827 6.15859 9.827 6.02841V4.84531C10.1903 4.84381 10.5536 4.87833 10.9041 4.95039C11.5757 5.08879 12.2137 5.3573 12.7821 5.74078C13.3424 6.11844 13.8246 6.60063 14.2023 7.16092C14.7886 8.0281 15.1013 9.05123 15.1 10.098C15.1005 10.8006 14.9601 11.4961 14.6872 12.1434C14.5552 12.4556 14.3933 12.7542 14.2038 13.0352C14.0147 13.3152 13.799 13.5764 13.5598 13.815C12.8331 14.5402 11.9107 15.0376 10.9056 15.2464C10.2067 15.3882 9.48637 15.3882 8.78742 15.2464C8.11552 15.1079 7.47726 14.8391 6.90866 14.4553C6.34904 14.0779 5.86738 13.5963 5.49001 13.0367C4.90438 12.1685 4.5915 11.1452 4.59154 10.098H3.09033C3.09022 11.4445 3.49249 12.7603 4.24551 13.8766C4.73185 14.5942 5.35034 15.2127 6.06798 15.699C7.18309 16.4538 8.49927 16.856 9.84577 16.8535C10.3031 16.8539 10.7593 16.8079 11.2074 16.7161C12.0712 16.538 12.8918 16.1925 13.6228 15.699C13.9815 15.4567 14.316 15.1805 14.6219 14.8741C14.9285 14.5681 15.205 14.2333 15.4475 13.8743C16.2017 12.7596 16.6036 11.4439 16.6012 10.098C16.6016 9.64069 16.5556 9.18448 16.4638 8.73644Z" fill="#9B9B9B"/>
</svg>
