<svg width="20" height="20" viewBox="0 0 20 20" fill="none" xmlns="http://www.w3.org/2000/svg">
<path d="M14.7804 14.9883L14.7889 15.0033C15.0654 15.4935 15.7456 15.6068 16.1398 15.1956C16.479 14.8452 16.785 14.4539 17.0505 14.0258C17.3485 13.5496 17.076 12.9081 16.5335 12.7569C16.1722 12.6626 15.7913 12.7979 15.5941 13.1179C15.4001 13.4261 15.1741 13.7126 14.9235 13.9732C14.7909 14.1029 14.705 14.2728 14.6791 14.4564C14.6532 14.64 14.6889 14.827 14.7804 14.9883ZM18.1076 10.2787C18.1018 9.77501 18.0423 9.28178 17.929 8.799C17.801 8.25493 17.1603 8.00009 16.6777 8.2723L16.655 8.28506C16.3308 8.46796 16.1558 8.84498 16.244 9.21272C16.3236 9.56538 16.3646 9.91997 16.3712 10.284C16.373 10.4673 16.4348 10.6449 16.547 10.7898C16.6593 10.9346 16.8158 11.0388 16.9928 11.0864L17.0281 11.0963C17.5589 11.2442 18.1163 10.8403 18.1076 10.2787Z" fill="#9B9B9B"/>
<path d="M3.99042 6.80359C3.56614 7.65159 3.30922 8.57339 3.23371 9.51859C3.11606 10.9841 3.44597 12.4728 4.17487 13.7495L2.72687 14.6299C2.60033 14.7068 2.61326 14.8945 2.74916 14.9533L6.92114 16.76C7.02607 16.8057 7.14557 16.7383 7.16074 16.6248L7.40187 12.1985C7.4099 12.051 7.24845 11.9553 7.12272 12.0328C6.72525 12.2777 6.02336 12.7069 5.60356 12.9437C4.65976 11.2865 4.61766 9.2165 5.45856 7.53668C5.96908 6.51314 6.77492 5.66629 7.77187 5.10561C8.44019 4.72798 9.17746 4.48821 9.94007 4.40049C10.6748 4.31672 11.424 4.37662 12.1361 4.57608C12.9525 4.80451 13.7051 5.20914 14.3427 5.75768C14.6855 6.05265 15.1994 6.09327 15.5406 5.79637C15.8825 5.49881 15.9211 4.97637 15.5872 4.66982C15.0813 4.20539 14.512 3.81291 13.8953 3.50469C13.0486 3.08199 12.1224 2.82386 11.1792 2.74767C9.71339 2.62838 8.24558 2.95212 6.96598 3.67693C5.69028 4.39497 4.64201 5.4927 3.99042 6.80359Z" fill="#9B9B9B"/>
</svg>
