<svg width="20" height="20" viewBox="0 0 20 20" fill="none" xmlns="http://www.w3.org/2000/svg">
<path d="M1.66626 14.9996V7.4996C1.66637 6.83671 1.92994 6.20077 2.39868 5.73203C2.86743 5.26328 3.50337 4.99971 4.16626 4.9996H6.66626C7.1265 4.9996 7.5 5.37311 7.5 5.83334C7.5 6.29358 7.1265 6.66708 6.66626 6.66708H4.16626C3.94539 6.66719 3.73407 6.75504 3.57788 6.91122C3.4217 7.06741 3.33385 7.27874 3.33374 7.4996V14.9996C3.33374 15.2206 3.4216 15.4329 3.57788 15.5892C3.73405 15.7453 3.94549 15.8332 4.16626 15.8333H15.8337C16.0545 15.8332 16.266 15.7453 16.4221 15.5892C16.5784 15.4329 16.6663 15.2206 16.6663 14.9996V7.4996C16.6662 7.27874 16.5783 7.06741 16.4221 6.91122C16.2659 6.75504 16.0546 6.66719 15.8337 6.66708H13.3337C12.8735 6.66708 12.5 6.29358 12.5 5.83334C12.5 5.37311 12.8735 4.9996 13.3337 4.9996H15.8337C16.4966 4.99971 17.1326 5.26328 17.6013 5.73203C18.0701 6.20077 18.3336 6.83671 18.3337 7.4996V14.9996C18.3337 15.6625 18.0699 16.2984 17.6013 16.7672C17.1326 17.2359 16.4966 17.4995 15.8337 17.4996H4.16626C3.50336 17.4995 2.86743 17.2359 2.39868 16.7672C1.9301 16.2984 1.66626 15.6625 1.66626 14.9996ZM9.16626 3.33334C9.16626 2.87311 9.53976 2.4996 10 2.4996C10.4602 2.4996 10.8337 2.87311 10.8337 3.33334V9.65414L11.9104 8.57748C12.2358 8.25205 12.7642 8.25205 13.0896 8.57748C13.4147 8.9028 13.4146 9.43006 13.0896 9.75546L10.5896 12.2555C10.2642 12.5809 9.73584 12.5809 9.4104 12.2555L6.9104 9.75546C6.58544 9.43006 6.5853 8.9028 6.9104 8.57748C7.23584 8.25205 7.76416 8.25205 8.0896 8.57748L9.16626 9.65414V3.33334Z" fill="#9B9B9B"/>
</svg>
