<svg width="16" height="16" viewBox="0 0 16 16" fill="none" xmlns="http://www.w3.org/2000/svg">
<path d="M1.33301 11.9997V5.99968C1.33309 5.46936 1.54395 4.96061 1.91895 4.58562C2.29394 4.21062 2.80269 3.99977 3.33301 3.99968H5.33301C5.7012 3.99968 6 4.29848 6 4.66667C6 5.03486 5.7012 5.33366 5.33301 5.33366H3.33301C3.15631 5.33375 2.98725 5.40403 2.8623 5.52898C2.73736 5.65392 2.66708 5.82299 2.66699 5.99968V11.9997C2.66699 12.1765 2.73728 12.3463 2.8623 12.4714C2.98724 12.5962 3.15639 12.6666 3.33301 12.6667H12.667C12.8436 12.6666 13.0128 12.5962 13.1377 12.4714C13.2627 12.3463 13.333 12.1765 13.333 11.9997V5.99968C13.3329 5.82299 13.2626 5.65392 13.1377 5.52898C13.0127 5.40403 12.8437 5.33375 12.667 5.33366H10.667C10.2988 5.33366 10 5.03486 10 4.66667C10 4.29848 10.2988 3.99968 10.667 3.99968H12.667C13.1973 3.99977 13.7061 4.21062 14.0811 4.58562C14.4561 4.96061 14.6669 5.46936 14.667 5.99968V11.9997C14.667 12.53 14.4559 13.0387 14.0811 13.4137C13.7061 13.7887 13.1973 13.9996 12.667 13.9997H3.33301C2.80269 13.9996 2.29394 13.7887 1.91895 13.4137C1.54408 13.0387 1.33301 12.53 1.33301 11.9997ZM7.33301 2.66667C7.33301 2.29848 7.63181 1.99968 8 1.99968C8.36819 1.99968 8.66699 2.29848 8.66699 2.66667V7.72331L9.52832 6.86198C9.78867 6.60163 10.2113 6.60163 10.4717 6.86198C10.7318 7.12224 10.7316 7.54405 10.4717 7.80437L8.47168 9.80437C8.21133 10.0647 7.78867 10.0647 7.52832 9.80437L5.52832 7.80437C5.26835 7.54405 5.26824 7.12224 5.52832 6.86198C5.78867 6.60163 6.21133 6.60163 6.47168 6.86198L7.33301 7.72331V2.66667Z" fill="#9B9B9B"/>
</svg>
