<svg width="20" height="20" viewBox="0 0 20 20" fill="none" xmlns="http://www.w3.org/2000/svg">
<path fill-rule="evenodd" clip-rule="evenodd" d="M11.4336 3.6438C10.6232 3.09564 9.68488 2.77129 8.71391 2.7002L8.29643 2.68433C7.91721 2.68409 7.53758 2.723 7.16606 2.79907C6.44148 2.94687 5.77863 3.24725 5.15923 3.6438C4.562 4.04668 4.04714 4.5614 3.64433 5.15869C3.23469 5.76585 2.94739 6.44938 2.79961 7.16675C2.74811 7.42046 2.71553 7.67771 2.69951 7.93579H2.14287C1.7585 7.93645 1.52908 8.34816 1.70586 8.66943L3.24639 10.719C3.44525 10.9823 3.84083 10.9821 4.03984 10.719L5.54009 8.73169C5.77141 8.42463 5.58053 7.99342 5.21782 7.94067L4.61723 7.93579C4.62946 7.80577 4.6488 7.67695 4.67461 7.55127C4.77196 7.07887 4.96155 6.62913 5.23125 6.22925C5.49683 5.83532 5.8371 5.49512 6.231 5.22949C6.84064 4.81741 7.56182 4.59762 8.29765 4.59839L8.66631 4.6167C9.034 4.65334 9.39521 4.74489 9.73686 4.88892C10.175 5.07429 10.5764 5.34556 10.9124 5.68237C11.4224 6.19347 11.7723 6.84201 11.9195 7.54883C12.0193 8.04131 12.0193 8.55049 11.9195 9.04297C11.8218 9.51456 11.6323 9.96336 11.3628 10.3625C11.0974 10.7559 10.759 11.0957 10.3655 11.3611C9.75493 11.7729 9.03412 11.9933 8.29765 11.9934H7.92168V13.9063H8.29765C9.41557 13.9062 10.5093 13.5719 11.4361 12.9468C11.6151 12.8195 11.7896 12.69 11.9561 12.5464L12.0916 12.6868V13.3533L15.6805 16.9421C16.0267 17.2882 16.5929 17.2883 16.939 16.9421C17.2845 16.5961 17.2844 16.0309 16.939 15.6848L13.3587 12.0874H12.691L12.5518 11.9519C12.6934 11.7873 12.8262 11.6147 12.9485 11.4343C13.5753 10.5081 13.9086 9.41423 13.9068 8.2959C13.9071 7.91631 13.8694 7.53619 13.7933 7.16431C13.6453 6.44705 13.3583 5.76571 12.9485 5.15869C12.7475 4.86109 12.5191 4.58241 12.2649 4.32861C12.0109 4.07404 11.7317 3.84516 11.4336 3.6438Z" fill="#9B9B9B"/>
</svg>
