<svg width="20" height="20" viewBox="0 0 20 20" fill="none" xmlns="http://www.w3.org/2000/svg">
<g clip-path="url(#clip0_721_5190)">
<path fill-rule="evenodd" clip-rule="evenodd" d="M13.5774 15.0251C13.5774 15.5459 13.158 15.9845 12.6439 16.016C12.6243 16.0172 10.0281 16.0178 10.0082 16.0178C9.98833 16.0178 7.39208 16.0172 7.37247 16.016C6.85839 15.9845 6.43898 15.5459 6.43898 15.0251C6.43898 14.5042 6.85839 14.0657 7.37247 14.0342C7.39208 14.033 9.98833 14.0324 10.0082 14.0324C10.0281 14.0324 12.6243 14.033 12.6439 14.0342C13.158 14.0657 13.5774 14.5042 13.5774 15.0251ZM13.5786 7.26833C13.3129 7.00301 12.843 7.00301 12.5774 7.26833L10.7166 9.12909V3.10381C10.7166 2.72805 10.384 2.3954 10.0082 2.3954C9.63244 2.3954 9.29979 2.72805 9.29979 3.10381V9.12909L7.43903 7.26833C7.17961 6.98993 6.6889 6.98127 6.41982 7.25035C6.15075 7.51943 6.1594 8.01013 6.43781 8.26955L9.59501 11.4276C9.8232 11.6558 10.1932 11.6559 10.4215 11.4276L13.5786 8.2705C13.8419 8.00735 13.8419 7.53148 13.5786 7.26833Z" fill="#9B9B9B"/>
</g>
<defs>
<clipPath id="clip0_721_5190">
<rect width="20" height="20" fill="white"/>
</clipPath>
</defs>
</svg>
