<svg width="16" height="16" viewBox="0 0 16 16" fill="none" xmlns="http://www.w3.org/2000/svg">
<g clip-path="url(#clip0_722_5206)">
<path fill-rule="evenodd" clip-rule="evenodd" d="M9.51789 3.4276C9.51789 2.60446 8.82976 1.91632 8.00661 1.91632C7.18347 1.91632 6.49533 2.60446 6.49533 3.4276C6.49533 4.25074 7.18347 4.93888 8.00661 4.93888C8.40743 4.93888 8.79183 4.77966 9.07525 4.49624C9.35867 4.21282 9.51789 3.82842 9.51789 3.4276ZM10.8629 9.79027C10.6504 10.0025 10.2745 10.0025 10.062 9.79027L8.57334 8.30166V13.1219C8.57334 13.4225 8.30722 13.6886 8.00661 13.6886C7.706 13.6886 7.43988 13.4225 7.43988 13.1219V8.30166L5.95127 9.79027C5.74374 10.013 5.35117 10.0199 5.13591 9.80465C4.92065 9.58939 4.92757 9.19682 5.15029 8.98929L7.67605 6.46286C7.85861 6.28026 8.15463 6.28024 8.33721 6.46282L10.8629 8.98853C11.0736 9.19905 11.0736 9.57974 10.8629 9.79027Z" fill="#9B9B9B"/>
</g>
<defs>
<clipPath id="clip0_722_5206">
<rect width="16" height="16" fill="white"/>
</clipPath>
</defs>
</svg>
