<svg width="16" height="16" viewBox="0 0 16 16" fill="none" xmlns="http://www.w3.org/2000/svg">
<g clip-path="url(#clip0_721_5190)">
<path fill-rule="evenodd" clip-rule="evenodd" d="M9.51789 12.1773C9.51789 13.0005 8.82976 13.6886 8.00661 13.6886C7.18347 13.6886 6.49533 13.0005 6.49533 12.1773C6.49533 11.3542 7.18347 10.6661 8.00661 10.6661C8.40743 10.6661 8.79183 10.8253 9.07525 11.1087C9.35867 11.3921 9.51789 11.7765 9.51789 12.1773ZM10.8629 5.81467C10.6504 5.60241 10.2745 5.60241 10.062 5.81467L8.57334 7.30327V2.48305C8.57334 2.18244 8.30722 1.91632 8.00661 1.91632C7.706 1.91632 7.43988 2.18244 7.43988 2.48305V7.30327L5.95127 5.81467C5.74374 5.59194 5.35117 5.58502 5.13591 5.80028C4.92065 6.01554 4.92757 6.40811 5.15029 6.61564L7.67605 9.14207C7.85861 9.32467 8.15463 9.32469 8.33721 9.14211L10.8629 6.6164C11.0736 6.40588 11.0736 6.02519 10.8629 5.81467Z" fill="#9B9B9B"/>
</g>
<defs>
<clipPath id="clip0_721_5190">
<rect width="16" height="16" fill="white"/>
</clipPath>
</defs>
</svg>
