<svg width="20" height="20" viewBox="0 0 20 20" fill="none" xmlns="http://www.w3.org/2000/svg">
<g clip-path="url(#clip0_722_5206)">
<path fill-rule="evenodd" clip-rule="evenodd" d="M13.5774 3.38811C13.5774 2.86728 13.158 2.42874 12.6439 2.39721C12.6243 2.39601 10.0281 2.3954 10.0082 2.3954C9.98833 2.3954 7.39208 2.39601 7.37247 2.39721C6.85839 2.42874 6.43898 2.86728 6.43898 3.38811C6.43898 3.90894 6.85839 4.34749 7.37247 4.37901C7.39208 4.38022 9.98833 4.38083 10.0082 4.38083C10.0281 4.38083 12.6243 4.38022 12.6439 4.37901C13.158 4.34749 13.5774 3.90895 13.5774 3.38811ZM13.5786 11.1449C13.3129 11.4102 12.843 11.4102 12.5774 11.1449L10.7166 9.2841V15.3094C10.7166 15.6851 10.384 16.0178 10.0082 16.0178C9.63244 16.0178 9.29979 15.6851 9.29979 15.3094V9.2841L7.43903 11.1449C7.17961 11.4233 6.6889 11.4319 6.41982 11.1628C6.15075 10.8938 6.1594 10.4031 6.43781 10.1436L9.59501 6.98561C9.8232 6.75735 10.1932 6.75733 10.4215 6.98555L13.5786 10.1427C13.8419 10.4058 13.8419 10.8817 13.5786 11.1449Z" fill="#9B9B9B"/>
</g>
<defs>
<clipPath id="clip0_722_5206">
<rect width="20" height="20" fill="white"/>
</clipPath>
</defs>
</svg>
