<svg width="20" height="20" viewBox="0 0 20 20" fill="none" xmlns="http://www.w3.org/2000/svg">
<g clip-path="url(#clip0_722_5206)">
<path fill-rule="evenodd" clip-rule="evenodd" d="M11.8973 4.2845C11.8973 3.25557 11.0371 2.3954 10.0082 2.3954C8.97927 2.3954 8.11911 3.25557 8.11911 4.2845C8.11911 5.31343 8.97927 6.1736 10.0082 6.1736C10.5092 6.1736 10.9897 5.97457 11.344 5.62029C11.6983 5.26602 11.8973 4.78552 11.8973 4.2845ZM13.5786 12.2378C13.3129 12.5032 12.843 12.5032 12.5774 12.2378L10.7166 10.3771V16.4024C10.7166 16.7781 10.384 17.1108 10.0082 17.1108C9.63244 17.1108 9.29979 16.7781 9.29979 16.4024V10.3771L7.43903 12.2378C7.17961 12.5162 6.6889 12.5249 6.41982 12.2558C6.15075 11.9867 6.1594 11.496 6.43781 11.2366L9.59501 8.07858C9.8232 7.85032 10.1932 7.8503 10.4215 8.07852L13.5786 11.2357C13.8419 11.4988 13.8419 11.9747 13.5786 12.2378Z" fill="#9B9B9B"/>
</g>
<defs>
<clipPath id="clip0_722_5206">
<rect width="20" height="20" fill="white"/>
</clipPath>
</defs>
</svg>
