<svg width="20" height="20" viewBox="0 0 20 20" fill="none" xmlns="http://www.w3.org/2000/svg">
<g clip-path="url(#clip0_721_5190)">
<path fill-rule="evenodd" clip-rule="evenodd" d="M11.8973 15.2217C11.8973 16.2506 11.0371 17.1108 10.0082 17.1108C8.97927 17.1108 8.11911 16.2506 8.11911 15.2217C8.11911 14.1927 8.97927 13.3326 10.0082 13.3326C10.5092 13.3326 10.9897 13.5316 11.344 13.8859C11.6983 14.2401 11.8973 14.7206 11.8973 15.2217ZM13.5786 7.26833C13.3129 7.00301 12.843 7.00301 12.5774 7.26833L10.7166 9.12909V3.10381C10.7166 2.72805 10.384 2.3954 10.0082 2.3954C9.63244 2.3954 9.29979 2.72805 9.29979 3.10381V9.12909L7.43903 7.26833C7.17961 6.98993 6.6889 6.98127 6.41982 7.25035C6.15075 7.51943 6.1594 8.01013 6.43781 8.26955L9.59501 11.4276C9.8232 11.6558 10.1932 11.6559 10.4215 11.4276L13.5786 8.2705C13.8419 8.00735 13.8419 7.53148 13.5786 7.26833Z" fill="#9B9B9B"/>
</g>
<defs>
<clipPath id="clip0_721_5190">
<rect width="20" height="20" fill="white"/>
</clipPath>
</defs>
</svg>
