<svg width="20" height="20" viewBox="0 0 20 20" fill="none" xmlns="http://www.w3.org/2000/svg">
<path d="M13.0512 11.8013H12.4093L12.1817 11.5819C13.0057 10.6263 13.4585 9.40634 13.4575 8.14462C13.4575 7.09996 13.1477 6.07877 12.5674 5.21018C11.987 4.34158 11.1621 3.66459 10.1969 3.26482C9.2318 2.86505 8.16979 2.76045 7.14521 2.96425C6.12064 3.16806 5.1795 3.6711 4.44082 4.40978C3.70214 5.14846 3.19909 6.0896 2.99529 7.11418C2.79149 8.13876 2.89609 9.20076 3.29586 10.1659C3.69563 11.131 4.37262 11.9559 5.24121 12.5363C6.10981 13.1167 7.131 13.4265 8.17565 13.4265C9.48393 13.4265 10.6866 12.947 11.6129 12.1507L11.8323 12.3782V13.0202L15.8953 17.075L17.106 15.8642L13.0512 11.8013ZM8.17565 11.8013C6.1523 11.8013 4.51899 10.168 4.51899 8.14462C4.51899 6.12126 6.1523 4.48795 8.17565 4.48795C10.199 4.48795 11.8323 6.12126 11.8323 8.14462C11.8323 10.168 10.199 11.8013 8.17565 11.8013Z" fill="#9B9B9B"/>
</svg>
