<svg width="16" height="16" viewBox="0 0 16 16" fill="none" xmlns="http://www.w3.org/2000/svg">
<path fill-rule="evenodd" clip-rule="evenodd" d="M10.6118 8.46726C11.7963 8.46726 12.7565 9.42746 12.7565 10.6119C12.7565 11.7963 11.7963 12.7565 10.6118 12.7565C9.62775 12.7565 8.801 12.093 8.54861 11.1894H4.34329C4.02436 11.1894 3.76579 10.9308 3.76579 10.6119C3.76579 10.293 4.02436 10.0344 4.34329 10.0344H8.54861C8.801 9.13082 9.62775 8.46726 10.6118 8.46726ZM10.6118 9.62226C10.0653 9.62226 9.6222 10.0653 9.6222 10.6119C9.6222 11.1585 10.0653 11.6015 10.6118 11.6015C11.1584 11.6015 11.6015 11.1585 11.6015 10.6119C11.6015 10.0653 11.1584 9.62226 10.6118 9.62226Z" fill="#9B9B9B"/>
<path fill-rule="evenodd" clip-rule="evenodd" d="M5.38805 3.24347C6.37214 3.24347 7.19888 3.90703 7.45127 4.8106H11.6566C11.9755 4.8106 12.2341 5.06918 12.2341 5.3881C12.2341 5.70703 11.9755 5.9656 11.6566 5.9656H7.45127C7.19888 6.86918 6.37214 7.53274 5.38805 7.53274C4.20361 7.53274 3.24341 6.57254 3.24341 5.3881C3.24341 4.20367 4.20361 3.24347 5.38805 3.24347ZM5.38805 4.39847C4.84147 4.39847 4.39841 4.84152 4.39841 5.3881C4.39841 5.93468 4.84147 6.37774 5.38805 6.37774C5.93463 6.37774 6.37768 5.93468 6.37768 5.3881C6.37768 4.84152 5.93463 4.39847 5.38805 4.39847Z" fill="#9B9B9B"/>
</svg>
