<svg width="20" height="20" viewBox="0 0 20 20" fill="none" xmlns="http://www.w3.org/2000/svg">
<path fill-rule="evenodd" clip-rule="evenodd" d="M13.2647 10.5841C14.7453 10.5841 15.9455 11.7843 15.9455 13.2649C15.9455 14.7454 14.7453 15.9457 13.2647 15.9457C12.0346 15.9457 11.0012 15.1162 10.6857 13.9868H5.42905C5.03039 13.9868 4.70717 13.6635 4.70717 13.2649C4.70717 12.8662 5.03039 12.543 5.42905 12.543H10.6857C11.0012 11.4135 12.0346 10.5841 13.2647 10.5841ZM13.2647 12.0278C12.5815 12.0278 12.0277 12.5816 12.0277 13.2649C12.0277 13.9481 12.5815 14.5019 13.2647 14.5019C13.948 14.5019 14.5018 13.9481 14.5018 13.2649C14.5018 12.5816 13.948 12.0278 13.2647 12.0278Z" fill="#9B9B9B"/>
<path fill-rule="evenodd" clip-rule="evenodd" d="M6.735 4.05434C7.96511 4.05434 8.99855 4.88379 9.31403 6.01326H14.5707C14.9693 6.01326 15.2926 6.33648 15.2926 6.73513C15.2926 7.13379 14.9693 7.45701 14.5707 7.45701H9.31403C8.99855 8.58648 7.96511 9.41593 6.735 9.41593C5.25446 9.41593 4.0542 8.21567 4.0542 6.73513C4.0542 5.25459 5.25446 4.05434 6.735 4.05434ZM6.735 5.49809C6.05177 5.49809 5.49795 6.05191 5.49795 6.73513C5.49795 7.41836 6.05177 7.97218 6.735 7.97218C7.41822 7.97218 7.97204 7.41836 7.97204 6.73513C7.97204 6.05191 7.41822 5.49809 6.735 5.49809Z" fill="#9B9B9B"/>
</svg>
