<svg width="20" height="20" viewBox="0 0 20 20" fill="none" xmlns="http://www.w3.org/2000/svg">
<path d="M8.93393 4.6694H11.0662V6.80164H8.93393V4.6694ZM5.20251 7.3347H14.7976V8.40082H5.20251V7.3347ZM8.40087 8.40082H9.46699V12.1322H8.40087V8.40082ZM10.5331 8.40082H11.5992V12.1322H10.5331V8.40082ZM8.40087 12.1322H9.46699V15.3306H8.40087V12.1322ZM10.5331 12.1322H11.5992V15.3306H10.5331V12.1322ZM9.46699 11.0661H10.5331V12.1322H9.46699V11.0661Z" fill="#0898FF"/>
<path d="M6.40039 14.0039L2.40137 17.8418V16.2285L6.40039 12.3896V14.0039Z" fill="#0898FF"/>
<path d="M6.40039 17.3301H7.74121L7.22949 17.8418H5.57324L6.40039 17.0166V17.3301Z" fill="#0898FF"/>
<path d="M11.3262 17.8418H9.6709L10.1826 17.3301H11.8379L11.3262 17.8418Z" fill="#0898FF"/>
<path d="M18.1084 15.1572L15.4238 17.8418H13.7686L18.1084 13.502V15.1572Z" fill="#0898FF"/>
<path d="M18.1084 11.0596L13.5986 15.5693V13.9141L18.1084 9.4043V11.0596Z" fill="#0898FF"/>
<path d="M9.4668 15.3301H8.40039V15.0215L9.4668 13.958V15.3301Z" fill="#0898FF"/>
<path d="M11.5986 13.4717L10.5332 14.5371V12.8945L11.5986 11.832V13.4717Z" fill="#0898FF"/>
<path d="M6.2793 10.4004L2.33398 14.335V12.7119L4.64551 10.4004H6.2793Z" fill="#0898FF"/>
<path d="M9.4668 11.0605L8.40039 12.084V10.4697L9.4668 9.44629V11.0605Z" fill="#0898FF"/>
<path d="M13.5986 11.4717V10.4004H14.6699L13.5986 11.4717Z" fill="#0898FF"/>
<path d="M3.20215 9.4873L2.36816 10.3213V8.66602L3.20215 7.83203V9.4873Z" fill="#0898FF"/>
<path d="M13.3506 7.33398L12.2393 8.40039H11.5986V9.01465L10.5332 10.0371V8.42285L11.668 7.33398H13.3506Z" fill="#0898FF"/>
<path d="M9.35449 7.33398L8.28516 8.40039H6.64551L7.71191 7.33398H9.35449Z" fill="#0898FF"/>
<path d="M18.1084 6.96191L16.7969 8.27344V6.64746L18.1084 5.33984V6.96191Z" fill="#0898FF"/>
<path d="M5.35547 7.33398L5.20215 7.4873V7.33398H5.35547Z" fill="#0898FF"/>
<path d="M11.0654 4.66895V5.62695L9.88867 6.80078H8.93359V6.1123L10.3779 4.66895H11.0654Z" fill="#0898FF"/>
<path d="M3.25781 5.33398H3.20215V5.38965L2.36816 6.22363V4.56836L5.05273 1.88379H6.70801L3.25781 5.33398Z" fill="#0898FF"/>
<path d="M17.2939 1.93457C17.6943 2.02938 18.0539 2.25143 18.3174 2.56738L15.4346 5.33398H13.752L17.2939 1.93457Z" fill="#0898FF"/>
<path d="M6.93359 5.33398H5.7002L6.93359 4.10059V5.33398Z" fill="#0898FF"/>
<path d="M13.0654 3.63184V2.66895H12.3779L13.2139 1.83301H14.8701L13.0654 3.63184Z" fill="#0898FF"/>
<path d="M10.0205 2.66895H8.36523L9.15039 1.88379H10.8057L10.0205 2.66895Z" fill="#0898FF"/>
</svg>
