<svg width="20" height="20" viewBox="0 0 20 20" fill="none" xmlns="http://www.w3.org/2000/svg">
<path d="M9.87012 10.3477C9.99863 10.3221 10.1331 10.3346 10.2559 10.3857L16.2559 12.8857C16.5037 12.989 16.665 13.2315 16.665 13.5C16.665 13.7685 16.5037 14.011 16.2559 14.1143L10.2559 16.6143C10.0922 16.6824 9.90779 16.6824 9.74414 16.6143L3.74414 14.1143C3.49633 14.011 3.33496 13.7685 3.33496 13.5C3.33496 13.2315 3.49633 12.989 3.74414 12.8857L9.74414 10.3857L9.87012 10.3477ZM5.72949 13.5L10 15.2783L14.2695 13.5L10 11.7207L5.72949 13.5Z" fill="#9B9B9B"/>
<path d="M12.5924 6.39414C12.8206 6.63132 12.8224 7.00588 12.5965 7.24523L10.4516 9.51753C10.2047 9.77904 9.78866 9.77881 9.5421 9.51701L7.40278 7.24543C7.17719 7.0059 7.17919 6.63151 7.40732 6.39439C7.65203 6.14004 8.05983 6.14235 8.30165 6.39946L9.4 7.56725L9.4 3.59957C9.4 3.2682 9.66863 2.99957 10 2.99957C10.3314 2.99957 10.6 3.2682 10.6 3.59957L10.6 7.56725L11.6986 6.3992C11.9403 6.14223 12.3479 6.13992 12.5924 6.39414Z" fill="#9B9B9B"/>
</svg>
