<svg width="20" height="20" viewBox="0 0 20 20" fill="none" xmlns="http://www.w3.org/2000/svg">
<path d="M14.067 16.1006L11.6971 13.7306C11.5711 13.6046 11.6603 13.3892 11.8385 13.3892H13.1892C13.2996 13.3892 13.3892 13.2997 13.3892 13.1892V6.81081C13.3892 6.70035 13.2996 6.61081 13.1892 6.61081H11.8385C11.6603 6.61081 11.5711 6.39538 11.6971 6.26938L13.9256 4.04087C14.0037 3.96276 14.1303 3.96276 14.2084 4.04087L16.4369 6.26938C16.5629 6.39538 16.4737 6.61081 16.2955 6.61081H14.9448C14.8344 6.61081 14.7448 6.70035 14.7448 6.81081V13.1892C14.7448 13.2997 14.8344 13.3892 14.9448 13.3892H16.7784M3.22156 14.7449V13.5892C3.22156 13.4788 3.3111 13.3892 3.42156 13.3892H9.79996C9.91042 13.3892 9.99996 13.4788 9.99996 13.5892V14.7449M3.22156 10.6778V9.52217C3.22156 9.41171 3.3111 9.32217 3.42156 9.32217H7.76644C7.8769 9.32217 7.96644 9.41171 7.96644 9.52217V10.6778M3.42156 6.61081C3.3111 6.61081 3.22156 6.52126 3.22156 6.41081V5.45513C3.22156 5.34467 3.3111 5.25512 3.42156 5.25512H5.73292C5.84338 5.25512 5.93292 5.34467 5.93292 5.45512V6.4108C5.93292 6.52126 5.84338 6.61081 5.73292 6.61081H3.42156Z" fill="#9B9B9B"/>
</svg>
