<svg width="20" height="20" viewBox="0 0 20 20" fill="none" xmlns="http://www.w3.org/2000/svg">
<path d="M6.02505 15.1207C7.27214 16.0902 8.83033 16.5709 10.4069 16.4725C11.9834 16.3742 13.4697 15.7036 14.5867 14.5866C15.7036 13.4697 16.3743 11.9833 16.4726 10.4068C16.571 8.83025 16.0902 7.27207 15.1208 6.02497L6.02505 15.1207ZM4.87938 13.975L13.9751 4.8793C12.728 3.90983 11.1698 3.4291 9.59329 3.52745C8.01676 3.62579 6.53039 4.29643 5.41345 5.41338C4.29651 6.53032 3.62587 8.01668 3.52752 9.59321C3.42918 11.1697 3.9099 12.7279 4.87938 13.975ZM10.0001 18.1024C5.52513 18.1024 1.89771 14.4749 1.89771 9.99999C1.89771 5.52506 5.52513 1.89763 10.0001 1.89763C14.475 1.89763 18.1024 5.52506 18.1024 9.99999C18.1024 14.4749 14.475 18.1024 10.0001 18.1024Z" fill="#D7184B"/>
</svg>
