<svg width="16" height="16" viewBox="0 0 16 16" fill="none" xmlns="http://www.w3.org/2000/svg">
<path d="M4.82006 12.0965C5.81774 12.8721 7.06429 13.2567 8.32551 13.178C9.58673 13.0994 10.7758 12.5628 11.6694 11.6693C12.5629 10.7757 13.0994 9.58664 13.1781 8.32542C13.2568 7.06419 12.8722 5.81765 12.0966 4.81997L4.82006 12.0965ZM3.90352 11.18L11.1801 3.90343C10.1824 3.12786 8.93588 2.74328 7.67465 2.82195C6.41343 2.90063 5.22434 3.43714 4.33079 4.33069C3.43723 5.22425 2.90072 6.41334 2.82204 7.67456C2.74337 8.93578 3.12795 10.1823 3.90352 11.18ZM8.00008 14.4819C4.42013 14.4819 1.51819 11.5799 1.51819 7.99999C1.51819 4.42004 4.42013 1.5181 8.00008 1.5181C11.58 1.5181 14.482 4.42004 14.482 7.99999C14.482 11.5799 11.58 14.4819 8.00008 14.4819Z" fill="#D7184B"/>
</svg>
