<svg width="16" height="16" viewBox="0 0 16 16" fill="none" xmlns="http://www.w3.org/2000/svg">
<path fill-rule="evenodd" clip-rule="evenodd" d="M8.00011 9.37011C8.36339 9.37011 8.71178 9.2258 8.96866 8.96892C9.22554 8.71204 9.36985 8.36365 9.36985 8.00037C9.36985 7.63709 9.22554 7.28869 8.96866 7.03182C8.71178 6.77494 8.36339 6.63063 8.00011 6.63063C7.63683 6.63063 7.28843 6.77494 7.03156 7.03182C6.77468 7.28869 6.63037 7.63709 6.63037 8.00037C6.63037 8.36365 6.77468 8.71204 7.03156 8.96892C7.28843 9.2258 7.63683 9.37011 8.00011 9.37011Z" fill="#1B1B1B"/>
<path opacity="0.8" fill-rule="evenodd" clip-rule="evenodd" d="M5.04054 5.15C5.32818 4.8514 5.80485 4.95824 6.01031 5.31802C6.18381 5.61936 6.09889 5.99741 5.87882 6.26771C5.47908 6.75687 5.26068 7.36916 5.26061 8.00088C5.26061 8.65836 5.49255 9.26196 5.87882 9.73406C6.09889 10.0044 6.1829 10.3824 6.01031 10.6837C5.80485 11.0435 5.32818 11.1504 5.04054 10.8518C4.30292 10.086 3.89083 9.06413 3.89087 8.00088C3.89087 6.89322 4.32827 5.88874 5.04054 5.15ZM9.99077 5.31802C9.81727 5.61936 9.90128 5.99741 10.1223 6.26771C10.5076 6.7389 10.7396 7.34341 10.7396 8.00088C10.7396 8.65836 10.5076 9.26196 10.1214 9.73406C9.90037 10.0044 9.81727 10.3824 9.98986 10.6837C10.1953 11.0435 10.672 11.1504 10.9596 10.8518C11.6973 10.086 12.1093 9.06413 12.1093 8.00088C12.1093 6.89322 11.671 5.88874 10.9587 5.15C10.672 4.8514 10.1962 4.95824 9.99077 5.31802Z" fill="#4F4F4F"/>
<path opacity="0.5" fill-rule="evenodd" clip-rule="evenodd" d="M3.6726 2.69126C3.98034 2.44105 4.42961 2.55063 4.62594 2.89489C4.80583 3.20902 4.70812 3.60441 4.43418 3.84001C3.83361 4.35404 3.35159 4.99214 3.02133 5.71036C2.69107 6.42858 2.52041 7.20985 2.52111 8.00036C2.52041 8.79087 2.69107 9.57215 3.02133 10.2904C3.35159 11.0086 3.83361 11.6467 4.43418 12.1607C4.70812 12.3963 4.80583 12.7908 4.62594 13.1049C4.42961 13.4501 3.98034 13.5597 3.6726 13.3086C2.88429 12.6667 2.24897 11.8573 1.81284 10.939C1.3767 10.0208 1.15074 9.0169 1.15137 8.00036C1.1506 6.98367 1.3765 5.97958 1.81264 5.06119C2.24878 4.14279 2.88418 3.33317 3.6726 2.69126ZM11.3742 2.89489C11.1943 3.20902 11.292 3.60441 11.5659 3.84001C12.1665 4.35404 12.6485 4.99214 12.9788 5.71036C13.3091 6.42858 13.4797 7.20985 13.479 8.00036C13.4797 8.79087 13.3091 9.57215 12.9788 10.2904C12.6485 11.0086 12.1665 11.6467 11.5659 12.1607C11.292 12.3963 11.1943 12.7908 11.3742 13.1049C11.5705 13.4501 12.0198 13.5597 12.3275 13.3086C13.1158 12.6667 13.7512 11.8573 14.1873 10.939C14.6234 10.0208 14.8494 9.0169 14.8488 8.00036C14.8495 6.98367 14.6236 5.97958 14.1875 5.06119C13.7513 4.14279 13.1159 3.33317 12.3275 2.69126C12.0198 2.44105 11.5705 2.55063 11.3742 2.89489Z" fill="#060606"/>
</svg>
