<svg width="20" height="20" viewBox="0 0 20 20" fill="none" xmlns="http://www.w3.org/2000/svg">
<path fill-rule="evenodd" clip-rule="evenodd" d="M10.0001 11.7126C10.4542 11.7126 10.8897 11.5322 11.2108 11.2111C11.5319 10.8901 11.7123 10.4546 11.7123 10.0005C11.7123 9.54636 11.5319 9.11086 11.2108 8.78977C10.8897 8.46867 10.4542 8.28828 10.0001 8.28828C9.54604 8.28828 9.11054 8.46867 8.78945 8.78977C8.46835 9.11086 8.28796 9.54636 8.28796 10.0005C8.28796 10.4546 8.46835 10.8901 8.78945 11.2111C9.11054 11.5322 9.54604 11.7126 10.0001 11.7126Z" fill="#34C759"/>
<path opacity="0.7" fill-rule="evenodd" clip-rule="evenodd" d="M6.30049 6.4375C6.66004 6.06425 7.25588 6.1978 7.51271 6.64753C7.72958 7.02421 7.62343 7.49677 7.34834 7.83464C6.84866 8.44609 6.57566 9.21145 6.57558 10.0011C6.57558 10.8229 6.86551 11.5774 7.34834 12.1676C7.62343 12.5054 7.72844 12.978 7.51271 13.3547C7.25588 13.8044 6.66004 13.938 6.30049 13.5647C5.37847 12.6075 4.86336 11.3302 4.8634 10.0011C4.8634 8.61653 5.41016 7.36093 6.30049 6.4375ZM12.4883 6.64753C12.2714 7.02421 12.3764 7.49677 12.6527 7.83464C13.1343 8.42362 13.4243 9.17926 13.4243 10.0011C13.4243 10.8229 13.1343 11.5774 12.6515 12.1676C12.3753 12.5054 12.2714 12.978 12.4871 13.3547C12.744 13.8044 13.3398 13.938 13.6994 13.5647C14.6214 12.6075 15.1365 11.3302 15.1364 10.0011C15.1364 8.61653 14.5885 7.36093 13.6982 6.4375C13.3398 6.06425 12.7451 6.1978 12.4883 6.64753Z" fill="#34C759"/>
<path opacity="0.3" fill-rule="evenodd" clip-rule="evenodd" d="M4.59075 3.36408C4.97542 3.05132 5.53701 3.18829 5.78242 3.61862C6.00729 4.01128 5.88515 4.50552 5.54272 4.80002C4.79201 5.44256 4.18949 6.24018 3.77666 7.13795C3.36384 8.03573 3.15051 9.01232 3.15138 10.0005C3.15051 10.9886 3.36384 11.9652 3.77666 12.863C4.18949 13.7607 4.79201 14.5584 5.54272 15.2009C5.88515 15.4954 6.00729 15.9885 5.78242 16.3812C5.53701 16.8126 4.97542 16.9496 4.59075 16.6357C3.60537 15.8334 2.81121 14.8216 2.26604 13.6738C1.72088 12.526 1.43842 11.2711 1.43921 10.0005C1.43825 8.72959 1.72063 7.47449 2.2658 6.32649C2.81097 5.17849 3.60522 4.16647 4.59075 3.36408ZM14.2177 3.61862C13.9929 4.01128 14.115 4.50552 14.4574 4.80002C15.2081 5.44256 15.8107 6.24018 16.2235 7.13795C16.6363 8.03573 16.8496 9.01232 16.8488 10.0005C16.8496 10.9886 16.6363 11.9652 16.2235 12.863C15.8107 13.7607 15.2081 14.5584 14.4574 15.2009C14.115 15.4954 13.9929 15.9885 14.2177 16.3812C14.4631 16.8126 15.0247 16.9496 15.4094 16.6357C16.3948 15.8334 17.1889 14.8216 17.7341 13.6738C18.2793 12.526 18.5617 11.2711 18.5609 10.0005C18.5619 8.72959 18.2795 7.47449 17.7344 6.32649C17.1892 5.17849 16.3949 4.16647 15.4094 3.36408C15.0247 3.05132 14.4631 3.18829 14.2177 3.61862Z" fill="#34C759"/>
</svg>
