<svg width="20" height="20" viewBox="0 0 20 20" fill="none" xmlns="http://www.w3.org/2000/svg">
<path fill-rule="evenodd" clip-rule="evenodd" d="M6.74072 4.50806C7.14699 4.5454 7.53218 4.71126 7.84058 4.98291L9.32739 6.29028C9.45175 6.39988 9.61209 6.4609 9.77783 6.46118H14.5752C15.0876 6.46118 15.58 6.66411 15.9424 7.02637C16.3048 7.38876 16.5088 7.88105 16.5088 8.39355V14.2505C16.5088 14.9408 15.9491 15.5005 15.2588 15.5005H5.42358C4.91122 15.5004 4.41993 15.2964 4.05762 14.9341C3.69536 14.5717 3.49125 14.0805 3.49121 13.5681V6.43188C3.49124 5.91947 3.69532 5.42828 4.05762 5.06592C4.41993 4.7036 4.9112 4.49961 5.42358 4.49951H6.56494L6.74072 4.50806ZM15.2588 8.39355V13.6255C15.2588 13.9707 14.979 14.2505 14.6338 14.2505H5.42358C5.24274 14.2504 5.0693 14.1782 4.94141 14.0503C4.81356 13.9224 4.74125 13.749 4.74121 13.5681V6.43188C4.74124 6.25099 4.81353 6.07765 4.94141 5.94971C5.0693 5.82181 5.24272 5.74961 5.42358 5.74951H6.56372L6.68701 5.7605C6.80803 5.7827 6.92192 5.83805 7.01538 5.92041L8.50098 7.22778L8.6377 7.33765C8.96728 7.5788 9.36644 7.71094 9.77783 7.71118H14.5752C14.7561 7.71118 14.9306 7.78233 15.0586 7.91016C15.1866 8.03813 15.2588 8.21257 15.2588 8.39355Z" fill="#9B9B9B"/>
</svg>
