<svg width="20" height="20" viewBox="0 0 20 20" fill="none" xmlns="http://www.w3.org/2000/svg">
<path fill-rule="evenodd" clip-rule="evenodd" d="M6.45512 10.9541L10.1225 14.6222C10.2629 14.7626 10.4532 14.8419 10.6518 14.8427C10.8504 14.8436 11.0413 14.7659 11.183 14.6267L14.5348 11.3352C14.6772 11.1951 14.7581 11.0043 14.7598 10.8045C14.7615 10.6048 14.6838 10.4126 14.5438 10.2702L10.8772 6.53426C10.7721 6.42705 10.6467 6.34186 10.5083 6.28367C10.37 6.22547 10.2214 6.19544 10.0713 6.19531H6.87691C6.67715 6.19531 6.48557 6.27467 6.34431 6.41592C6.20306 6.55718 6.1237 6.74876 6.1237 6.94852V10.1549C6.12374 10.3034 6.15302 10.4503 6.20989 10.5875C6.26675 10.7246 6.35008 10.8492 6.45512 10.9541ZM11.6839 5.74188C11.4735 5.52766 11.2225 5.35751 10.9456 5.24137C10.6688 5.12524 10.3715 5.06545 10.0713 5.06551H6.87691C6.3775 5.06551 5.89855 5.26389 5.54542 5.61703C5.19228 5.97016 4.9939 6.44911 4.9939 6.94852V10.1549C4.99386 10.4518 5.05231 10.7457 5.16591 11.0199C5.27951 11.2942 5.44603 11.5434 5.65596 11.7532L9.32407 15.4213C9.6752 15.7722 10.1507 15.9702 10.647 15.9723C11.1434 15.9744 11.6205 15.7805 11.9746 15.4326L15.3264 12.1411C15.6826 11.7912 15.8853 11.3141 15.8898 10.8148C15.8943 10.3155 15.7003 9.83484 15.3505 9.47854L11.6839 5.74188ZM8.38332 9.20814C8.63302 9.20814 8.8725 9.10894 9.04907 8.93238C9.22563 8.75581 9.32483 8.51633 9.32483 8.26663C9.32483 8.01693 9.22563 7.77745 9.04907 7.60088C8.8725 7.42432 8.63302 7.32512 8.38332 7.32512C8.13362 7.32512 7.89414 7.42432 7.71758 7.60088C7.54101 7.77745 7.44181 8.01693 7.44181 8.26663C7.44181 8.51633 7.54101 8.75581 7.71758 8.93238C7.89414 9.10894 8.13362 9.20814 8.38332 9.20814Z" fill="#E4E4E4"/>
</svg>
