<svg width="20" height="20" viewBox="0 0 20 20" fill="none" xmlns="http://www.w3.org/2000/svg">
<path fill-rule="evenodd" clip-rule="evenodd" d="M5.65776 11.0411L10.0586 15.4428C10.2271 15.6113 10.4554 15.7065 10.6938 15.7075C10.9321 15.7085 11.1612 15.6153 11.3312 15.4483L15.3533 11.4984C15.5242 11.3304 15.6214 11.1013 15.6234 10.8617C15.6254 10.622 15.5322 10.3913 15.3642 10.2204L10.9642 5.73732C10.8381 5.60868 10.6877 5.50645 10.5216 5.43662C10.3556 5.36678 10.1773 5.33074 9.99713 5.33059H6.16391C5.9242 5.33059 5.6943 5.42582 5.5248 5.59532C5.35529 5.76483 5.26007 5.99472 5.26007 6.23444V10.0821C5.2601 10.2603 5.29525 10.4366 5.36349 10.6012C5.43172 10.7657 5.53172 10.9152 5.65776 11.0411ZM11.9323 4.78648C11.6798 4.5294 11.3787 4.32522 11.0464 4.18586C10.7141 4.0465 10.3574 3.97476 9.99713 3.97482H6.16391C5.56463 3.97482 4.98988 4.21289 4.56612 4.63665C4.14236 5.06041 3.9043 5.63515 3.9043 6.23444V10.0821C3.90425 10.4383 3.9744 10.791 4.11072 11.1201C4.24704 11.4492 4.44686 11.7482 4.69878 12.0001L9.10051 16.4018C9.52186 16.8228 10.0924 17.0604 10.688 17.063C11.2837 17.0655 11.8562 16.8328 12.2811 16.4154L16.3033 12.4656C16.7307 12.0457 16.9739 11.4732 16.9794 10.874C16.9848 10.2748 16.752 9.69802 16.3322 9.27046L11.9323 4.78648ZM7.97161 8.94598C8.27125 8.94598 8.55862 8.82695 8.7705 8.61507C8.98238 8.40319 9.10142 8.11582 9.10142 7.81617C9.10142 7.51653 8.98238 7.22916 8.7705 7.01728C8.55862 6.8054 8.27125 6.68636 7.97161 6.68636C7.67196 6.68636 7.38459 6.8054 7.17271 7.01728C6.96083 7.22916 6.8418 7.51653 6.8418 7.81617C6.8418 8.11582 6.96083 8.40319 7.17271 8.61507C7.38459 8.82695 7.67196 8.94598 7.97161 8.94598Z" fill="#9B9B9B"/>
</svg>
