<svg width="20" height="20" viewBox="0 0 20 20" fill="none" xmlns="http://www.w3.org/2000/svg">
<path fill-rule="evenodd" clip-rule="evenodd" d="M9.56177 3.36744C9.56173 4.39565 9.56169 5.22682 9.64966 5.88126C9.74188 6.56664 9.93946 7.14433 10.3984 7.60326C10.8895 8.04484 11.4658 8.26393 12.1204 8.35196C12.7745 8.43993 13.8485 8.43989 14.8759 8.43985C14.8859 8.58579 14.8873 8.79597 14.8873 9.1267L14.8951 10.692H16.0379L16.038 9.1267C16.038 8.55099 16.0478 8.10277 15.8785 7.69278C15.7087 7.28217 15.3842 6.97317 14.9768 6.56648H14.9784L11.3733 2.95971C11.022 2.60842 10.7536 2.33201 10.4081 2.16706C10.3416 2.13521 10.2742 2.10547 10.2047 2.0808L10.2014 2.07917L9.92636 2.00756C9.64327 1.95663 9.33367 1.96198 8.96119 1.96198L8.91471 1.96198C7.71596 1.96197 8.01528 1.96196 7.26196 2.04988C6.48654 2.14039 5.84578 2.32989 5.30884 2.76277C5.10806 2.92491 4.92541 3.1086 4.76359 3.30964C4.3309 3.84688 4.14122 4.48707 4.0507 5.26277L3.96326 10.452H5.11273C5.1089 9.70589 5.11146 8.95973 5.1119 8.21361C5.1119 6.96448 5.11383 6.07738 5.19328 5.39623C5.27132 4.72747 5.41731 4.33049 5.65878 4.03067C5.80099 3.85398 5.96685 3.70554 6.14868 3.57169C6.4341 3.38094 6.81076 3.2607 7.39543 3.19245C8.07628 3.113 7.71279 3.11107 8.96119 3.11107C9.25199 3.11107 9.43493 3.113 9.56177 3.12084V3.29825L9.56177 3.36744ZM11.2122 6.78946C11.0024 6.57967 10.864 6.28485 10.789 5.72663C10.7276 5.26925 10.717 4.69331 10.7141 3.9265L14.0719 7.28588C13.3059 7.28299 12.7303 7.27409 12.2734 7.21264C11.716 7.13765 11.4215 7.00035 11.2122 6.79109V6.78946Z" fill="#9B9B9B"/>
<path d="M16.0381 12.9123V17.4123H15.2427V12.9123H16.0381Z" fill="#9B9B9B"/>
<path d="M9.91138 17.4122V14.0372H10.6716V14.6107H10.7112C10.7815 14.4174 10.8979 14.2665 11.0605 14.1581C11.2231 14.0482 11.4172 13.9933 11.6428 13.9933C11.8713 13.9933 12.064 14.049 12.2207 14.1603C12.3789 14.2702 12.4902 14.4203 12.5547 14.6107H12.5898C12.6646 14.4232 12.7905 14.2738 12.9678 14.1625C13.1465 14.0497 13.3582 13.9933 13.6028 13.9933C13.9133 13.9933 14.1667 14.0914 14.363 14.2877C14.5593 14.484 14.6575 14.7704 14.6575 15.1469V17.4122H13.8599V15.2699C13.8599 15.0604 13.8042 14.9074 13.6929 14.8107C13.5815 14.7125 13.4453 14.6635 13.2842 14.6635C13.0923 14.6635 12.9421 14.7235 12.8337 14.8436C12.7268 14.9623 12.6733 15.1168 12.6733 15.3073V17.4122H11.8933V15.237C11.8933 15.0626 11.8406 14.9235 11.7351 14.8195C11.6311 14.7155 11.4949 14.6635 11.3264 14.6635C11.2122 14.6635 11.1082 14.6928 11.0144 14.7514C10.9207 14.8085 10.8459 14.8898 10.7903 14.9953C10.7346 15.0993 10.7068 15.2208 10.7068 15.36V17.4122H9.91138Z" fill="#9B9B9B"/>
<path d="M7.84082 17.4782C7.51123 17.4782 7.22559 17.4057 6.98389 17.2606C6.74219 17.1156 6.55469 16.9127 6.42139 16.652C6.28955 16.3913 6.22363 16.0866 6.22363 15.7379C6.22363 15.3893 6.28955 15.0839 6.42139 14.8217C6.55469 14.5595 6.74219 14.3559 6.98389 14.2108C7.22559 14.0658 7.51123 13.9933 7.84082 13.9933C8.17041 13.9933 8.45606 14.0658 8.69775 14.2108C8.93945 14.3559 9.12622 14.5595 9.25806 14.8217C9.39136 15.0839 9.45801 15.3893 9.45801 15.7379C9.45801 16.0866 9.39136 16.3913 9.25806 16.652C9.12622 16.9127 8.93945 17.1156 8.69775 17.2606C8.45606 17.4057 8.17041 17.4782 7.84082 17.4782ZM7.84522 16.841C8.02393 16.841 8.17334 16.7919 8.29346 16.6937C8.41358 16.5941 8.50293 16.4608 8.56152 16.2938C8.62158 16.1268 8.65161 15.9408 8.65161 15.7357C8.65161 15.5292 8.62158 15.3424 8.56152 15.1754C8.50293 15.007 8.41358 14.8729 8.29346 14.7733C8.17334 14.6737 8.02393 14.6239 7.84522 14.6239C7.66211 14.6239 7.50977 14.6737 7.38818 14.7733C7.26807 14.8729 7.17798 15.007 7.11792 15.1754C7.05933 15.3424 7.03003 15.5292 7.03003 15.7357C7.03003 15.9408 7.05933 16.1268 7.11792 16.2938C7.17798 16.4608 7.26807 16.5941 7.38818 16.6937C7.50977 16.7919 7.66211 16.841 7.84522 16.841Z" fill="#9B9B9B"/>
<path d="M5.96143 14.0373V14.6525H4.02124V14.0373H5.96143ZM4.50024 13.2287H5.29565V16.3971C5.29565 16.5041 5.31177 16.5861 5.34399 16.6432C5.37769 16.6989 5.42163 16.737 5.47583 16.7575C5.53003 16.778 5.59009 16.7882 5.65601 16.7882C5.70581 16.7882 5.75122 16.7846 5.79224 16.7773C5.83472 16.7699 5.86694 16.7633 5.88892 16.7575L6.02295 17.3793C5.98047 17.394 5.91968 17.4101 5.84058 17.4276C5.76294 17.4452 5.66773 17.4555 5.55493 17.4584C5.35571 17.4643 5.17627 17.4342 5.0166 17.3683C4.85693 17.3009 4.73022 17.1969 4.63647 17.0563C4.54419 16.9157 4.49878 16.7399 4.50024 16.529V13.2287Z" fill="#9B9B9B"/>
<path d="M3.19315 17.4606C3.05985 17.4606 2.94559 17.4137 2.85038 17.32C2.75516 17.2262 2.70829 17.112 2.70975 16.9772C2.70829 16.8454 2.75516 16.7326 2.85038 16.6388C2.94559 16.5451 3.05985 16.4982 3.19315 16.4982C3.32205 16.4982 3.43412 16.5451 3.52933 16.6388C3.62601 16.7326 3.67508 16.8454 3.67655 16.9772C3.67508 17.0666 3.65164 17.1479 3.60623 17.2211C3.56229 17.2943 3.5037 17.3529 3.43045 17.3969C3.35868 17.4394 3.27957 17.4606 3.19315 17.4606Z" fill="#9B9B9B"/>
</svg>
