<svg width="20" height="20" viewBox="0 0 20 20" fill="none" xmlns="http://www.w3.org/2000/svg">
<path d="M15.6902 13.1093C15.69 12.4075 15.1215 11.8389 14.4197 11.8388C13.7178 11.8388 13.1484 12.4074 13.1482 13.1093C13.1482 13.8113 13.7176 14.3808 14.4197 14.3808C15.1216 14.3806 15.6902 13.8112 15.6902 13.1093ZM7.14233 11.0819C7.63487 11.478 7.97703 12.0498 8.07983 12.702H11.8533C11.9581 12.0369 12.3129 11.4562 12.821 11.0595L11.074 8.03506C10.7505 8.17946 10.3926 8.26162 10.0154 8.26162C9.62071 8.26156 9.24793 8.17092 8.91284 8.01357L7.14233 11.0819ZM4.24292 13.1093C4.24292 13.8113 4.81237 14.3808 5.5144 14.3808C6.21626 14.3806 6.78491 13.8112 6.78491 13.1093C6.78469 12.4076 6.21612 11.839 5.5144 11.8388C4.81251 11.8388 4.24314 12.4074 4.24292 13.1093ZM11.2869 5.66103C11.2869 4.959 10.7174 4.38955 10.0154 4.38955C9.31353 4.38976 8.74487 4.95913 8.74487 5.66103C8.74508 6.36276 9.31366 6.93133 10.0154 6.93154C10.7173 6.93154 11.2867 6.36289 11.2869 5.66103ZM12.6169 5.66103C12.6169 6.2309 12.4307 6.75596 12.1199 7.18447L14.0554 10.537C14.1745 10.5203 14.296 10.5087 14.4197 10.5087C15.856 10.5088 17.02 11.673 17.0203 13.1093C17.0203 14.5458 15.8561 15.7107 14.4197 15.7108C13.3084 15.7108 12.3625 15.0128 11.99 14.0321H7.94312C7.57058 15.0126 6.62551 15.7107 5.5144 15.7108C4.07783 15.7108 2.91284 14.5458 2.91284 13.1093C2.91306 11.6729 4.07797 10.5087 5.5144 10.5087C5.65175 10.5087 5.78613 10.5223 5.91772 10.5429L7.88062 7.14346C7.58787 6.72271 7.41487 6.21244 7.41479 5.66103C7.41479 4.2246 8.57899 3.05969 10.0154 3.05947C11.452 3.05947 12.6169 4.22446 12.6169 5.66103Z" fill="#0898FF"/>
</svg>
