<svg width="20" height="20" viewBox="0 0 20 20" fill="none" xmlns="http://www.w3.org/2000/svg">
<g clip-path="url(#clip0_549_3890)">
<path fill-rule="evenodd" clip-rule="evenodd" d="M4.96105 1.56042C5.80082 0.106752 7.8991 0.106674 8.73881 1.56042L12.2046 7.56366C13.0442 9.01798 11.9945 10.8357 10.3152 10.8357H3.38361C1.7046 10.8353 0.655713 9.01784 1.49528 7.56366L4.96105 1.56042ZM6.93367 7.96432C6.57211 7.96432 6.27905 8.25738 6.27905 8.61894C6.27921 8.98036 6.57221 9.27356 6.93367 9.27356C7.29509 9.27351 7.58813 8.98033 7.58829 8.61894C7.58829 8.25741 7.29519 7.96437 6.93367 7.96432ZM6.93367 2.57847C6.40199 2.57847 5.98836 3.04074 6.04698 3.56916L6.4137 6.87401C6.4432 7.13873 6.66729 7.33925 6.93367 7.33925C7.20001 7.3392 7.42416 7.13871 7.45365 6.87401L7.82037 3.56916C7.87896 3.04078 7.4653 2.57853 6.93367 2.57847Z" fill="#E64900"/>
<path d="M8.84972 17.9031C8.60535 18.1405 8.21595 18.1384 7.97413 17.8985L7.77473 17.7007C7.52633 17.4542 7.52861 17.0519 7.77979 16.8083L9.3243 15.3104H4.375C4.02982 15.3104 3.75 15.0306 3.75 14.6854V14.4253C3.75 14.0801 4.02982 13.8003 4.375 13.8003H9.3243L7.77979 12.3024C7.52861 12.0588 7.52633 11.6565 7.77473 11.4101L7.97363 11.2127C8.21565 10.9726 8.60544 10.9708 8.84974 11.2086L11.832 14.1113C12.0843 14.3569 12.0841 14.7623 11.8315 15.0075L8.84972 17.9031ZM15.0585 13.3678C14.8165 13.6079 14.4267 13.6097 14.1824 13.372L11.2001 10.4692C10.9478 10.2237 10.9481 9.81827 11.2006 9.57299L14.1824 6.67738C14.4268 6.44007 14.8162 6.44214 15.058 6.68205L15.2574 6.87986C15.5058 7.12629 15.5035 7.52862 15.2523 7.77222L13.7078 9.27013H18.6571C19.0023 9.27013 19.2821 9.54995 19.2821 9.89513V10.1552C19.2821 10.5004 19.0023 10.7802 18.6571 10.7802H13.7078L15.2523 12.2781C15.5035 12.5217 15.5058 12.924 15.2574 13.1705L15.0585 13.3678Z" fill="#E4E4E4"/>
</g>
<defs>
<clipPath id="clip0_549_3890">
<rect width="20" height="20" fill="white"/>
</clipPath>
</defs>
</svg>
