<svg width="16" height="16" viewBox="0 0 16 16" fill="none" xmlns="http://www.w3.org/2000/svg">
<path fill-rule="evenodd" clip-rule="evenodd" d="M3.96879 1.24832C4.64061 0.0853934 6.31923 0.0853305 6.991 1.24832L9.76361 6.05092C10.4353 7.21437 9.59551 8.66853 8.25207 8.66853H2.70684C1.36363 8.66825 0.524522 7.21426 1.19618 6.05092L3.96879 1.24832ZM5.54689 6.37145C5.25764 6.37145 5.02319 6.60589 5.02319 6.89514C5.02332 7.18428 5.25772 7.41884 5.54689 7.41884C5.83602 7.4188 6.07045 7.18426 6.07059 6.89514C6.07059 6.60592 5.83611 6.37149 5.54689 6.37145ZM5.54689 2.06277C5.12154 2.06277 4.79064 2.43258 4.83753 2.85532L5.13091 5.4992C5.15451 5.71098 5.33378 5.87139 5.54689 5.87139C5.75996 5.87135 5.93928 5.71096 5.96287 5.4992L6.25624 2.85532C6.30312 2.43262 5.97219 2.06282 5.54689 2.06277Z" fill="#E64900"/>
<path d="M6.47143 14L5.66143 13.1964L7.15286 11.75H3V10.625H7.15286L5.66143 9.17857L6.47143 8.375L9.36429 11.1907L6.47143 14ZM11.1 10.625L8.20714 7.80929L11.1 5L11.91 5.80357L10.4186 7.25H14.5714V8.375H10.4186L11.91 9.82143L11.1 10.625Z" fill="#E4E4E4"/>
</svg>
