<svg width="20" height="20" viewBox="0 0 20 20" fill="none" xmlns="http://www.w3.org/2000/svg">
<path d="M12.2902 9.50275C12.6601 9.73102 12.6601 10.269 12.2902 10.4972L9.1529 12.4329C8.76364 12.6731 8.26184 12.393 8.26184 11.9357L8.26184 8.06433C8.26184 7.60694 8.76364 7.32692 9.1529 7.56709L12.2902 9.50275Z" fill="#9B9B9B"/>
<path d="M9.99969 17.6615C14.1836 17.6615 17.6612 14.1913 17.6612 10C17.6612 5.81607 14.1759 2.33849 9.992 2.33849C5.80102 2.33849 2.3385 5.81607 2.3385 10C2.3385 14.1913 5.80839 17.6615 9.99969 17.6615ZM10 16.3847C6.45417 16.3847 3.62204 13.5452 3.62204 10C3.62204 6.46184 6.44648 3.6153 9.992 3.6153C13.5298 3.6153 16.3764 6.46217 16.3841 10C16.3914 13.5455 13.5378 16.3847 10 16.3847Z" fill="#9B9B9B"/>
</svg>
