<svg width="16" height="16" viewBox="0 0 16 16" fill="none" xmlns="http://www.w3.org/2000/svg">
<path d="M9.95978 7.57447C10.2764 7.76982 10.2764 8.23018 9.95977 8.42552L7.27499 10.082C6.94188 10.2875 6.51245 10.0479 6.51245 9.65648L6.51245 6.34351C6.51245 5.95209 6.94188 5.71246 7.275 5.91799L9.95978 7.57447Z" fill="#9B9B9B"/>
<path d="M7.99984 14.5565C11.5803 14.5565 14.5563 11.5868 14.5563 8C14.5563 4.41951 11.5737 1.44349 7.99325 1.44349C4.40673 1.44349 1.4436 4.41951 1.4436 8C1.4436 11.5868 4.41304 14.5565 7.99984 14.5565ZM8.00011 13.4638C4.96568 13.4638 2.54202 11.0339 2.54202 8C2.54202 4.97215 4.95909 2.53615 7.99325 2.53615C11.0208 2.53615 13.4568 4.97242 13.4634 8C13.4697 11.0342 11.0277 13.4638 8.00011 13.4638Z" fill="#9B9B9B"/>
</svg>
