<svg width="20" height="20" viewBox="0 0 20 20" fill="none" xmlns="http://www.w3.org/2000/svg">
<path fill-rule="evenodd" clip-rule="evenodd" d="M7.89405 5.43593C8.8305 3.81492 11.1703 3.81483 12.1067 5.43593L15.9714 12.1303C16.9078 13.752 15.7371 15.7789 13.8645 15.7789H6.13502C4.26272 15.7786 3.09309 13.7518 4.02931 12.1303L7.89405 5.43593ZM10.0938 12.577C9.69058 12.577 9.36378 12.9038 9.36378 13.307C9.36396 13.7101 9.69069 14.037 10.0938 14.037C10.4968 14.0369 10.8236 13.71 10.8237 13.307C10.8237 12.9039 10.4969 12.5771 10.0938 12.577ZM10.0938 6.57118C9.50087 6.57118 9.03963 7.08666 9.10499 7.67592L9.51393 11.3612C9.54683 11.6564 9.79671 11.88 10.0938 11.88C10.3908 11.88 10.6407 11.6564 10.6736 11.3612L11.0825 7.67592C11.1479 7.08671 10.6866 6.57125 10.0938 6.57118Z" fill="#E64900"/>
</svg>
