<svg width="16" height="16" viewBox="0 0 16 16" fill="none" xmlns="http://www.w3.org/2000/svg">
<path d="M5.39258 3.60645C5.7176 3.63632 6.02575 3.76901 6.27246 3.98633L7.46191 5.03223C7.5614 5.1199 7.68967 5.16872 7.82227 5.16895H11.6602C12.0701 5.16895 12.464 5.33129 12.7539 5.62109C13.0438 5.91101 13.207 6.30484 13.207 6.71484V7.23555C13.207 7.346 13.1175 7.43555 13.007 7.43555H12.407C12.2966 7.43555 12.207 7.346 12.207 7.23555V6.71484C12.207 6.57006 12.1493 6.4305 12.0469 6.32812C11.9445 6.22586 11.8049 6.16895 11.6602 6.16895H7.82227C7.49315 6.16875 7.17382 6.06304 6.91016 5.87012L6.80078 5.78223L5.6123 4.73633C5.53754 4.67044 5.44643 4.62616 5.34961 4.6084L5.25098 4.59961H4.33887C4.19418 4.59969 4.05544 4.65745 3.95312 4.75977C3.85083 4.86212 3.79299 5.00079 3.79297 5.14551V10.8545C3.793 10.9992 3.85085 11.1379 3.95312 11.2402C4.05544 11.3425 4.19419 11.4003 4.33887 11.4004H8.18379C8.29425 11.4004 8.38379 11.4899 8.38379 11.6004V12.2004C8.38379 12.3108 8.29425 12.4004 8.18379 12.4004H4.33887C3.92898 12.4003 3.53594 12.2371 3.24609 11.9473C2.95628 11.6574 2.793 11.2644 2.79297 10.8545V5.14551C2.79299 4.73558 2.95626 4.34263 3.24609 4.05273C3.53595 3.76288 3.92896 3.59969 4.33887 3.59961H5.25195L5.39258 3.60645Z" fill="#4F4F4F"/>
<path fill-rule="evenodd" clip-rule="evenodd" d="M11.6992 8.10017C11.8979 8.10051 12.0591 8.26221 12.0591 8.46099V10.0028L12.0626 10.0063H13.6053C13.804 10.0065 13.9651 10.1674 13.9652 10.3662V10.809C13.9651 11.0078 13.804 11.1687 13.6053 11.1689H12.0617C12.06 11.1691 12.0583 11.1707 12.0582 11.1724V12.7255C12.0582 12.9244 11.8971 13.0861 11.6983 13.0864H11.2555C11.0567 13.0862 10.8956 12.9244 10.8956 12.7255V11.1724L10.8921 11.1689H9.33985C9.14089 11.1689 8.97821 11.0079 8.97815 10.809V10.3662C8.97824 10.1673 9.14091 10.0063 9.33985 10.0063H10.893C10.8946 10.006 10.8964 10.0044 10.8965 10.0028V8.46099C10.8965 8.26203 11.0575 8.10021 11.2564 8.10017H11.6992Z" fill="#4F4F4F"/>
</svg>
