<svg width="13" height="12" viewBox="0 0 13 12" fill="none" xmlns="http://www.w3.org/2000/svg">
<path d="M4.99585 3.3291C4.99585 3.00118 4.73002 2.73535 4.4021 2.73535H3.4646C3.13668 2.73535 2.87085 3.00118 2.87085 3.3291V4.2666C2.87085 4.59452 3.13668 4.86035 3.4646 4.86035H4.4021C4.73002 4.86035 4.99585 4.59452 4.99585 4.2666V3.3291ZM5.68335 4.2666C5.68335 4.97422 5.10971 5.54785 4.4021 5.54785H3.4646C2.75698 5.54785 2.18335 4.97422 2.18335 4.2666V3.3291C2.18335 2.62149 2.75698 2.04785 3.4646 2.04785H4.4021C5.10971 2.04785 5.68335 2.62149 5.68335 3.3291V4.2666Z" fill="#E4E4E4"/>
<path d="M9.12085 3.3291C9.12085 3.00118 8.85502 2.73535 8.5271 2.73535H7.5896C7.26168 2.73535 6.99585 3.00118 6.99585 3.3291V4.2666C6.99585 4.59452 7.26168 4.86035 7.5896 4.86035H8.5271C8.85502 4.86035 9.12085 4.59452 9.12085 4.2666V3.3291ZM9.80835 4.2666C9.80835 4.97422 9.23471 5.54785 8.5271 5.54785H7.5896C6.88198 5.54785 6.30835 4.97422 6.30835 4.2666V3.3291C6.30835 2.62149 6.88198 2.04785 7.5896 2.04785H8.5271C9.23471 2.04785 9.80835 2.62149 9.80835 3.3291V4.2666Z" fill="#E4E4E4"/>
<path d="M4.99585 7.4541C4.99585 7.12618 4.73002 6.86035 4.4021 6.86035H3.4646C3.13668 6.86035 2.87085 7.12618 2.87085 7.4541V8.3916C2.87085 8.71952 3.13668 8.98535 3.4646 8.98535H4.4021C4.73002 8.98535 4.99585 8.71952 4.99585 8.3916V7.4541ZM5.68335 8.3916C5.68335 9.09922 5.10971 9.67285 4.4021 9.67285H3.4646C2.75698 9.67285 2.18335 9.09922 2.18335 8.3916V7.4541C2.18335 6.74649 2.75698 6.17285 3.4646 6.17285H4.4021C5.10971 6.17285 5.68335 6.74649 5.68335 7.4541V8.3916Z" fill="#E4E4E4"/>
<path d="M4.49585 3.79785C4.49585 3.48719 4.24401 3.23535 3.93335 3.23535C3.62269 3.23535 3.37085 3.48719 3.37085 3.79785C3.37085 4.10851 3.62269 4.36035 3.93335 4.36035C4.24401 4.36035 4.49585 4.10851 4.49585 3.79785Z" fill="#E4E4E4"/>
<path d="M8.62085 3.79785C8.62085 3.48719 8.36901 3.23535 8.05835 3.23535C7.74769 3.23535 7.49585 3.48719 7.49585 3.79785C7.49585 4.10851 7.74769 4.36035 8.05835 4.36035C8.36901 4.36035 8.62085 4.10851 8.62085 3.79785Z" fill="#E4E4E4"/>
<path d="M4.49585 7.92285C4.49585 7.61219 4.24401 7.36035 3.93335 7.36035C3.62269 7.36035 3.37085 7.61219 3.37085 7.92285C3.37085 8.23351 3.62269 8.48535 3.93335 8.48535C4.24401 8.48535 4.49585 8.23351 4.49585 7.92285Z" fill="#E4E4E4"/>
<path d="M7.49585 6.79785C7.49585 6.48719 7.24401 6.23535 6.93335 6.23535C6.62269 6.23535 6.37085 6.48719 6.37085 6.79785C6.37085 7.10851 6.62269 7.36035 6.93335 7.36035C7.24401 7.36035 7.49585 7.10851 7.49585 6.79785Z" fill="#E4E4E4"/>
<path d="M8.62085 7.92285C8.62085 7.61219 8.36901 7.36035 8.05835 7.36035C7.74769 7.36035 7.49585 7.61219 7.49585 7.92285C7.49585 8.23351 7.74769 8.48535 8.05835 8.48535C8.36901 8.48535 8.62085 8.23351 8.62085 7.92285Z" fill="#E4E4E4"/>
<path d="M9.74585 9.04785C9.74585 8.73719 9.49401 8.48535 9.18335 8.48535C8.87269 8.48535 8.62085 8.73719 8.62085 9.04785C8.62085 9.35851 8.87269 9.61035 9.18335 9.61035C9.49401 9.61035 9.74585 9.35851 9.74585 9.04785Z" fill="#E4E4E4"/>
<path d="M9.74585 6.79785C9.74585 6.48719 9.49401 6.23535 9.18335 6.23535C8.87269 6.23535 8.62085 6.48719 8.62085 6.79785C8.62085 7.10851 8.87269 7.36035 9.18335 7.36035C9.49401 7.36035 9.74585 7.10851 9.74585 6.79785Z" fill="#E4E4E4"/>
<path d="M7.49585 9.04785C7.49585 8.73719 7.24401 8.48535 6.93335 8.48535C6.62269 8.48535 6.37085 8.73719 6.37085 9.04785C6.37085 9.35851 6.62269 9.61035 6.93335 9.61035C7.24401 9.61035 7.49585 9.35851 7.49585 9.04785Z" fill="#E4E4E4"/>
</svg>
