<svg width="17" height="16" viewBox="0 0 17 16" fill="none" xmlns="http://www.w3.org/2000/svg">
<path d="M6.6156 4.43848C6.6156 4.00125 6.26116 3.64681 5.82393 3.64681H4.57393C4.13671 3.64681 3.78227 4.00125 3.78227 4.43848V5.68848C3.78227 6.1257 4.13671 6.48014 4.57393 6.48014H5.82393C6.26116 6.48014 6.6156 6.1257 6.6156 5.68848V4.43848ZM7.53227 5.68848C7.53227 6.63196 6.76742 7.39681 5.82393 7.39681H4.57393C3.63045 7.39681 2.8656 6.63196 2.8656 5.68848V4.43848C2.8656 3.49499 3.63045 2.73014 4.57393 2.73014H5.82393C6.76742 2.73014 7.53227 3.49499 7.53227 4.43848V5.68848Z" fill="#E4E4E4"/>
<path d="M12.1156 4.43848C12.1156 4.00125 11.7612 3.64681 11.3239 3.64681H10.0739C9.63671 3.64681 9.28227 4.00125 9.28227 4.43848V5.68848C9.28227 6.1257 9.63671 6.48014 10.0739 6.48014H11.3239C11.7612 6.48014 12.1156 6.1257 12.1156 5.68848V4.43848ZM13.0323 5.68848C13.0323 6.63196 12.2674 7.39681 11.3239 7.39681H10.0739C9.13045 7.39681 8.3656 6.63196 8.3656 5.68848V4.43848C8.3656 3.49499 9.13045 2.73014 10.0739 2.73014H11.3239C12.2674 2.73014 13.0323 3.49499 13.0323 4.43848V5.68848Z" fill="#E4E4E4"/>
<path d="M6.6156 9.93848C6.6156 9.50125 6.26116 9.14681 5.82393 9.14681H4.57393C4.13671 9.14681 3.78227 9.50125 3.78227 9.93848V11.1885C3.78227 11.6257 4.13671 11.9801 4.57393 11.9801H5.82393C6.26116 11.9801 6.6156 11.6257 6.6156 11.1885V9.93848ZM7.53227 11.1885C7.53227 12.132 6.76742 12.8968 5.82393 12.8968H4.57393C3.63045 12.8968 2.8656 12.132 2.8656 11.1885V9.93848C2.8656 8.99499 3.63045 8.23014 4.57393 8.23014H5.82393C6.76742 8.23014 7.53227 8.99499 7.53227 9.93848V11.1885Z" fill="#E4E4E4"/>
<path d="M5.94897 5.06348C5.94897 4.64926 5.61319 4.31348 5.19897 4.31348C4.78476 4.31348 4.44897 4.64926 4.44897 5.06348C4.44897 5.47769 4.78476 5.81348 5.19897 5.81348C5.61319 5.81348 5.94897 5.47769 5.94897 5.06348Z" fill="#E4E4E4"/>
<path d="M11.449 5.06348C11.449 4.64926 11.1132 4.31348 10.699 4.31348C10.2848 4.31348 9.94897 4.64926 9.94897 5.06348C9.94897 5.47769 10.2848 5.81348 10.699 5.81348C11.1132 5.81348 11.449 5.47769 11.449 5.06348Z" fill="#E4E4E4"/>
<path d="M5.94897 10.5635C5.94897 10.1493 5.61319 9.81348 5.19897 9.81348C4.78476 9.81348 4.44897 10.1493 4.44897 10.5635C4.44897 10.9777 4.78476 11.3135 5.19897 11.3135C5.61319 11.3135 5.94897 10.9777 5.94897 10.5635Z" fill="#E4E4E4"/>
<path d="M9.94897 9.06348C9.94897 8.64926 9.61319 8.31348 9.19897 8.31348C8.78476 8.31348 8.44897 8.64926 8.44897 9.06348C8.44897 9.47769 8.78476 9.81348 9.19897 9.81348C9.61319 9.81348 9.94897 9.47769 9.94897 9.06348Z" fill="#E4E4E4"/>
<path d="M11.449 10.5635C11.449 10.1493 11.1132 9.81348 10.699 9.81348C10.2848 9.81348 9.94897 10.1493 9.94897 10.5635C9.94897 10.9777 10.2848 11.3135 10.699 11.3135C11.1132 11.3135 11.449 10.9777 11.449 10.5635Z" fill="#E4E4E4"/>
<path d="M12.949 12.0635C12.949 11.6493 12.6132 11.3135 12.199 11.3135C11.7848 11.3135 11.449 11.6493 11.449 12.0635C11.449 12.4777 11.7848 12.8135 12.199 12.8135C12.6132 12.8135 12.949 12.4777 12.949 12.0635Z" fill="#E4E4E4"/>
<path d="M12.949 9.06348C12.949 8.64926 12.6132 8.31348 12.199 8.31348C11.7848 8.31348 11.449 8.64926 11.449 9.06348C11.449 9.47769 11.7848 9.81348 12.199 9.81348C12.6132 9.81348 12.949 9.47769 12.949 9.06348Z" fill="#E4E4E4"/>
<path d="M9.94897 12.0635C9.94897 11.6493 9.61319 11.3135 9.19897 11.3135C8.78476 11.3135 8.44897 11.6493 8.44897 12.0635C8.44897 12.4777 8.78476 12.8135 9.19897 12.8135C9.61319 12.8135 9.94897 12.4777 9.94897 12.0635Z" fill="#E4E4E4"/>
</svg>
