<svg width="17" height="16" viewBox="0 0 17 16" fill="none" xmlns="http://www.w3.org/2000/svg">
<path d="M6.57397 4.43845C6.57397 4.00123 6.21953 3.64679 5.78231 3.64679H4.53231C4.09508 3.64679 3.74064 4.00123 3.74064 4.43845V5.68845C3.74064 6.12568 4.09508 6.48012 4.53231 6.48012H5.78231C6.21953 6.48012 6.57397 6.12568 6.57397 5.68845V4.43845ZM7.49064 5.68845C7.49064 6.63194 6.72579 7.39679 5.78231 7.39679H4.53231C3.58882 7.39679 2.82397 6.63194 2.82397 5.68845V4.43845C2.82397 3.49497 3.58882 2.73012 4.53231 2.73012H5.78231C6.72579 2.73012 7.49064 3.49497 7.49064 4.43845V5.68845Z" fill="#16DD12"/>
<path d="M12.074 4.43839C12.074 4.00116 11.7195 3.64672 11.2823 3.64672H10.0323C9.59508 3.64672 9.24064 4.00116 9.24064 4.43839V5.68839C9.24064 6.12562 9.59508 6.48006 10.0323 6.48006H11.2823C11.7195 6.48006 12.074 6.12562 12.074 5.68839V4.43839ZM12.9906 5.68839C12.9906 6.63188 12.2258 7.39672 11.2823 7.39672H10.0323C9.08882 7.39672 8.32397 6.63188 8.32397 5.68839V4.43839C8.32397 3.4949 9.08882 2.73006 10.0323 2.73006H11.2823C12.2258 2.73006 12.9906 3.4949 12.9906 4.43839V5.68839Z" fill="#16DD12"/>
<path d="M6.57397 9.93848C6.57397 9.50125 6.21953 9.14681 5.78231 9.14681H4.53231C4.09508 9.14681 3.74064 9.50125 3.74064 9.93848V11.1885C3.74064 11.6257 4.09508 11.9801 4.53231 11.9801H5.78231C6.21953 11.9801 6.57397 11.6257 6.57397 11.1885V9.93848ZM7.49064 11.1885C7.49064 12.132 6.72579 12.8968 5.78231 12.8968H4.53231C3.58882 12.8968 2.82397 12.132 2.82397 11.1885V9.93848C2.82397 8.99499 3.58882 8.23014 4.53231 8.23014H5.78231C6.72579 8.23014 7.49064 8.99499 7.49064 9.93848V11.1885Z" fill="#16DD12"/>
<path d="M5.90735 5.06339C5.90735 4.64918 5.57156 4.31339 5.15735 4.31339C4.74314 4.31339 4.40735 4.64918 4.40735 5.06339C4.40735 5.4776 4.74314 5.81339 5.15735 5.81339C5.57156 5.81339 5.90735 5.4776 5.90735 5.06339Z" fill="#16DD12"/>
<path d="M11.4073 5.06339C11.4073 4.64918 11.0716 4.31339 10.6573 4.31339C10.2431 4.31339 9.90735 4.64918 9.90735 5.06339C9.90735 5.4776 10.2431 5.81339 10.6573 5.81339C11.0716 5.81339 11.4073 5.4776 11.4073 5.06339Z" fill="#16DD12"/>
<path d="M5.90735 10.5635C5.90735 10.1493 5.57156 9.81348 5.15735 9.81348C4.74314 9.81348 4.40735 10.1493 4.40735 10.5635C4.40735 10.9777 4.74314 11.3135 5.15735 11.3135C5.57156 11.3135 5.90735 10.9777 5.90735 10.5635Z" fill="#16DD12"/>
<path d="M12.1278 8.93178C12.3874 8.67239 12.8085 8.67242 13.0682 8.93178C13.3279 9.19148 13.3279 9.61349 13.0682 9.87318L10.7459 12.1945C10.4862 12.4541 10.0652 12.4541 9.80549 12.1945L8.74104 11.13C8.4818 10.8703 8.48153 10.4491 8.74104 10.1896C9.00073 9.92989 9.42274 9.92989 9.68245 10.1896L10.2752 10.7833L12.1278 8.93178Z" fill="#16DD12"/>
</svg>
