<svg width="17" height="16" viewBox="0 0 17 16" fill="none" xmlns="http://www.w3.org/2000/svg">
<path fill-rule="evenodd" clip-rule="evenodd" d="M5.88997 8.39492C5.88997 7.73188 6.15337 7.096 6.62221 6.62715C7.09105 6.15831 7.72693 5.89492 8.38997 5.89492C9.05302 5.89492 9.6889 6.15831 10.1577 6.62715C10.6266 7.096 10.89 7.73188 10.89 8.39492C10.89 9.05796 10.6266 9.69385 10.1577 10.1627C9.6889 10.6315 9.05302 10.8949 8.38997 10.8949C7.72693 10.8949 7.09105 10.6315 6.62221 10.1627C6.15337 9.69385 5.88997 9.05796 5.88997 8.39492ZM8.38997 6.89492C7.99215 6.89492 7.61062 7.05296 7.32931 7.33426C7.04801 7.61557 6.88997 7.9971 6.88997 8.39492C6.88997 8.79275 7.04801 9.17428 7.32931 9.45558C7.61062 9.73689 7.99215 9.89492 8.38997 9.89492C8.7878 9.89492 9.16933 9.73689 9.45063 9.45558C9.73194 9.17428 9.88997 8.79275 9.88997 8.39492C9.88997 7.9971 9.73194 7.61557 9.45063 7.33426C9.16933 7.05296 8.7878 6.89492 8.38997 6.89492Z" fill="#4F4F4F"/>
<path fill-rule="evenodd" clip-rule="evenodd" d="M7.46731 3.56159C7.30162 3.56141 7.13752 3.59392 6.98441 3.65724C6.8313 3.72057 6.69218 3.81347 6.57502 3.93063C6.45786 4.04779 6.36496 4.18691 6.30163 4.34002C6.2383 4.49313 6.2058 4.65723 6.20597 4.82292C6.20586 5.03704 6.12525 5.2433 5.98014 5.40075C5.83504 5.55821 5.63604 5.65536 5.42264 5.67292L3.93597 5.79292C3.7938 5.80437 3.65934 5.86227 3.55333 5.95768C3.44731 6.0531 3.37562 6.18074 3.34931 6.32092C3.05012 7.90084 3.02801 9.52076 3.28397 11.1083L3.34864 11.5109C3.40997 11.8909 3.72264 12.1809 4.10664 12.2123L5.40197 12.3176C7.3907 12.479 9.38924 12.479 11.378 12.3176L12.6726 12.2123C12.8594 12.1972 13.0356 12.1198 13.1732 11.9927C13.3107 11.8655 13.4016 11.6959 13.4313 11.5109L13.496 11.1083C13.7517 9.52072 13.7294 7.9008 13.43 6.32092C13.4035 6.18086 13.3318 6.05337 13.2258 5.95809C13.1198 5.8628 12.9854 5.805 12.8433 5.79359L11.3573 5.67292C11.1439 5.65536 10.9449 5.55821 10.7998 5.40075C10.6547 5.2433 10.5741 5.03704 10.574 4.82292C10.5742 4.65723 10.5416 4.49313 10.4783 4.34002C10.415 4.18691 10.3221 4.04779 10.2049 3.93063C10.0878 3.81347 9.94865 3.72057 9.79554 3.65724C9.64243 3.59392 9.47833 3.56141 9.31264 3.56159H7.46731ZM5.20997 4.68692C5.24479 4.11181 5.49775 3.57165 5.91724 3.17669C6.33674 2.78172 6.89114 2.56172 7.46731 2.56159H9.31264C10.516 2.56159 11.4993 3.50159 11.57 4.68692L12.9246 4.79692C13.285 4.82601 13.6259 4.97272 13.8947 5.21448C14.1636 5.45623 14.3456 5.77963 14.4126 6.13492C14.7333 7.82825 14.7573 9.56492 14.4833 11.2669L14.4186 11.6703C14.3533 12.076 14.1538 12.4481 13.852 12.727C13.5502 13.006 13.1636 13.1757 12.754 13.2089L11.4593 13.3143C9.41643 13.4798 7.36351 13.4798 5.32064 13.3143L4.02597 13.2089C3.61636 13.1757 3.22974 13.006 2.92795 12.727C2.62616 12.4481 2.42664 12.076 2.36131 11.6703L2.29664 11.2669C2.02249 9.56509 2.04641 7.82855 2.36731 6.13492C2.43449 5.77968 2.61649 5.45634 2.88532 5.2146C3.15416 4.97287 3.49495 4.82612 3.85531 4.79692L5.20997 4.68692Z" fill="#4F4F4F"/>
</svg>
