<svg width="12" height="13" viewBox="0 0 12 13" fill="none" xmlns="http://www.w3.org/2000/svg">
<path d="M8.98385 3.51513C9.13028 3.66157 9.13028 3.89898 8.98385 4.04541L6.88379 6.14547C6.68852 6.34073 6.68852 6.65731 6.88379 6.85257L8.98385 8.95263C9.13028 9.09907 9.13028 9.33648 8.98385 9.48291C8.83742 9.62934 8.6 9.62934 8.45357 9.48291L6.35351 7.38285C6.15825 7.18759 5.84167 7.18759 5.64641 7.38285L3.54635 9.48291C3.39992 9.62934 3.1625 9.62934 3.01607 9.48291C2.86964 9.33648 2.86964 9.09907 3.01607 8.95263L5.11613 6.85257C5.3114 6.65731 5.3114 6.34073 5.11613 6.14547L3.01607 4.04541C2.86964 3.89898 2.86964 3.66157 3.01607 3.51513C3.1625 3.3687 3.39992 3.3687 3.54635 3.51513L5.64641 5.61519C5.84167 5.81046 6.15825 5.81046 6.35351 5.61519L8.45357 3.51513C8.6 3.3687 8.83742 3.3687 8.98385 3.51513Z" fill="#4F4F4F"/>
</svg>
