<svg width="16" height="16" viewBox="0 0 16 16" fill="none" xmlns="http://www.w3.org/2000/svg">
<path fill-rule="evenodd" clip-rule="evenodd" d="M11.1299 3.87997C11.4033 3.60663 11.8468 3.60663 12.1202 3.87997C12.3934 4.15333 12.3935 4.59689 12.1202 4.87021L9.31939 7.67001C9.13741 7.85222 9.13738 8.14798 9.31939 8.33017L12.1202 11.13C12.3934 11.4033 12.3935 11.8469 12.1202 12.1202C11.8469 12.3935 11.4033 12.3935 11.1299 12.1202L8.33013 9.31943C8.14794 9.13741 7.85218 9.13745 7.66998 9.31943L4.87017 12.1202C4.59686 12.3935 4.15329 12.3935 3.87994 12.1202C3.60659 11.8469 3.60659 11.4033 3.87994 11.13L6.67974 8.33017C6.86197 8.14794 6.86194 7.85226 6.67974 7.67001L3.87994 4.87021C3.60659 4.59686 3.60659 4.15332 3.87994 3.87997C4.15328 3.60663 4.59682 3.60663 4.87017 3.87997L7.66998 6.67978C7.85222 6.86198 8.1479 6.86201 8.33013 6.67978L11.1299 3.87997Z" fill="#4F4F4F"/>
</svg>
