<svg width="12" height="12" viewBox="0 0 12 12" fill="none" xmlns="http://www.w3.org/2000/svg">
<path d="M7.26363 2.49805C7.17334 2.65836 7.09227 2.8242 7.01855 2.99372C6.31835 2.88869 5.60525 2.88869 4.9032 2.99372C4.83133 2.8242 4.74841 2.65836 4.65812 2.49805C4.0003 2.61045 3.35905 2.80761 2.75098 3.08585C1.54589 4.87138 1.21974 6.61084 1.38189 8.32635C2.08763 8.84782 2.87812 9.24583 3.72022 9.50011C3.91001 9.24583 4.07768 8.97495 4.22141 8.69303C3.94871 8.59168 3.6852 8.46454 3.43275 8.31713C3.4991 8.26922 3.5636 8.21947 3.62624 8.17156C5.10589 8.86809 6.81955 8.86809 8.30104 8.17156C8.36369 8.22316 8.42819 8.27291 8.49452 8.31713C8.24207 8.46638 7.97858 8.59168 7.70401 8.69487C7.84774 8.97679 8.01543 9.24767 8.20522 9.50195C9.0473 9.24767 9.83781 8.85149 10.5435 8.33002C10.7352 6.33997 10.2156 4.61525 9.17076 3.08769C8.56453 2.80946 7.92329 2.61229 7.26547 2.50173L7.26363 2.49805ZM4.42779 7.27051C3.97265 7.27051 3.59491 6.85776 3.59491 6.34734C3.59491 5.83693 3.95792 5.42232 4.42595 5.42232C4.89399 5.42232 5.2662 5.83876 5.25882 6.34734C5.25145 6.85591 4.89214 7.27051 4.42779 7.27051ZM7.49765 7.27051C7.04067 7.27051 6.6666 6.85776 6.6666 6.34734C6.6666 5.83693 7.02961 5.42232 7.49765 5.42232C7.96568 5.42232 8.33604 5.83876 8.32867 6.34734C8.32131 6.85591 7.96199 7.27051 7.49765 7.27051Z" fill="#4F4F4F"/>
</svg>
