<svg width="17" height="16" viewBox="0 0 17 16" fill="none" xmlns="http://www.w3.org/2000/svg">
<path d="M9.76642 3.33073C9.64603 3.54447 9.53794 3.76559 9.43965 3.99162C8.50605 3.85158 7.55525 3.85158 6.61918 3.99162C6.52336 3.76559 6.4128 3.54447 6.29241 3.33073C5.41532 3.4806 4.56032 3.74348 3.74956 4.11447C2.14277 6.49517 1.70791 8.81445 1.92411 11.1018C2.86509 11.7971 3.91907 12.3278 5.04188 12.6668C5.29493 12.3278 5.51849 11.9666 5.71013 11.5907C5.34653 11.4556 4.99519 11.2861 4.65859 11.0895C4.74705 11.0256 4.83305 10.9593 4.91657 10.8954C6.88943 11.8241 9.17432 11.8241 11.1496 10.8954C11.2332 10.9642 11.3192 11.0305 11.4076 11.0895C11.071 11.2885 10.7197 11.4556 10.3536 11.5932C10.5452 11.9691 10.7688 12.3302 11.0219 12.6693C12.1447 12.3302 13.1987 11.802 14.1396 11.1067C14.3951 8.45329 13.7023 6.15367 12.3093 4.11692C11.501 3.74594 10.646 3.48305 9.76887 3.33564L9.76642 3.33073ZM5.98531 9.69401C5.37846 9.69401 4.8748 9.14368 4.8748 8.46311C4.8748 7.78257 5.35881 7.22976 5.98285 7.22976C6.6069 7.22976 7.10319 7.78502 7.09334 8.46311C7.08352 9.14121 6.60443 9.69401 5.98531 9.69401ZM10.0784 9.69401C9.46915 9.69401 8.97039 9.14368 8.97039 8.46311C8.97039 7.78257 9.4544 7.22976 10.0784 7.22976C10.7025 7.22976 11.1963 7.78502 11.1865 8.46311C11.1767 9.14121 10.6976 9.69401 10.0784 9.69401Z" fill="#4F4F4F"/>
</svg>
