<svg width="16" height="16" viewBox="0 0 16 16" fill="none" xmlns="http://www.w3.org/2000/svg">
<path d="M12.8597 6.72095C12.8593 5.59031 12.2593 4.60489 11.3805 4.11808L11.2008 4.02694C10.3332 3.63068 9.27504 3.71752 8.29456 4.49178L8.0094 4.71704L7.72424 4.49178C6.80558 3.76616 5.81779 3.64391 4.98336 3.95793L4.8193 4.02694C3.84387 4.47334 3.15952 5.51458 3.15914 6.72095C3.15919 7.45556 3.3486 8.08744 3.65002 8.63892C3.77129 8.86171 3.68908 9.14089 3.46643 9.26262C3.2435 9.38446 2.96458 9.30195 2.84273 9.07902C2.51969 8.48793 2.29998 7.81573 2.25028 7.05298L2.23987 6.72095C2.24027 5.1708 3.11939 3.79245 4.43648 3.1897C5.54964 2.68128 6.84881 2.77919 8.0094 3.56209C9.17062 2.77881 10.47 2.68092 11.5836 3.1897L11.8258 3.31209C13.0078 3.96594 13.7799 5.26802 13.7802 6.72095L13.7724 6.99439C13.7008 8.34114 13.1061 9.37674 12.3909 10.1819C12.0292 10.5893 11.6155 10.9582 11.2151 11.2861L10.1188 12.1441C9.85643 12.3507 9.58357 12.5527 9.28935 12.7366L9.27763 12.7444L9.27633 12.7431C9.00284 12.9026 8.63444 13.0751 8.1995 13.1155L8.0094 13.1233C7.49223 13.1231 7.05507 12.9267 6.74117 12.7431C6.5853 12.6518 6.43291 12.5476 6.29065 12.4436L5.90002 12.1441C5.58331 11.8945 5.13992 11.5637 4.75028 11.2431C4.55465 11.0816 4.52659 10.7919 4.68778 10.5959C4.84916 10.3998 5.13874 10.3721 5.33492 10.5334C5.71831 10.8489 6.12094 11.1471 6.46903 11.4215C6.70728 11.6091 6.95732 11.8031 7.20601 11.9488C7.45398 12.0939 7.72463 12.2038 8.0094 12.204L8.22034 12.1845C8.42592 12.1472 8.62185 12.0584 8.80627 11.9514C9.0602 11.7923 9.30394 11.6151 9.54976 11.4215C10.219 10.8936 11.0507 10.3064 11.7034 9.57121C12.3642 8.82733 12.8596 7.91439 12.8597 6.72095Z" fill="#720925"/>
</svg>
