<svg width="16" height="16" viewBox="0 0 16 16" fill="none" xmlns="http://www.w3.org/2000/svg">
<g clip-path="url(#clip0_319_4156)">
<path d="M7.28813 7.79552C7.28813 7.42829 7.58595 7.13054 7.95317 7.13048C8.32044 7.13048 8.61821 7.42825 8.61821 7.79552V11.6617L9.41313 11.026C9.6999 10.7967 10.1183 10.8428 10.3477 11.1295C10.577 11.4161 10.5306 11.8346 10.2442 12.0641L8.36919 13.5641C8.12632 13.7584 7.781 13.7584 7.53813 13.5641L5.66313 12.0641C5.37636 11.8347 5.32926 11.4163 5.55864 11.1295C5.78807 10.8427 6.2074 10.7966 6.49419 11.026L7.28813 11.6608V7.79552ZM7.41802 2.54259C8.24567 2.45982 9.13519 2.6321 9.8145 3.09239C10.3062 3.42563 10.681 3.91087 10.8223 4.51915C11.4638 4.4664 12.0352 4.60227 12.5088 4.90978C13.1602 5.3327 13.5268 6.01493 13.6641 6.7086C13.927 8.03673 13.3892 9.79268 11.8223 10.3395C11.4757 10.4604 11.0967 10.2778 10.9756 9.93126C10.8547 9.5846 11.0373 9.20568 11.3838 9.08458C12.1178 8.82853 12.5412 7.88685 12.3594 6.96739C12.2743 6.53727 12.0661 6.20799 11.7842 6.02501C11.5159 5.85097 11.0808 5.74402 10.3946 5.94981C10.1792 6.01442 9.94517 5.96606 9.77349 5.82091C9.60212 5.67583 9.51529 5.45388 9.54302 5.23106C9.60213 4.75818 9.41407 4.42826 9.06841 4.19396C8.69309 3.93958 8.12926 3.80801 7.55083 3.86583C6.97414 3.9235 6.4775 4.15876 6.18364 4.52013C5.90985 4.85705 5.73403 5.39888 5.96977 6.26329C6.02809 6.47716 5.9762 6.70608 5.8311 6.87364C5.68582 7.04115 5.46616 7.12563 5.24614 7.09825C4.21635 6.96953 3.73182 7.51022 3.62505 7.98595C3.56753 8.24228 3.61089 8.49526 3.73931 8.692C3.86202 8.87998 4.09695 9.06908 4.52446 9.1422C4.8864 9.20417 5.12934 9.54781 5.06743 9.90978C5.00529 10.2715 4.6617 10.5146 4.29985 10.4527C3.54992 10.3244 2.97333 9.95067 2.62602 9.41856C2.28441 8.89516 2.19912 8.27004 2.32817 7.69493C2.54524 6.72781 3.34946 5.92641 4.54009 5.77501C4.48037 4.943 4.70337 4.23246 5.15239 3.68028C5.72563 2.97562 6.58873 2.6256 7.41802 2.54259Z" fill="#4F4F4F"/>
</g>
<defs>
<clipPath id="clip0_319_4156">
<rect width="16" height="16.0003" fill="white"/>
</clipPath>
</defs>
</svg>
