<svg width="16" height="16" viewBox="0 0 16 16" fill="none" xmlns="http://www.w3.org/2000/svg">
<path d="M7.99959 14.557C11.5801 14.557 14.5561 11.5873 14.5561 8.00051C14.5561 4.42002 11.5735 1.44401 7.99301 1.44401C4.40649 1.44401 1.44336 4.42002 1.44336 8.00051C1.44336 11.5873 4.41279 14.557 7.99959 14.557ZM7.99987 13.4644C4.96543 13.4644 2.54178 11.0344 2.54178 8.00051C2.54178 4.97266 4.95885 2.53667 7.99301 2.53667C11.0206 2.53667 13.4566 4.97294 13.4632 8.00051C13.4695 11.0347 11.0269 13.4644 7.99932 13.4644M7.99301 9.16393C8.30128 9.16393 8.47489 8.99033 8.4812 8.65627L8.57774 5.26228C8.58432 4.93427 8.32706 4.69017 7.98643 4.69017C7.63921 4.69017 7.39512 4.92796 7.40143 5.2557L7.48508 8.65627C7.49138 8.98402 7.67157 9.16393 7.99301 9.16393ZM7.99301 11.253C8.35915 11.253 8.68689 10.9573 8.68689 10.5846C8.68689 10.2053 8.36573 9.91596 7.99301 9.91596C7.6137 9.91596 7.29858 10.2116 7.29858 10.5846C7.29858 10.951 7.62001 11.253 7.99301 11.253Z" fill="#4F4F4F"/>
</svg>
