<svg width="17" height="17" viewBox="0 0 17 17" fill="none" xmlns="http://www.w3.org/2000/svg">
<path d="M8.38985 14.9183C11.9703 14.9183 14.9464 11.9486 14.9464 8.36184C14.9464 4.78135 11.9638 1.80534 8.38327 1.80534C4.79674 1.80534 1.83362 4.78135 1.83362 8.36184C1.83362 11.9486 4.80305 14.9183 8.38985 14.9183ZM8.39012 13.8257C5.35569 13.8257 2.93204 11.3957 2.93204 8.36184C2.93204 5.33399 5.34911 2.898 8.38327 2.898C11.4108 2.898 13.8468 5.33426 13.8534 8.36184C13.8597 11.396 11.4172 13.8257 8.38958 13.8257M8.38327 9.52526C8.69154 9.52526 8.86515 9.35165 8.87145 9.0176L8.96799 5.62361C8.97458 5.29559 8.71732 5.0515 8.37669 5.0515C8.02947 5.0515 7.78538 5.28929 7.79169 5.61703L7.87533 9.0176C7.88164 9.34535 8.06183 9.52526 8.38327 9.52526ZM8.38327 11.6143C8.74941 11.6143 9.07715 11.3187 9.07715 10.9459C9.07715 10.5666 8.75599 10.2773 8.38327 10.2773C8.00396 10.2773 7.68884 10.5729 7.68884 10.9459C7.68884 11.3124 8.01027 11.6143 8.38327 11.6143Z" fill="#9B9B9B"/>
</svg>
