<svg width="13" height="13" viewBox="0 0 13 13" fill="none" xmlns="http://www.w3.org/2000/svg">
<path d="M6.16213 5.88269H6.97888L3.72737 9.12903C3.67892 9.17709 3.64046 9.23426 3.61422 9.29725C3.58797 9.36025 3.57446 9.42781 3.57446 9.49605C3.57446 9.56429 3.58797 9.63186 3.61422 9.69485C3.64046 9.75785 3.67892 9.81502 3.72737 9.86308C3.77543 9.91153 3.8326 9.94998 3.89559 9.97623C3.95859 10.0025 4.02615 10.016 4.09439 10.016C4.16263 10.016 4.2302 10.0025 4.29319 9.97623C4.35619 9.94998 4.41336 9.91153 4.46142 9.86308L7.71293 6.61674V7.43349C7.71293 7.57059 7.76739 7.70207 7.86433 7.79902C7.96128 7.89596 8.09276 7.95042 8.22986 7.95042C8.36696 7.95042 8.49844 7.89596 8.59539 7.79902C8.69233 7.70207 8.74679 7.57059 8.74679 7.43349V5.36576C8.74679 5.22866 8.69233 5.09717 8.59539 5.00023C8.49844 4.90329 8.36696 4.84882 8.22986 4.84882H6.16213C6.02503 4.84882 5.89354 4.90329 5.7966 5.00023C5.69966 5.09717 5.64519 5.22866 5.64519 5.36576C5.64519 5.50286 5.69966 5.63434 5.7966 5.73128C5.89354 5.82823 6.02503 5.88269 6.16213 5.88269Z" fill="#4F4F4F"/>
</svg>
