<svg width="17" height="17" viewBox="0 0 17 17" fill="none" xmlns="http://www.w3.org/2000/svg">
<path d="M8.61196 6.88024H9.70097L5.36562 11.2087C5.30102 11.2728 5.24974 11.349 5.21475 11.433C5.17976 11.517 5.16174 11.6071 5.16174 11.6981C5.16174 11.789 5.17976 11.8791 5.21475 11.9631C5.24974 12.0471 5.30102 12.1233 5.36562 12.1874C5.42969 12.252 5.50593 12.3033 5.58992 12.3383C5.67391 12.3733 5.764 12.3913 5.85498 12.3913C5.94597 12.3913 6.03606 12.3733 6.12005 12.3383C6.20404 12.3033 6.28027 12.252 6.34435 12.1874L10.6797 7.85897V8.94798C10.6797 9.13077 10.7523 9.30609 10.8816 9.43535C11.0108 9.5646 11.1861 9.63722 11.3689 9.63722C11.5517 9.63722 11.727 9.5646 11.8563 9.43535C11.9856 9.30609 12.0582 9.13077 12.0582 8.94798V6.191C12.0582 6.0082 11.9856 5.83289 11.8563 5.70363C11.727 5.57437 11.5517 5.50175 11.3689 5.50175H8.61196C8.42916 5.50175 8.25385 5.57437 8.12459 5.70363C7.99533 5.83289 7.92272 6.0082 7.92272 6.191C7.92272 6.3738 7.99533 6.54911 8.12459 6.67837C8.25385 6.80763 8.42916 6.88024 8.61196 6.88024Z" fill="#4F4F4F"/>
</svg>
