<svg width="17" height="17" viewBox="0 0 17 17" fill="none" xmlns="http://www.w3.org/2000/svg">
<path d="M8.16262 7.72315H9.25163L4.91628 12.0516C4.85168 12.1157 4.8004 12.1919 4.76541 12.2759C4.73042 12.3599 4.7124 12.45 4.7124 12.541C4.7124 12.632 4.73042 12.722 4.76541 12.806C4.8004 12.89 4.85168 12.9663 4.91628 13.0303C4.98035 13.0949 5.05658 13.1462 5.14058 13.1812C5.22457 13.2162 5.31465 13.2342 5.40564 13.2342C5.49663 13.2342 5.58672 13.2162 5.67071 13.1812C5.7547 13.1462 5.83093 13.0949 5.89501 13.0303L10.2304 8.70187V9.79088C10.2304 9.97368 10.303 10.149 10.4322 10.2782C10.5615 10.4075 10.7368 10.4801 10.9196 10.4801C11.1024 10.4801 11.2777 10.4075 11.407 10.2782C11.5362 10.149 11.6088 9.97368 11.6088 9.79088V7.0339C11.6088 6.8511 11.5362 6.67579 11.407 6.54653C11.2777 6.41727 11.1024 6.34466 10.9196 6.34466H8.16262C7.97982 6.34466 7.80451 6.41727 7.67525 6.54653C7.54599 6.67579 7.47338 6.8511 7.47338 7.0339C7.47338 7.2167 7.54599 7.39201 7.67525 7.52127C7.80451 7.65053 7.97982 7.72315 8.16262 7.72315Z" fill="#4F4F4F"/>
</svg>
