<svg width="17" height="17" viewBox="0 0 17 17" fill="none" xmlns="http://www.w3.org/2000/svg">
<path fill-rule="evenodd" clip-rule="evenodd" d="M3.55982 9.31667V7.54974L3.55982 7.51259C3.55981 6.55296 3.5598 5.79194 3.63013 5.18906C3.70254 4.56851 3.85429 4.05635 4.20044 3.62656C4.3299 3.46573 4.47602 3.31878 4.63664 3.18906C5.06619 2.84277 5.5788 2.69116 6.19914 2.61875C6.80179 2.54842 6.56234 2.54843 7.52133 2.54844L7.55852 2.54844C7.8565 2.54844 8.10418 2.54415 8.33065 2.5849L8.5507 2.64219L8.55331 2.64349C8.6089 2.66323 8.66286 2.68702 8.71607 2.7125C8.99246 2.84446 9.20718 3.06559 9.4882 3.34662L12.3723 6.23203H12.371C12.6969 6.55738 12.9566 6.80459 13.0924 7.13307C13.2278 7.46106 13.22 7.81964 13.22 8.28021L13.22 11.9743C13.22 13.1894 12.235 14.1743 11.02 14.1743H7.57189C6.14297 14.15 5.11771 14.0436 4.40748 13.3334C3.95102 12.8769 3.74831 12.2978 3.65227 11.5834C3.55977 10.8951 3.55978 10.468 3.55982 9.3789L3.55982 9.31667ZM12.2994 8.28021L12.3449 11.817C12.3557 12.6523 11.6819 13.3357 10.8465 13.3273C9.42084 13.3128 8.97779 13.2806 7.57189 13.2548C6.10649 13.228 5.47113 13.0949 5.05852 12.6823C4.80155 12.4253 4.64737 12.0734 4.56503 11.461C4.48093 10.8353 4.47909 10.478 4.47909 9.31667V7.54974C4.47909 6.55044 4.48063 5.84076 4.54419 5.29583C4.60662 4.76083 4.72342 4.44324 4.91659 4.20339C5.00491 4.09365 5.10518 3.99371 5.21477 3.90521L5.30852 3.8362C5.53685 3.68361 5.83817 3.58741 6.30591 3.53281C6.8506 3.46925 6.5598 3.46771 7.55852 3.46771C7.79116 3.46771 7.93751 3.46926 8.03898 3.47552V3.61745L8.03898 3.67281C8.03895 4.49537 8.03892 5.16031 8.1093 5.68386C8.18307 6.23216 8.34114 6.69432 8.70826 7.06146L8.85018 7.18906C9.19211 7.46658 9.60594 7.59588 10.0859 7.66042C10.6092 7.7308 11.2732 7.73077 12.0951 7.73073L12.151 7.73073H12.2903C12.2983 7.84749 12.2994 8.01563 12.2994 8.28021ZM9.02076 5.56016C8.97162 5.19425 8.96316 4.7335 8.96086 4.12005L11.6471 6.80755C11.0343 6.80524 10.5738 6.79812 10.2083 6.74896C9.76236 6.68897 9.52673 6.57913 9.3593 6.41172V6.41042C9.19149 6.24259 9.08079 6.00673 9.02076 5.56016Z" fill="#4F4F4F"/>
</svg>
