<svg width="13" height="13" viewBox="0 0 13 13" fill="none" xmlns="http://www.w3.org/2000/svg">
<path d="M9.70597 7.87192V5.88761C9.70597 5.51412 9.70597 5.32738 9.63657 5.15936C9.56717 4.99133 9.43522 4.85938 9.17086 4.59548L7.00848 2.43173C6.78064 2.20389 6.66695 2.0902 6.52541 2.02263C6.49612 2.00856 6.46609 1.99606 6.43546 1.98519C6.28799 1.93359 6.12681 1.93359 5.80492 1.93359C4.32331 1.93359 3.58227 1.93359 3.08049 2.33813C2.97914 2.41997 2.88684 2.51242 2.80517 2.6139C2.40063 3.11615 2.40063 3.85718 2.40063 5.33971V7.41488C2.40063 9.13757 2.40063 9.99914 2.93575 10.5343C3.36631 10.9648 4.00781 11.0488 5.14014 11.0653M6.50989 2.16189V2.39018C6.50989 3.68231 6.50989 4.32837 6.91122 4.72971C7.3121 5.13105 7.95817 5.13105 9.24939 5.13105H9.47768" stroke="#E4E4E4" stroke-linecap="round" stroke-linejoin="round"/>
<path d="M7.42297 11.0647C7.14583 10.7953 6.05322 10.0785 6.05322 9.69495C6.05322 9.31142 7.14583 8.59458 7.42297 8.3252M6.50981 9.69495H9.70589" stroke="#E4E4E4" stroke-linecap="round" stroke-linejoin="round"/>
</svg>
