<svg width="13" height="13" viewBox="0 0 13 13" fill="none" xmlns="http://www.w3.org/2000/svg">
<path d="M2.05579 7.41504V5.33985C2.05579 4.60697 2.05509 4.02732 2.10852 3.56934C2.16283 3.10392 2.27664 2.7198 2.53626 2.39746C2.63335 2.27684 2.74294 2.16662 2.86341 2.06934C3.18557 1.80961 3.57003 1.69591 4.03528 1.6416C4.49309 1.58817 5.0724 1.58887 5.80481 1.58887C6.0283 1.58887 6.21406 1.58565 6.38391 1.61621L6.54895 1.65918L6.55091 1.66016C6.5926 1.67496 6.63307 1.6928 6.67298 1.71192C6.88027 1.81088 7.04131 1.97673 7.25208 2.1875L9.41516 4.35156H9.41419C9.65862 4.59558 9.85335 4.78098 9.9552 5.02735C10.0568 5.27334 10.0509 5.54227 10.0509 5.8877V7.87207C10.0508 8.06243 9.89652 8.21662 9.70618 8.2168C9.51569 8.2168 9.36056 8.06254 9.36048 7.87207V5.8877C9.36048 5.68926 9.35963 5.56315 9.35364 5.47559H9.24915C8.61335 5.47559 8.10166 5.47683 7.70032 5.42285C7.34038 5.37445 7.03 5.27747 6.77356 5.06934L6.66712 4.97363C6.39178 4.69828 6.27323 4.35166 6.2179 3.94043C6.16394 3.539 6.16516 3.02673 6.16516 2.39063V2.28418C6.08906 2.27948 5.97929 2.27832 5.80481 2.27832C5.05577 2.27832 4.52387 2.27948 4.11536 2.32715C3.76455 2.3681 3.53856 2.44024 3.36731 2.55469L3.297 2.60645C3.21481 2.67282 3.1396 2.74778 3.07337 2.83008C2.92849 3.00997 2.84089 3.24816 2.79407 3.64942C2.7464 4.05811 2.74524 4.59037 2.74524 5.33985V7.41504C2.74524 8.28605 2.74662 8.90476 2.80969 9.37403C2.87145 9.83332 2.98708 10.0973 3.17981 10.29C3.49666 10.6069 3.98865 10.7039 5.14466 10.7207C5.33517 10.7235 5.48726 10.8798 5.4845 11.0703C5.48171 11.2608 5.32539 11.4129 5.13489 11.4102C4.02657 11.3941 3.23574 11.3225 2.69153 10.7783C2.34919 10.436 2.19715 10.0017 2.12512 9.46582C2.05444 8.93992 2.05579 8.26651 2.05579 7.41504ZM6.85657 2.76758C6.85829 3.22767 6.86464 3.57323 6.90149 3.84766C6.94651 4.18259 7.02954 4.35948 7.1554 4.48535V4.48633C7.28097 4.61189 7.45769 4.69427 7.79212 4.73926C8.06629 4.77613 8.41165 4.78147 8.87122 4.7832L6.85657 2.76758Z" fill="#E4E4E4"/>
<path d="M7.18213 8.07813C7.31876 7.94532 7.53761 7.94833 7.67041 8.08496C7.803 8.22152 7.79993 8.43949 7.66357 8.57227C7.57813 8.65531 7.44042 8.76388 7.30518 8.87012C7.16208 8.98253 7.00488 9.1051 6.85693 9.23047C6.80964 9.27055 6.76561 9.31121 6.72314 9.34961H9.70557C9.8961 9.34961 10.0513 9.50478 10.0513 9.69531C10.0511 9.88568 9.89598 10.04 9.70557 10.04H6.72314C6.76561 10.0784 6.80964 10.1191 6.85693 10.1592C7.00487 10.2845 7.16209 10.4071 7.30518 10.5195C7.44045 10.6258 7.57812 10.7343 7.66357 10.8174C7.80001 10.9501 7.80292 11.1681 7.67041 11.3047C7.53761 11.4413 7.31876 11.4453 7.18213 11.3125C7.12906 11.2609 7.02671 11.1782 6.87939 11.0625C6.73968 10.9528 6.57049 10.821 6.41064 10.6855C6.25244 10.5515 6.09027 10.4035 5.96533 10.2568C5.90269 10.1833 5.84247 10.1017 5.79639 10.0156C5.76298 9.9532 5.72973 9.87538 5.71533 9.78711L5.7085 9.69531L5.71533 9.60352C5.72968 9.5149 5.76288 9.43664 5.79639 9.37402C5.84246 9.28796 5.90271 9.20634 5.96533 9.13281C6.09028 8.98614 6.25245 8.83817 6.41064 8.7041C6.57049 8.56865 6.73968 8.4369 6.87939 8.32715C7.02632 8.21173 7.12897 8.12971 7.18213 8.07813Z" fill="#E4E4E4"/>
</svg>
