<svg width="17" height="17" viewBox="0 0 17 17" fill="none" xmlns="http://www.w3.org/2000/svg">
<path d="M2.78491 9.72135V6.95443C2.78491 5.97726 2.78399 5.20439 2.85523 4.59375C2.92764 3.9732 3.07938 3.46104 3.42554 3.03125C3.55499 2.87042 3.70111 2.72346 3.86174 2.59375C4.29129 2.24745 4.8039 2.09585 5.42424 2.02344C6.03466 1.9522 6.80707 1.95312 7.78361 1.95312C8.0816 1.95312 8.32928 1.94884 8.55575 1.98958L8.7758 2.04687L8.7784 2.04818C8.834 2.06792 8.88796 2.0917 8.94116 2.11719C9.21756 2.24914 9.43228 2.47028 9.7133 2.7513L12.5974 5.63672H12.5961C12.922 5.96207 13.1817 6.20927 13.3175 6.53776C13.4529 6.86575 13.4451 7.22433 13.4451 7.6849V10.3307C13.445 10.5845 13.2392 10.7901 12.9854 10.7904C12.7315 10.7904 12.5246 10.5847 12.5245 10.3307V7.6849C12.5245 7.42031 12.5234 7.25217 12.5154 7.13542H12.3761C11.5283 7.13542 10.8461 7.13707 10.311 7.0651C9.83104 7.00056 9.4172 6.87126 9.07528 6.59375L8.93335 6.46615C8.56623 6.099 8.40817 5.63685 8.33439 5.08854C8.26244 4.5533 8.26408 3.87028 8.26408 3.02214V2.88021C8.16261 2.87394 8.01626 2.8724 7.78361 2.8724C6.78489 2.8724 6.07569 2.87394 5.53101 2.9375C5.06327 2.9921 4.76194 3.08829 4.53361 3.24089L4.43986 3.3099C4.33028 3.3984 4.23 3.49834 4.14169 3.60807C3.94851 3.84793 3.83172 4.16552 3.76929 4.70052C3.70573 5.24544 3.70419 5.95512 3.70419 6.95443V9.72135C3.70419 10.8827 3.70602 11.7076 3.79012 12.3333C3.87246 12.9457 4.02664 13.2977 4.28361 13.5547C4.70608 13.9772 5.36206 14.1065 6.9034 14.1289C7.15743 14.1326 7.36022 14.341 7.35653 14.5951C7.35281 14.849 7.14439 15.0519 6.89038 15.0482C5.41262 15.0267 4.35819 14.9313 3.63257 14.2057C3.17611 13.7493 2.9734 13.1702 2.87736 12.4557C2.78312 11.7545 2.78491 10.8566 2.78491 9.72135ZM9.18596 3.52474C9.18826 4.13819 9.19672 4.59894 9.24585 4.96484C9.30588 5.41141 9.41659 5.64728 9.58439 5.8151V5.81641C9.75183 5.98382 9.98745 6.09366 10.4334 6.15365C10.7989 6.20281 11.2594 6.20993 11.8722 6.21224L9.18596 3.52474Z" fill="#E4E4E4"/>
<path d="M9.62012 10.6055C9.80229 10.4284 10.0941 10.4324 10.2712 10.6146C10.4479 10.7967 10.4439 11.0873 10.262 11.2643C10.1481 11.3751 9.96451 11.5198 9.78418 11.6615C9.59338 11.8113 9.38379 11.9748 9.18652 12.1419C9.12347 12.1954 9.06476 12.2496 9.00814 12.3008H12.9847C13.2388 12.3008 13.4456 12.5077 13.4456 12.7617C13.4454 13.0155 13.2386 13.2214 12.9847 13.2214H9.00814C9.06476 13.2726 9.12347 13.3268 9.18652 13.3802C9.38377 13.5474 9.5934 13.7108 9.78418 13.8607C9.96454 14.0024 10.1481 14.1471 10.262 14.2578C10.444 14.4348 10.4478 14.7254 10.2712 14.9076C10.0941 15.0897 9.80229 15.095 9.62012 14.918C9.54936 14.8492 9.41289 14.7389 9.21647 14.5846C9.03019 14.4383 8.8046 14.2626 8.59147 14.082C8.38053 13.9033 8.1643 13.706 7.99772 13.5104C7.9142 13.4124 7.83391 13.3036 7.77246 13.1888C7.72792 13.1056 7.68359 13.0018 7.66439 12.8841L7.65527 12.7617L7.66439 12.6393C7.68352 12.5212 7.72778 12.4168 7.77246 12.3333C7.8339 12.2186 7.91423 12.1097 7.99772 12.0117C8.16432 11.8162 8.38055 11.6189 8.59147 11.4401C8.8046 11.2595 9.03019 11.0838 9.21647 10.9375C9.41237 10.7836 9.54924 10.6743 9.62012 10.6055Z" fill="#E4E4E4"/>
</svg>
