<svg width="17" height="17" viewBox="0 0 17 17" fill="none" xmlns="http://www.w3.org/2000/svg">
<path d="M8.09919 13.429C8.46718 13.4293 8.76585 13.7276 8.76585 14.0957V14.1842C8.76581 14.5523 8.46716 14.8507 8.09919 14.8509H8.00934C7.64143 14.8506 7.34272 14.5522 7.34268 14.1842V14.0957C7.34268 13.7277 7.6414 13.4293 8.00934 13.429H8.09919ZM7.38825 11.403V9.65039C7.38848 9.28264 7.68589 8.9841 8.05361 8.98372C8.58641 8.98366 9.10978 8.83638 9.56403 8.55794C10.0179 8.27961 10.3861 7.8813 10.6278 7.4069C10.8696 6.93213 10.9757 6.39898 10.9338 5.86783C10.8919 5.33679 10.7041 4.82739 10.3909 4.39648C10.0777 3.96566 9.65119 3.6302 9.15908 3.42643C8.66696 3.22271 8.12785 3.15818 7.60179 3.24153C7.07559 3.325 6.58236 3.55297 6.17731 3.89908C5.77226 4.24521 5.47072 4.69701 5.30622 5.20377C5.19241 5.55363 4.81637 5.74561 4.46637 5.63216C4.11617 5.51848 3.92431 5.14121 4.03799 4.79101C4.27845 4.05059 4.71958 3.39051 5.31143 2.88476C5.90325 2.37921 6.62341 2.04712 7.39215 1.92513C8.16124 1.80313 8.95001 1.89682 9.6695 2.19466C10.3886 2.49248 11.0113 2.98309 11.469 3.61263C11.9268 4.24252 12.202 4.98738 12.2632 5.76367C12.3244 6.53962 12.1698 7.31744 11.8166 8.01106C11.4633 8.70486 10.9244 9.28771 10.2606 9.69466C9.78809 9.98432 9.26463 10.1754 8.72158 10.2624V11.403C8.72158 11.771 8.42283 12.0693 8.05492 12.0697C7.68673 12.0697 7.38825 11.7712 7.38825 11.403Z" fill="#4F4F4F"/>
</svg>
