<svg width="13" height="13" viewBox="0 0 13 13" fill="none" xmlns="http://www.w3.org/2000/svg">
<path d="M5.78086 10.6774C5.78086 10.8885 6.06546 10.9556 6.15978 10.7668L8.7738 5.53339C8.84022 5.40042 8.74352 5.24402 8.59488 5.24402H6.94922C6.83876 5.24402 6.74922 5.15448 6.74922 5.04402V2.02307C6.74922 1.81322 6.46725 1.74501 6.37133 1.93166L3.67111 7.18629C3.60272 7.31938 3.69936 7.4777 3.849 7.4777H5.58086C5.69132 7.4777 5.78086 7.56724 5.78086 7.6777V10.6774Z" fill="#D7184B"/>
<path fill-rule="evenodd" clip-rule="evenodd" d="M8.59488 5.24402C8.74352 5.24402 8.84022 5.40042 8.7738 5.53339L6.15978 10.7668C6.06546 10.9556 5.78086 10.8885 5.78086 10.6774V7.6777C5.78086 7.56724 5.69132 7.4777 5.58086 7.4777H3.849C3.69936 7.4777 3.60272 7.31938 3.67111 7.18629L6.37133 1.93166C6.46725 1.74501 6.74922 1.81322 6.74922 2.02307V5.04402C6.74922 5.15448 6.83876 5.24402 6.94922 5.24402H8.59488Z" fill="#D7184B"/>
</svg>
