<svg width="17" height="17" viewBox="0 0 17 17" fill="none" xmlns="http://www.w3.org/2000/svg">
<path d="M7.63449 14.1161C7.63449 14.3976 8.01396 14.4871 8.13972 14.2353L11.6251 7.25741C11.7136 7.08011 11.5847 6.87159 11.3865 6.87159H9.1923C9.04503 6.87159 8.92564 6.7522 8.92564 6.60492V2.57698C8.92564 2.29718 8.54967 2.20624 8.42179 2.4551L4.82149 9.46127C4.7303 9.63874 4.85915 9.84982 5.05867 9.84982H7.36783C7.5151 9.84982 7.63449 9.96921 7.63449 10.1165V14.1161Z" fill="#D7184B"/>
<path fill-rule="evenodd" clip-rule="evenodd" d="M11.3865 6.87159C11.5847 6.87159 11.7136 7.08011 11.6251 7.25741L8.13972 14.2353C8.01396 14.4871 7.63449 14.3976 7.63449 14.1161V10.1165C7.63449 9.96921 7.5151 9.84982 7.36783 9.84982H5.05867C4.85915 9.84982 4.7303 9.63874 4.82149 9.46127L8.42179 2.4551C8.54967 2.20624 8.92564 2.29718 8.92564 2.57698V6.60492C8.92564 6.7522 9.04503 6.87159 9.1923 6.87159H11.3865Z" fill="#D7184B"/>
</svg>
