<svg width="17" height="16" viewBox="0 0 17 16" fill="none" xmlns="http://www.w3.org/2000/svg">
<path d="M12.3911 7.9994C12.3911 5.97381 10.7489 4.33168 8.72331 4.33165C6.6977 4.33165 5.05556 5.97379 5.05556 7.9994C5.05559 10.025 6.69772 11.6671 8.72331 11.6671C10.7489 11.6671 12.391 10.025 12.3911 7.9994ZM13.5567 7.9994C13.5567 10.6687 11.3926 12.8328 8.72331 12.8328C6.05394 12.8328 3.88993 10.6688 3.88989 7.9994C3.88989 5.33001 6.05392 3.16599 8.72331 3.16599C11.3927 3.16602 13.5567 5.33003 13.5567 7.9994Z" fill="#060606"/>
<path d="M7.77406 11.5424C8.08498 11.6257 8.2695 11.9453 8.18618 12.2562C8.10272 12.5669 7.78317 12.7516 7.47236 12.6684C4.89403 11.9775 3.36393 9.32699 4.05462 6.74866C4.40456 5.44267 5.2584 4.40429 6.34906 3.78905C6.62938 3.6311 6.98468 3.73088 7.14278 4.01116C7.30073 4.29148 7.20205 4.64707 6.92177 4.80518C6.09272 5.27288 5.44616 6.05917 5.18057 7.05035C4.6565 9.00685 5.81757 11.0182 7.77406 11.5424Z" fill="#838383"/>
</svg>
