<svg width="16" height="17" viewBox="0 0 16 17" fill="none" xmlns="http://www.w3.org/2000/svg">
<path d="M8.67383 7.3875C8.67383 7.55319 8.80814 7.6875 8.97383 7.6875H11.5193C11.685 7.6875 11.8193 7.82181 11.8193 7.9875V8.71758C11.8193 8.88326 11.685 9.01758 11.5193 9.01758H8.97285C8.80717 9.01758 8.67285 9.15189 8.67285 9.31758V11.8807C8.67285 12.0463 8.53854 12.1807 8.37285 12.1807H7.64277C7.47709 12.1807 7.34277 12.0463 7.34277 11.8807V9.31758C7.34277 9.15189 7.20846 9.01758 7.04277 9.01758H4.48066C4.31498 9.01758 4.18066 8.88326 4.18066 8.71758V7.9875C4.18066 7.82181 4.31498 7.6875 4.48066 7.6875H7.04375C7.20944 7.6875 7.34375 7.55319 7.34375 7.3875V4.84297C7.34375 4.67728 7.47806 4.54297 7.64375 4.54297H8.37383C8.53951 4.54297 8.67383 4.67728 8.67383 4.84297V7.3875Z" fill="#4F4F4F"/>
</svg>
