<svg width="17" height="16" viewBox="0 0 17 16" fill="none" xmlns="http://www.w3.org/2000/svg">
<path fill-rule="evenodd" clip-rule="evenodd" d="M9.11056 2.13901C9.55083 2.13901 9.97306 2.31391 10.2844 2.62522C10.5957 2.93653 10.7706 3.35877 10.7706 3.79903C10.7706 4.23929 10.5957 4.66153 10.2844 4.97284C9.97306 5.28415 9.55083 5.45905 9.11056 5.45905C8.6703 5.45905 8.24806 5.28415 7.93675 4.97284C7.62544 4.66153 7.45054 4.23929 7.45054 3.79903C7.45054 3.35877 7.62544 2.93653 7.93675 2.62522C8.24806 2.31391 8.6703 2.13901 9.11056 2.13901ZM6.54159 6.86513L6.96465 7.07717L5.53761 10.0891C5.48499 10.1949 5.32609 10.3006 5.22084 10.2475L3.79023 9.87759C3.36768 9.77182 2.94463 10.036 2.83938 10.459C2.73362 10.8816 2.99777 11.3046 3.42031 11.4104L4.85092 11.7803C5.00931 11.8329 5.1677 11.8329 5.32609 11.8329C6.11905 11.8329 6.80575 11.3578 7.0699 10.6174L7.17566 10.3006L8.44431 11.1462C8.47167 11.1479 8.49747 11.1596 8.51685 11.1789C8.53623 11.1983 8.54787 11.2241 8.54956 11.2515L9.28939 13.3851C9.44778 13.7019 9.71244 13.8608 10.0292 13.8608C10.135 13.8608 10.2407 13.8608 10.346 13.8082C10.769 13.5967 10.9279 13.1741 10.769 12.7511L10.0292 10.6174C9.87083 10.3006 9.6593 10.0365 9.34252 9.82496L7.80973 8.82098L8.39117 7.76386L9.131 8.13378C9.8182 8.45055 10.6638 8.3453 11.2447 7.76386L12.2191 6.77981C12.5358 6.46303 12.5358 5.98684 12.2191 5.67006C11.9023 5.35328 11.4266 5.35328 11.1093 5.67006L10.135 6.65412C10.0292 6.75988 9.92396 6.75988 9.8182 6.70725L8.39117 5.96743L7.2288 5.38598C6.75312 5.17446 6.27744 5.12183 5.80177 5.28022C5.3266 5.43861 4.95617 5.80852 4.74516 6.23158L4.00533 7.63511C3.84694 8.00502 4.00533 8.4807 4.37524 8.69223C4.77019 8.88945 5.19938 8.76273 5.43185 8.37494L6.17168 6.97141C6.27744 6.86564 6.43583 6.81251 6.54159 6.86513ZM11.0654 11.1462L10.8355 10.993L10.6326 10.409C10.6238 10.3831 10.613 10.3575 10.6004 10.3323C10.4002 9.93124 10.1197 9.57614 9.6966 9.2941L9.69251 9.29104L8.81064 8.71369L8.82086 8.69325L8.84539 8.70551L8.85561 8.71062L8.86327 8.7142C9.38095 8.95336 9.96406 9.01131 10.5187 8.87872L11.9636 9.82547C12.2809 10.037 12.4924 10.3006 12.6508 10.6179L13.3906 12.7516C13.549 13.1746 13.3906 13.5972 12.9681 13.8087C12.8623 13.8613 12.7566 13.8613 12.6508 13.8613C12.334 13.8613 12.0694 13.7029 11.911 13.3862L11.1712 11.252C11.1712 11.1994 11.1185 11.1462 11.0654 11.1462ZM13.7309 5.67006L13.0923 6.31486C13.0713 6.64543 12.9308 6.97038 12.6718 7.22994L11.7695 8.14144C12.4536 8.44902 13.29 8.3407 13.8663 7.76386L14.8407 6.77981C15.1574 6.46303 15.1574 5.98684 14.8407 5.67006C14.5234 5.35328 14.0477 5.35328 13.7309 5.67006ZM10.9034 2.36024C11.2315 2.76792 11.4101 3.27571 11.4092 3.79903C11.4092 4.19807 11.3076 4.5736 11.1282 4.90111C11.63 4.69163 12.2165 4.78768 12.6406 5.18876C13.0063 4.95403 13.2653 4.58526 13.3622 4.16164C13.459 3.73801 13.3858 3.29332 13.1584 2.92303C12.931 2.55274 12.5674 2.28639 12.1458 2.18117C11.7242 2.07595 11.2782 2.14024 10.9034 2.36024Z" fill="#E4E4E4"/>
</svg>
