<svg width="12" height="12" viewBox="0 0 12 12" fill="none" xmlns="http://www.w3.org/2000/svg">
<path d="M6 8.64167C6.70061 8.64167 7.37253 8.36335 7.86794 7.86794C8.36335 7.37253 8.64167 6.70061 8.64167 6C8.64167 5.29939 8.36335 4.62747 7.86794 4.13206C7.37253 3.63665 6.70061 3.35833 6 3.35833C5.29939 3.35833 4.62747 3.63665 4.13206 4.13206C3.63665 4.62747 3.35833 5.29939 3.35833 6C3.35833 6.70061 3.63665 7.37253 4.13206 7.86794C4.62747 8.36335 5.29939 8.64167 6 8.64167ZM6 1.37708C4.77392 1.37708 3.59807 1.86413 2.7311 2.7311C1.86413 3.59807 1.37708 4.77392 1.37708 6C1.37708 7.22608 1.86413 8.40194 2.7311 9.2689C3.59807 10.1359 4.77392 10.6229 6 10.6229C7.22608 10.6229 8.40194 10.1359 9.2689 9.2689C10.1359 8.40194 10.6229 7.22608 10.6229 6C10.6229 4.77392 10.1359 3.59807 9.2689 2.7311C8.40194 1.86413 7.22608 1.37708 6 1.37708ZM2.03749 6C2.03749 5.47964 2.13999 4.96437 2.33912 4.48361C2.53826 4.00286 2.83013 3.56604 3.19808 3.19808C3.56604 2.83013 4.00286 2.53826 4.48361 2.33912C4.96437 2.13999 5.47964 2.03749 6 2.03749C6.52036 2.03749 7.03563 2.13999 7.51639 2.33912C7.99714 2.53826 8.43396 2.83013 8.80192 3.19808C9.16987 3.56604 9.46174 4.00286 9.66088 4.48361C9.86001 4.96437 9.96251 5.47964 9.96251 6C9.96251 7.05092 9.54503 8.0588 8.80192 8.80192C8.0588 9.54503 7.05092 9.96251 6 9.96251C4.94908 9.96251 3.9412 9.54503 3.19808 8.80192C2.45497 8.0588 2.03749 7.05092 2.03749 6Z" fill="#E4E4E4"/>
</svg>
