<svg width="17" height="16" viewBox="0 0 17 16" fill="none" xmlns="http://www.w3.org/2000/svg">
<g clip-path="url(#clip0_161_5364)">
<path d="M14.1552 7.48702C14.0058 6.75343 13.7125 6.05672 13.2923 5.43712C12.8807 4.82669 12.3553 4.3013 11.7449 3.88966C11.1245 3.47094 10.428 3.17779 9.69495 3.02678C9.30976 2.94853 8.91754 2.91012 8.52449 2.91215V1.90585C8.52449 1.79541 8.39824 1.73253 8.31009 1.79906L6.13466 3.44089C6.06373 3.49443 6.06373 3.60095 6.13466 3.65449L8.31009 5.29632C8.39824 5.36285 8.52449 5.29997 8.52449 5.18952V4.18578C8.8327 4.1845 9.14092 4.2138 9.43831 4.27493C10.0081 4.39235 10.5494 4.62015 11.0316 4.9455C11.507 5.26591 11.9161 5.67499 12.2365 6.15035C12.7339 6.88606 12.9992 7.75409 12.9981 8.6422C12.9985 9.23824 12.8794 9.82831 12.6479 10.3775C12.5359 10.6423 12.3985 10.8957 12.2377 11.1341C12.0773 11.3717 11.8943 11.5932 11.6914 11.7957C11.0749 12.4109 10.2923 12.833 9.43959 13.0101C8.84659 13.1304 8.23549 13.1304 7.6425 13.0101C7.07246 12.8926 6.53096 12.6646 6.04855 12.3389C5.57378 12.0187 5.16514 11.6101 4.84498 11.1353C4.34812 10.3988 4.08268 9.53063 4.08271 8.6422H2.80908C2.80899 9.78457 3.15027 10.9009 3.78914 11.8479C4.20175 12.4568 4.72648 12.9815 5.33532 13.3941C6.28139 14.0344 7.39803 14.3756 8.54041 14.3735C8.92842 14.3739 9.31546 14.3348 9.69559 14.257C10.4285 14.1059 11.1246 13.8128 11.7449 13.3941C12.0492 13.1885 12.333 12.9541 12.5925 12.6942C12.8526 12.4346 13.0872 12.1506 13.2929 11.846C13.9328 10.9002 14.2738 9.78407 14.2717 8.6422C14.2721 8.25419 14.233 7.86714 14.1552 7.48702Z" fill="#4F4F4F"/>
</g>
<defs>
<clipPath id="clip0_161_5364">
<rect width="16" height="16.0003" fill="white" transform="translate(0.540527)"/>
</clipPath>
</defs>
</svg>
