<svg width="17" height="16" viewBox="0 0 17 16" fill="none" xmlns="http://www.w3.org/2000/svg">
<path fill-rule="evenodd" clip-rule="evenodd" d="M11.0017 8.46726C12.1862 8.46726 13.1464 9.42746 13.1464 10.6119C13.1464 11.7963 12.1862 12.7565 11.0017 12.7565C10.0176 12.7565 9.19089 12.093 8.9385 11.1894H4.73318C4.41425 11.1894 4.15568 10.9308 4.15568 10.6119C4.15568 10.293 4.41425 10.0344 4.73318 10.0344H8.9385C9.19089 9.13082 10.0176 8.46726 11.0017 8.46726ZM11.0017 9.62226C10.4552 9.62226 10.0121 10.0653 10.0121 10.6119C10.0121 11.1585 10.4552 11.6015 11.0017 11.6015C11.5483 11.6015 11.9914 11.1585 11.9914 10.6119C11.9914 10.0653 11.5483 9.62226 11.0017 9.62226Z" fill="#4F4F4F"/>
<path fill-rule="evenodd" clip-rule="evenodd" d="M5.77794 3.24347C6.76203 3.24347 7.58878 3.90703 7.84117 4.8106H12.0465C12.3654 4.8106 12.624 5.06918 12.624 5.3881C12.624 5.70703 12.3654 5.9656 12.0465 5.9656H7.84117C7.58878 6.86918 6.76203 7.53274 5.77794 7.53274C4.59351 7.53274 3.6333 6.57254 3.6333 5.3881C3.6333 4.20367 4.59351 3.24347 5.77794 3.24347ZM5.77794 4.39847C5.23136 4.39847 4.7883 4.84152 4.7883 5.3881C4.7883 5.93468 5.23136 6.37774 5.77794 6.37774C6.32452 6.37774 6.76758 5.93468 6.76758 5.3881C6.76758 4.84152 6.32452 4.39847 5.77794 4.39847Z" fill="#4F4F4F"/>
</svg>
