<svg width="17" height="16" viewBox="0 0 17 16" fill="none" xmlns="http://www.w3.org/2000/svg">
<path fill-rule="evenodd" clip-rule="evenodd" d="M8.21996 9.37108C8.58324 9.37108 8.93163 9.22677 9.18851 8.9699C9.44539 8.71302 9.5897 8.36462 9.5897 8.00135C9.5897 7.63807 9.44539 7.28967 9.18851 7.03279C8.93163 6.77592 8.58324 6.63161 8.21996 6.63161C7.85668 6.63161 7.50828 6.77592 7.25141 7.03279C6.99453 7.28967 6.85022 7.63807 6.85022 8.00135C6.85022 8.36462 6.99453 8.71302 7.25141 8.9699C7.50828 9.22677 7.85668 9.37108 8.21996 9.37108Z" fill="#9B9B9B"/>
<path opacity="0.7" fill-rule="evenodd" clip-rule="evenodd" d="M5.26039 5.15098C5.54803 4.85237 6.0247 4.95921 6.23016 5.319C6.40366 5.62034 6.31874 5.99839 6.09867 6.26868C5.69892 6.75785 5.48053 7.37013 5.48046 8.00186C5.48046 8.65933 5.7124 9.26293 6.09867 9.73503C6.31874 10.0053 6.40275 10.3834 6.23016 10.6847C6.0247 11.0445 5.54803 11.1513 5.26039 10.8527C4.52277 10.087 4.11068 9.0651 4.11072 8.00186C4.11072 6.8942 4.54812 5.88972 5.26039 5.15098ZM10.2106 5.319C10.0371 5.62034 10.1211 5.99839 10.3421 6.26868C10.7275 6.73987 10.9594 7.34438 10.9594 8.00186C10.9594 8.65933 10.7275 9.26293 10.3412 9.73503C10.1202 10.0053 10.0371 10.3834 10.2097 10.6847C10.4152 11.0445 10.8918 11.1513 11.1795 10.8527C11.9171 10.087 12.3292 9.0651 12.3292 8.00186C12.3292 6.8942 11.8908 5.88972 11.1786 5.15098C10.8918 4.85237 10.4161 4.95921 10.2106 5.319Z" fill="#9B9B9B"/>
<path opacity="0.3" fill-rule="evenodd" clip-rule="evenodd" d="M3.89245 2.69223C4.20018 2.44203 4.64946 2.5516 4.84579 2.89587C5.02568 3.20999 4.92797 3.60539 4.65402 3.84099C4.05346 4.35502 3.57144 4.99312 3.24118 5.71134C2.91092 6.42955 2.74026 7.21083 2.74096 8.00134C2.74026 8.79185 2.91092 9.57312 3.24118 10.2913C3.57144 11.0096 4.05346 11.6477 4.65402 12.1617C4.92797 12.3973 5.02568 12.7918 4.84579 13.1059C4.64946 13.4511 4.20018 13.5606 3.89245 13.3095C3.10414 12.6677 2.46882 11.8582 2.03268 10.94C1.59655 10.0218 1.37058 9.01788 1.37122 8.00134C1.37045 6.98464 1.59635 5.98056 2.03249 5.06216C2.46862 4.14376 3.10402 3.33415 3.89245 2.69223ZM11.594 2.89587C11.4141 3.20999 11.5118 3.60539 11.7858 3.84099C12.3864 4.35502 12.8684 4.99312 13.1986 5.71134C13.5289 6.42955 13.6996 7.21083 13.6989 8.00134C13.6996 8.79185 13.5289 9.57312 13.1986 10.2913C12.8684 11.0096 12.3864 11.6477 11.7858 12.1617C11.5118 12.3973 11.4141 12.7918 11.594 13.1059C11.7904 13.4511 12.2396 13.5606 12.5474 13.3095C13.3357 12.6677 13.971 11.8582 14.4071 10.94C14.8433 10.0218 15.0692 9.01788 15.0686 8.00134C15.0694 6.98464 14.8435 5.98056 14.4073 5.06216C13.9712 4.14376 13.3358 3.33415 12.5474 2.69223C12.2396 2.44203 11.7904 2.5516 11.594 2.89587Z" fill="#9B9B9B"/>
</svg>
