<svg width="17" height="16" viewBox="0 0 17 16" fill="none" xmlns="http://www.w3.org/2000/svg">
<path fill-rule="evenodd" clip-rule="evenodd" d="M8.17828 9.13334C8.47851 9.13334 8.76644 9.01407 8.97874 8.80178C9.19103 8.58948 9.3103 8.30155 9.3103 8.00132C9.3103 7.70109 9.19103 7.41316 8.97874 7.20086C8.76644 6.98857 8.47851 6.8693 8.17828 6.8693C7.87805 6.8693 7.59012 6.98857 7.37782 7.20086C7.16553 7.41316 7.04626 7.70109 7.04626 8.00132C7.04626 8.30155 7.16553 8.58948 7.37782 8.80178C7.59012 9.01407 7.87805 9.13334 8.17828 9.13334Z" fill="#34C759"/>
<path opacity="0.7" fill-rule="evenodd" clip-rule="evenodd" d="M5.73224 5.64565C5.96997 5.39887 6.36391 5.48716 6.53371 5.78451C6.6771 6.03355 6.60691 6.34599 6.42504 6.56937C6.09467 6.97364 5.91418 7.47966 5.91412 8.00175C5.91412 8.54511 6.10581 9.04396 6.42504 9.43412C6.60691 9.65751 6.67634 9.96994 6.53371 10.219C6.36391 10.5163 5.96997 10.6046 5.73224 10.3578C5.12264 9.72498 4.78207 8.88046 4.7821 8.00175C4.7821 7.08632 5.14359 6.25618 5.73224 5.64565ZM9.82335 5.78451C9.67996 6.03355 9.74939 6.34599 9.93202 6.56937C10.2505 6.95878 10.4422 7.45838 10.4422 8.00175C10.4422 8.54511 10.2505 9.04396 9.93127 9.43412C9.74863 9.65751 9.67996 9.96994 9.82259 10.219C9.99239 10.5163 10.3863 10.6046 10.6241 10.3578C11.2337 9.72498 11.5742 8.88046 11.5742 8.00175C11.5742 7.08632 11.212 6.25618 10.6233 5.64565C10.3863 5.39887 9.99315 5.48716 9.82335 5.78451Z" fill="#34C759"/>
<path opacity="0.3" fill-rule="evenodd" clip-rule="evenodd" d="M4.60185 3.61362C4.85618 3.40684 5.22748 3.4974 5.38974 3.78192C5.53841 4.04153 5.45766 4.3683 5.23125 4.56301C4.73492 4.98783 4.33656 5.51518 4.06361 6.10875C3.79067 6.70232 3.64963 7.348 3.65021 8.00132C3.64963 8.65463 3.79067 9.30031 4.06361 9.89388C4.33656 10.4874 4.73492 11.0148 5.23125 11.4396C5.45766 11.6343 5.53841 11.9604 5.38974 12.22C5.22748 12.5052 4.85618 12.5958 4.60185 12.3883C3.95036 11.8578 3.4253 11.1888 3.06486 10.43C2.70442 9.6711 2.51767 8.84143 2.51819 8.00132C2.51755 7.16107 2.70425 6.33125 3.06469 5.57225C3.42514 4.81324 3.95026 4.14413 4.60185 3.61362ZM10.9668 3.78192C10.8181 4.04153 10.8989 4.3683 11.1253 4.56301C11.6216 4.98783 12.02 5.51518 12.2929 6.10875C12.5659 6.70232 12.7069 7.348 12.7063 8.00132C12.7069 8.65463 12.5659 9.30031 12.2929 9.89388C12.02 10.4874 11.6216 11.0148 11.1253 11.4396C10.8989 11.6343 10.8181 11.9604 10.9668 12.22C11.1291 12.5052 11.5004 12.5958 11.7547 12.3883C12.4062 11.8578 12.9312 11.1888 13.2917 10.43C13.6521 9.6711 13.8389 8.84143 13.8383 8.00132C13.839 7.16107 13.6523 6.33125 13.2918 5.57225C12.9314 4.81324 12.4063 4.14413 11.7547 3.61362C11.5004 3.40684 11.1291 3.4974 10.9668 3.78192Z" fill="#34C759"/>
</svg>
