<svg width="17" height="16" viewBox="0 0 17 16" fill="none" xmlns="http://www.w3.org/2000/svg">
<path fill-rule="evenodd" clip-rule="evenodd" d="M8.21991 9.13334C8.52014 9.13334 8.80807 9.01407 9.02036 8.80178C9.23266 8.58948 9.35192 8.30155 9.35192 8.00132C9.35192 7.70109 9.23266 7.41316 9.02036 7.20086C8.80807 6.98857 8.52014 6.8693 8.21991 6.8693C7.91968 6.8693 7.63174 6.98857 7.41945 7.20086C7.20716 7.41316 7.08789 7.70109 7.08789 8.00132C7.08789 8.30155 7.20716 8.58948 7.41945 8.80178C7.63174 9.01407 7.91968 9.13334 8.21991 9.13334Z" fill="#9B9B9B"/>
<path opacity="0.7" fill-rule="evenodd" clip-rule="evenodd" d="M5.77399 5.64565C6.01171 5.39887 6.40566 5.48716 6.57546 5.78451C6.71885 6.03355 6.64866 6.34599 6.46678 6.56937C6.13642 6.97364 5.95593 7.47966 5.95587 8.00175C5.95587 8.54511 6.14756 9.04396 6.46678 9.43412C6.64866 9.65751 6.71809 9.96994 6.57546 10.219C6.40566 10.5163 6.01171 10.6046 5.77399 10.3578C5.16439 9.72498 4.82382 8.88046 4.82385 8.00175C4.82385 7.08632 5.18534 6.25618 5.77399 5.64565ZM9.86509 5.78451C9.72171 6.03355 9.79114 6.34599 9.97377 6.56937C10.2922 6.95878 10.4839 7.45838 10.4839 8.00175C10.4839 8.54511 10.2922 9.04396 9.97301 9.43412C9.79038 9.65751 9.72171 9.96994 9.86434 10.219C10.0341 10.5163 10.4281 10.6046 10.6658 10.3578C11.2754 9.72498 11.616 8.88046 11.6159 8.00175C11.6159 7.08632 11.2537 6.25618 10.6651 5.64565C10.4281 5.39887 10.0349 5.48716 9.86509 5.78451Z" fill="#9B9B9B"/>
<path opacity="0.3" fill-rule="evenodd" clip-rule="evenodd" d="M4.64348 3.61362C4.8978 3.40684 5.26911 3.4974 5.43136 3.78192C5.58003 4.04153 5.49928 4.3683 5.27288 4.56301C4.77654 4.98783 4.37818 5.51518 4.10524 6.10875C3.8323 6.70232 3.69126 7.348 3.69183 8.00132C3.69126 8.65463 3.8323 9.30031 4.10524 9.89388C4.37818 10.4874 4.77654 11.0148 5.27288 11.4396C5.49928 11.6343 5.58003 11.9604 5.43136 12.22C5.26911 12.5052 4.8978 12.5958 4.64348 12.3883C3.99199 11.8578 3.46692 11.1888 3.10648 10.43C2.74604 9.6711 2.55929 8.84143 2.55982 8.00132C2.55918 7.16107 2.74588 6.33125 3.10632 5.57225C3.46676 4.81324 3.99189 4.14413 4.64348 3.61362ZM11.0084 3.78192C10.8598 4.04153 10.9405 4.3683 11.1669 4.56301C11.6632 4.98783 12.0616 5.51518 12.3345 6.10875C12.6075 6.70232 12.7485 7.348 12.748 8.00132C12.7485 8.65463 12.6075 9.30031 12.3345 9.89388C12.0616 10.4874 11.6632 11.0148 11.1669 11.4396C10.9405 11.6343 10.8598 11.9604 11.0084 12.22C11.1707 12.5052 11.542 12.5958 11.7963 12.3883C12.4478 11.8578 12.9729 11.1888 13.3333 10.43C13.6937 9.6711 13.8805 8.84143 13.88 8.00132C13.8806 7.16107 13.6939 6.33125 13.3335 5.57225C12.973 4.81324 12.4479 4.14413 11.7963 3.61362C11.542 3.40684 11.1707 3.4974 11.0084 3.78192Z" fill="#9B9B9B"/>
</svg>
