<svg width="17" height="16" viewBox="0 0 17 16" fill="none" xmlns="http://www.w3.org/2000/svg">
<path fill-rule="evenodd" clip-rule="evenodd" d="M8.17833 9.37108C8.54161 9.37108 8.89001 9.22677 9.14688 8.9699C9.40376 8.71302 9.54807 8.36462 9.54807 8.00135C9.54807 7.63807 9.40376 7.28967 9.14688 7.03279C8.89001 6.77592 8.54161 6.63161 8.17833 6.63161C7.81506 6.63161 7.46666 6.77592 7.20978 7.03279C6.9529 7.28967 6.80859 7.63807 6.80859 8.00135C6.80859 8.36462 6.9529 8.71302 7.20978 8.9699C7.46666 9.22677 7.81506 9.37108 8.17833 9.37108Z" fill="#34C759"/>
<path opacity="0.7" fill-rule="evenodd" clip-rule="evenodd" d="M5.21864 5.15098C5.50628 4.85237 5.98295 4.95921 6.18841 5.319C6.36191 5.62034 6.27699 5.99839 6.05692 6.26868C5.65718 6.75785 5.43878 7.37013 5.43871 8.00186C5.43871 8.65933 5.67065 9.26293 6.05692 9.73503C6.27699 10.0053 6.361 10.3834 6.18841 10.6847C5.98295 11.0445 5.50628 11.1513 5.21864 10.8527C4.48102 10.087 4.06893 9.0651 4.06897 8.00186C4.06897 6.8942 4.50637 5.88972 5.21864 5.15098ZM10.1689 5.319C9.99537 5.62034 10.0794 5.99839 10.3004 6.26868C10.6857 6.73987 10.9177 7.34438 10.9177 8.00186C10.9177 8.65933 10.6857 9.26293 10.2995 9.73503C10.0785 10.0053 9.99537 10.3834 10.168 10.6847C10.3734 11.0445 10.8501 11.1513 11.1377 10.8527C11.8754 10.087 12.2874 9.0651 12.2874 8.00186C12.2874 6.8942 11.8491 5.88972 11.1368 5.15098C10.8501 4.85237 10.3743 4.95921 10.1689 5.319Z" fill="#34C759"/>
<path opacity="0.3" fill-rule="evenodd" clip-rule="evenodd" d="M3.85082 2.69223C4.15856 2.44203 4.60783 2.5516 4.80416 2.89587C4.98405 3.20999 4.88635 3.60539 4.6124 3.84099C4.01183 4.35502 3.52982 4.99312 3.19955 5.71134C2.86929 6.42955 2.69863 7.21083 2.69933 8.00134C2.69863 8.79185 2.86929 9.57312 3.19955 10.2913C3.52982 11.0096 4.01183 11.6477 4.6124 12.1617C4.88635 12.3973 4.98405 12.7918 4.80416 13.1059C4.60783 13.4511 4.15856 13.5606 3.85082 13.3095C3.06252 12.6677 2.42719 11.8582 1.99106 10.94C1.55493 10.0218 1.32896 9.01788 1.32959 8.00134C1.32882 6.98464 1.55472 5.98056 1.99086 5.06216C2.427 4.14376 3.0624 3.33415 3.85082 2.69223ZM11.5524 2.89587C11.3725 3.20999 11.4702 3.60539 11.7442 3.84099C12.3447 4.35502 12.8268 4.99312 13.157 5.71134C13.4873 6.42955 13.6579 7.21083 13.6572 8.00134C13.6579 8.79185 13.4873 9.57312 13.157 10.2913C12.8268 11.0096 12.3447 11.6477 11.7442 12.1617C11.4702 12.3973 11.3725 12.7918 11.5524 13.1059C11.7487 13.4511 12.198 13.5606 12.5057 13.3095C13.2941 12.6677 13.9294 11.8582 14.3655 10.94C14.8016 10.0218 15.0276 9.01788 15.027 8.00134C15.0277 6.98464 14.8018 5.98056 14.3657 5.06216C13.9296 4.14376 13.2942 3.33415 12.5057 2.69223C12.198 2.44203 11.7487 2.5516 11.5524 2.89587Z" fill="#34C759"/>
</svg>
