<svg width="17" height="16" viewBox="0 0 17 16" fill="none" xmlns="http://www.w3.org/2000/svg">
<path fill-rule="evenodd" clip-rule="evenodd" d="M5.78247 3.60645C6.10749 3.63632 6.41564 3.76901 6.66235 3.98633L7.85181 5.03223C7.95129 5.1199 8.07957 5.16872 8.21216 5.16895H12.05C12.46 5.16895 12.8539 5.33129 13.1438 5.62109C13.4337 5.91101 13.5969 6.30484 13.5969 6.71484V11.4004C13.5969 11.9527 13.1492 12.4004 12.5969 12.4004H4.72876C4.31887 12.4003 3.92584 12.2371 3.63599 11.9473C3.34618 11.6574 3.18289 11.2644 3.18286 10.8545V5.14551C3.18288 4.73558 3.34615 4.34263 3.63599 4.05273C3.92584 3.76288 4.31886 3.59969 4.72876 3.59961H5.64185L5.78247 3.60645ZM12.5969 6.71484V10.9004C12.5969 11.1765 12.3731 11.4004 12.0969 11.4004H4.72876C4.58409 11.4003 4.44533 11.3425 4.34302 11.2402C4.24074 11.1379 4.18289 10.9992 4.18286 10.8545V5.14551C4.18288 5.00079 4.24072 4.86212 4.34302 4.75977C4.44533 4.65745 4.58407 4.59969 4.72876 4.59961H5.64087L5.7395 4.6084C5.83632 4.62616 5.92743 4.67044 6.0022 4.73633L7.19067 5.78223L7.30005 5.87012C7.56371 6.06304 7.88304 6.16875 8.21216 6.16895H12.05C12.1948 6.16895 12.3344 6.22586 12.4368 6.32812C12.5391 6.4305 12.5969 6.57006 12.5969 6.71484Z" fill="#4F4F4F"/>
</svg>
