<svg width="17" height="16" viewBox="0 0 17 16" fill="none" xmlns="http://www.w3.org/2000/svg">
<path d="M10.5698 7.57447C10.8864 7.76982 10.8864 8.23018 10.5698 8.42552L7.88498 10.082C7.55186 10.2875 7.12244 10.0479 7.12244 9.65648L7.12244 6.34351C7.12244 5.95209 7.55186 5.71246 7.88498 5.91799L10.5698 7.57447Z" fill="#4F4F4F"/>
<path d="M8.60982 14.5565C12.1903 14.5565 15.1663 11.5868 15.1663 8C15.1663 4.41951 12.1837 1.44349 8.60324 1.44349C5.01672 1.44349 2.05359 4.41951 2.05359 8C2.05359 11.5868 5.02302 14.5565 8.60982 14.5565ZM8.6101 13.4638C5.57566 13.4638 3.15201 11.0339 3.15201 8C3.15201 4.97215 5.56908 2.53615 8.60324 2.53615C11.6308 2.53615 14.0668 4.97242 14.0734 8C14.0797 11.0342 11.6377 13.4638 8.6101 13.4638Z" fill="#4F4F4F"/>
</svg>
