<svg width="17" height="16" viewBox="0 0 17 16" fill="none" xmlns="http://www.w3.org/2000/svg">
<path d="M6.51491 4.34911C7.26396 3.05172 9.13658 3.05172 9.88563 4.34911L12.9774 9.70416C13.7264 11.0015 12.7901 12.6233 11.292 12.6233H5.10853C3.61044 12.6233 2.67413 11.0015 3.42317 9.70416L6.51491 4.34911Z" fill="#E64900"/>
<path d="M8.27494 5.2571C8.74929 5.2571 9.11834 5.6694 9.06598 6.14086L8.73856 9.08877C8.71232 9.32502 8.51264 9.50375 8.27494 9.50375C8.03724 9.50375 7.83756 9.32502 7.81132 9.08877L7.4839 6.14086C7.43154 5.6694 7.80059 5.2571 8.27494 5.2571Z" fill="#060606"/>
<circle cx="8.27494" cy="10.6453" r="0.584025" fill="#060606"/>
</svg>
